<svg xmlns="http://www.w3.org/2000/svg" width="20.315" height="24.3" viewBox="0 0 20.315 24.3">
  <g id="Group_11314" data-name="Group 11314" transform="translate(-42.5 0.15)">
    <g id="Group_11309" data-name="Group 11309" transform="translate(42.657 3.5)">
      <g id="Group_11308" data-name="Group 11308">
        <path id="Path_19311" data-name="Path 19311" d="M62.587,91.41l-1.718-2.862a8.507,8.507,0,0,1-1.211-4.374V81.667a7,7,0,0,0-14,0v2.507a8.507,8.507,0,0,1-1.211,4.374L42.729,91.41a.5.5,0,0,0,.429.757h19a.5.5,0,0,0,.429-.757Zm-18.546-.243L45.3,89.062a9.5,9.5,0,0,0,1.354-4.888V81.667a6,6,0,0,1,12,0v2.507a9.507,9.507,0,0,0,1.353,4.888l1.264,2.105Z" transform="translate(-42.657 -74.667)" fill="#fff" stroke="#fff" stroke-width="0.3"/>
      </g>
    </g>
    <g id="Group_11311" data-name="Group 11311" transform="translate(50.658)">
      <g id="Group_11310" data-name="Group 11310">
        <path id="Path_19312" data-name="Path 19312" d="M215.333,0a2,2,0,0,0-2,2V4a.5.5,0,0,0,1,0V2a1,1,0,1,1,2,0V4a.5.5,0,0,0,1,0V2A2,2,0,0,0,215.333,0Z" transform="translate(-213.333)" fill="#fff" stroke="#fff" stroke-width="0.3"/>
      </g>
    </g>
    <g id="Group_11313" data-name="Group 11313" transform="translate(50.158 20.001)">
      <g id="Group_11312" data-name="Group 11312">
        <path id="Path_19313" data-name="Path 19313" d="M207.33,426.926a.5.5,0,1,0-.864.506,1.5,1.5,0,1,1-2.6,0,.5.5,0,1,0-.864-.506,2.5,2.5,0,1,0,4.326,0Z" transform="translate(-202.666 -426.68)" fill="#fff" stroke="#fff" stroke-width="0.3"/>
      </g>
    </g>
  </g>
</svg>
