<svg xmlns="http://www.w3.org/2000/svg" width="29" height="33.165" viewBox="0 0 29 33.165">
  <g id="Group_11307" data-name="Group 11307" transform="translate(-24 -597.835)">
    <g id="Group_3536" data-name="Group 3536" transform="translate(29 598)">
      <g id="Group_3247" data-name="Group 3247" transform="translate(0 0)">
        <g id="Group_1737" data-name="Group 1737" transform="translate(0 0)">
          <g id="Group_1636" data-name="Group 1636">
            <path id="Path_1886" data-name="Path 1886" d="M19.753,7.091,10.273.15a.522.522,0,0,0-.613,0L.176,7.091a.52.52,0,0,0,.613.84L9.965,1.212l9.171,6.714a.528.528,0,0,0,.3.1.52.52,0,0,0,.418-.211A.514.514,0,0,0,19.753,7.091Z" transform="translate(0.036 -0.05)" fill="#ff4d4d" stroke="#ff4d4d" stroke-width="0.3"/>
            <path id="Path_1887" data-name="Path 1887" d="M71.566,204.7a.522.522,0,0,0-.519.52v8.269H66.89v-4.511a2.6,2.6,0,1,0-5.195,0v4.515H57.539V205.22a.52.52,0,1,0-1.039,0v8.792a.522.522,0,0,0,.52.52h5.2a.523.523,0,0,0,.52-.48c0-.012,0-.027,0-.039v-5.035a1.559,1.559,0,1,1,3.117,0v5.035a.121.121,0,0,0,0,.039.52.52,0,0,0,.52.48h5.2a.522.522,0,0,0,.519-.52V205.22A.531.531,0,0,0,71.566,204.7Z" transform="translate(-54.292 -196.706)" fill="#ff4d4d" stroke="#ff4d4d" stroke-width="0.3"/>
          </g>
        </g>
      </g>
    </g>
    <text id="Beranda" transform="translate(24 629)" fill="#ff4d4d" font-size="8" font-family="SourceSansPro-Regular, Source Sans Pro"><tspan x="0" y="0">Beranda</tspan></text>
  </g>
</svg>
