<svg xmlns="http://www.w3.org/2000/svg" width="120.102" height="202.609" viewBox="0 0 120.102 202.609">
  <g id="Group_16577" data-name="Group 16577" transform="translate(-120 -104)">
    <g id="Group_16551" data-name="Group 16551" transform="translate(-286.955 -282.358)">
      <g id="Group_16533" data-name="Group 16533" transform="translate(431.152 386.358)">
        <g id="Group_16532" data-name="Group 16532" transform="translate(23.966)">
          <path id="Path_32842" data-name="Path 32842" d="M477.3,418.4a17.841,17.841,0,1,0-3.406-25A17.84,17.84,0,0,0,477.3,418.4Z" transform="translate(-470.255 -386.358)" fill="#7ebc6f"/>
          <path id="Path_32843" data-name="Path 32843" d="M486.661,408.83a43.717,43.717,0,0,1,4.041,2.429l6.671-8.371" transform="translate(-474.178 -390.311)" fill="none" stroke="#fff" stroke-linecap="round" stroke-linejoin="round" stroke-width="2.24"/>
        </g>
        <path id="Path_32844" data-name="Path 32844" d="M487.066,458.056c-.6-.12-.056-1.08-.505-1.433s-1.868-.075-2.121-.568l0-.006c-.017-.033-.033-.068-.049-.1a3.877,3.877,0,0,1-.323-1.023.347.347,0,0,1-.008-.056c-.03-.2-.7-2.639-.7-2.843l2.008-5.563a11.324,11.324,0,0,0,.027-2.222,13.962,13.962,0,0,0-1.067-3.78c-1.7-.342-2.591-2.087-2.735-3.75a3.952,3.952,0,0,1,.066-1.138c.435-2.108,3.909-6.126,5.343-4.555,1.777,1.946,3.476,7.147,3.476,7.147h0l2.64,10.1c.782,2.564.96,4.424.613,4.522-1.637.462-3.807,5.08-5.38,5.306A3.779,3.779,0,0,1,487.066,458.056Z" transform="translate(-448.997 -396.952)" fill="#8d4b3c"/>
        <ellipse id="Ellipse_1371" data-name="Ellipse 1371" cx="34.938" cy="2.695" rx="34.938" ry="2.695" transform="translate(0 197.219)" fill="#f9ebe2"/>
        <path id="Path_32845" data-name="Path 32845" d="M460.191,602.246s-7.091,4.848-6.253,7.29,5.853,12.331,3.839,11.616-11.022-10.529-8.809-13.234,6.906-9.447,8.166-9.251S461.887,600.986,460.191,602.246Z" transform="translate(-441.115 -437.127)" fill="#d8806c"/>
        <path id="Path_32846" data-name="Path 32846" d="M454.165,612.216s-.826-.824-1.6-.367-2.289-.22-2.635-2.608c0,0-2.712,1.2-1.916,2.967s8.42,13.666,9.953,11.408S455.515,616.8,454.165,612.216Z" transform="translate(-440.936 -439.656)" fill="#1d2c63"/>
        <path id="Path_32847" data-name="Path 32847" d="M489.475,604.09s-7.088,5.014-6.187,7.392,6.2,11.952,4.142,11.315-11.4-10-9.217-12.742,6.8-9.539,8.085-9.388S491.169,602.792,489.475,604.09Z" transform="translate(-448.113 -437.606)" fill="#d8806c"/>
        <path id="Path_32848" data-name="Path 32848" d="M483.107,614.405s-.883-.751-1.64-.249-2.336-.059-2.818-2.379c0,0-2.687,1.366-1.783,3.045s9.3,12.828,10.73,10.506S484.728,618.813,483.107,614.405Z" transform="translate(-447.825 -440.263)" fill="#1d2c63"/>
        <path id="Path_32849" data-name="Path 32849" d="M491.369,509.5s2.184,7.555,4.249,16.277a121.937,121.937,0,0,1,3.052,25.963c0,21.882-14.7,33.3-15.692,33.4s-5.187-3.451-5.559-4.739,6.772-14.713,4.911-26.891c-1.238-8.1-3.682-26.555-5.646-25.962-1.936.727,5.513,37.771-15.746,55.322,0,0-5.13-3.207-4.751-5.05s6.878-12.5,3.794-31.459c-.874-5.375-1.484-11.388-1.975-16.359-.73-7.388-1.168-13.117-1.588-16.233Z" transform="translate(-442.92 -415.804)" fill="#122354"/>
        <path id="Path_32850" data-name="Path 32850" d="M460.361,409.038a10.265,10.265,0,0,0,2.156-4.987c.154-2.549,1.181-6.741,4.58-4.849,4.606,2.563,3.58,4.959,3.426,6.733s-3.7,2.272-4.568,3.324-3.9,5.985-4.567,6.262S457.282,413.25,460.361,409.038Z" transform="translate(-443.621 -389.316)" fill="#d06852"/>
        <path id="Path_32851" data-name="Path 32851" d="M510.785,436.163a10.1,10.1,0,0,1-2.119-4.9c-.151-2.506-1.429-5.588-4.592-5.121-5.819.859-3.988,5.372-3.279,6.973.958,2.165,3.632,2.234,4.491,3.269s4.583,9.343,5.239,9.615S513.813,440.3,510.785,436.163Z" transform="translate(-453.391 -395.86)" fill="#d06852"/>
        <path id="Path_32852" data-name="Path 32852" d="M457.792,409.807a44.219,44.219,0,0,0-5.619,6.588c-3.162,4.391-7.667,12.506-7.727,21.564-.046,6.925,8.02,13.776,8.186,28.412.069,6.113.453,20.2.915,22.557.469,2.383,35.942.109,35.2-2.583-.711-2.585-2.288-13.415-3.492-23.725-.833-7.134,9.1-8.238,16.474-11.057,2.583-.988,5.7-1.265,2.7-8.023-1.988-4.487-7.448-15.179-9.2-15.007s-3.911,1.328-3.5,3.764c.633,3.7,5.576,10.312,3.995,11.431s-10.268,2.353-17.238,4.789a13.108,13.108,0,0,0-2.636,1.351,7.545,7.545,0,0,1-3.964,1.408,6.759,6.759,0,0,1-3.864-.793,8.614,8.614,0,0,1-2.823-1.607c-3.449-3.206-11.336-9.066-10.669-15.7,1.048-10.438,8.488-16.911,7.073-19.666A8.127,8.127,0,0,0,457.792,409.807Z" transform="translate(-440.117 -391.966)" fill="#f4a95e"/>
        <path id="Path_32853" data-name="Path 32853" d="M472.757,447.925s-3.8-.145-3.3-3.1-2.14-2.178-2.331-4.629,2.2-2.405,2.414-6.035,1.559-5.128,4.439-5.659a11.315,11.315,0,0,1,7.8.88c3.585,1.629,1.852,2.44,2.388,3.492a23.314,23.314,0,0,1,2.083,7.191c.439,2.852,1.366,2.493-1.283,4.353s-2.185,1.634-4.077,1.361S476.515,448.117,472.757,447.925Z" transform="translate(-445.539 -396.362)" fill="#8d4b3c"/>
        <path id="Path_32854" data-name="Path 32854" d="M482.394,455.737s-.172-2.293-.172-4.692c0-1.08,3.056-.27,3.029-6.77-.017-4.119-.336-9.863-5.1-9.924s-7.565,1.513-8.126,7.141c-.3,3.034-.847,7.45,1.446,8.593,1.884.94.446,3.7.32,6.06A7.837,7.837,0,0,0,482.394,455.737Z" transform="translate(-446.644 -397.835)" fill="#d06852"/>
        <path id="Path_32855" data-name="Path 32855" d="M480.667,448.056a9.532,9.532,0,0,0,3.5-.31.122.122,0,0,1,.161.128,1.861,1.861,0,0,1-1.9,1.815,1.781,1.781,0,0,1-1.888-1.487A.124.124,0,0,1,480.667,448.056Z" transform="translate(-448.746 -401.037)" fill="#fff"/>
        <path id="Path_32856" data-name="Path 32856" d="M479.194,436.979c-3.212,2.725-5.379,1.534-6.251.848-.316-.248-.963-.305-.768-.657a7.805,7.805,0,0,1,6.452-3.584c.592-.035,1.542-.215,1.7.356A2.721,2.721,0,0,1,479.194,436.979Z" transform="translate(-446.739 -397.639)" fill="#8d4b3c"/>
        <path id="Path_32857" data-name="Path 32857" d="M467.913,458.431c3.764-.87,4.5-3.154,4.561-3.546,0,0,.008-1.032.008-1.032.029-.218-.018-2.891.055-6.628.043-2.181-.005-4.568-.005-4.662.005-3.269,1.093-5.028,1.754-5.424.333-.2.862-.589.772-1.013-.495-2.324-4.237-6.8-5.732-5.093-1.852,2.111-3.568,7.8-3.568,7.8h0L462.535,452.5a4.423,4.423,0,0,0-.109.459,4.47,4.47,0,0,0,.033,1.713,5.493,5.493,0,0,0,4.092,3.772A3.515,3.515,0,0,0,467.913,458.431Z" transform="translate(-444.4 -396.951)" fill="#8d4b3c"/>
        <path id="Path_32858" data-name="Path 32858" d="M467.493,513.053c-.552,6.384-3.93,11.25-9.768,14.6l-1.428-14.6Z" transform="translate(-442.951 -416.655)" fill="#f4a95e"/>
        <path id="Path_32859" data-name="Path 32859" d="M489.205,510.9c2.9,5.939,6.729,9.169,13.511,11.562-1.061-4.848-1.656-6.639-3.307-12.24Z" transform="translate(-450.82 -415.978)" fill="#f4a95e"/>
      </g>
      <g id="Group_16541" data-name="Group 16541" transform="translate(428.375 456.629)">
        <g id="Phone" transform="translate(0 0)">
          <rect id="Rectangle_6574" data-name="Rectangle 6574" width="71.683" height="129.428" rx="4" fill="#354c9a"/>
          <g id="Group_16534" data-name="Group 16534" transform="translate(4.553 7.584)">
            <rect id="Rectangle_6575" data-name="Rectangle 6575" width="62.325" height="113.498" rx="3.36" transform="translate(0 0)" fill="#405aa7"/>
            <path id="Path_32860" data-name="Path 32860" d="M444.789,522.1l33.475-32.924h19.544l-53.018,52.146Zm0,77.887V600l62.324-60.851V503.735l-62.325,61.228Z" transform="translate(-444.789 -489.181)" fill="#506fbc"/>
          </g>
        </g>
        <g id="Bill" transform="translate(13.847 24.148)">
          <path id="Path_32861" data-name="Path 32861" d="M482.426,589.934V519.282c0-4.877-1-8.831-2.24-8.831H453.3v1.325c1.237,0,2.24,3.954,2.24,8.831v69.327c0,4.877,2.926,8.831,11.2,8.831h17.921C483.429,598.766,482.426,594.812,482.426,589.934Z" transform="translate(-453.305 -510.451)" fill="#2d468c"/>
          <path id="Path_32862" data-name="Path 32862" d="M502.586,582.134V519.412c0-4.949-2.006-8.961-4.48-8.961H453.3c2.474,0,4.48,4.012,4.48,8.961v62.722c0,4.949,2.006,8.961,4.48,8.961h44.8C504.593,591.095,502.586,587.083,502.586,582.134Z" transform="translate(-453.305 -510.451)" fill="#f9f9f9"/>
          <g id="Group_16537" data-name="Group 16537" transform="translate(9.856 7.616)">
            <path id="Path_32863" data-name="Path 32863" d="M495.111,524.045H476.295a1.792,1.792,0,1,1,0-3.584h18.816a1.792,1.792,0,1,1,0,3.584Z" transform="translate(-468.23 -520.461)" fill="#4f80a3"/>
            <g id="Group_16535" data-name="Group 16535" transform="translate(0 10.305)">
              <rect id="Rectangle_6576" data-name="Rectangle 6576" width="25.089" height="2.24" rx="1.12" transform="translate(0 56.451)" fill="#91badd"/>
              <rect id="Rectangle_6577" data-name="Rectangle 6577" width="25.089" height="2.24" rx="1.12" transform="translate(0 50.178)" fill="#91badd"/>
              <rect id="Rectangle_6578" data-name="Rectangle 6578" width="25.089" height="2.24" rx="1.12" transform="translate(0 43.906)" fill="#91badd"/>
              <rect id="Rectangle_6579" data-name="Rectangle 6579" width="25.089" height="2.24" rx="1.12" transform="translate(0 37.634)" fill="#91badd"/>
              <rect id="Rectangle_6580" data-name="Rectangle 6580" width="25.089" height="2.24" rx="1.12" transform="translate(0 31.361)" fill="#91badd"/>
              <rect id="Rectangle_6581" data-name="Rectangle 6581" width="25.089" height="2.24" rx="1.12" transform="translate(0 25.089)" fill="#91badd"/>
              <rect id="Rectangle_6582" data-name="Rectangle 6582" width="25.089" height="2.24" rx="1.12" transform="translate(0 18.817)" fill="#91badd"/>
              <rect id="Rectangle_6583" data-name="Rectangle 6583" width="25.089" height="2.24" rx="1.12" transform="translate(0 12.545)" fill="#91badd"/>
              <rect id="Rectangle_6584" data-name="Rectangle 6584" width="25.089" height="2.24" rx="1.12" transform="translate(0 6.272)" fill="#91badd"/>
              <rect id="Rectangle_6585" data-name="Rectangle 6585" width="25.089" height="2.24" rx="1.12" fill="#91badd"/>
            </g>
            <g id="Group_16536" data-name="Group 16536" transform="translate(27.777 10.305)">
              <rect id="Rectangle_6586" data-name="Rectangle 6586" width="7.168" height="2.24" rx="1.12" transform="translate(0 31.361)" fill="#76a9d5"/>
              <rect id="Rectangle_6587" data-name="Rectangle 6587" width="7.168" height="2.24" rx="1.12" transform="translate(0 25.089)" fill="#76a9d5"/>
              <rect id="Rectangle_6588" data-name="Rectangle 6588" width="7.168" height="2.24" rx="1.12" transform="translate(0 18.817)" fill="#76a9d5"/>
              <rect id="Rectangle_6589" data-name="Rectangle 6589" width="7.168" height="2.24" rx="1.12" transform="translate(0 12.545)" fill="#76a9d5"/>
              <rect id="Rectangle_6590" data-name="Rectangle 6590" width="7.168" height="2.24" rx="1.12" transform="translate(0 6.272)" fill="#76a9d5"/>
              <rect id="Rectangle_6591" data-name="Rectangle 6591" width="7.168" height="2.24" rx="1.12" fill="#76a9d5"/>
            </g>
          </g>
          <path id="Path_32864" data-name="Path 32864" d="M514.363,590.071v8.96c0,4.949-2.006,8.961-4.48,8.961h-44.8c2.474,0,4.48-4.012,4.48-8.961v-8.96c0-4.949,2.006-8.961,4.481-8.961h44.8C516.369,581.11,514.363,585.122,514.363,590.071Z" transform="translate(-456.121 -527.348)" fill="#b1b6c2"/>
          <path id="Path_32865" data-name="Path 32865" d="M526.14,618.3V590.071c0-4.949-2.006-8.961-4.481-8.961h-44.8c2.474,0,4.48,4.012,4.48,8.961V618.3c0,4.949,2.006,8.96,4.48,8.96h44.8C528.146,627.256,526.14,623.245,526.14,618.3Z" transform="translate(-458.937 -527.348)" fill="#f9f9f9"/>
          <g id="Group_16540" data-name="Group 16540" transform="translate(27.777 58.691)">
            <g id="Group_16538" data-name="Group 16538">
              <rect id="Rectangle_6592" data-name="Rectangle 6592" width="25.089" height="2.24" rx="1.12" transform="translate(0 31.361)" fill="#91badd"/>
              <rect id="Rectangle_6593" data-name="Rectangle 6593" width="25.089" height="2.24" rx="1.12" transform="translate(0 25.089)" fill="#91badd"/>
              <rect id="Rectangle_6594" data-name="Rectangle 6594" width="25.089" height="2.24" rx="1.12" transform="translate(0 18.817)" fill="#91badd"/>
              <rect id="Rectangle_6595" data-name="Rectangle 6595" width="25.089" height="2.24" rx="1.12" transform="translate(0 12.545)" fill="#91badd"/>
              <rect id="Rectangle_6596" data-name="Rectangle 6596" width="25.089" height="2.24" rx="1.12" transform="translate(0 6.272)" fill="#91badd"/>
              <rect id="Rectangle_6597" data-name="Rectangle 6597" width="25.089" height="2.24" rx="1.12" fill="#91badd"/>
            </g>
            <g id="Group_16539" data-name="Group 16539" transform="translate(27.777)">
              <rect id="Rectangle_6598" data-name="Rectangle 6598" width="7.168" height="2.24" rx="1.12" transform="translate(0 18.817)" fill="#76a9d5"/>
              <rect id="Rectangle_6599" data-name="Rectangle 6599" width="7.168" height="2.24" rx="1.12" transform="translate(0 12.545)" fill="#76a9d5"/>
              <rect id="Rectangle_6600" data-name="Rectangle 6600" width="7.168" height="2.24" rx="1.12" transform="translate(0 6.272)" fill="#76a9d5"/>
              <rect id="Rectangle_6601" data-name="Rectangle 6601" width="7.168" height="2.24" rx="1.12" fill="#76a9d5"/>
            </g>
          </g>
          <path id="Path_32866" data-name="Path 32866" d="M497.595,618.206c-2.474,0-4.481,4.012-4.481,8.961s-2.006,8.96-4.48,8.96h44.8c2.474,0,4.48-4.011,4.48-8.96s2.006-8.961,4.48-8.961Z" transform="translate(-461.753 -536.219)" fill="#b1b6c2"/>
          <path id="Path_32867" data-name="Path 32867" d="M545.213,618.206h-44.8c1.922,0,3.556,2.425,4.192,5.824h44.8C548.769,620.631,547.134,618.206,545.213,618.206Z" transform="translate(-464.569 -536.219)" fill="#f9f9f9"/>
        </g>
      </g>
      <g id="Group_16550" data-name="Group 16550" transform="translate(406.955 559.404)">
        <g id="Group_16545" data-name="Group 16545" transform="translate(19.421 0)">
          <g id="Group_16542" data-name="Group 16542">
            <path id="Path_32868" data-name="Path 32868" d="M432.849,631.3q.138-.509.326-1a14.154,14.154,0,0,1,4.959-6.022c2.271-1.788,1.355-3.969,2.728-6.361a8.254,8.254,0,0,1,4.756-3.854,5.869,5.869,0,0,1,5.789,1.2,6.43,6.43,0,0,1,1.578,3.867,11.62,11.62,0,0,1-5.827,11.1c2.419-.815,5.154-1.613,7.43-.458a5.37,5.37,0,0,1,2.534,6.116,6.334,6.334,0,0,1-5.21,4.337c-1.213.162-2.455,0-3.661.2-2.081.357-3.836,1.775-5.882,2.3a8.021,8.021,0,0,1-8.3-3.317A9.879,9.879,0,0,1,432.849,631.3Z" transform="translate(-432.479 -613.79)" fill="#ff5959"/>
          </g>
          <g id="Group_16543" data-name="Group 16543" transform="translate(2.287 8.381)">
            <path id="Path_32869" data-name="Path 32869" d="M435.655,643.411a.169.169,0,0,0,.158-.107c.043-.107.837-2.382,4.728-8.519a96.458,96.458,0,0,1,6.9-9.7.17.17,0,0,0-.259-.219,96.853,96.853,0,0,0-6.923,9.739c-3.908,6.164-4.714,8.468-4.756,8.576a.169.169,0,0,0,.1.22A.166.166,0,0,0,435.655,643.411Z" transform="translate(-435.485 -624.806)" fill="#fff"/>
          </g>
          <g id="Group_16544" data-name="Group 16544" transform="translate(2.451 20.465)">
            <path id="Path_32870" data-name="Path 32870" d="M436.4,646.375c3.132-2.63,13.925-5.328,14.034-5.354a.17.17,0,0,0-.081-.329c-.448.11-11.023,2.693-14.173,5.425C435.308,646.875,435.772,646.9,436.4,646.375Z" transform="translate(-435.701 -640.687)" fill="#fff"/>
          </g>
        </g>
        <g id="Group_16549" data-name="Group 16549" transform="translate(0 0)">
          <g id="Group_16546" data-name="Group 16546">
            <path id="Path_32871" data-name="Path 32871" d="M431.421,631.3a10.179,10.179,0,0,0-.326-1,14.153,14.153,0,0,0-4.959-6.022c-2.27-1.788-1.355-3.969-2.728-6.361a8.255,8.255,0,0,0-4.757-3.854,5.868,5.868,0,0,0-5.788,1.2,6.421,6.421,0,0,0-1.578,3.867,11.62,11.62,0,0,0,5.827,11.1c-2.419-.815-5.154-1.613-7.43-.458a5.371,5.371,0,0,0-2.534,6.116,6.336,6.336,0,0,0,5.211,4.337c1.212.162,2.455,0,3.661.2,2.08.357,3.836,1.775,5.881,2.3a8.022,8.022,0,0,0,8.3-3.317A9.879,9.879,0,0,0,431.421,631.3Z" transform="translate(-406.955 -613.79)" fill="#8b469d"/>
          </g>
          <g id="Group_16547" data-name="Group 16547" transform="translate(10.558 8.381)">
            <path id="Path_32872" data-name="Path 32872" d="M432.569,643.007a.168.168,0,0,1-.158-.107c-.043-.107-.754-1.977-4.644-8.114a96.544,96.544,0,0,0-6.9-9.7.17.17,0,0,1,.259-.219,96.841,96.841,0,0,1,6.923,9.739c3.908,6.164,4.631,8.064,4.674,8.172a.169.169,0,0,1-.1.22A.181.181,0,0,1,432.569,643.007Z" transform="translate(-420.831 -624.806)" fill="#fff"/>
          </g>
          <g id="Group_16548" data-name="Group 16548" transform="translate(7.52 20.465)">
            <path id="Path_32873" data-name="Path 32873" d="M431,646.375c-3.4-2.269-13.925-5.328-14.033-5.354a.17.17,0,1,1,.081-.329c.447.11,11,2.723,14.173,5.425C431.221,646.116,432.252,647.209,431,646.375Z" transform="translate(-416.838 -640.687)" fill="#fff"/>
          </g>
        </g>
      </g>
    </g>
  </g>
</svg>
