<svg xmlns="http://www.w3.org/2000/svg" xmlns:xlink="http://www.w3.org/1999/xlink" width="40" height="40" viewBox="0 0 40 40">
  <defs>
    <linearGradient id="linear-gradient" x1="0.5" x2="0.5" y2="1" gradientUnits="objectBoundingBox">
      <stop offset="0" stop-color="#64bd68"/>
      <stop offset="1" stop-color="#7bc958"/>
    </linearGradient>
  </defs>
  <g id="Group_16684" data-name="Group 16684" transform="translate(-727 -2175)">
    <circle id="Ellipse_1367" data-name="Ellipse 1367" cx="19.417" cy="19.417" r="19.417" transform="translate(728 2176)" fill="#e8e8e8"/>
    <g id="Group_11271" data-name="Group 11271" transform="translate(731 2168)">
      <path id="Path_19208" data-name="Path 19208" d="M38,146H12.25a2.5,2.5,0,0,0-2.5,2.5v16.25a2.5,2.5,0,0,0,2.5,2.5H38a2.5,2.5,0,0,0,2.5-2.5V148.5A2.5,2.5,0,0,0,38,146Z" transform="translate(-9.141 -121.875)" fill="url(#linear-gradient)"/>
      <g id="Group_11270" data-name="Group 11270" transform="translate(4.734 24.125)">
        <rect id="Rectangle_6415" data-name="Rectangle 6415" width="2.5" height="21.25" fill="#e3f2ff"/>
        <rect id="Rectangle_6416" data-name="Rectangle 6416" width="2.5" height="21.25" transform="translate(20)" fill="#e3f2ff"/>
      </g>
      <path id="Path_19209" data-name="Path 19209" d="M150.75,29.125V33.5h-2.5V29.75A1.25,1.25,0,0,0,147,28.5h-7.5a1.25,1.25,0,0,0-1.25,1.25V33.5h-2.5V29.125A3.125,3.125,0,0,1,138.875,26h8.75A3.125,3.125,0,0,1,150.75,29.125Z" transform="translate(-127.266 -9.375)" fill="#fff"/>
      <path id="Path_19210" data-name="Path 19210" d="M177,229.75v3.75h-3.75v3.75H169.5V233.5h-3.75v-3.75h3.75V226h3.75v3.75Z" transform="translate(-155.391 -196.875)" fill="#83ca88"/>
      <path id="Path_19213" data-name="Path 19213" d="M167.875,219.75H164.75v-3.125a.625.625,0,0,0-.625-.625h-3.75a.625.625,0,0,0-.625.625v3.125h-3.125a.625.625,0,0,0-.625.625v3.75a.625.625,0,0,0,.625.625h3.125v3.125a.625.625,0,0,0,.625.625h3.75a.625.625,0,0,0,.625-.625V224.75h3.125a.625.625,0,0,0,.625-.625v-3.75A.625.625,0,0,0,167.875,219.75Zm-.625,3.75h-3.125a.625.625,0,0,0-.625.625v3.125H161v-3.125a.625.625,0,0,0-.625-.625H157.25V221h3.125a.625.625,0,0,0,.625-.625V217.25h2.5v3.125a.625.625,0,0,0,.625.625h3.125Z" transform="translate(-146.25 -187.5)" fill="#2c8d51"/>
      <path id="Path_19214" data-name="Path 19214" d="M28.875,23.5h-4.75V19.75A3.754,3.754,0,0,0,20.375,16h-8.75a3.754,3.754,0,0,0-3.75,3.75V23.5H3.125A3.129,3.129,0,0,0,0,26.625v16.25A3.129,3.129,0,0,0,3.125,46h25.75A3.129,3.129,0,0,0,32,42.875V26.625A3.129,3.129,0,0,0,28.875,23.5ZM24.75,32.25a.625.625,0,0,0-.625.625V44.75H7.875V32.875a.625.625,0,0,0-1.25,0V44.75H5.375v-20h1.25v3.125a.625.625,0,0,0,1.25,0V24.75h16.25v3.125a.625.625,0,0,0,1.25,0V24.75h1.25v20h-1.25V32.875A.625.625,0,0,0,24.75,32.25ZM20.375,23.5h-8.75V20.375a.626.626,0,0,1,.625-.625h7.5a.626.626,0,0,1,.625.625ZM9.125,19.75a2.5,2.5,0,0,1,2.5-2.5h8.75a2.5,2.5,0,0,1,2.5,2.5V23.5h-1.25V20.375A1.877,1.877,0,0,0,19.75,18.5h-7.5a1.877,1.877,0,0,0-1.875,1.875V23.5H9.125ZM1.25,42.875V26.625A1.877,1.877,0,0,1,3.125,24.75h1v20h-1A1.877,1.877,0,0,1,1.25,42.875Zm29.5,0a1.877,1.877,0,0,1-1.875,1.875h-1v-20h1a1.877,1.877,0,0,1,1.875,1.875Z" fill="#2c8d51"/>
    </g>
    <rect id="Rectangle_6456" data-name="Rectangle 6456" width="40" height="40" transform="translate(727 2175)" fill="none"/>
  </g>
</svg>
