<svg xmlns="http://www.w3.org/2000/svg" width="85.89" height="86" viewBox="0 0 85.89 86">
  <g id="map" transform="translate(-0.322)">
    <path id="Path_32722" data-name="Path 32722" d="M67.467,122.548c3.693,1.611,13.9,6.244,17.524,7.721.4.2,1.343.134,1.209-.739-.806-8.728-5.707-58.749-6.58-67.611-.134-1.276-.537-1.477-1.477-1.813-2.887-1.074-9.87-3.559-12.757-4.566a3.134,3.134,0,0,0-2.686,0c-4.5,1.276-18.732,5.64-18.732,5.64s-14.838-4.5-19.471-5.774a3.145,3.145,0,0,0-2.686.067c-2.954.94-9.8,3.491-12.757,4.566a1.916,1.916,0,0,0-1.477,1.813c-.94,8.661-6.311,58.883-7.251,67.678-.067,1.007.806.94,1.611.671,4.029-1.611,14.234-6.043,17.86-7.52a2.876,2.876,0,0,1,2.686,0c4.1,1.679,16.114,7.117,20.075,8.728a2.915,2.915,0,0,0,2.686,0c3.961-1.679,15.577-7.05,19.471-8.8A3.275,3.275,0,0,1,67.467,122.548Z" transform="translate(0 -45.738)" fill="#f4f0d3"/>
    <path id="Path_32723" data-name="Path 32723" d="M23.623,55.414a3.72,3.72,0,0,0-1.813.269c-2.954.94-9.8,3.491-12.757,4.566a1.916,1.916,0,0,0-1.477,1.813c-.94,8.661-6.311,58.883-7.251,67.678-.067,1.007.806.94,1.611.671,4.029-1.611,14.234-6.043,17.86-7.52a2.925,2.925,0,0,1,1.746-.268S23.623,55.414,23.623,55.414Zm40.083,0a6.255,6.255,0,0,0-.873.269c-4.5,1.343-18.2,5.506-18.8,5.707v70.5a3.587,3.587,0,0,0,1.343-.336c3.961-1.679,15.577-7.05,19.471-8.8a3.84,3.84,0,0,1,.94-.269Z" transform="translate(0 -45.947)" fill="#e8e4c8"/>
    <path id="Path_32724" data-name="Path 32724" d="M59.141,139.385l11.75-11.75,11.951,11.951c2.484-1.141,4.9-2.283,6.848-3.156l-42.9-42.836L67.6,72.781c-2.149-.671-4.969-1.477-7.654-2.283L41.819,88.626l-7.453-7.453c-.269,2.551-.6,5.64-.94,9.064l32.5,32.5-13.63,13.63c1.88.806,4.364,1.88,6.848,3.021Z" transform="translate(-27.461 -58.48)" fill="#efc75e"/>
    <path id="Path_32725" data-name="Path 32725" d="M50.413,134.729l.336-10.273-8.93,8.863-7.453-7.386c-.269,2.551-.6,5.64-.94,9.064l16.517,16.517.269-9.736-3.357-3.357ZM71.428,173l11.347,11.347c2.484-1.141,4.9-2.283,6.848-3.156L71.428,163Z" transform="translate(-27.461 -103.239)" fill="#e3bd59"/>
    <path id="Path_32726" data-name="Path 32726" d="M220.675,0a19.5,19.5,0,0,1,19.471,19.538,24.745,24.745,0,0,1-1.746,8.8c-3.961,9.2-13.5,18.934-16.651,22.089-.806.739-1.141.873-2.149-.067C216.378,47.2,206.978,37.6,203.017,28.468c-1.41-2.686-1.813-8.46-1.813-8.93A19.5,19.5,0,0,1,220.675,0Z" transform="translate(-166.637)" fill="#e2574c"/>
    <path id="Path_32727" data-name="Path 32727" d="M266.414,55.138a10.071,10.071,0,1,0,10.071,10.071A10.058,10.058,0,0,0,266.414,55.138Zm0,16.114a6.043,6.043,0,1,1,6.043-6.043A6.018,6.018,0,0,1,266.414,71.252Z" transform="translate(-212.376 -45.738)" fill="#fff"/>
  </g>
</svg>
