<svg xmlns="http://www.w3.org/2000/svg" width="40" height="40" viewBox="0 0 40 40">
  <g id="Group_15631" data-name="Group 15631" transform="translate(-33 -271)">
    <g id="Group_14058" data-name="Group 14058" transform="translate(-78 96)">
      <circle id="Ellipse_1017" data-name="Ellipse 1017" cx="19.417" cy="19.417" r="19.417" transform="translate(111.667 175)" fill="#e8e8e8"/>
      <path id="Path_18972" data-name="Path 18972" d="M298.59,429.888H286.168A3.168,3.168,0,0,1,283,426.721V401.058a3.17,3.17,0,0,1,3.168-3.168H298.59a3.168,3.168,0,0,1,3.168,3.168v25.663a3.166,3.166,0,0,1-3.168,3.168Zm0,0" transform="translate(-162.166 -215.722)" fill="#ffb677"/>
      <rect id="Rectangle_6389" data-name="Rectangle 6389" width="15.45" height="23.723" transform="translate(122.488 185.479)" fill="#ffe6d1"/>
      <path id="Path_18973" data-name="Path 18973" d="M287.552,407.6a.553.553,0,0,0,.39-.161l2.206-2.206a.552.552,0,0,0-.781-.781l-2.207,2.209a.551.551,0,0,0,.391.94Zm0,0" transform="translate(-163.407 -217.707)" fill="#fff"/>
      <path id="Path_18974" data-name="Path 18974" d="M287.552,412.1a.553.553,0,0,0,.39-.161l1.1-1.1a.552.552,0,1,0-.779-.781l-1.1,1.1a.551.551,0,0,0,.391.94Zm0,0" transform="translate(-163.407 -219.446)" fill="#fff"/>
      <path id="Path_18975" data-name="Path 18975" d="M290.361,408.454a.562.562,0,0,0-.162.39.552.552,0,1,0,1.1,0,.552.552,0,0,0-.943-.39Zm0,0" transform="translate(-164.4 -218.952)" fill="#fff"/>
      <path id="Path_18976" data-name="Path 18976" d="M291.962,406.885a.55.55,0,0,0,.779,0l1.657-1.654a.552.552,0,0,0-.781-.781l-1.654,1.657a.55.55,0,0,0,0,.779Zm0,0" transform="translate(-164.897 -217.707)" fill="#fff"/>
      <path id="Path_18977" data-name="Path 18977" d="M292.127,408.45l-4.965,4.968a.552.552,0,0,0,.781.779l4.965-4.965a.552.552,0,1,0-.781-.781Zm0,0" transform="translate(-163.407 -218.949)" fill="#fff"/>
      <path id="Path_18978" data-name="Path 18978" d="M295.96,406.852a.551.551,0,1,0,.784,0,.581.581,0,0,0-.784,0Zm0,0" transform="translate(-166.139 -218.455)" fill="#fff"/>
      <path id="Path_18979" data-name="Path 18979" d="M298.893,404.45a.552.552,0,0,0-.781,0l-.552.552a.552.552,0,1,0,.781.781l.552-.552a.552.552,0,0,0,0-.781Zm0,0" transform="translate(-166.634 -217.707)" fill="#fff"/>
      <path id="Path_18980" data-name="Path 18980" d="M297.261,400.593H293.95a.551.551,0,1,1,0-1.1h3.311a.551.551,0,1,1,0,1.1Zm0,0" transform="translate(-165.393 -216.219)" fill="#fff"/>
      <path id="Path_18981" data-name="Path 18981" d="M305.7,400.593h-.552a.551.551,0,0,1,0-1.1h.552a.551.551,0,1,1,0,1.1Zm0,0" transform="translate(-168.87 -216.219)" fill="#fff"/>
      <path id="Path_18982" data-name="Path 18982" d="M302.5,400.593h-.552a.551.551,0,1,1,0-1.1h.552a.551.551,0,1,1,0,1.1Zm0,0" transform="translate(-167.875 -216.219)" fill="#fff"/>
      <path id="Path_18983" data-name="Path 18983" d="M296.987,441.146h-2.759a.827.827,0,1,1,0-1.654h2.759a.827.827,0,0,1,0,1.654Zm0,0" transform="translate(-165.393 -228.633)" fill="#fff"/>
      <rect id="Rectangle_6390" data-name="Rectangle 6390" width="40" height="40" transform="translate(111 175)" fill="none"/>
      <path id="Path_18984" data-name="Path 18984" d="M298.59,429.888H286.168A3.168,3.168,0,0,1,283,426.721V401.058a3.17,3.17,0,0,1,3.168-3.168H298.59a3.168,3.168,0,0,1,3.168,3.168v25.663a3.166,3.166,0,0,1-3.168,3.168Zm0,0" transform="translate(-162.166 -215.722)" fill="none" stroke="#db9253" stroke-width="1"/>
      <circle id="Ellipse_1029" data-name="Ellipse 1029" cx="5.833" cy="5.833" r="5.833" transform="translate(133.5 190)" fill="#fff"/>
      <rect id="Rectangle_6454" data-name="Rectangle 6454" width="40" height="40" transform="translate(111 175)" fill="none"/>
    </g>
    <g id="Group_14508" data-name="Group 14508" transform="translate(-201 -94.404)">
      <path id="Path_20092" data-name="Path 20092" d="M262.438,381.89a4.438,4.438,0,1,0,4.438,4.438,4.443,4.443,0,0,0-4.438-4.438Zm0,7.931a3.493,3.493,0,1,1,3.494-3.493,3.5,3.5,0,0,1-3.494,3.493Zm0,0" fill="#db9253"/>
      <path id="Path_20093" data-name="Path 20093" d="M295.979,398.118h-1.994v-2.4a.365.365,0,1,0-.731,0v2.763a.365.365,0,0,0,.365.365h2.36a.365.365,0,1,0,0-.731Zm0,0" transform="translate(-31.228 -11.927)" fill="#db9253"/>
    </g>
  </g>
</svg>
