<svg id="Group_14482" data-name="Group 14482" xmlns="http://www.w3.org/2000/svg" width="12.466" height="12.466" viewBox="0 0 12.466 12.466">
  <path id="Path_20075" data-name="Path 20075" d="M6.233,12.466a6.233,6.233,0,1,1,6.233-6.233A6.229,6.229,0,0,1,6.233,12.466Zm0-11.492a5.259,5.259,0,1,0,5.259,5.259A5.256,5.256,0,0,0,6.233.974Z" fill="#8e8e93"/>
  <path id="Path_20076" data-name="Path 20076" d="M236.487,132.987A.487.487,0,0,1,236,132.5v-3.136a.487.487,0,0,1,.974,0V132.5A.487.487,0,0,1,236.487,132.987Z" transform="translate(-230.254 -125.739)" fill="#8e8e93"/>
  <circle id="Ellipse_1397" data-name="Ellipse 1397" cx="0.657" cy="0.657" r="0.657" transform="translate(5.575 7.844)" fill="#8e8e93"/>
</svg>
