<svg xmlns="http://www.w3.org/2000/svg" width="41" height="42" viewBox="0 0 41 42">
  <g id="Group_14062" data-name="Group 14062" transform="translate(-111 -269)">
    <circle id="Ellipse_1369" data-name="Ellipse 1369" cx="18.917" cy="18.917" r="18.917" transform="translate(113 272)" fill="#e8e8e8"/>
    <path id="Path_18983" data-name="Path 18983" d="M296.987,441.146h-2.759a.827.827,0,1,1,0-1.654h2.759a.827.827,0,0,1,0,1.654Zm0,0" transform="translate(-165.393 -134.633)" fill="#fff"/>
    <rect id="Rectangle_6390" data-name="Rectangle 6390" width="40" height="40" transform="translate(111 269)" fill="none"/>
    <g id="Group_11287" data-name="Group 11287" transform="translate(116 278)">
      <path id="Path_19258" data-name="Path 19258" d="M102.89,69.3H118.5a1.666,1.666,0,1,0,0-3.333H102.89a1.666,1.666,0,1,0,0,3.333Z" transform="translate(-94.494 -62.967)" fill="#ffa64d"/>
      <path id="Path_19259" data-name="Path 19259" d="M201.813,121.552h5.645l.387-.387v-1.873h-6.419v1.873Z" transform="translate(-188.435 -112.962)" fill="#ffa64d"/>
      <path id="Path_19260" data-name="Path 19260" d="M226.672,28.029h3.264V26.118l-.618-.618H227.29l-.618.618Z" transform="translate(-212.103 -25.031)" fill="#cad8ea"/>
      <path id="Path_19261" data-name="Path 19261" d="M234.41,155.445h-2.624v2.526h2.624Z" transform="translate(-216.896 -146.855)" fill="#cad8ea"/>
      <path id="Path_19262" data-name="Path 19262" d="M12.78,204.3h3.388a8.15,8.15,0,0,1,.682-1.508,7.186,7.186,0,0,1,2.894-2.761v-1.736H18.583l-.625-.625v-1.814H28.507v1.814l-.625.625h-1.16v1.736a7.455,7.455,0,0,1,3.147,3.223h5.853v-.744l.49-.367h2.351v8.869H36.211l-.49-.367V209.9H29.874a7.425,7.425,0,0,1-13.706-1.032H13.022a.953.953,0,0,0-.953.953v2.894H7.5v-3.136A5.28,5.28,0,0,1,12.78,204.3Z" transform="translate(-7.031 -184.739)" fill="#ffa64d"/>
      <path id="Path_19263" data-name="Path 19263" d="M102.889,67.635a1.666,1.666,0,0,0-1.666-1.666H103.1a1.666,1.666,0,1,1,0,3.333h-1.875A1.666,1.666,0,0,0,102.889,67.635Z" transform="translate(-79.091 -62.971)" fill="#e38b33"/>
      <path id="Path_19264" data-name="Path 19264" d="M201.813,119.293h1.875v1.873l-.387.387h-1.875l.387-.387Z" transform="translate(-184.277 -112.962)" fill="#e38b33"/>
      <path id="Path_19265" data-name="Path 19265" d="M226.672,25.5h1.875l.618.618v1.911H227.29V26.118Z" transform="translate(-211.332 -25.031)" fill="#b0c4e0"/>
      <path id="Path_19266" data-name="Path 19266" d="M233.66,155.445h-1.875v2.526h1.875Z" transform="translate(-216.147 -146.855)" fill="#b0c4e0"/>
      <path id="Path_19267" data-name="Path 19267" d="M9.375,296.437H7.5v8.869H9.375Z" transform="translate(22.156 -279.035)" fill="#f0963c"/>
      <path id="Path_19268" data-name="Path 19268" d="M236,358.821h.938v-.937H236Zm1.563,0h.938v-.937h-.937Z" transform="translate(-221.25 -336.64)" fill="#fff"/>
      <path id="Path_19269" data-name="Path 19269" d="M99.472,37.091h3.055a7.851,7.851,0,0,1,3.441-4.076v-.991h-.886l-.9-.9V28.647h3.962V27.059h-1.236l-.662-.662V24.8h-4.127a2.135,2.135,0,1,1,0-4.27h5.705V18.892l.893-.892h2.416l.892.892v1.637h5.705a2.135,2.135,0,1,1,0,4.27H113.6v1.6l-.662.662h-1.236v1.588h3.962v2.477l-.9.9h-.886v.991a7.863,7.863,0,0,1,2.961,3.03H119.4v.937H116.27l-.13-.258a7.034,7.034,0,0,0-2.948-3.02l-.248-.132V31.086h1.435l.351-.351V29.584h-9.611v1.151l.351.351H106.9v2.486l-.248.132a7.021,7.021,0,0,0-3.351,4l-.1.325H99.472a4.817,4.817,0,0,0-4.812,4.811v2.667h3.631V43.081a1.424,1.424,0,0,1,1.422-1.422h.5V42.6h-.5a.485.485,0,0,0-.485.485v3.363H93.723v-3.6A5.756,5.756,0,0,1,99.472,37.091Zm11.615-17.81-.343-.343H109.1l-.343.343v1.249h2.326Zm6.643,4.581a1.2,1.2,0,1,0,0-2.4H102.118a1.2,1.2,0,1,0,0,2.4Zm-5.177,2.259.113-.112V24.8h-5.482v1.21l.113.112Zm-1.785,2.526V27.059h-1.687v1.588Z" transform="translate(-93.723 -18)" fill="#d5812e"/>
      <path id="Path_19270" data-name="Path 19270" d="M1.842,295.987a6.956,6.956,0,0,0,12.84.967l.13-.259h6.605v.979l.178.133h1.726v-7.932H21.6l-.178.133v4.418H20.48v-3.439h-1.3v-.937h1.3v-.51l.8-.6h2.976v9.807H21.283l-.8-.6v-.51H15.385A7.894,7.894,0,0,1,1.063,296.6H0v-.937H1.737Z" transform="translate(7.741 -272.004)" fill="#d5812e"/>
    </g>
    <rect id="Rectangle_6459" data-name="Rectangle 6459" width="40" height="40" transform="translate(112 271)" fill="none"/>
  </g>
</svg>
