<svg xmlns="http://www.w3.org/2000/svg" width="76.845" height="24.032" viewBox="0 0 76.845 24.032">
  <g id="Group_16373" data-name="Group 16373" transform="translate(-1908.746 -2889.271)">
    <path id="Path_32708" data-name="Path 32708" d="M70.53,99.1H69.286l1.048-6.976H68.575l.209-1.4h4.731l-.213,1.4H71.569L70.53,99.1Zm2.5,0,1.257-8.379h4.446l-.209,1.4H75.318l-.289,1.9h3.1l-.2,1.4H74.821l-.378,2.273h3.5l-.222,1.4Zm5.628,0,1.257-8.379h1.235l-1.048,6.977h3.061l-.209,1.4h-4.3Zm5.082,0,1.247-8.379h1.244l-.538,3.56,2.777-3.56h1.652l-2.692,3.289,1.977,5.09h-1.4l-1.474-3.99-1.178,1.429L84.984,99.1H83.745Zm6.45-3.289a7.9,7.9,0,0,1,.169-1.566,6.623,6.623,0,0,1,.627-1.908,3.686,3.686,0,0,1,1.084-1.287,2.46,2.46,0,0,1,1.483-.47,2.093,2.093,0,0,1,1.795.963,4.3,4.3,0,0,1,.688,2.56,7.358,7.358,0,0,1-.445,2.566,4.471,4.471,0,0,1-1.209,1.9,2.525,2.525,0,0,1-1.736.679,2,2,0,0,1-1.408-.538,2.951,2.951,0,0,1-.8-1.309,5.5,5.5,0,0,1-.243-1.594Zm1.226-.035a2.615,2.615,0,0,0,.377,1.451,1.137,1.137,0,0,0,.987.586,1.385,1.385,0,0,0,.964-.466,3.505,3.505,0,0,0,.755-1.393,5.785,5.785,0,0,0,.3-1.815,2.76,2.76,0,0,0-.377-1.558,1.132,1.132,0,0,0-.973-.559c-.6,0-1.088.386-1.466,1.18A5.839,5.839,0,0,0,91.42,95.771ZM99.789,99.1H98.617l-.223-7-.956,7H96.334l1.248-8.379h1.764l.182,5.876,2.048-5.876h1.785L102.1,99.1h-1.133l1.181-6.95Zm3.722-2.716,1.173-.079a2.3,2.3,0,0,0,.2,1.051,1.073,1.073,0,0,0,1,.444,1.117,1.117,0,0,0,.87-.3,1.047,1.047,0,0,0,.276-.729.929.929,0,0,0-.227-.63,3.744,3.744,0,0,0-.853-.609,6.308,6.308,0,0,1-1.017-.714,1.944,1.944,0,0,1-.51-.728,2.934,2.934,0,0,1-.187-1.065,2.747,2.747,0,0,1,.555-1.753,1.926,1.926,0,0,1,1.586-.692,2.026,2.026,0,0,1,1.635.692,3,3,0,0,1,.639,1.837l-1.186.08a1.566,1.566,0,0,0-.306-.923.981.981,0,0,0-.791-.315.95.95,0,0,0-.729.244.94.94,0,0,0-.218.635.871.871,0,0,0,.2.6,3.813,3.813,0,0,0,.889.656,4.844,4.844,0,0,1,1.319,1.017,2.374,2.374,0,0,1,.426,1.465,2.938,2.938,0,0,1-.63,1.894,2.1,2.1,0,0,1-1.75.786,2.4,2.4,0,0,1-1.341-.364,1.981,1.981,0,0,1-.809-1.007,4.077,4.077,0,0,1-.209-1.487Zm5.4,2.716,1.257-8.379h4.447l-.209,1.4H111.2l-.289,1.9h3.105l-.2,1.4H110.7l-.377,2.273h3.5l-.218,1.4h-4.686Zm5.628,0,1.258-8.379h1.235l-1.048,6.977h3.06l-.209,1.4h-4.3Z" transform="translate(1866.381 2806.247)" fill-rule="evenodd"/>
    <path id="Path_32709" data-name="Path 32709" d="M70.53,99.1H69.286l1.048-6.977H68.575l.209-1.4h4.731l-.213,1.4H71.569Zm2.5,0,1.257-8.379h4.446l-.209,1.4H75.318l-.289,1.9h3.1l-.2,1.4H74.821l-.378,2.273h3.5l-.222,1.4Zm5.628,0,1.257-8.379h1.235l-1.048,6.976h3.061l-.209,1.4h-4.3Zm5.082,0,1.247-8.379h1.244L85.7,94.276l2.776-3.559h1.652L87.436,94,89.412,99.1h-1.4l-1.474-3.99-1.178,1.429L84.984,99.1H83.745Zm6.45-3.289a7.9,7.9,0,0,1,.169-1.566,6.623,6.623,0,0,1,.627-1.908,3.686,3.686,0,0,1,1.084-1.287,2.46,2.46,0,0,1,1.483-.47,2.093,2.093,0,0,1,1.795.963,4.3,4.3,0,0,1,.688,2.56,7.358,7.358,0,0,1-.445,2.566,4.471,4.471,0,0,1-1.209,1.9,2.533,2.533,0,0,1-1.736.679,2,2,0,0,1-1.408-.538,2.951,2.951,0,0,1-.8-1.309,5.5,5.5,0,0,1-.243-1.594Zm1.226-.035a2.615,2.615,0,0,0,.377,1.451,1.137,1.137,0,0,0,.987.586,1.385,1.385,0,0,0,.964-.466,3.505,3.505,0,0,0,.755-1.393,5.785,5.785,0,0,0,.3-1.815,2.76,2.76,0,0,0-.377-1.558,1.132,1.132,0,0,0-.973-.559c-.6,0-1.088.386-1.466,1.18A5.839,5.839,0,0,0,91.42,95.771ZM99.789,99.1H98.612l-.218-7-.955,7H96.334l1.247-8.379h1.764l.182,5.876,2.048-5.876h1.785L102.1,99.1h-1.133l1.181-6.95Zm3.722-2.716,1.173-.079a2.3,2.3,0,0,0,.2,1.051,1.069,1.069,0,0,0,1,.444,1.117,1.117,0,0,0,.87-.3,1.047,1.047,0,0,0,.276-.729.929.929,0,0,0-.227-.63,3.743,3.743,0,0,0-.853-.609,6.309,6.309,0,0,1-1.017-.714,1.944,1.944,0,0,1-.51-.728,2.934,2.934,0,0,1-.187-1.065,2.747,2.747,0,0,1,.555-1.753,1.926,1.926,0,0,1,1.586-.692,2.032,2.032,0,0,1,1.635.692,3,3,0,0,1,.639,1.837l-1.186.08a1.537,1.537,0,0,0-.31-.923.966.966,0,0,0-.787-.315.814.814,0,0,0-.947.879.871.871,0,0,0,.2.6,3.813,3.813,0,0,0,.889.656,4.844,4.844,0,0,1,1.319,1.017,2.374,2.374,0,0,1,.426,1.465,2.938,2.938,0,0,1-.63,1.894,2.1,2.1,0,0,1-1.75.786,2.4,2.4,0,0,1-1.341-.364,1.981,1.981,0,0,1-.809-1.007A4.086,4.086,0,0,1,103.511,96.379Zm5.4,2.716,1.257-8.379h4.446l-.209,1.4H111.2l-.289,1.9h3.105l-.2,1.4H110.7l-.377,2.273h3.5l-.218,1.4h-4.686Zm5.628,0,1.258-8.379h1.235l-1.048,6.976h3.06l-.209,1.4Z" transform="translate(1866.381 2806.247)" fill="none" stroke="#000" stroke-miterlimit="2.613" stroke-width="0.283"/>
    <path id="Path_32710" data-name="Path 32710" d="M15.78,98.8c-4.775-1.784-7.107-3.772-1.217-6.594a25.971,25.971,0,0,1,12.908-1.048c6.459,1.158,4.918,3.706-.2,6.426,3.012-1.3,8.187-3.227,6.383-6.475-1.764-3.142-7.027-4-13.1-3.36A17.032,17.032,0,0,0,10.081,91.59c-4.344,4.535,1.177,5.951,5.7,7.206Z" transform="translate(1900.244 2807.952)" fill="#929496" fill-rule="evenodd"/>
    <path id="Path_32711" data-name="Path 32711" d="M35.518,79.463c-1.568-4.651-3.6-5.268-5.708-1.651a22.766,22.766,0,0,0-2.75,11.654c.835,6.595,3.847,6.036,7.756.5-2.048,4.971-4.642,9.98-8.458,5.751-2.861-5.387-2.226-11.347.351-17.552C30.876,69.957,34.5,73.245,35.518,79.463Z" transform="translate(1891.239 2816)" fill="#808183" fill-rule="evenodd"/>
    <path id="Path_32712" data-name="Path 32712" d="M27.6,84.875,25.234,91.15,29.29,96.7l6.73-.821,2.6-6.072-3.745-5.548-7.281.617Z" transform="translate(1890.812 2809.807)" fill="#434244" fill-rule="evenodd"/>
    <path id="Path_32713" data-name="Path 32713" d="M23.637,83.685,21.274,89.96l4.055,5.552,6.73-.826,2.6-6.071-3.744-5.548-7.281.617Z" transform="translate(1893.044 2810.478)" fill="#cc2229" fill-rule="evenodd"/>
    <path id="Path_32714" data-name="Path 32714" d="M24.634,92.287l2.585,3.536q-.04-.257-.071-.515A22.766,22.766,0,0,1,29.9,83.655s.009-.014.013-.018l-3.056.257c-.018.035-.04.071-.058.111a27.7,27.7,0,0,0-2.163,8.282Z" transform="translate(1891.15 2810.157)" fill="#fff" stroke="#fff" stroke-miterlimit="2.613" stroke-width="0.03" fill-rule="evenodd"/>
    <path id="Path_32715" data-name="Path 32715" d="M15.78,98.8c-4.775-1.784-7.107-3.772-1.217-6.594a25.971,25.971,0,0,1,12.908-1.048c6.459,1.158,4.918,3.706-.2,6.426,3.012-1.3,8.187-3.227,6.383-6.475-1.764-3.142-7.027-4-13.1-3.36A17.032,17.032,0,0,0,10.081,91.59c-4.344,4.535,1.177,5.951,5.7,7.206Z" transform="translate(1900.244 2807.952)" fill="#808183" fill-rule="evenodd"/>
    <path id="Path_32716" data-name="Path 32716" d="M22.764,92.287l2.585,3.536q-.04-.257-.071-.515a20.29,20.29,0,0,1,.688-6.377,25.986,25.986,0,0,1,8.716.013l0-.009L32.27,85.358a32.6,32.6,0,0,0-4.491.182q-.325.013-.648.04.414-.979.9-1.926s.009-.014.013-.018l-3.056.257c-.018.035-.04.071-.058.111q-.415,1-.773,2.024-.7.157-1.395.373l-1.444,3.825c.151-.075.307-.115.471-.2.462-.159.919-.337,1.377-.466a22.344,22.344,0,0,0-.4,2.722Z" transform="translate(1893.02 2810.157)" fill="#fff" stroke="#fff" stroke-miterlimit="2.613" stroke-width="0.03" fill-rule="evenodd"/>
  </g>
</svg>
