<svg id="Group_15593" data-name="Group 15593" xmlns="http://www.w3.org/2000/svg" width="12.106" height="12.106" viewBox="0 0 12.106 12.106">
  <path id="Path_27812" data-name="Path 27812" d="M6.053,0a6.053,6.053,0,1,0,6.053,6.053A6.053,6.053,0,0,0,6.053,0Zm0,10.971a4.918,4.918,0,1,1,4.918-4.918A4.918,4.918,0,0,1,6.053,10.971Zm0-8.316c-.434,0-.762.226-.762.592V6.6c0,.366.328.591.762.591s.762-.235.762-.591V3.246C6.815,2.889,6.476,2.655,6.053,2.655Zm0,5.29a.755.755,0,1,0,.755.756A.757.757,0,0,0,6.053,7.944Z" fill="#ff5959"/>
</svg>
