<svg id="Group_15630" data-name="Group 15630" xmlns="http://www.w3.org/2000/svg" xmlns:xlink="http://www.w3.org/1999/xlink" width="24" height="24" viewBox="0 0 24 24">
  <defs>
    <clipPath id="clip-path">
      <rect id="Rectangle_7643" data-name="Rectangle 7643" width="12" height="12" fill="#707070"/>
    </clipPath>
  </defs>
  <g id="Ellipse_1656" data-name="Ellipse 1656" fill="none" stroke="#707070" stroke-width="1">
    <circle cx="12" cy="12" r="12" stroke="none"/>
    <circle cx="12" cy="12" r="11.5" fill="none"/>
  </g>
  <g id="Group_15974" data-name="Group 15974" transform="translate(6 6)">
    <g id="Group_16111" data-name="Group 16111" transform="translate(0 0)">
      <g id="Group_16110" data-name="Group 16110" clip-path="url(#clip-path)">
        <path id="Path_32531" data-name="Path 32531" d="M371.4,370.979l4.266-4.263a1.005,1.005,0,0,0-1.422-1.421l-4.266,4.263-4.266-4.263a1.005,1.005,0,1,0-1.422,1.421l4.266,4.263-4.266,4.263a1.005,1.005,0,1,0,1.422,1.421l4.266-4.263,4.266,4.263a1.005,1.005,0,1,0,1.422-1.421Zm0,0" transform="translate(-364 -365)" fill="#707070" fill-rule="evenodd"/>
      </g>
    </g>
  </g>
</svg>
