<svg xmlns="http://www.w3.org/2000/svg" width="268.5" height="144.839" viewBox="0 0 268.5 144.839">
  <g id="Group_16691" data-name="Group 16691" transform="translate(-44.5 -152.234)">
    <ellipse id="Ellipse_1419" data-name="Ellipse 1419" cx="5.751" cy="5.751" rx="5.751" ry="5.751" transform="matrix(0.615, -0.788, 0.788, 0.615, 122.333, 161.302)" fill="#f0e3d5"/>
    <path id="Path_27785" data-name="Path 27785" d="M455.449,719.8l-2.035,4.586-2.195-4.511Z" transform="matrix(0.891, -0.454, 0.454, 0.891, -596.752, -268.928)" fill="#f0e3d5"/>
    <path id="Path_27786" data-name="Path 27786" d="M459.836,700.257c-.307-.234-.766-.146-1.273.484-.132-.8-.488-1.1-.87-1.047s-.667.464-.549,1.33a2.949,2.949,0,0,0,.766,1.744.237.237,0,0,0,.107.052.253.253,0,0,0,.105.012,2.955,2.955,0,0,0,1.537-1.146C460.19,700.989,460.155,700.5,459.836,700.257Z" transform="matrix(0.891, -0.454, 0.454, 0.891, -594.069, -254.669)" fill="#fc6262"/>
    <line id="Line_718" data-name="Line 718" x2="211" transform="translate(45 237)" fill="none" stroke="#182149" stroke-linecap="round" stroke-width="1"/>
    <path id="Path_27787" data-name="Path 27787" d="M446.526,689.587c-.372.1-.582.518-.392,1.3-.713-.382-1.169-.284-1.361.051s-.04.812.719,1.246a2.948,2.948,0,0,0,1.849.456.239.239,0,0,0,.106-.053.257.257,0,0,0,.074-.076,2.959,2.959,0,0,0,.029-1.918C447.322,689.753,446.912,689.482,446.526,689.587Z" transform="matrix(0.891, -0.454, 0.454, 0.891, -583.224, -252.329)" fill="#fc6262"/>
    <path id="Path_27788" data-name="Path 27788" d="M458.36,681.65c-.186-.337-.642-.443-1.36-.071.2-.783,0-1.2-.373-1.31s-.8.155-1.039,1a2.951,2.951,0,0,0,0,1.9.237.237,0,0,0,.077.09.25.25,0,0,0,.092.053,2.959,2.959,0,0,0,1.869-.428C458.388,682.462,458.554,682,458.36,681.65Z" transform="matrix(0.891, -0.454, 0.454, 0.891, -586.918, -243.206)" fill="#fc6262"/>
    <path id="Rectangle_6639" data-name="Rectangle 6639" d="M2.678,0h0A2.678,2.678,0,0,1,5.355,2.678v5.77a2.678,2.678,0,0,1-2.678,2.678h0A2.678,2.678,0,0,1,0,8.448V2.678A2.678,2.678,0,0,1,2.678,0Z" transform="translate(117.103 154.882) rotate(35.414)" fill="#102257"/>
    <g id="Group_16678" data-name="Group 16678" transform="translate(-3365.836 116.701)">
      <g id="Group_16602" data-name="Group 16602" transform="translate(3333.536 -114.505)">
        <path id="Path_33162" data-name="Path 33162" d="M111.4,203.017s-2.431-2.91-2.168-5.737-5.071-10.563-3.224-14.418,8.107-1.613,9.273,2.809,2.093,12.954.154,15.568S112.316,204.36,111.4,203.017Z" fill="#c9b387"/>
        <path id="Path_33163" data-name="Path 33163" d="M112.155,232.632a10.992,10.992,0,0,0,6.152.312c2.807-.579,4.946.578,7.753,0a27.455,27.455,0,0,1,6.2-.793c2.473.064,4.9.8,7.374.774,2.269-.02,4.586-.67,6.771-.059.795.223,1.654-.148,2.47-.025,1.342.2,2.615.415,3.644-.471a9.362,9.362,0,0,0,2.3-3.323,22.126,22.126,0,0,0,1.589-11.47,38.094,38.094,0,0,0-3.256-11.208,7.993,7.993,0,0,0-2.952-3.944c-1.811-1.035-4.164-.636-6.011-1.606-2.542-1.337-3.338-4.809-5.845-6.211s-5.686-.176-8.046,1.473-4.565,3.773-7.393,4.316c-2.626.5-5.327-.463-7.993-.247a9.18,9.18,0,0,0-6.8,4.018c-3.177,4.8-1.248,11.509-3.772,16.682-.586,1.2-1.4,2.286-1.9,3.525a7.817,7.817,0,0,0,.843,7.3c1.471,2.087,4.175,1.332,6.727,1.226C110.841,232.865,111.325,232.679,112.155,232.632Z" fill="#c9b387"/>
        <path id="Path_33164" data-name="Path 33164" d="M122.362,233c-2.037-.108-4.245.971-6.138.211a4.4,4.4,0,0,1-2.675-4.282c.176-2.429,2.293-4.194,3.5-6.311a31.814,31.814,0,0,0,2.014-5.62,20.731,20.731,0,0,1,5.927-8.842c1.744-1.526,4.011-2.809,6.28-2.337,2.383.495,3.951,2.718,5.991,4.046a8.756,8.756,0,0,0,6.048,1.3,4.009,4.009,0,0,1,2.243-.012,2.435,2.435,0,0,1,.9.769,8.731,8.731,0,0,1,1.445,4.262,64.194,64.194,0,0,1,.444,7.6q.034,2.623.01,5.249a7.451,7.451,0,0,1-.309,2.479c-.4,1.09-.812.175-1.77.827-2.257,1.538-5.3.257-8.033.273C132.791,232.639,127.728,233.283,122.362,233Z" fill="#c9b387"/>
        <path id="Path_33165" data-name="Path 33165" d="M118.382,183.263a1.518,1.518,0,0,0-2.267,1.3c.04,2.148.3,3.766-.373,5.854a26.825,26.825,0,0,0-1.5,6.582c-.226,3.393-.095,8.385,2.552,10.844a.959.959,0,0,0,1.486-.191c1.141-1.867.934-3.763.93-5.91a30.083,30.083,0,0,1,1.038-8.654C121.264,189.6,121.971,185.481,118.382,183.263Z" fill="#d7c6a5"/>
        <path id="Path_33166" data-name="Path 33166" d="M109.7,197.965c-1.448-3.9-.915-9.076-3.966-12.235a7.764,7.764,0,0,0-4.885-2.145c-1.108-.125-2.8.247-3.848-.2-1.92-.817-1.774-2.473-2.778-3.9a1.615,1.615,0,0,0-2.752,0c-2.19,3.6.459,7.656,4.236,8.592,2.777.687,6.258-.417,7.472,2.906.9,2.466.938,5.149,1.908,7.64,2.189,5.624,5.228,10.272,4.091,16.586-.858,4.765-4.072,9.7-1.615,14.437.539,1.04,1.924.263,1.761-.742-.563-3.466,1.341-6.359,2.476-9.468a25.492,25.492,0,0,0,1.665-7.708C113.662,206.738,111.391,202.512,109.7,197.965Z" fill="#d7c6a5"/>
        <g id="Group_16583" data-name="Group 16583">
          <path id="Path_33167" data-name="Path 33167" d="M100.928,221.9c-.477-3.27-.023-6.607-.288-9.9a29.569,29.569,0,0,0-1.572-7.137c-.59-1.735-1.306-3.516-1.1-5.337s1.751-3.647,3.568-3.407c1.833.242,2.8,2.27,3.3,4.05,1.49,5.306,1.771,10.891,3.219,16.209.934,3.428,4.106,14.057-.18,16.416C103.434,235.242,101.393,225.087,100.928,221.9Z" fill="#c9b387"/>
          <path id="Path_33168" data-name="Path 33168" d="M108.03,233.172c.012-1.664-1.288-2.954-2.7-3.834a36.9,36.9,0,0,1-4.3-2.513c-2.283-1.9-3.112-4.976-3.9-7.835s-1.84-5.929-4.331-7.54a2.56,2.56,0,0,0-.933-.409,2.246,2.246,0,0,0-2.081,1.013c-1.176,1.6-.8,3.8-.613,5.781.24,2.473.11,4.987.591,7.424s1.713,4.9,3.913,6.052c3.287,1.728,5.714,2.169,10.755,1.861Z" fill="#c9b387"/>
          <g id="Group_16580" data-name="Group 16580">
            <path id="Path_33169" data-name="Path 33169" d="M99.707,230.636a.188.188,0,0,1-.151-.076,10.882,10.882,0,0,0-1.581-1.631c-.33-.3-.672-.6-.988-.93-2.571-2.657-3.395-6.486-3.862-9.881l-.06-.445a17.589,17.589,0,0,0-.759-3.659.187.187,0,1,1,.351-.127,17.789,17.789,0,0,1,.778,3.736l.06.444c.459,3.335,1.264,7.093,3.761,9.672.306.317.643.619.969.912a11.206,11.206,0,0,1,1.633,1.688.186.186,0,0,1-.151.3Z" fill="#937c4d"/>
          </g>
          <g id="Group_16581" data-name="Group 16581">
            <path id="Path_33170" data-name="Path 33170" d="M106.15,229.713a.186.186,0,0,1-.175-.123,36.192,36.192,0,0,1-1.648-9.357c-.061-.741-.118-1.437-.187-2.071a162.672,162.672,0,0,0-2.88-17.549.187.187,0,0,1,.365-.081,163.186,163.186,0,0,1,2.887,17.59c.069.636.126,1.336.187,2.08a35.964,35.964,0,0,0,1.627,9.26.187.187,0,0,1-.112.239A.181.181,0,0,1,106.15,229.713Z" fill="#937c4d"/>
          </g>
          <path id="Path_33171" data-name="Path 33171" d="M104,229.234c1.061-2.229-.151-4.169-.274-5.407-.168-1.689.153-2.423.112-4.121a23.433,23.433,0,0,0-1.552-7.093,33.319,33.319,0,0,0-4.723-9.381c-2.138-2.791-4.618-5.821-8.131-5.967-1.887-.078-3.4,1.856-3.444,3.744a7.782,7.782,0,0,0,2.242,5.063,18.235,18.235,0,0,0,4.2,3.572,17.047,17.047,0,0,1,3.615,2.468c2.084,2.2,2.135,5.56,2.142,8.587s.033,10.648,6.163,12.4C107.032,233.1,103.143,231.032,104,229.234Z" fill="#d7c6a5"/>
          <g id="Group_16582" data-name="Group 16582">
            <path id="Path_33172" data-name="Path 33172" d="M102.262,228.324a.189.189,0,0,1-.156-.084c-.346-.529-.4-1.8-.483-3.73a45.137,45.137,0,0,0-1.3-10.084,14.632,14.632,0,0,0-5.87-8.535c-.371-.237-.768-.455-1.152-.665a11.237,11.237,0,0,1-1.977-1.27.187.187,0,1,1,.243-.283,11.024,11.024,0,0,0,1.914,1.226c.389.213.792.433,1.173.678a15,15,0,0,1,6.03,8.752A45.387,45.387,0,0,1,102,224.494a10.808,10.808,0,0,0,.423,3.54.188.188,0,0,1-.054.259A.185.185,0,0,1,102.262,228.324Z" fill="#c9b387"/>
          </g>
        </g>
        <g id="Group_16584" data-name="Group 16584">
          <path id="Path_33173" data-name="Path 33173" d="M99.157,222.52a.189.189,0,0,1-.186-.193,18.523,18.523,0,0,0-.089-2.435.186.186,0,0,1,.166-.205.189.189,0,0,1,.205.166,18.765,18.765,0,0,1,.091,2.485A.187.187,0,0,1,99.157,222.52Z" fill="#c9b387"/>
        </g>
        <g id="Group_16585" data-name="Group 16585">
          <path id="Path_33174" data-name="Path 33174" d="M99.655,220.651a.187.187,0,0,1-.186-.173l-.088-1.215a.188.188,0,0,1,.173-.2.2.2,0,0,1,.2.173l.088,1.215a.188.188,0,0,1-.173.2Z" fill="#c9b387"/>
        </g>
        <g id="Group_16586" data-name="Group 16586">
          <path id="Path_33175" data-name="Path 33175" d="M92.275,200.1a.188.188,0,0,1-.136-.059,2.56,2.56,0,0,0-.921-.624.187.187,0,1,1,.138-.348,2.959,2.959,0,0,1,1.055.716.187.187,0,0,1-.136.315Z" fill="#c9b387"/>
        </g>
        <g id="Group_16587" data-name="Group 16587">
          <path id="Path_33176" data-name="Path 33176" d="M93.4,202.747a.188.188,0,0,1-.176-.123,3.145,3.145,0,0,0-1.152-1.489.187.187,0,1,1,.213-.307,3.511,3.511,0,0,1,1.29,1.668.186.186,0,0,1-.111.239A.181.181,0,0,1,93.4,202.747Z" fill="#c9b387"/>
        </g>
        <g id="Group_16588" data-name="Group 16588">
          <path id="Path_33177" data-name="Path 33177" d="M95.086,204.33a.188.188,0,0,1-.141-.064,5.26,5.26,0,0,1-1.018-1.767.187.187,0,1,1,.354-.12,4.9,4.9,0,0,0,.945,1.641.186.186,0,0,1-.017.263A.188.188,0,0,1,95.086,204.33Z" fill="#c9b387"/>
        </g>
        <g id="Group_16589" data-name="Group 16589">
          <path id="Path_33178" data-name="Path 33178" d="M103.491,201.844a.187.187,0,0,1-.186-.173l-.158-2.084a.187.187,0,0,1,.172-.2.193.193,0,0,1,.2.173l.158,2.083a.187.187,0,0,1-.172.2Z" fill="#937c4d"/>
        </g>
        <g id="Group_16590" data-name="Group 16590">
          <path id="Path_33179" data-name="Path 33179" d="M102.96,203.321a.173.173,0,0,1-.185-.165l-.036-1.526a.187.187,0,0,1,.182-.191.181.181,0,0,1,.191.182l.036,1.491a.2.2,0,0,1-.182.209Z" fill="#937c4d"/>
        </g>
        <g id="Group_16591" data-name="Group 16591">
          <path id="Path_33180" data-name="Path 33180" d="M101.868,209.535a.185.185,0,0,1-.174-.119,8.376,8.376,0,0,1-.479-1.815.187.187,0,0,1,.158-.212.189.189,0,0,1,.212.158,7.96,7.96,0,0,0,.457,1.734.188.188,0,0,1-.107.242A.2.2,0,0,1,101.868,209.535Z" fill="#937c4d"/>
        </g>
        <g id="Group_16592" data-name="Group 16592">
          <path id="Path_33181" data-name="Path 33181" d="M91.624,212.929a.186.186,0,0,1-.175-.123,2.663,2.663,0,0,0-.356-.665.187.187,0,0,1,.3-.221,3.09,3.09,0,0,1,.405.758.188.188,0,0,1-.112.24A.2.2,0,0,1,91.624,212.929Z" fill="#937c4d"/>
        </g>
        <g id="Group_16593" data-name="Group 16593">
          <path id="Path_33182" data-name="Path 33182" d="M95.143,227.409a.19.19,0,0,1-.11-.036,4.85,4.85,0,0,1-1.358-1.878.187.187,0,0,1,.334-.167,4.562,4.562,0,0,0,1.243,1.742.187.187,0,0,1-.109.339Z" fill="#937c4d"/>
        </g>
        <g id="Group_16594" data-name="Group 16594">
          <path id="Path_33183" data-name="Path 33183" d="M98.136,226.654a.182.182,0,0,1-.1-.032,1.545,1.545,0,0,1-.56-.772,4.914,4.914,0,0,1-.158-.554c-.023-.094-.046-.19-.072-.283a4.34,4.34,0,0,0-1.021-1.806.187.187,0,0,1,.272-.257,4.725,4.725,0,0,1,1.109,1.962c.027.1.051.2.075.3a4.56,4.56,0,0,0,.146.512,1.184,1.184,0,0,0,.417.592.187.187,0,0,1-.1.342Z" fill="#937c4d"/>
        </g>
        <g id="Group_16595" data-name="Group 16595">
          <path id="Path_33184" data-name="Path 33184" d="M97.457,223.366a.189.189,0,0,1-.18-.136c-.119-.424-.259-.847-.416-1.256a.187.187,0,0,1,.349-.134c.161.42.305.853.427,1.288a.187.187,0,0,1-.129.231A.179.179,0,0,1,97.457,223.366Z" fill="#937c4d"/>
        </g>
        <g id="Group_16596" data-name="Group 16596">
          <path id="Path_33185" data-name="Path 33185" d="M90.255,220.962a.187.187,0,0,1-.183-.153,6,6,0,0,1-.072-1.67.2.2,0,0,1,.2-.169.188.188,0,0,1,.168.2,5.645,5.645,0,0,0,.068,1.568.188.188,0,0,1-.15.217A.207.207,0,0,1,90.255,220.962Z" fill="#937c4d"/>
        </g>
        <g id="Group_16597" data-name="Group 16597">
          <path id="Path_33186" data-name="Path 33186" d="M91.6,222.363a.188.188,0,0,1-.172-.115,5.939,5.939,0,0,1-.456-2.153.187.187,0,1,1,.374-.008,5.567,5.567,0,0,0,.427,2.017.189.189,0,0,1-.1.245A.2.2,0,0,1,91.6,222.363Z" fill="#937c4d"/>
        </g>
        <g id="Group_16598" data-name="Group 16598">
          <path id="Path_33187" data-name="Path 33187" d="M106.2,191.137a.186.186,0,0,1-.18-.139c-.41-1.573-.966-3.307-2.374-3.988a5.555,5.555,0,0,0-2.3-.381c-.316-.008-.632-.017-.944-.044a7.8,7.8,0,0,1-5.011-2.463.187.187,0,0,1,.275-.253,7.426,7.426,0,0,0,4.768,2.344c.3.026.613.034.922.043a5.9,5.9,0,0,1,2.455.418c1.551.75,2.141,2.576,2.572,4.229a.187.187,0,0,1-.134.228A.148.148,0,0,1,106.2,191.137Z" fill="#c9b387"/>
        </g>
        <g id="Group_16599" data-name="Group 16599">
          <path id="Path_33188" data-name="Path 33188" d="M94.276,183a.188.188,0,0,1-.12-.043,2.607,2.607,0,0,1-.926-2.007.184.184,0,0,1,.189-.185.187.187,0,0,1,.185.189,2.224,2.224,0,0,0,.792,1.716.187.187,0,0,1-.12.33Z" fill="#c9b387"/>
        </g>
        <g id="Group_16600" data-name="Group 16600">
          <path id="Path_33189" data-name="Path 33189" d="M107.812,198.046a.188.188,0,0,1-.18-.134l-.657-2.241a.187.187,0,0,1,.127-.232.185.185,0,0,1,.231.127l.658,2.241a.188.188,0,0,1-.179.239Z" fill="#c9b387"/>
        </g>
        <g id="Group_16601" data-name="Group 16601">
          <path id="Path_33190" data-name="Path 33190" d="M118.375,191.511a.186.186,0,0,1-.164-.275c.653-1.22.436-2.715.135-4.267a.187.187,0,1,1,.367-.072c.315,1.622.538,3.187-.173,4.516A.188.188,0,0,1,118.375,191.511Z" fill="#c9b387"/>
        </g>
      </g>
      <path id="Path_33192" data-name="Path 33192" d="M168.244,233.837c-3.982-11.4-34.064-90.829-70.184-.056a1,1,0,0,0,.926,1.373H167.3A.992.992,0,0,0,168.244,233.837Z" transform="translate(3333.536 -114.505)" fill="#fcebe0"/>
      <path id="Path_33193" data-name="Path 33193" d="M136.551,205.141c-3.049-.454-9.754-.933-12.087,2.536s-5.869,18.188,2.167,18.61c7.218.378,12.162.378,13.575-2.7C141.045,221.762,144.131,206.269,136.551,205.141Z" transform="translate(3333.536 -114.505)" fill="#182149"/>
      <g id="Group_16603" data-name="Group 16603" transform="translate(3333.536 -114.505)">
        <path id="Path_33194" data-name="Path 33194" d="M130.385,225.576a.25.25,0,0,1-.25-.245c-.155-8.341,3.856-17.835,3.9-17.93a.25.25,0,0,1,.459.2c-.04.093-4.009,9.491-3.856,17.724a.249.249,0,0,1-.245.254Z" fill="#0c1436"/>
      </g>
      <g id="Group_16604" data-name="Group 16604" transform="translate(3333.536 -114.505)">
        <path id="Path_33195" data-name="Path 33195" d="M166.94,234.091a.249.249,0,0,1-.233-.161c-.161-.423-16.18-42.28-33.532-40.351C115.8,195.51,99.659,233.423,99.5,233.806a.25.25,0,1,1-.461-.194c.662-1.574,16.412-38.567,34.083-40.53a11.318,11.318,0,0,1,1.245-.069c17.2,0,32.166,39.039,32.809,40.74a.249.249,0,0,1-.234.338Z" fill="#e69a49"/>
      </g>
      <path id="Path_33203" data-name="Path 33203" d="M99.117,235.154s2-5.745,2.581-5.95,62.915-.445,63.328.307,1.927,5.644,1.927,5.644Z" transform="translate(3333.536 -114.505)" fill="#182149"/>
      <g id="Group_16609" data-name="Group 16609" transform="translate(3333.536 -114.505)">
        <path id="Path_33204" data-name="Path 33204" d="M104.374,231.077a.25.25,0,0,1-.007-.5c.364-.01,36.526-.971,44.624-1.029a.245.245,0,0,1,.252.248.25.25,0,0,1-.248.252c-8.1.058-44.25,1.019-44.614,1.029Z" fill="#0c1436"/>
      </g>
      <g id="Group_16610" data-name="Group 16610" transform="translate(3333.536 -114.505)">
        <path id="Path_33205" data-name="Path 33205" d="M149.4,234.011c-.489-.033-21.2-.014-32.089,0a.25.25,0,1,1,0-.5c5.313-.007,31.835-.039,32.125,0a.25.25,0,0,1-.036.5Z" fill="#0c1436"/>
      </g>
      <g id="Group_16644" data-name="Group 16644" transform="translate(3333.536 -114.505)">
        <path id="Path_33277" data-name="Path 33277" d="M95.01,244.7s-5.4.635-6.036-8.918,1.83-14.149,5.4-15.281,5.854-1.041,6.952,4.447,2.925,12.068,2.194,15.368S103.791,244.416,95.01,244.7Z" fill="#e18931"/>
        <g id="Group_16641" data-name="Group 16641">
          <path id="Path_33278" data-name="Path 33278" d="M91.764,235.185a.248.248,0,0,1-.246-.207c-2.026-11.678,1.556-13.786,1.709-13.87a.25.25,0,0,1,.243.438c-.035.019-3.41,2.1-1.46,13.347a.251.251,0,0,1-.2.289A.218.218,0,0,1,91.764,235.185Z" fill="#d6822f"/>
        </g>
        <g id="Group_16642" data-name="Group 16642">
          <path id="Path_33279" data-name="Path 33279" d="M99.071,244.581c-2.353-.07-3.281-5.514-3.379-6.135-3.725-15.318.493-18.287.674-18.406a.25.25,0,0,1,.276.418c-.041.027-4.084,2.981-.459,17.89.252,1.593,1.256,5.685,2.9,5.733a.25.25,0,0,1-.008.5Z" fill="#d6822f"/>
        </g>
        <path id="Path_33280" data-name="Path 33280" d="M99.928,223.3s1.032-2.152,2.111-.841,1.812,8.771,3.158,12.477,2.361,7.408,0,7.223-3.158-1.217-3.158-1.217l.141-1.736s3.173,2.328,2.393-.235a136.833,136.833,0,0,1-3.174-13.647c-.187-2.158-1-.053-1-.053Z" fill="#e18931"/>
        <g id="Group_16643" data-name="Group 16643">
          <path id="Path_33281" data-name="Path 33281" d="M103.27,234.769a.25.25,0,0,1-.244-.2c-.012-.058-1.286-5.83-1.809-8.672a3.852,3.852,0,0,0-.342-1.2,2.331,2.331,0,0,0-.235.621.247.247,0,0,1-.3.186.249.249,0,0,1-.186-.3c.093-.4.311-1.055.725-1.055.384.009.613.472.831,1.652.521,2.834,1.793,8.6,1.806,8.655a.251.251,0,0,1-.191.3A.242.242,0,0,1,103.27,234.769Z" fill="#d6822f"/>
        </g>
      </g>
    </g>
    <g id="Group_16679" data-name="Group 16679" transform="translate(-1381.286 -48.655)">
      <path id="Path_33320" data-name="Path 33320" d="M1748.184,258.128a2.131,2.131,0,0,0-.394-1.1,2.642,2.642,0,0,0-2.951-.636,4.283,4.283,0,0,0-2.569,1.782,12.03,12.03,0,0,1-1.982,2.87c-.111.092.048.249.158.158a3.625,3.625,0,0,0,.282-.263.108.108,0,0,0,.085.086,17.666,17.666,0,0,0,1.2,1.757l-.022.008c-.131.058-.018.249.113.193.193-.084.5.029.705.039a2.439,2.439,0,0,0,1.594-.494c.757-.572,1.151-1.5,1.954-2.024.615-.4,1.46-.573,1.794-1.3A1.413,1.413,0,0,0,1748.184,258.128Z" transform="translate(-179.652 -36.844)" fill="#e47d72"/>
      <path id="Path_33321" data-name="Path 33321" d="M1499.312,218.4c-.154-.454-.615-.405-.874-.075a4.917,4.917,0,0,0-.522,1.208q-.171.451-.322.907c0-.063-.007-.126-.01-.189-.036-.925.042-1.855.065-2.781.054-.5.115-1,.172-1.5.034-.3.177-.812.006-1.092-.225-.369-.509-.141-.666.128a4.475,4.475,0,0,0-.31.657c.018-.184.032-.369.035-.555,0-.24.087-.832-.239-.94-.468-.155-.757.675-.9,1.309-.074-.281-.218-.446-.483-.328-.314.14-.5.827-.606,1.129a4.837,4.837,0,0,0-.241,1.681c-.117-.693-.342-1.358-.8-1.03-.318.227-.3.9-.317,1.242a7.6,7.6,0,0,0,.2,2.086c.533,2.388,1.718,5.274,4.4,5.806.172.034.245-.229.073-.264-.033-.007-.063-.017-.1-.024a1.018,1.018,0,0,0,.315-.273.135.135,0,0,0,.243-.08,14.14,14.14,0,0,1,.352-4.019c.14-.531.314-1.055.425-1.594A3.074,3.074,0,0,0,1499.312,218.4Z" transform="translate(0 -6.242)" fill="#e47d72"/>
      <path id="Path_33322" data-name="Path 33322" d="M1612.908,205.976a.418.418,0,0,0-.52-.4,37.66,37.66,0,0,0-6.916,1.778,16.676,16.676,0,0,0-5.217,3.405,7.755,7.755,0,0,1-3.428,2.057c-1.184.3-2.417.343-3.606.627a12.477,12.477,0,0,0-5.6,2.9,16.4,16.4,0,0,0-3.5,5.486,29.272,29.272,0,0,1-3.587,6.227,8.49,8.49,0,0,0-1.9,5.61,36.237,36.237,0,0,0,.9,7.447.383.383,0,0,0,.633.2.419.419,0,0,0,.134-.015c3.12-.892,6.791-2.074,8.106-5.383.714-1.8.258-3.741.751-5.57.56-2.08,3.01-4.07,4.961-4.8,1.3-.487,2.476-.767,3.193-2.043.307-.547.405-1.083,1.011-1.406a4.1,4.1,0,0,1,1.736-.369c.957-.04,1.911.115,2.864.168a5.943,5.943,0,0,0,4.255-1.2c1.877-1.462,3.382-2.751,5.872-2.947a.418.418,0,0,0,.411-.412Q1613.189,211.659,1612.908,205.976Z" transform="translate(-62.088)" fill="#f7d6c6"/>
      <path id="Path_33323" data-name="Path 33323" d="M1557.54,667.85c-.084.345.072.741.355.79a3.931,3.931,0,0,1,1.6.651.533.533,0,0,0,.746-.309q2.432-6.255,4.633-12.617c.135-.391-.027-.647-.263-.724a.648.648,0,0,0-.075-.211c-.4-.706-1.289-1.532-2.094-1.3-.959.272-1.351,2.209-1.7,3.152A100.334,100.334,0,0,0,1557.54,667.85Z" transform="translate(-46.725 -326.269)" fill="#e47d72"/>
      <path id="Path_33324" data-name="Path 33324" d="M1538.578,696.911c-.616.449-1.275,1.285-.268,2.014a3.523,3.523,0,0,0,3.369.053c1.118-.434,1.478-.656,2.619-1.032a11.468,11.468,0,0,0,2.188-.884c.462-.316,1.316-3.48,1.253-4.919a.385.385,0,0,0-.362-.342c-1.055.019-2.67-.145-3.739-.081-.52.031-.485,1.656-.953,2.337C1542.162,694.82,1539.262,696.413,1538.578,696.911Z" transform="translate(-32.374 -353.633)" fill="#e5e3e4"/>
      <path id="Path_33325" data-name="Path 33325" d="M1557.45,696.017c.164-.051.117-.317-.049-.266a1.366,1.366,0,0,1-1.211-.075c-.023.088-.044.18-.065.274A1.65,1.65,0,0,0,1557.45,696.017Zm-1.582.9a1.657,1.657,0,0,0,1.317.061c.164-.051.117-.317-.049-.266a1.393,1.393,0,0,1-1.182-.056Q1555.915,696.788,1555.868,696.913Z" transform="translate(-45.525 -356.522)" fill="#303059"/>
      <path id="Path_33326" data-name="Path 33326" d="M1537.811,710.582a3.4,3.4,0,0,0,2.288.609,13.271,13.271,0,0,0,3.34-.8,21.644,21.644,0,0,1,3.3-1.242,1.054,1.054,0,0,1-.251.6,11.474,11.474,0,0,1-2.188.884c-1.141.376-1.5.6-2.619,1.032a3.522,3.522,0,0,1-3.369-.053A.967.967,0,0,1,1537.811,710.582Z" transform="translate(-32.374 -366.32)" fill="#303059"/>
      <path id="Path_33327" data-name="Path 33327" d="M1673.794,546.86c.355,0,.705-.237.69-.524a3.932,3.932,0,0,1,.274-1.7.533.533,0,0,0-.469-.657q-6.642-.96-13.336-1.671c-.412-.043-.625.172-.646.419a.662.662,0,0,0-.189.121c-.6.552-1.2,1.6-.8,2.334.481.873,2.457.818,3.453.941A100.243,100.243,0,0,0,1673.794,546.86Z" transform="translate(-120.684 -244.948)" fill="#e47d72"/>
      <path id="Path_33328" data-name="Path 33328" d="M1705.018,552.995c.576.5,1.539.953,2.022-.193a3.523,3.523,0,0,0-.708-3.294c-.675-.992-.972-1.292-1.6-2.319a11.478,11.478,0,0,0-1.354-1.932c-.411-.379-3.687-.5-5.075-.113a.385.385,0,0,0-.251.43c.256,1.023.46,2.633.763,3.661.148.5,1.723.1,2.492.4C1702.173,549.973,1704.378,552.441,1705.018,552.995Z" transform="translate(-148.953 -246.846)" fill="#e5e3e4"/>
      <path id="Path_33329" data-name="Path 33329" d="M1703.691,556.6c-.087-.148-.335-.043-.248.108a1.366,1.366,0,0,1,.2,1.2c.09,0,.185,0,.282,0A1.65,1.65,0,0,0,1703.691,556.6Zm1.229,1.339a1.658,1.658,0,0,0-.237-1.3c-.087-.148-.335-.042-.248.108a1.393,1.393,0,0,1,.212,1.164C1704.742,557.924,1704.833,557.932,1704.921,557.944Z" transform="translate(-152.863 -255.304)" fill="#303059"/>
      <path id="Path_33330" data-name="Path 33330" d="M1718.665,554.166a3.4,3.4,0,0,0,.078-2.366,13.265,13.265,0,0,0-1.535-3.073,21.669,21.669,0,0,1-1.953-2.931,1.052,1.052,0,0,1,.638.11,11.448,11.448,0,0,1,1.354,1.932c.624,1.027.921,1.327,1.6,2.319a3.522,3.522,0,0,1,.708,3.294A.967.967,0,0,1,1718.665,554.166Z" transform="translate(-161.47 -247.492)" fill="#303059"/>
      <path id="Path_33331" data-name="Path 33331" d="M1592.5,486.628c-1.526-.459-5.1-1.082-6.658-1.343-1.375-.231-2.752-.456-4.126-.7.464-1.281.892-2.576,1.263-3.892a51.391,51.391,0,0,0,1.521-7.589q.213-1.7.315-3.421a5.248,5.248,0,0,0-.273-2.943c-.994-1.671-4.287-1.615-5.915-1.594a16.624,16.624,0,0,0-7.167,1.787.805.805,0,0,0-.411.428.893.893,0,0,0-.6.612c-.09.278-.177.558-.266.836a4.81,4.81,0,0,0-2.07-1.485,18.321,18.321,0,0,0-8.889-1.487,1.335,1.335,0,0,0-.54.156,1.308,1.308,0,0,0-1.51,1.5,75.5,75.5,0,0,0,4.624,16.948q1.1,2.751,2.414,5.4-3.906,15.78-6.265,31.925a1.013,1.013,0,0,0,.418,1.082l4.449,2.314a.9.9,0,0,0,1.247-.344q5.893-13.24,11.778-26.483c.568-.178,1.124-.364,1.655-.52,2.886-.849,11.44-3.766,12.851-4.3.985-.37,2.73-.625,3.166-1.762C1594.415,489.405,1592.951,486.765,1592.5,486.628Z" transform="translate(-46.461 -188.823)" fill="#e5e3e4"/>
      <path id="Path_33332" data-name="Path 33332" d="M1568.614,254.662a10.041,10.041,0,0,0-1.248-1.515c-.62-.684-1.291-1.734-2.307-1.245a10.608,10.608,0,0,0-1.812,1.16,3.3,3.3,0,0,0-1.189-.49,3.552,3.552,0,0,0-2.661.958c-1.385,1-2.76,2.01-4.14,3.016q-3.683,2.683-7.367,5.366c-2.748,2-5.456,4.189-8.379,5.929q-.3.179-.606.333c-.035-.162-.106-.315-.134-.477-.479-2.833-3.75-1.947-8.452-2.151-1.867-.081-6.39-1.29-7.384.591a5.115,5.115,0,0,0-.514,1.838,6.434,6.434,0,0,1-3.852-1.835c-.925-1.036-1.564-2.295-2.449-3.366-1.05-1.272-2.385-2.252-3.539-3.42-2.285-2.312-2.88-5.534-4.575-8.214a6.41,6.41,0,0,0-3.226-2.76,13.206,13.206,0,0,0-1.618-2.813c-.2-.259-.327-.386-.661-.288a10.016,10.016,0,0,0-1.774.841c-.814.435-2,.829-1.77,1.934a13.36,13.36,0,0,0,1.112,2.976,8.473,8.473,0,0,0,.166,5.759c1.333,3.552,4.159,6.332,5.708,9.8,1.5,3.354,2.882,6.289,5.874,8.565.589.448,1.2.867,1.811,1.283.047,1.955.509,3.877.534,5.871.037,2.944-1.841,5.166-2.531,7.915-.719,2.868-.113,5.839-.954,8.7-.745,2.539-1.623,5.121-.256,7.616a.767.767,0,0,0,.356.344c2.552,4.268,8.38,3.5,12.769,3.656,3.187.11,6.356.491,9.513.918a59.015,59.015,0,0,0,7.033.961,9.9,9.9,0,0,0,3.745-.518c.535-.193,1.05-.447,1.6-.6a20.071,20.071,0,0,0,2.109-.416c2.139-.833,2.255-4.041,2.167-5.963a47.343,47.343,0,0,0-1.456-7.707,19.953,19.953,0,0,1-.528-4.14,43,43,0,0,1,.453-4.48,9.834,9.834,0,0,0-.413-4.545,29.387,29.387,0,0,0-1.983-3.562c-.658-1.2,1.506-4.211,1.849-4.438,1.948-1.289,3.315-3.206,5.025-4.763a8.533,8.533,0,0,1,3.264-1.874,6.983,6.983,0,0,0,3.027-1.577,13.3,13.3,0,0,0,1.728-2.633,8.534,8.534,0,0,1,3.179-3.13c.886-.494,1.914-.784,2.377-1.771a4.041,4.041,0,0,0,0-2.74,13.1,13.1,0,0,0,2.255-2.194C1568.7,255.117,1568.79,254.962,1568.614,254.662Z" transform="translate(-4.107 -28.861)" fill="#ff5959"/>
      <path id="Path_33333" data-name="Path 33333" d="M1589.743,334.187a5.517,5.517,0,0,1-3.07-1.125c-.983-.943-.8-2.275-.585-3.488.031-.17-.229-.244-.261-.072a4.174,4.174,0,0,0,.37,3.443,5.17,5.17,0,0,0,3.475,1.5C1589.842,334.476,1589.916,334.215,1589.743,334.187Z" transform="translate(-67.18 -90.081)" fill="#303059"/>
      <path id="Path_33334" data-name="Path 33334" d="M1627.762,332.23a4.4,4.4,0,0,1-.523,1.965,3.006,3.006,0,0,1-1.783,1.1,26.292,26.292,0,0,1-4.21.775c-.171.02-.173.291,0,.271a18.059,18.059,0,0,0,4.951-1.014c1.354-.578,1.692-1.732,1.834-3.1C1628.051,332.057,1627.78,332.059,1627.762,332.23Z" transform="translate(-92.99 -92.043)" fill="#303059"/>
      <path id="Path_33335" data-name="Path 33335" d="M1638.267,274.611c.165-.356.306-.506.174-.927-.342-1.088-1.691-.9-2.6-.919a.137.137,0,0,0-.052-.011c-.028,0-.057,0-.085,0l-.05,0a.258.258,0,0,0-.065.009,6.821,6.821,0,0,0-4.554,3.035,2.153,2.153,0,0,0-.372.985,7.539,7.539,0,0,1,0,.988,1.961,1.961,0,0,1-.439.81,8.762,8.762,0,0,0-1.833,2.281c-.521,1.286-1.083,4.119.692,4.742.844.3,1.427-.418,1.923-.992a12.541,12.541,0,0,1,1.756-2.01,24.568,24.568,0,0,0,3.475-2.911c.766-.829,1.3-1.165,1.292-2.335a7.886,7.886,0,0,1-.006-1.373C1637.616,275.408,1638.045,275.093,1638.267,274.611Z" transform="translate(-97.902 -48.872)" fill="#303059"/>
      <path id="Path_33336" data-name="Path 33336" d="M1611.05,243.552c-1.24-.184-2.494-.12-3.74-.228a7.621,7.621,0,0,1-2.566-.64,6.226,6.226,0,0,0-1.793-.641c-2.274-.288-4.61,1.485-6.153,2.971a16.784,16.784,0,0,0-3.772,6.15,7.923,7.923,0,0,1-1.224,2.255,10.331,10.331,0,0,1-1.539,1.225,4.772,4.772,0,0,0-1.673,2.9c-.47,2.353-.1,5.193,2.167,6.462a.7.7,0,0,0,.245.083.682.682,0,0,0,.435.193,6.752,6.752,0,0,0,2.948.007,6.279,6.279,0,0,0,1.18-1.886c.714-1.8.258-3.741.751-5.57.56-2.08,3.01-4.07,4.961-4.8,1.3-.487,2.476-.767,3.193-2.043.307-.547.405-1.084,1.011-1.406a4.1,4.1,0,0,1,1.736-.368c.957-.04,1.911.115,2.864.168a5.942,5.942,0,0,0,4.256-1.2c.363-.283.713-.559,1.058-.823A5.468,5.468,0,0,0,1611.05,243.552Z" transform="translate(-69.198 -26.509)" fill="#e3b1bb"/>
      <path id="Path_33337" data-name="Path 33337" d="M1608.347,254.229a1.194,1.194,0,0,0-.5-.743c-.163-.1-1.039-.136-1.3-.241a1.3,1.3,0,0,1-.588-.627c-.855-1.931-3.171.946-3.909,2.325a7.1,7.1,0,0,1-1.976,2.158,3.366,3.366,0,0,0-.965,1.245,3.3,3.3,0,0,0,.338,3.164.256.256,0,0,0,.2.122.225.225,0,0,0,.3-.053c.953-1.111,3.064-.929,4.3-1.8a5.413,5.413,0,0,0,1.113-1.144,10.688,10.688,0,0,1,2.09-1.986A2.167,2.167,0,0,0,1608.347,254.229Z" transform="translate(-76.785 -33.754)" fill="#303059"/>
      <path id="Path_33338" data-name="Path 33338" d="M1608.772,272.141a4.826,4.826,0,0,0-4.152-1.12.6.6,0,0,0-.515-.046c-1.55.5-2.684.388-3.479,1.736-1.225,2.079-1.661,5.992-1.729,8.225a8.508,8.508,0,0,0,1.532,5.077c.968,1.417,3.594,1.061,5.21.433a6.333,6.333,0,0,0,3.755-3.464,13.259,13.259,0,0,0,1.99-5.791A5.972,5.972,0,0,0,1608.772,272.141Z" transform="translate(-76.823 -47.528)" fill="#e47d72"/>
      <path id="Path_33339" data-name="Path 33339" d="M1632.266,256.567c-.667-.113-.485-.269-.956-.646a1.732,1.732,0,0,0-.438-.244,2.377,2.377,0,0,0-1.8.123,9.147,9.147,0,0,0-3.839,3.486c-.364.58-1.942,2.185-1.255,2.443a2.625,2.625,0,0,1,1.807,1.989c.14,1.731-.178,2.734.925,3.861a1.518,1.518,0,0,1,.3.855c0,.592-.349.872-.625,1.342a1.756,1.756,0,0,0,0,1.877c.137.308.126,1.235.6,1.285.541.056.992-1.141,1.165-1.467a11.311,11.311,0,0,0,1.671-5.212c0-.361.095-1.14-.242-1.441.506-.587,1.248-.981,1.578-1.672.174-.364.026-.532.122-.884q-.025-.191-.049-.383a1.573,1.573,0,0,1,1.076-.714c.56-.25,1.153-.316,1.5-.9a2.142,2.142,0,0,0,.182-.5,2.805,2.805,0,0,0-.029-.454.809.809,0,0,1,.516-.692c.228-.315.48-.382.489-.838C1634.994,256.335,1633.106,256.708,1632.266,256.567Z" transform="translate(-94.944 -36.355)" fill="#303059"/>
      <path id="Path_33340" data-name="Path 33340" d="M1610.106,270.229a2.687,2.687,0,0,0-1-1.772c-1.442-1.093-3.507-.559-5.077-.085-1.528.462-3.254,1.67-2.679,3.5a.13.13,0,0,0,.04.06,2.966,2.966,0,0,0-.276.866c-.027.171.234.245.262.072.385-2.373,3.153-2.834,5.135-2.5a4.236,4.236,0,0,1,1.381.454,4.64,4.64,0,0,1,1.08,1.007c.254.272.684.6,1,.228C1610.329,271.663,1610.18,270.694,1610.106,270.229Z" transform="translate(-78.44 -45.279)" fill="#303059"/>
      <path id="Path_33341" data-name="Path 33341" d="M1533.02,318.121q-3.292-.2-6.585-.4c-.174-.01-.173.26,0,.27q3.292.2,6.585.4C1533.194,318.4,1533.193,318.131,1533.02,318.121Zm4.542-13.537q-3.292-.2-6.585-.4c-.174-.01-.173.26,0,.27q3.292.2,6.585.4C1537.737,304.865,1537.736,304.594,1537.562,304.583Zm21.791,16.64a65.366,65.366,0,0,0-14.976-1.688.136.136,0,0,0,0,.271,65.943,65.943,0,0,1,14.9,1.68C1559.452,321.524,1559.524,321.263,1559.353,321.223Zm.363-14.718a65.365,65.365,0,0,0-14.976-1.688.136.136,0,0,0,0,.271,65.946,65.946,0,0,1,14.9,1.68C1559.815,306.806,1559.888,306.544,1559.717,306.5Zm-31.319-9.37a9.618,9.618,0,0,1,2.621-3.245c.136-.109-.056-.3-.192-.192a9.723,9.723,0,0,0-2.664,3.3C1528.087,297.154,1528.32,297.291,1528.4,297.135Zm2.166-.7q-1.008.807-2.016,1.614c-.136.11.057.3.192.192q1.01-.8,2.016-1.614C1530.892,296.517,1530.7,296.327,1530.564,296.434Zm28.078,2.784c.076.157.31.02.234-.137a21.6,21.6,0,0,0-2.058-3.416c-.1-.139-.338,0-.234.137A21.916,21.916,0,0,1,1558.642,299.219Zm-.274,1.672c.111.135.3-.057.192-.192q-1.22-1.5-2.447-3c-.11-.135-.3.057-.192.192Q1557.144,299.39,1558.368,300.891Zm-15.163-11.885a8.9,8.9,0,0,0-.943,3.379,14.736,14.736,0,0,0,.5,3.764c.294,1.636-.613,3.143-1.232,4.594a19.5,19.5,0,0,0-1.261,3.786c-.57,2.841.018,5.708.123,8.562.112,3.071-.721,5.971-1.4,8.933-.663,2.88-1.083,5.927-.08,8.781.058.164.32.093.262-.072-1.911-5.462,1.339-10.878,1.5-16.342.084-2.862-.589-5.706-.321-8.568a14.966,14.966,0,0,1,1.05-4.057,30.462,30.462,0,0,0,1.572-3.914c.341-1.429-.3-2.679-.426-4.086a8.567,8.567,0,0,1,.891-4.624C1543.519,288.987,1543.285,288.849,1543.206,289.006Zm15.119,36.142c-.422-.28-.859-.539-1.292-.8q-2.547-1.543-5.217-2.87a.132.132,0,0,0-.122,0,.116.116,0,0,0-.109.065q-.4.742-.8,1.485a.139.139,0,0,0,.049.186c2.287,1.452,4.392,2.681,6.762,3.993.154.085.339-.1.328-.1.285-.351.936-1.115.763-1.613C1558.632,325.323,1558.46,325.237,1558.324,325.147Zm-.6,1.767a.141.141,0,0,0-.028.061q-3.363-1.87-6.615-3.928l.689-1.286c1.289.648,2.561,1.327,3.81,2.048q.933.538,1.849,1.1a3.451,3.451,0,0,1,.859.539C1558.6,325.866,1557.98,326.6,1557.729,326.915Zm-25.641-6.711a.786.786,0,0,0-.5.053c-.487.137-.97.3-1.451.455q-2.832.922-5.58,2.076a.132.132,0,0,0-.079.092.116.116,0,0,0-.022.125q.3.787.6,1.573a.139.139,0,0,0,.173.085c2.593-.783,4.9-1.575,7.441-2.512.165-.061.148-.32.136-.315C1532.731,321.39,1532.578,320.4,1532.088,320.2Zm-6.817,4.163-.524-1.361c1.332-.552,2.677-1.073,4.039-1.548q1.017-.355,2.044-.679a3.455,3.455,0,0,1,.969-.3c.515.037.667.989.739,1.382a.14.14,0,0,0,.028.061Q1528.953,323.248,1525.271,324.366Zm38.115-39.36c-.029-.172-.289-.1-.261.072a15.433,15.433,0,0,0,2.017,5.486.136.136,0,0,0,.234-.137A15.4,15.4,0,0,1,1563.386,285.006Zm11.405-.137a13.024,13.024,0,0,0-1.392-2.653c-.1-.143-.332-.008-.234.137a12.97,12.97,0,0,1,1.364,2.588C1574.592,285.1,1574.854,285.033,1574.791,284.869Zm-54.6-7.918a9.854,9.854,0,0,0-2.619,4.98c-.034.17.227.243.261.072a9.626,9.626,0,0,1,2.549-4.86C1520.5,277.018,1520.311,276.826,1520.189,276.951Zm6.279,8.645a9.911,9.911,0,0,0-5.2,3.137c-.114.131.077.323.192.192a9.692,9.692,0,0,1,5.079-3.067C1526.71,285.818,1526.638,285.556,1526.468,285.6Z" transform="translate(-17.663 -51.895)" fill="#c63737"/>
      <path id="Path_33342" data-name="Path 33342" d="M1619.061,265.247a4.359,4.359,0,0,0-1.729,1.72c-.1.146.138.282.236.138a4.089,4.089,0,0,1,1.631-1.622C1619.359,265.411,1619.221,265.177,1619.061,265.247Z" transform="translate(-90.219 -43.401)" fill="#20203b"/>
      <path id="Path_33343" data-name="Path 33343" d="M1613.08,269.029l-.6.86c-.1.144.135.28.235.137l.6-.859C1613.416,269.023,1613.18,268.886,1613.08,269.029Z" transform="translate(-86.687 -46.118)" fill="#20203b"/>
      <path id="Path_33344" data-name="Path 33344" d="M1654.148,279.5c-1.226.268-1.987,1.361-3.125,1.813-.161.064-.091.328.073.263,1.134-.45,1.911-1.547,3.125-1.813C1654.392,279.721,1654.319,279.459,1654.148,279.5Z" transform="translate(-114.678 -53.773)" fill="#20203b"/>
      <path id="Path_33345" data-name="Path 33345" d="M1657.5,275.05a3.833,3.833,0,0,0-1.483.77c-.135.112.059.3.193.193a3.513,3.513,0,0,1,1.362-.7A.136.136,0,0,0,1657.5,275.05Z" transform="translate(-118.343 -50.538)" fill="#20203b"/>
      <path id="Path_33346" data-name="Path 33346" d="M1639.425,301.4a3.027,3.027,0,0,0-1.282.646,4.066,4.066,0,0,0-.956.9c-.1.141.132.277.236.138a3.912,3.912,0,0,1,.973-.88,2.618,2.618,0,0,1,1.1-.539C1639.67,301.639,1639.6,301.376,1639.425,301.4Z" transform="translate(-104.66 -69.709)" fill="#20203b"/>
      <path id="Path_33347" data-name="Path 33347" d="M1598.526,319.007c-.081-1.351-.158-3.255-1.439-4.2-1.5-1.1-4.3-1.37-6.155-1.663-2.176-.343-6.795-.932-7.114-.924a4.644,4.644,0,0,0-3.611,1.817,7.726,7.726,0,0,0-1.722,4.843c.279,3.174,4.339,3.674,7.236,3.671a52.252,52.252,0,0,1,6.774.416c1.621.21,3.434.436,4.829-.507C1598.579,321.613,1598.6,320.284,1598.526,319.007Z" transform="translate(-61.968 -77.581)" fill="#f7d6c6"/>
      <path id="Path_33348" data-name="Path 33348" d="M1602.517,326.109c-2.26-2.216-5.389-3.016-8.407-3.594-.172-.033-.245.23-.073.263,2.97.569,6.062,1.342,8.287,3.524C1602.449,326.424,1602.642,326.232,1602.517,326.109Zm-12.663-3.843a20.146,20.146,0,0,0-2.772-.076c-.175.007-.176.28,0,.273a20.151,20.151,0,0,1,2.772.076C1590.028,322.555,1590.027,322.283,1589.853,322.266Z" transform="translate(-68.135 -84.821)" fill="#e3b1bb"/>
      <path id="Path_33349" data-name="Path 33349" d="M1594.017,513.987a7.509,7.509,0,0,1-.207-4.307,18.3,18.3,0,0,0,.8-3.068,4.016,4.016,0,0,0,.014-.4c-.98-.163-1.959-.327-2.937-.5.464-1.28-6.4,14.941-5.877,13.756.568-.179,1.124-.364,1.655-.52,1.544-.454,4.709-1.5,7.536-2.456C1594.7,515.635,1594.27,514.8,1594.017,513.987Zm-14-19.149c.215-.476-.49-.892-.706-.413-.95,2.1-2.958,3.221-4.7,4.589a13.114,13.114,0,0,0-3.739,4.189q.433,1.191.9,2.368,1.1,2.751,2.414,5.4C1573.839,512.363,1579.983,494.9,1580.012,494.838Z" transform="translate(-56.434 -209.97)" fill="#c6c4c5"/>
      <path id="Path_33350" data-name="Path 33350" d="M1866.669,367.04a3.149,3.149,0,0,0,.76-2.788,11.615,11.615,0,0,0-1.547-4.033,5.05,5.05,0,0,1-.906-2.479,6.393,6.393,0,0,0-.2-1.906c-.981-2.917-4.433-3.246-6.975-2.556a.551.551,0,0,0-.317.887,14.075,14.075,0,0,1-1.282,20.645c-3.78,1.207-7.781,3.877-10.412,5.688a37.07,37.07,0,0,1-6.409,3.884,2.657,2.657,0,0,1-2.586.183,10.262,10.262,0,0,0-1.2-.762,33.45,33.45,0,0,1-3.764-.145,15.265,15.265,0,0,1-4.3-1.479c-.013-.005-.027-.007-.04-.013l-.164-.082c-.01,0-.016-.012-.025-.017a5.181,5.181,0,0,0-1.816-.33c-.692.146-1.393.254-2.068.463a13.212,13.212,0,0,0-2.584,1.312c0,.01,0,.02,0,.03a5.518,5.518,0,0,0-1.378,1.395c-.58.921-.462,2.006-.952,2.942a4.141,4.141,0,0,1-1.062,1.485c-.674.653-4.3,3.259-2.942,4.189a5.547,5.547,0,0,0,4.522.759c1.065-.342,1.859-1.1,2.986-.942.59.081,4.293,3.151,4.721,3.369,2.544,1.295.858,1.573,1.312,2.4a6.781,6.781,0,0,0,3.012,3.3,63.545,63.545,0,0,1-5.77,9.275,27.243,27.243,0,0,1-4.447,4.567c-.856.681-1.782,1.223-2.691,1.823-.391.258-.857.577-.855,1.1.006,1.411,2.36.884,3.113.628a11.453,11.453,0,0,0,4.546-3.575c3.256-3.6,7.114-6.49,10.781-9.643,1.017-.874,2.02-1.77,2.97-2.717a14.076,14.076,0,0,0,5.406-1.563,58,58,0,0,0,13.31-11.311c1.257-1.463.9-1.6,2.073-3.431a39.819,39.819,0,0,0,3.067-5.581c.7-1.6,1.665-3.765,1.086-5.54a2.673,2.673,0,0,0-2.419-1.921c2.164-.82,4.729-1.985,4.528-4.352-.048-.568-.405-1.059-.466-1.612C1865.168,367.519,1866.072,367.587,1866.669,367.04Z" transform="translate(-233.444 -107.226)" fill="#e5e3e4"/>
      <path id="Path_33351" data-name="Path 33351" d="M1997.422,443.007c-4.3-1.769-5.331-3.76-7.073-6.459a2.1,2.1,0,0,0-1.919-1.189c-1.482.027-3.031,1.839-4.519,1.194a10.258,10.258,0,0,0-.5-1.764,5.627,5.627,0,0,0-1.339-2.8,2.664,2.664,0,0,0-1.229-.65c-.315-.08-.632-.064-.945-.13a6.748,6.748,0,0,1-1.926-.855,5.245,5.245,0,0,0-3.8-.29c-.288.057-4.146.086-3.929.163-2.385,4.218-3.682,5.567-4.2,10.389-.013.116,1.806,4.962.88,5.612-.286.2.035.635.321.436a22.63,22.63,0,0,1,11.344-3.793c3.467-.312,6.953-2.234,9.762-4.135a9.9,9.9,0,0,0,6.02,5.74c1.085.352,2.567.759,3.476-.2C1998.346,443.754,1998.178,443.318,1997.422,443.007Z" transform="translate(-343.9 -163.15)" fill="#e5e3e4"/>
      <path id="Path_33352" data-name="Path 33352" d="M1843.764,448.317a3.578,3.578,0,0,1-.184-.407,14.1,14.1,0,0,0-.205-3.937c-.1-.475-.2-1.841-.91-1.905-.811-.073-.925,1.328-1.047,1.808q-.561,2.211-.964,4.457c-.07.388.537.435.609.052.038-.2.08-.409.119-.613a.952.952,0,0,0,.315.44.312.312,0,0,0,.469-.146l.014-.047a.315.315,0,0,0,.041-.019.814.814,0,0,0,.411.425.314.314,0,0,0,.361-.112,1.788,1.788,0,0,0,.158-.245l.005.047a.259.259,0,0,0,.12.2c.041.089.081.179.131.271C1843.392,448.933,1843.952,448.67,1843.764,448.317Z" transform="translate(-252.54 -172.035)" fill="#e5e3e4"/>
      <path id="Path_33353" data-name="Path 33353" d="M1856.46,449.163a21.2,21.2,0,0,0-.033-3.947c-.092-.694-.118-1.841-.9-2.094a.307.307,0,0,0-.306.053c-1.393,1.437-1.426,3.864-2.209,5.624-.16.36.413.568.573.212.046-.1.084-.2.125-.3a.335.335,0,0,0,.426.167c-.024.29.332.362.517.188a.785.785,0,0,0,.39-.334,4.865,4.865,0,0,0,.2.739.271.271,0,0,0,.413.125c-.007.111-.018.223-.035.334a.308.308,0,0,0,.614.052c.019-.2.026-.382.027-.566A.281.281,0,0,0,1856.46,449.163Z" transform="translate(-261.662 -172.791)" fill="#e5e3e4"/>
      <path id="Path_33354" data-name="Path 33354" d="M1817.177,517.175a.3.3,0,0,0-.414.24.246.246,0,0,0-.244.065c-3.947,3.828-9.147,5.634-14.316,7.161a27.368,27.368,0,0,0-3.395,1.013c-.5.221-1,.522-1.088,1.116-.214,1.446,1.875,1.37,2.767,1.177,1.251-.27,2.4-.937,3.612-1.323s2.451-.672,3.673-1.013a53.7,53.7,0,0,0,6.4-2.133,27.228,27.228,0,0,0,3.39-1.687,5.438,5.438,0,0,0,2.067-1.6C1820.467,518.675,1818.244,517.66,1817.177,517.175Z" transform="translate(-221.447 -226.653)" fill="#e5e3e4"/>
      <path id="Path_33355" data-name="Path 33355" d="M2007.139,432.3c-3.207-.13-6.2-.328-9.155-1.7a11.737,11.737,0,0,0-6.532-1.435c-1.832.191-3.595.55-5.392-.058a18.1,18.1,0,0,0-4.037-1.333c-2.737-.258-5.55,1.061-7.7,2.639-.368.271.1.925.475.652a15.162,15.162,0,0,1,3.1-1.766.361.361,0,0,0,.117.308c3.314,3.247,6.584,7.214,11.648,4.984a25.438,25.438,0,0,1,3.393-1.49c1.646-.454,3.082.113,4.622.638a25.1,25.1,0,0,0,8.048,1.173,22.849,22.849,0,0,0,3.959-.107c.575-.1,1.277-.363,1.4-1.008C2011.446,432.024,2008.013,432.333,2007.139,432.3Z" transform="translate(-349.832 -161.615)" fill="#e5e3e4"/>
      <path id="Path_33356" data-name="Path 33356" d="M1800.382,301.5a24,24,0,0,1,1.025-2.573,32.171,32.171,0,0,0,1.917-4.68c.616-2.277.69-4.991-.863-6.927-1.705-2.125-4.661-2.453-7.2-2.391-3.583.087-6.831,1.328-10.33,1.863-3.985.61-7.443-.969-8.481-5.048-.875-3.438-.344-7.349.525-10.728.778-3.027,2.313-6.058,1.858-9.263a5.692,5.692,0,0,0-5.384-5.145,20.173,20.173,0,0,0-4.745.367,12.542,12.542,0,0,0-5.039,1.681c-.294.19-.021.662.275.471,2.515-1.625,6.344-2.173,9.3-1.984,4.077.262,5.6,3.869,4.973,7.513-.559,3.271-1.977,6.3-2.432,9.616a19.686,19.686,0,0,0,.188,7.8,6.947,6.947,0,0,0,4.047,4.877c2.755,1.075,5.718.3,8.455-.407,3.192-.83,6.741-1.534,10.032-.84,3.609.761,5.13,3.738,4.554,7.228-.572,3.467-2.883,6.346-3.555,9.787a3.036,3.036,0,0,0-.067,1.491c.2.572.487.546.867.884.973.864,1.061.947.651,1.831-.193.416-.438.817-.671,1.21-.472.795-3.942,6.534-4.492,7.277-.21.283.266.557.474.277a83.394,83.394,0,0,0,5.347-8.885c.422-1.171.034-1.382-.762-2.075-.7-.612-.99-.933-.818-1.865A11.453,11.453,0,0,1,1800.382,301.5Z" transform="translate(-196.589 -37.101)" fill="#854e4e"/>
      <path id="Path_33357" data-name="Path 33357" d="M1866.977,464.753c-.5-.024-.98-.023-1.481,0a.264.264,0,0,0-.226.4c-1.729,4.433-3.517,8.879-6.615,12.661a.247.247,0,0,0,.1.349,9.545,9.545,0,0,1,1.439.8.291.291,0,0,0,.375-.092,34.113,34.113,0,0,0,6.674-13.79A.264.264,0,0,0,1866.977,464.753Z" transform="translate(-265.755 -188.527)" fill="#99a7e4"/>
      <path id="Path_33358" data-name="Path 33358" d="M1846.284,438.626a.448.448,0,0,0-.074-.084.392.392,0,0,0-.587-.266,5.189,5.189,0,0,0-2.156,3.157,9.478,9.478,0,0,1-2.723,4.646c-.874.779-1.839,1.691-1.7,2.98a1.79,1.79,0,0,0,1.862,1.614,6.179,6.179,0,0,0,2.025-.583c.834-.274,1.645-.019,2.44-.249,1.1-.318,1.638-1.593,2-2.57A9.64,9.64,0,0,0,1846.284,438.626Z" transform="translate(-251.511 -169.236)" fill="#303059"/>
      <path id="Path_33359" data-name="Path 33359" d="M1890.519,447.066a2.657,2.657,0,0,1-2.586.183,10.262,10.262,0,0,0-1.2-.762.885.885,0,0,0-.238-.029c-.225,2.01-1.75,3.651-1.973,5.7a3.411,3.411,0,0,0,1.728,3.528,3.975,3.975,0,0,0,2.484-.041c1.35-.222,2.458.576,3.786.674a5.92,5.92,0,0,0,4.96-2.1c1.265-1.521,1.4-3.214,1.411-5.112a3.515,3.515,0,0,1,1.8-3.387,8.647,8.647,0,0,0,2.128-1.635c.98-1.145,1.752-3.076.955-4.525a2.051,2.051,0,0,0-.309-.418,61.876,61.876,0,0,0-6.543,4.039A37.062,37.062,0,0,1,1890.519,447.066Z" transform="translate(-284.586 -169.91)" fill="#303059"/>
      <path id="Path_33360" data-name="Path 33360" d="M1974.445,387.239c1.252-1.43,1.383-3.164,1.977-4.882.551-1.593,1.521-2.767,1.394-4.542a5.552,5.552,0,0,0-1.653-3.6,10.7,10.7,0,0,0-2.325-1.451,14.088,14.088,0,0,1-3.535,16.054,1.668,1.668,0,0,0,.327.085A4.531,4.531,0,0,0,1974.445,387.239Z" transform="translate(-347.001 -121.627)" fill="#303059"/>
      <path id="Path_33361" data-name="Path 33361" d="M1814.523,497.811a5.122,5.122,0,0,0,.726.41c.117-.191.1-.475.218-.669.126-.211.3-.35.27-.619-.059-.55-.61-.663-1.078-.656C1814.2,496.895,1814.02,497.467,1814.523,497.811Z" transform="translate(-233.46 -211.47)" fill="#303059"/>
      <path id="Path_33362" data-name="Path 33362" d="M2006.26,435.758a1.935,1.935,0,0,0-1.036-.446c-.772-.1-1.323-.017-1.831-.728a1.958,1.958,0,0,0-.639-.682c-.5-.264-1.142-.086-1.684-.178-.882-.15-1.159-.782-1.8-1.267a1.228,1.228,0,0,0-1-.262c-.172.028-.1.288.072.262.8-.125,1.143.723,1.662,1.12a2.193,2.193,0,0,0,.805.379,5.351,5.351,0,0,0,1.19.082c.771.019.938.465,1.357.964.445.531,1.013.512,1.654.565a1.789,1.789,0,0,1,1.632,2.288.136.136,0,0,0,.262.072A2.084,2.084,0,0,0,2006.26,435.758Z" transform="translate(-367.274 -164.842)" fill="#c6c4c5"/>
      <path id="Path_33363" data-name="Path 33363" d="M1975.2,467.872a5.468,5.468,0,0,1-.811,2.648c-.091.15.143.286.234.137a5.741,5.741,0,0,0,.847-2.785C1975.483,467.7,1975.213,467.7,1975.2,467.872Z" transform="translate(-349.962 -190.713)" fill="#c6c4c5"/>
    </g>
    <g id="Group_16578" data-name="Group 16578" transform="translate(21.687 -1.836)">
      <path id="Path_33147" data-name="Path 33147" d="M258.43,227.852c.957-2.013,4.139-4.157,4.2-6.444.033-1.337-.666-2.6-.505-3.942.307-2.549,3.149-4.319,4.354-6.411,1.567-2.719,2.535-5.637,4.186-8.332a9.824,9.824,0,0,0,1.419-5.37c-.011-1.622-.449-3.147-.085-4.742a1.19,1.19,0,0,1,2.148-.281c1.671,2.445,1.272,6.619.316,9.3a19.914,19.914,0,0,1-2.424,4.169c-.957,1.469-1.64,3.079-2.5,4.6a15.234,15.234,0,0,1-2.629,3.61c-.455.435-.894.727-1.379,1.116a4.668,4.668,0,0,0-2.093,4.24,11.5,11.5,0,0,1-.173,4.047c-.518,1.81-3.289,3.175-4.2,4.808C258.831,228.639,258.23,228.272,258.43,227.852Z" transform="translate(-78.04 236.512) rotate(-42)" fill="#d7c6a5"/>
      <g id="Group_16569" data-name="Group 16569">
        <path id="Path_33148" data-name="Path 33148" d="M271.531,225.29c.345-2.359.017-4.767.209-7.144a21.353,21.353,0,0,1,1.133-5.151,9.011,9.011,0,0,0,.792-3.85c-.15-1.314-1.263-2.632-2.574-2.459s-2.02,1.638-2.381,2.922c-1.076,3.829-1.278,7.86-2.324,11.7-.673,2.473-2.962,10.143.13,11.846C269.723,234.916,271.2,227.589,271.531,225.29Z" fill="#c9b387"/>
        <path id="Path_33149" data-name="Path 33149" d="M266.407,233.744a4.011,4.011,0,0,1,1.949-3.088,26.515,26.515,0,0,0,3.105-1.814c1.647-1.367,2.245-3.59,2.817-5.653s1.329-4.278,3.126-5.441a1.866,1.866,0,0,1,.674-.3,1.626,1.626,0,0,1,1.5.731c.848,1.156.58,2.745.442,4.172-.173,1.785-.08,3.6-.427,5.358a6.125,6.125,0,0,1-2.823,4.367c-2.372,1.247-5.6.083-7.761,1.664Z" fill="#c9b387"/>
        <g id="Group_16567" data-name="Group 16567">
          <path id="Path_33150" data-name="Path 33150" d="M272.413,231.593a.139.139,0,0,1-.08-.026.134.134,0,0,1-.029-.188,8.1,8.1,0,0,1,1.178-1.219c.235-.211.478-.429.7-.658,1.8-1.861,2.383-4.572,2.714-6.979l.044-.323a12.784,12.784,0,0,1,.561-2.694.135.135,0,0,1,.253.092,12.662,12.662,0,0,0-.547,2.638l-.044.323c-.337,2.451-.931,5.214-2.787,7.131-.227.235-.474.456-.712.671a7.887,7.887,0,0,0-1.142,1.176A.131.131,0,0,1,272.413,231.593Z" fill="#937c4d"/>
        </g>
        <path id="Path_33151" data-name="Path 33151" d="M269.315,230.581c-.766-1.609.109-3.008.2-3.9.121-1.219-.111-1.748-.081-2.973a16.879,16.879,0,0,1,1.12-5.119,24.024,24.024,0,0,1,3.408-6.769c1.542-2.014,3.332-4.2,5.867-4.306a2.678,2.678,0,0,1,2.485,2.7,5.615,5.615,0,0,1-1.617,3.653,13.167,13.167,0,0,1-3.029,2.578,12.27,12.27,0,0,0-2.608,1.781c-1.5,1.584-1.54,4.012-1.545,6.2s.179,7.036-4.39,9.414C267.185,233.836,269.933,231.879,269.315,230.581Z" fill="#d7c6a5"/>
        <g id="Group_16568" data-name="Group 16568">
          <path id="Path_33152" data-name="Path 33152" d="M270.569,229.924a.133.133,0,0,1-.074-.022.135.135,0,0,1-.039-.187,7.793,7.793,0,0,0,.3-2.554,32.736,32.736,0,0,1,.945-7.336,10.817,10.817,0,0,1,4.351-6.315c.275-.177.565-.336.847-.49a7.9,7.9,0,0,0,1.38-.884.135.135,0,1,1,.176.2,8.124,8.124,0,0,1-1.427.917c-.277.152-.563.308-.831.48a10.549,10.549,0,0,0-4.236,6.158,32.552,32.552,0,0,0-.936,7.278,7.2,7.2,0,0,1-.348,2.69A.134.134,0,0,1,270.569,229.924Z" fill="#c9b387"/>
        </g>
      </g>
      <path id="Path_33153" data-name="Path 33153" d="M276.787,203.884c-2.821-1.07-6.131,2.493-8.02,4.287-2.089,1.984-4.214,4.25-4.469,7.254-.133,1.567.59,3.181.375,4.707-.291,2.066-2.121,2.53-3.206,3.918a12.4,12.4,0,0,0-2.06,7.7.025.025,0,0,0,.043.018c2.141-1.88,1.169-5.428,3.58-7.3,2.047-1.592,3.73-1.9,4.371-4.7.323-1.411-.005-2.936.386-4.326.444-1.582,1.882-2.773,3.077-3.807a55.263,55.263,0,0,1,4.59-3.455c1.165-.814,1.993-1.26,2.216-2.737A1.316,1.316,0,0,0,276.787,203.884Z" transform="matrix(0.819, -0.574, 0.574, 0.819, -79.323, 192.4)" fill="#d7c6a5"/>
      <g id="Group_16570" data-name="Group 16570" transform="matrix(0.819, -0.574, 0.574, 0.819, -79.323, 192.4)">
        <path id="Path_33154" data-name="Path 33154" d="M265.839,217.909a.136.136,0,0,1-.133-.111c-.529-3.031,1.318-5.72,2.466-7.054a32.082,32.082,0,0,1,3.248-3.123c.767-.671,1.56-1.365,2.29-2.1a.135.135,0,0,1,.191.191c-.736.737-1.533,1.434-2.3,2.108a31.792,31.792,0,0,0-3.222,3.1c-1.117,1.3-2.914,3.91-2.4,6.831a.134.134,0,0,1-.11.156A.09.09,0,0,1,265.839,217.909Z" fill="#c9b387"/>
      </g>
      <g id="Group_16571" data-name="Group 16571" transform="translate(2 2)">
        <path id="Path_33155" data-name="Path 33155" d="M273.951,208.409a.135.135,0,0,1-.087-.238,6.882,6.882,0,0,0,1.591-1.914.135.135,0,0,1,.235.132,7.1,7.1,0,0,1-1.653,1.988A.135.135,0,0,1,273.951,208.409Z" fill="#c9b387"/>
      </g>
      <g id="Group_16572" data-name="Group 16572" transform="translate(2 2)">
        <path id="Path_33156" data-name="Path 33156" d="M273.086,211.115a.131.131,0,0,1-.1-.046.135.135,0,0,1,.013-.19,6.86,6.86,0,0,0,.862-.9.135.135,0,1,1,.211.168,7.081,7.081,0,0,1-.9.936A.131.131,0,0,1,273.086,211.115Z" fill="#937c4d"/>
      </g>
      <g id="Group_16573" data-name="Group 16573">
        <path id="Path_33157" data-name="Path 33157" d="M279.442,211.592a.134.134,0,0,1-.12-.074.136.136,0,0,1,.059-.182,1.2,1.2,0,0,0,.642-.937.137.137,0,0,1,.147-.121.135.135,0,0,1,.121.147,1.479,1.479,0,0,1-.788,1.152A.137.137,0,0,1,279.442,211.592Z" fill="#c9b387"/>
      </g>
      <g id="Group_16574" data-name="Group 16574">
        <path id="Path_33158" data-name="Path 33158" d="M275.475,212.028c-.114-.032-.151-.109-.127-.179a2.593,2.593,0,0,1,.768-1.131.135.135,0,0,1,.19.014.134.134,0,0,1-.015.19,2.326,2.326,0,0,0-.688,1.014A.135.135,0,0,1,275.475,212.028Z" fill="#c9b387"/>
      </g>
      <g id="Group_16575" data-name="Group 16575">
        <path id="Path_33159" data-name="Path 33159" d="M276.274,229.064a.134.134,0,0,1-.114-.062.136.136,0,0,1,.041-.187,3.048,3.048,0,0,0,1.173-1.409.135.135,0,1,1,.249.1,3.313,3.313,0,0,1-1.277,1.534A.129.129,0,0,1,276.274,229.064Z" fill="#937c4d"/>
      </g>
      <g id="Group_16576" data-name="Group 16576">
        <path id="Path_33160" data-name="Path 33160" d="M278.23,218.925a.134.134,0,0,1-.108-.215l.344-.466a.135.135,0,1,1,.217.16l-.344.466A.134.134,0,0,1,278.23,218.925Z" fill="#937c4d"/>
      </g>
      <g id="Group_16577" data-name="Group 16577">
        <path id="Path_33161" data-name="Path 33161" d="M278.4,222.129a.135.135,0,0,1-.089-.237l.27-.235a.134.134,0,1,1,.177.2l-.27.236A.13.13,0,0,1,278.4,222.129Z" fill="#937c4d"/>
      </g>
    </g>
    <line id="Line_719" data-name="Line 719" x2="20" transform="translate(260.5 237.5)" fill="none" stroke="#182149" stroke-linecap="round" stroke-width="1"/>
    <line id="Line_720" data-name="Line 720" x2="29" transform="translate(283.5 237.5)" fill="none" stroke="#182149" stroke-linecap="round" stroke-width="1"/>
  </g>
</svg>
