<svg xmlns="http://www.w3.org/2000/svg" xmlns:xlink="http://www.w3.org/1999/xlink" width="41" height="41" viewBox="0 0 41 41">
  <defs>
    <clipPath id="clip-path">
      <rect id="SVGID" width="9.323" height="17.071" fill="none"/>
    </clipPath>
  </defs>
  <g id="Group_15597" data-name="Group 15597" transform="translate(-112 -352)">
    <g id="Group_15596" data-name="Group 15596" transform="translate(9 9)">
      <g id="Path_32533" data-name="Path 32533" transform="translate(103 343)" fill="none">
        <path d="M20.5,0A20.5,20.5,0,1,1,0,20.5,20.5,20.5,0,0,1,20.5,0Z" stroke="none"/>
        <path d="M 20.5 1 C 17.86708068847656 1 15.31344032287598 1.51544189453125 12.91003036499023 2.532001495361328 C 10.58810043334961 3.514091491699219 8.502590179443359 4.920249938964844 6.711418151855469 6.711418151855469 C 4.920249938964844 8.502590179443359 3.514091491699219 10.58810043334961 2.532001495361328 12.91003036499023 C 1.51544189453125 15.31344032287598 1 17.86708068847656 1 20.5 C 1 23.13291931152344 1.51544189453125 25.68655967712402 2.532001495361328 28.08996963500977 C 3.514091491699219 30.41189956665039 4.920249938964844 32.49740982055664 6.711418151855469 34.28858184814453 C 8.502590179443359 36.07975006103516 10.58810043334961 37.48590850830078 12.91003036499023 38.46799850463867 C 15.31344032287598 39.48455810546875 17.86708068847656 40 20.5 40 C 23.13291931152344 40 25.68655967712402 39.48455810546875 28.08996963500977 38.46799850463867 C 30.41189956665039 37.48590850830078 32.49740982055664 36.07975006103516 34.28858184814453 34.28858184814453 C 36.07975006103516 32.49740982055664 37.48590850830078 30.41189956665039 38.46799850463867 28.08996963500977 C 39.48455810546875 25.68655967712402 40 23.13291931152344 40 20.5 C 40 17.86708068847656 39.48455810546875 15.31344032287598 38.46799850463867 12.91003036499023 C 37.48590850830078 10.58810043334961 36.07975006103516 8.502590179443359 34.28858184814453 6.711418151855469 C 32.49740982055664 4.920249938964844 30.41189956665039 3.514091491699219 28.08996963500977 2.532001495361328 C 25.68655967712402 1.51544189453125 23.13291931152344 1 20.5 1 M 20.5 0 C 31.82184028625488 0 41 9.178159713745117 41 20.5 C 41 31.82184028625488 31.82184028625488 41 20.5 41 C 9.178159713745117 41 0 31.82184028625488 0 20.5 C 0 9.178159713745117 9.178159713745117 0 20.5 0 Z" stroke="none" fill="#fff"/>
      </g>
      <g id="Group_11162" data-name="Group 11162" transform="translate(-310 -57)">
        <g id="Group_11161" data-name="Group 11161" transform="translate(429 412)">
          <g id="Group_11160" data-name="Group 11160" clip-path="url(#clip-path)">
            <path id="Path_18951" data-name="Path 18951" d="M437.882,411.905l-2.214,0a3.888,3.888,0,0,0-4.094,4.2v1.937h-2.226a.348.348,0,0,0-.348.348v2.807a.348.348,0,0,0,.348.348h2.226v7.082a.348.348,0,0,0,.349.348h2.9a.348.348,0,0,0,.349-.348v-7.082h2.6a.348.348,0,0,0,.348-.348l0-2.807a.351.351,0,0,0-.1-.246.347.347,0,0,0-.246-.1h-2.6V416.4c0-.789.188-1.19,1.216-1.19h1.491a.348.348,0,0,0,.348-.348v-2.606a.348.348,0,0,0-.347-.349Zm0,0" transform="translate(-429 -411.924)" fill="#fff"/>
          </g>
        </g>
      </g>
    </g>
  </g>
</svg>
