<svg xmlns="http://www.w3.org/2000/svg" width="20" height="20" viewBox="0 0 20 20">
  <g id="Group_15605" data-name="Group 15605" transform="translate(-16 -189)">
    <g id="Group_15604" data-name="Group 15604" transform="translate(-14 190)">
      <path id="Path_27820" data-name="Path 27820" d="M35.955,11.511a.706.706,0,0,1,.706.706h0a.706.706,0,1,1-1.412,0h0A.706.706,0,0,1,35.955,11.511Zm1.942.706h0a.706.706,0,1,0,1.412,0h0a.706.706,0,1,0-1.412,0Zm2.648,0h0a.706.706,0,1,0,1.412,0h0a.706.706,0,1,0-1.412,0Zm2.683,0h0a.706.706,0,0,0,1.412,0h0a.706.706,0,0,0-1.412,0Zm3.178-.141V9.463A1.414,1.414,0,0,0,44.994,8.05H34.825a1.414,1.414,0,0,0-1.412,1.412v5.791a1.414,1.414,0,0,0,1.412,1.412H44.994a1.414,1.414,0,0,0,1.412-1.412.706.706,0,0,1,1.412,0,2.828,2.828,0,0,1-2.825,2.825H34.825A2.828,2.828,0,0,1,32,15.254V9.463a2.828,2.828,0,0,1,2.825-2.825h.846V4.148a4.238,4.238,0,0,1,8.474,0v2.49h.849a2.828,2.828,0,0,1,2.825,2.825v2.613a.706.706,0,0,1-1.412,0ZM37.083,6.638h5.649V4.148a2.826,2.826,0,0,0-5.649,0v2.49Z" fill="#fff"/>
    </g>
    <rect id="Rectangle_6643" data-name="Rectangle 6643" width="20" height="20" transform="translate(16 189)" fill="none"/>
  </g>
</svg>
