<svg xmlns="http://www.w3.org/2000/svg" width="20.494" height="16.833" viewBox="0 0 20.494 16.833">
  <g id="Group_16264" data-name="Group 16264" transform="translate(0 -5.274)">
    <path id="Path_32687" data-name="Path 32687" d="M3.917,22.7a.347.347,0,1,0,.433-.543,9.5,9.5,0,0,1-.8-.715L.982,18.878,3.63,16.231a9.37,9.37,0,0,1,9.662-2.268.347.347,0,1,0,.221-.658A10.06,10.06,0,0,0,3.139,15.739L0,18.878l3.058,3.058A10.245,10.245,0,0,0,3.917,22.7Z" transform="translate(0 -4.895)" fill="#fff"/>
    <path id="Path_32688" data-name="Path 32688" d="M29.777,18.853A10.2,10.2,0,0,0,28.252,17.6a.347.347,0,1,0-.387.576,9.49,9.49,0,0,1,1.421,1.169l2.568,2.568L29.206,24.56a9.461,9.461,0,0,1-9.84,2.206.347.347,0,0,0-.234.654A10.152,10.152,0,0,0,29.7,25.05l3.139-3.139Z" transform="translate(-12.341 -8.009)" fill="#fff"/>
    <path id="Path_32689" data-name="Path 32689" d="M25.578,29.077a3.982,3.982,0,0,1-2.107-.6.347.347,0,0,0-.367.589,4.686,4.686,0,0,0,6.369-6.584.347.347,0,1,0-.577.386,3.992,3.992,0,0,1-3.319,6.209Z" transform="translate(-14.979 -11.135)" fill="#fff"/>
    <path id="Path_32690" data-name="Path 32690" d="M21.724,17.468a3.985,3.985,0,0,1,2.032.555.347.347,0,1,0,.354-.6,4.687,4.687,0,0,0-6.595,6.1.347.347,0,0,0,.623-.305,3.954,3.954,0,0,1-.406-1.756A4,4,0,0,1,21.724,17.468Z" transform="translate(-11.125 -7.509)" fill="#fff"/>
    <path id="Path_32691" data-name="Path 32691" d="M23.145,5.376a.347.347,0,0,0-.491,0L6.516,21.514a.347.347,0,1,0,.491.491L23.145,5.866A.347.347,0,0,0,23.145,5.376Z" transform="translate(-4.188)" fill="#fff"/>
  </g>
</svg>
