<svg xmlns="http://www.w3.org/2000/svg" width="20" height="20" viewBox="0 0 20 20">
  <g id="Group_15603" data-name="Group 15603" transform="translate(-16 -128)">
    <g id="Group_15602" data-name="Group 15602" transform="translate(-115 -98.89)">
      <path id="Path_27818" data-name="Path 27818" d="M217.617,238.111h.119a3.426,3.426,0,0,0,2.618-1.132c1.429-1.612,1.192-4.374,1.166-4.637a3.788,3.788,0,0,0-1.8-3.368,4.129,4.129,0,0,0-2-.524h-.063a4.134,4.134,0,0,0-2,.509,3.79,3.79,0,0,0-1.823,3.382c-.026.264-.264,3.026,1.166,4.637a3.412,3.412,0,0,0,2.614,1.132Zm-2.788-5.677c0-.011,0-.022,0-.03.123-2.662,2.012-2.948,2.822-2.948h.044c1,.022,2.707.431,2.822,2.948a.071.071,0,0,0,0,.03c0,.026.264,2.551-.917,3.88a2.433,2.433,0,0,1-1.912.794h-.037a2.426,2.426,0,0,1-1.908-.794c-1.177-1.322-.924-3.858-.921-3.88Zm0,0" transform="translate(-77.056 -0.534)" fill="#fff" stroke="#fff" stroke-width="0.4"/>
      <path id="Path_27819" data-name="Path 27819" d="M148.25,440.463v-.011c0-.03,0-.06,0-.093-.022-.735-.071-2.454-1.682-3l-.037-.011a10.717,10.717,0,0,1-3.082-1.4.5.5,0,0,0-.576.821,11.575,11.575,0,0,0,3.39,1.548c.865.308.962,1.233.987,2.079a.729.729,0,0,0,0,.093,6.759,6.759,0,0,1-.078,1.147,14.826,14.826,0,0,1-13.1,0,6.374,6.374,0,0,1-.078-1.147c0-.03,0-.059,0-.093.026-.846.123-1.771.988-2.079a11.665,11.665,0,0,0,3.39-1.548.5.5,0,1,0-.575-.821,10.6,10.6,0,0,1-3.082,1.4l-.037.011c-1.611.553-1.66,2.272-1.682,3a.754.754,0,0,1,0,.093v.011a5.691,5.691,0,0,0,.189,1.682.475.475,0,0,0,.193.234,15.685,15.685,0,0,0,14.5,0,.5.5,0,0,0,.193-.234,5.978,5.978,0,0,0,.178-1.678Zm0,0" transform="translate(-0.001 -198.305)" fill="#fff" stroke="#fff" stroke-width="0.4"/>
      <rect id="Rectangle_6641" data-name="Rectangle 6641" width="15.26" height="18" transform="translate(133 227.89)" fill="none"/>
    </g>
    <rect id="Rectangle_6642" data-name="Rectangle 6642" width="20" height="20" transform="translate(16 128)" fill="none"/>
  </g>
</svg>
