<svg xmlns="http://www.w3.org/2000/svg" width="20" height="20" viewBox="0 0 20 20">
  <g id="Group_15613" data-name="Group 15613" transform="translate(-16 -191)">
    <g id="Group_15605" data-name="Group 15605">
      <rect id="Rectangle_6643" data-name="Rectangle 6643" width="20" height="20" transform="translate(16 191)" fill="none"/>
    </g>
    <g id="Group_15612" data-name="Group 15612" transform="translate(16 136.474)">
      <g id="Group_15611" data-name="Group 15611" transform="translate(1 57.75)">
        <path id="Path_27827" data-name="Path 27827" d="M16.892,57.75H3.214A2.216,2.216,0,0,0,1,59.964v9.349a2.216,2.216,0,0,0,2.214,2.214H16.888A2.216,2.216,0,0,0,19.1,69.312V59.967A2.213,2.213,0,0,0,16.892,57.75Zm1.2,11.562a1.2,1.2,0,0,1-1.2,1.2H3.214a1.2,1.2,0,0,1-1.2-1.2V59.967a1.2,1.2,0,0,1,1.2-1.2H16.888a1.2,1.2,0,0,1,1.2,1.2v9.345Z" transform="translate(-1 -57.75)" fill="#fff"/>
        <path id="Path_27828" data-name="Path 27828" d="M66.08,113.758l4.427-3.97a.507.507,0,1,0-.678-.753l-6.105,5.48-1.191-1.064s-.007-.007-.007-.011a.751.751,0,0,0-.082-.071L57.6,109.032a.507.507,0,1,0-.674.757l4.48,4-4.461,4.176a.508.508,0,0,0-.022.715.517.517,0,0,0,.371.161.507.507,0,0,0,.345-.135l4.528-4.236,1.229,1.1a.5.5,0,0,0,.674,0l1.262-1.131,4.5,4.277a.507.507,0,0,0,.715-.019.508.508,0,0,0-.019-.715Z" transform="translate(-54.664 -106.986)" fill="#fff"/>
      </g>
    </g>
  </g>
</svg>
