<svg xmlns="http://www.w3.org/2000/svg" width="24" height="32" viewBox="0 0 24 32">
  <path id="Path_32538" data-name="Path 32538" d="M87.333,12h-2V9.333a9.333,9.333,0,0,0-18.667,0V12h-2a.666.666,0,0,0-.667.667V29.333A2.669,2.669,0,0,0,66.667,32H85.333A2.669,2.669,0,0,0,88,29.333V12.667A.666.666,0,0,0,87.333,12ZM77.576,22.145,78,25.926a.667.667,0,0,1-.663.74H74.667a.667.667,0,0,1-.663-.74l.421-3.782A2.638,2.638,0,0,1,73.333,20a2.667,2.667,0,0,1,5.333,0A2.638,2.638,0,0,1,77.576,22.145ZM81.333,12H70.667V9.333a5.333,5.333,0,0,1,10.667,0Z" transform="translate(-64)" fill="#fff"/>
</svg>
