<svg xmlns="http://www.w3.org/2000/svg" width="24" height="24" viewBox="0 0 24 24">
  <g id="Group_14235" data-name="Group 14235" transform="translate(-38 -359)">
    <g id="Group_14187" data-name="Group 14187" transform="translate(0 14)">
      <g id="Group_14186" data-name="Group 14186" transform="translate(41 265.667)">
        <path id="Path_19796" data-name="Path 19796" d="M16.519,97.626H1.921A1.923,1.923,0,0,1,0,95.705V87.254a1.923,1.923,0,0,1,1.921-1.921h14.6a1.923,1.923,0,0,1,1.921,1.921v8.451A1.923,1.923,0,0,1,16.519,97.626ZM1.921,86.1A1.154,1.154,0,0,0,.768,87.254v8.451a1.154,1.154,0,0,0,1.152,1.152h14.6a1.154,1.154,0,0,0,1.152-1.152V87.254A1.154,1.154,0,0,0,16.519,86.1Z" fill="#707070"/>
        <path id="Path_19797" data-name="Path 19797" d="M18.055,152.406H.384A.384.384,0,0,1,0,152.022v-2.3a.384.384,0,0,1,.384-.384H18.055a.384.384,0,0,1,.384.384v2.3A.384.384,0,0,1,18.055,152.406ZM.768,151.638h16.9V150.1H.768Z" transform="translate(0 -61.695)" fill="#707070"/>
        <path id="Path_19798" data-name="Path 19798" d="M68.994,299.435h-4.61a.384.384,0,1,1,0-.768h4.61a.384.384,0,0,1,0,.768Z" transform="translate(-61.695 -205.651)" fill="#707070"/>
        <path id="Path_19799" data-name="Path 19799" d="M68.994,342.1h-4.61a.384.384,0,1,1,0-.768h4.61a.384.384,0,0,1,0,.768Z" transform="translate(-61.695 -246.78)" fill="#707070"/>
        <path id="Path_19800" data-name="Path 19800" d="M364.588,280.406h-.768a1.154,1.154,0,0,1-1.152-1.152v-.768a1.154,1.154,0,0,1,1.152-1.152h.768a1.154,1.154,0,0,1,1.152,1.152v.768A1.154,1.154,0,0,1,364.588,280.406Zm-.768-2.3a.384.384,0,0,0-.384.384v.768a.384.384,0,0,0,.384.384h.768a.384.384,0,0,0,.384-.384v-.768a.384.384,0,0,0-.384-.384Z" transform="translate(-349.606 -185.085)" fill="#707070"/>
      </g>
      <rect id="Rectangle_6533" data-name="Rectangle 6533" width="24" height="24" transform="translate(38 345)" fill="none"/>
    </g>
  </g>
</svg>
