<svg xmlns="http://www.w3.org/2000/svg" xmlns:xlink="http://www.w3.org/1999/xlink" width="315.5" height="146" viewBox="0 0 315.5 146">
  <defs>
    <filter id="Path_19484" x="0" y="8.5" width="90.596" height="32.109" filterUnits="userSpaceOnUse">
      <feOffset dy="1" input="SourceAlpha"/>
      <feGaussianBlur stdDeviation="1" result="blur"/>
      <feFlood flood-opacity="0.161"/>
      <feComposite operator="in" in2="blur"/>
      <feComposite in="SourceGraphic"/>
    </filter>
  </defs>
  <g id="Group_16205" data-name="Group 16205" transform="translate(-15 -624.5)">
    <g id="Rectangle_6550" data-name="Rectangle 6550" transform="translate(20.5 624.5)" fill="#f5e4d5" stroke="#efefef" stroke-width="1">
      <rect width="310" height="146" rx="5" stroke="none"/>
      <rect x="0.5" y="0.5" width="309" height="145" rx="4.5" fill="none"/>
    </g>
    <path id="Path_20068" data-name="Path 20068" d="M-374.474,717.322c-1.7-2.144-2.269-5.724-2.269-9.394,0-10.337,2.9-22.748,13.679-22.748,7.905,0,17.769,6.85,25.156,5.693,23.26-3.643,9.286-27.48,9.261-27.53-5.011-10.218,2.834-18.078,11.825-18.078,8.846,0,13.034,11.393,20.635,14.525a5.386,5.386,0,0,0-.99-1.063c7.866,4.123,21.882-5.622,21.882,26.341,0,17.025-5.816,36.828-17.1,36.828h-.006l.086-.122c-12.9,6.508-24.124,9.983-35.718,9.983-9.276,0-18.79-2.225-29.591-6.9C-362.894,722.576-370.883,721.844-374.474,717.322Z" transform="translate(589.295 10.038)" fill="#ffb644"/>
    <g id="Group_14456" data-name="Group 14456" transform="translate(206.745 648.394)">
      <path id="Path_20022" data-name="Path 20022" d="M225.485,583.313c14.628,0,26.486,1.447,26.486,3.233s-11.858,3.233-26.486,3.233S199,588.332,199,586.546,210.857,583.313,225.485,583.313Z" transform="translate(-178.138 -502.27)" fill="#000004" fill-rule="evenodd" opacity="0.17"/>
      <g id="Group_14450" data-name="Group 14450" transform="translate(0 6.505)">
        <g id="Group_14436" data-name="Group 14436" transform="translate(34.874 4.442)">
          <rect id="Rectangle_6553" data-name="Rectangle 6553" width="1.612" height="6.944" transform="translate(2.637 3.083) rotate(-7.454)" fill="#25282a"/>
          <g id="Group_14435" data-name="Group 14435">
            <path id="Path_20023" data-name="Path 20023" d="M259.13,289.454l5.5-.72a.459.459,0,0,0,.338-.544l-.227-1.734a.459.459,0,0,0-.466-.439l-5.5.72a.459.459,0,0,0-.338.544l.227,1.734A.459.459,0,0,0,259.13,289.454Z" transform="translate(-258.432 -286.015)" fill="#25282a" fill-rule="evenodd"/>
            <path id="Path_20024" data-name="Path 20024" d="M264.919,288.3l-5.5.72a.459.459,0,0,0,.466.439l1.873-.245,1.758-.23,1.873-.245a.459.459,0,0,0,.338-.544l-.227-1.734a.459.459,0,0,0-.466-.439l.227,1.734A.459.459,0,0,1,264.919,288.3Z" transform="translate(-259.183 -286.015)" fill="#000004" fill-rule="evenodd" opacity="0.3"/>
          </g>
        </g>
        <g id="Group_14441" data-name="Group 14441" transform="translate(9.375)">
          <g id="Group_14438" data-name="Group 14438" transform="translate(0 3.619)">
            <path id="Path_20025" data-name="Path 20025" d="M168.65,292.06l4.543-3.116h0a.826.826,0,0,0-1.146-.213l-3.184,2.184a.826.826,0,0,0-.213,1.146Z" transform="translate(-164.209 -287.156)" fill="#25282a" fill-rule="evenodd"/>
            <g id="Group_14437" data-name="Group 14437">
              <path id="Path_20026" data-name="Path 20026" d="M174.671,288.651l-1.158-1.688a10.277,10.277,0,0,0-14.247-2.653l-4.543,3.116a10.278,10.278,0,0,0-2.653,14.247l1.158,1.688Z" transform="translate(-150.282 -282.522)" fill="#fbc100" fill-rule="evenodd"/>
              <path id="Path_20027" data-name="Path 20027" d="M164.3,311.931c-2.985-4.351-3.607-9.159-1.383-10.685l-.676.464c-3.607,2.474-4.116,8.058-1.132,12.409l1.084,1.58,3.19-2.188Z" transform="translate(-157.075 -296.831)" fill="#ffdc48" fill-rule="evenodd"/>
              <path id="Path_20028" data-name="Path 20028" d="M195.311,295.347l1.084,1.58,1.31-.9-1.084-1.58c-2.985-4.351-8.034-6.122-11.222-3.935l-.278.191C187.741,288.907,192.326,291,195.311,295.347Z" transform="translate(-176.908 -287.913)" fill="#ffd51c" fill-rule="evenodd"/>
            </g>
            <rect id="Rectangle_6554" data-name="Rectangle 6554" width="1.525" height="5.617" transform="translate(13.038 13.915) rotate(-34.452)" fill="#25282a"/>
          </g>
          <g id="Group_14440" data-name="Group 14440" transform="translate(34.742)">
            <path id="Path_20029" data-name="Path 20029" d="M356.036,267.89l5.192,1.844h0a.827.827,0,0,0-.5-1.052l-3.639-1.292a.826.826,0,0,0-1.052.5Z" transform="translate(-342.265 -267.302)" fill="#25282a" fill-rule="evenodd"/>
            <g id="Group_14439" data-name="Group 14439">
              <path id="Path_20030" data-name="Path 20030" d="M322.136,284.62l.685-1.929a10.277,10.277,0,0,0-6.227-13.086l-5.192-1.844a10.277,10.277,0,0,0-13.086,6.227l-.685,1.929Z" transform="translate(-297.631 -267.174)" fill="#fbc100" fill-rule="evenodd"/>
              <path id="Path_20031" data-name="Path 20031" d="M314.111,278.546c1.765-4.972,5.289-8.3,7.831-7.4l-.772-.274c-4.122-1.464-8.939,1.407-10.7,6.379l-.641,1.806,3.645,1.294Z" transform="translate(-306.949 -269.709)" fill="#ffdc48" fill-rule="evenodd"/>
              <path id="Path_20032" data-name="Path 20032" d="M374.925,288.322l-.641,1.806,1.5.532.641-1.806c1.766-4.972.23-10.1-3.412-11.391l-.317-.113C375.686,278.413,376.691,283.35,374.925,288.322Z" transform="translate(-354.995 -274.951)" fill="#ffd51c" fill-rule="evenodd"/>
            </g>
            <rect id="Rectangle_6555" data-name="Rectangle 6555" width="5.617" height="1.525" transform="translate(9.654 18.133) rotate(-70.45)" fill="#25282a"/>
          </g>
        </g>
        <g id="Group_14444" data-name="Group 14444" transform="translate(26.497 61.997)">
          <g id="Group_14442" data-name="Group 14442" transform="translate(0 3.206)">
            <path id="Path_20033" data-name="Path 20033" d="M228.751,543.886l2.446,1.276a1.616,1.616,0,0,1,.566,2.286l-5.226,7.876a1.754,1.754,0,0,1-2.2.843l-.69-.36a1.755,1.755,0,0,1-.566-2.286l3.47-8.792A1.616,1.616,0,0,1,228.751,543.886Z" transform="translate(-222.903 -543.722)" fill="#25282a" fill-rule="evenodd"/>
            <path id="Path_20034" data-name="Path 20034" d="M229.216,555.871l-2.781,4.192a1.754,1.754,0,0,1-2.2.843l-.689-.36a1.313,1.313,0,0,1-.236-.157,1.337,1.337,0,0,0,.65.771l.69.36a1.754,1.754,0,0,0,2.2-.843l3.028-4.564.409-.617,1.788-2.695a1.626,1.626,0,0,0-.264-2.074,1.6,1.6,0,0,1-.15,1.46l-2.052,3.093Z" transform="translate(-223.215 -549.075)" fill="#000004" fill-rule="evenodd" opacity="0.3"/>
          </g>
          <g id="Group_14443" data-name="Group 14443" transform="translate(29.295)">
            <path id="Path_20035" data-name="Path 20035" d="M349.675,530.514l-2.036,1.862a1.616,1.616,0,0,0,.041,2.354L354.756,541a1.755,1.755,0,0,0,2.342.25l.574-.525a1.754,1.754,0,0,0-.041-2.354l-5.615-7.606A1.616,1.616,0,0,0,349.675,530.514Z" transform="translate(-347.15 -530.123)" fill="#25282a" fill-rule="evenodd"/>
            <path id="Path_20036" data-name="Path 20036" d="M351.233,545.18,355,548.517a1.755,1.755,0,0,0,2.342.25l.574-.525a1.313,1.313,0,0,0,.188-.212,1.336,1.336,0,0,1-.43.912l-.574.525a1.754,1.754,0,0,1-2.342-.25l-4.1-3.633-.554-.491-2.422-2.145a1.626,1.626,0,0,1-.278-2.072,1.6,1.6,0,0,0,.52,1.373l2.779,2.462Z" transform="translate(-347.151 -538.34)" fill="#000004" fill-rule="evenodd" opacity="0.3"/>
          </g>
        </g>
        <g id="Group_14449" data-name="Group 14449" transform="translate(0 0.752)">
          <g id="Group_14446" data-name="Group 14446" transform="translate(0 0)">
            <g id="Group_14445" data-name="Group 14445">
              <circle id="Ellipse_1394" data-name="Ellipse 1394" cx="30.455" cy="30.455" r="30.455" transform="translate(0 43.07) rotate(-45)" fill="#e6111e"/>
              <path id="Path_20037" data-name="Path 20037" d="M248.83,379.381a30.457,30.457,0,0,1-52.051,25.164,30.458,30.458,0,1,0,44.585-41.487A30.312,30.312,0,0,1,248.83,379.381Z" transform="translate(-176.441 -341.203)" fill="#000004" fill-rule="evenodd" opacity="0.14"/>
              <path id="Path_20038" data-name="Path 20038" d="M171.008,362.351a29.423,29.423,0,0,1,36.437-32.309,28.569,28.569,0,0,0-35.458,36.919A29.638,29.638,0,0,1,171.008,362.351Z" transform="translate(-156.202 -314.962)" fill="#fff" fill-rule="evenodd" opacity="0.3"/>
              <path id="Path_20039" data-name="Path 20039" d="M185.371,373.682a24.827,24.827,0,0,1,39.323-23.221,24.827,24.827,0,1,0-30.253,39.358A24.742,24.742,0,0,1,185.371,373.682Z" transform="translate(-166.918 -327.393)" fill="#000004" fill-rule="evenodd" opacity="0.14"/>
              <path id="Path_20040" data-name="Path 20040" d="M258.969,406.212A25.274,25.274,0,0,1,216.2,426.579a24.831,24.831,0,0,0,39.026-30.6A24.723,24.723,0,0,1,258.969,406.212Z" transform="translate(-191.281 -366.36)" fill="#fff" fill-rule="evenodd" opacity="0.3"/>
            </g>
            <ellipse id="Ellipse_1395" data-name="Ellipse 1395" cx="24.827" cy="24.827" rx="24.827" ry="24.827" transform="translate(11.542 58.52) rotate(-71.106)" fill="#fff"/>
          </g>
          <g id="Group_14447" data-name="Group 14447" transform="translate(20.246 20.246)">
            <path id="Path_20041" data-name="Path 20041" d="M277.052,358.952a1.363,1.363,0,1,1,1.175-1.528A1.363,1.363,0,0,1,277.052,358.952Z" transform="translate(-256.857 -356.237)" fill="#25282a" fill-rule="evenodd"/>
            <path id="Path_20042" data-name="Path 20042" d="M199.107,460.345a1.363,1.363,0,1,1-1.528-1.175A1.363,1.363,0,0,1,199.107,460.345Z" transform="translate(-196.393 -434.892)" fill="#25282a" fill-rule="evenodd"/>
            <path id="Path_20043" data-name="Path 20043" d="M300.5,538.29a1.363,1.363,0,1,1-1.175,1.529A1.363,1.363,0,0,1,300.5,538.29Z" transform="translate(-275.048 -495.358)" fill="#25282a" fill-rule="evenodd"/>
            <path id="Path_20044" data-name="Path 20044" d="M378.445,436.9a1.363,1.363,0,1,1,1.529,1.175A1.363,1.363,0,0,1,378.445,436.9Z" transform="translate(-335.512 -416.702)" fill="#25282a" fill-rule="evenodd"/>
            <path id="Path_20045" data-name="Path 20045" d="M235.193,378.133a.83.83,0,1,1,.154-1.163A.83.83,0,0,1,235.193,378.133Z" transform="translate(-225.025 -371.833)" fill="#25282a" fill-rule="evenodd"/>
            <path id="Path_20046" data-name="Path 20046" d="M206.495,415.464a.83.83,0,1,1-.448-1.085A.83.83,0,0,1,206.495,415.464Z" transform="translate(-202.893 -400.622)" fill="#25282a" fill-rule="evenodd"/>
            <path id="Path_20047" data-name="Path 20047" d="M218.289,505.663a.83.83,0,1,1-1.163-.154A.83.83,0,0,1,218.289,505.663Z" transform="translate(-211.988 -470.183)" fill="#25282a" fill-rule="evenodd"/>
            <path id="Path_20048" data-name="Path 20048" d="M255.62,534.36a.83.83,0,1,1-1.085.448A.83.83,0,0,1,255.62,534.36Z" transform="translate(-240.778 -492.314)" fill="#25282a" fill-rule="evenodd"/>
            <path id="Path_20049" data-name="Path 20049" d="M345.818,522.567a.83.83,0,1,1-.154,1.163A.83.83,0,0,1,345.818,522.567Z" transform="translate(-310.339 -483.22)" fill="#25282a" fill-rule="evenodd"/>
            <path id="Path_20050" data-name="Path 20050" d="M374.516,485.235a.83.83,0,1,1,.448,1.084A.83.83,0,0,1,374.516,485.235Z" transform="translate(-332.47 -454.429)" fill="#25282a" fill-rule="evenodd"/>
            <path id="Path_20051" data-name="Path 20051" d="M362.723,395.037a.83.83,0,1,1,1.163.154A.83.83,0,0,1,362.723,395.037Z" transform="translate(-323.375 -384.87)" fill="#25282a" fill-rule="evenodd"/>
            <path id="Path_20052" data-name="Path 20052" d="M325.391,366.339a.83.83,0,1,1,1.084-.448A.83.83,0,0,1,325.391,366.339Z" transform="translate(-294.585 -362.737)" fill="#25282a" fill-rule="evenodd"/>
          </g>
          <g id="Group_14448" data-name="Group 14448" transform="translate(30.415 23.852)">
            <path id="Path_20053" data-name="Path 20053" d="M249.667,438.7a2.573,2.573,0,0,1,3.669-2.87l2.866-2.242a.325.325,0,0,1,.457.065l1.064,1.419a.325.325,0,0,1-.065.457l-2.955,2.123a2.573,2.573,0,0,1-3.783,2.719l-10.331,7.423a.33.33,0,0,1-.457-.065l-.55-.733a.33.33,0,0,1,.065-.457Z" transform="translate(-239.518 -418.902)" fill="#25282a" fill-rule="evenodd"/>
            <path id="Path_20054" data-name="Path 20054" d="M286.223,388.566a2.573,2.573,0,0,1-.55,4.621l-.556,4.668a.369.369,0,0,1-.378.355l-1.757-.239a.369.369,0,0,1-.269-.443l.71-4.648a2.573,2.573,0,0,1,.7-4.6l2.5-16.395a.374.374,0,0,1,.377-.355l.908.123a.374.374,0,0,1,.269.443Z" transform="translate(-272.202 -371.529)" fill="#25282a" fill-rule="evenodd"/>
            <path id="Path_20055" data-name="Path 20055" d="M280.231,449.419a1.289,1.289,0,0,1-2.443-.405l-2.753-.457c-.189-.031-.335-.1-.326-.16l.1-.552c.01-.056.172-.076.36-.042l2.747.49a1.289,1.289,0,0,1,2.437.435l16.872,3.011c.188.034.335.1.326.161l-.049.285c-.01.056-.172.074-.361.042Z" transform="translate(-266.412 -429.644)" fill="#e6111e" fill-rule="evenodd"/>
          </g>
        </g>
      </g>
      <g id="Group_14455" data-name="Group 14455" transform="translate(1.25 0)">
        <g id="Group_14451" data-name="Group 14451" transform="translate(66.243 6.202)">
          <path id="Path_20056" data-name="Path 20056" d="M408.62,278.471a6.648,6.648,0,0,0,1.3-3.213,8.522,8.522,0,0,0-5.593-9.092,6.1,6.1,0,0,0-2.268-.259,6.969,6.969,0,0,1,1.229.258,9.255,9.255,0,0,1,6.075,9.875A7.571,7.571,0,0,1,408.62,278.471Z" transform="translate(-400.816 -265.888)" fill="#fff" fill-rule="evenodd" opacity="0.8"/>
          <path id="Path_20057" data-name="Path 20057" d="M401.879,285.722a5.181,5.181,0,0,0,1.014-2.5,6.631,6.631,0,0,0-4.353-7.075,4.748,4.748,0,0,0-1.765-.2,5.389,5.389,0,0,1,.957.2,7.2,7.2,0,0,1,4.727,7.684A5.893,5.893,0,0,1,401.879,285.722Z" transform="translate(-396.776 -273.563)" fill="#fff" fill-rule="evenodd" opacity="0.8"/>
        </g>
        <g id="Group_14452" data-name="Group 14452" transform="translate(41.175)">
          <path id="Path_20058" data-name="Path 20058" d="M303.262,241.12A6.655,6.655,0,0,0,300.1,239.7a8.522,8.522,0,0,0-9.294,5.253,6.111,6.111,0,0,0-.343,2.257,6.951,6.951,0,0,1,.3-1.219,9.255,9.255,0,0,1,10.093-5.7A7.567,7.567,0,0,1,303.262,241.12Z" transform="translate(-290.458 -239.583)" fill="#fff" fill-rule="evenodd" opacity="0.8"/>
          <path id="Path_20059" data-name="Path 20059" d="M310.25,253.608a5.177,5.177,0,0,0-2.461-1.106,6.632,6.632,0,0,0-7.232,4.087,4.747,4.747,0,0,0-.267,1.756,5.4,5.4,0,0,1,.236-.948,7.2,7.2,0,0,1,7.854-4.439A5.9,5.9,0,0,1,310.25,253.608Z" transform="translate(-297.97 -249.387)" fill="#fff" fill-rule="evenodd" opacity="0.8"/>
        </g>
        <g id="Group_14453" data-name="Group 14453" transform="translate(19.16 2.325)">
          <path id="Path_20060" data-name="Path 20060" d="M210.86,255.426a6.652,6.652,0,0,0-1.558-3.1,8.522,8.522,0,0,0-10.525-1.785,6.107,6.107,0,0,0-1.69,1.535,6.958,6.958,0,0,1,1-.755,9.256,9.256,0,0,1,11.431,1.938A7.565,7.565,0,0,1,210.86,255.426Z" transform="translate(-197.087 -249.446)" fill="#fff" fill-rule="evenodd" opacity="0.8"/>
          <path id="Path_20061" data-name="Path 20061" d="M211.862,267.16a5.177,5.177,0,0,0-1.212-2.41,6.631,6.631,0,0,0-8.19-1.389,4.75,4.75,0,0,0-1.315,1.194,5.447,5.447,0,0,1,.781-.587,7.2,7.2,0,0,1,8.895,1.508A5.892,5.892,0,0,1,211.862,267.16Z" transform="translate(-200.188 -259.427)" fill="#fff" fill-rule="evenodd" opacity="0.8"/>
        </g>
        <g id="Group_14454" data-name="Group 14454" transform="translate(0 14.277)">
          <path id="Path_20062" data-name="Path 20062" d="M121.375,300.134a6.654,6.654,0,0,0-3.01,1.721,8.522,8.522,0,0,0-1.218,10.606,6.107,6.107,0,0,0,1.623,1.6,6.984,6.984,0,0,1-.807-.962,9.255,9.255,0,0,1,1.323-11.518A7.568,7.568,0,0,1,121.375,300.134Z" transform="translate(-115.823 -300.134)" fill="#fff" fill-rule="evenodd" opacity="0.8"/>
          <path id="Path_20063" data-name="Path 20063" d="M133.268,308.625a5.179,5.179,0,0,0-2.342,1.339,6.632,6.632,0,0,0-.948,8.253,4.756,4.756,0,0,0,1.263,1.249,5.425,5.425,0,0,1-.628-.749,7.2,7.2,0,0,1,1.029-8.963A5.9,5.9,0,0,1,133.268,308.625Z" transform="translate(-125.853 -306.623)" fill="#fff" fill-rule="evenodd"/>
        </g>
        <path id="Path_20064" data-name="Path 20064" d="M415.429,380.439a10.878,10.878,0,0,0,2.077-5.324c.972-6.962-2.516-15.541-7.79-19.162a9.07,9.07,0,0,0-3.327-1.476,11.334,11.334,0,0,1,1.8,1.016c5.728,3.933,9.516,13.251,8.461,20.811A13.482,13.482,0,0,1,415.429,380.439Z" transform="translate(-337.88 -327.387)" fill="#fff" fill-rule="evenodd"/>
        <path id="Path_20065" data-name="Path 20065" d="M138.277,377.112a10.984,10.984,0,0,0-4.255,4c-4.007,6.074-4.763,15.822-1.688,21.773a9.589,9.589,0,0,0,2.3,2.994,12.165,12.165,0,0,1-1.146-1.822c-3.34-6.463-2.519-17.049,1.833-23.646A13.82,13.82,0,0,1,138.277,377.112Z" transform="translate(-126.996 -344.686)" fill="#fff" fill-rule="evenodd"/>
      </g>
    </g>
    <g id="Group_14371" data-name="Group 14371" transform="translate(-139 53.5)">
      <text id="Cara_menggunakan_fitur_AutoPay" data-name="Cara menggunakan 
fitur AutoPay" transform="translate(188 629.5)" fill="#ff4d4d" font-size="12" font-family="SourceSansPro-Bold, Source Sans Pro" font-weight="700"><tspan x="0" y="0">Cara menggunakan </tspan><tspan x="0" y="15">fitur AutoPay</tspan></text>
    </g>
    <g id="Group_14037" data-name="Group 14037" transform="translate(18 635)">
      <path id="Path_19485" data-name="Path 19485" d="M-5531-9336.455l4.375,3.613v-5.645Z" transform="translate(5531 9362.565)" fill="#d12424"/>
      <g transform="matrix(1, 0, 0, 1, -3, -10.5)" filter="url(#Path_19484)">
        <path id="Path_19484-2" data-name="Path 19484" d="M110.611,117.364H26.016v26.109h84.595L99.546,130.418Z" transform="translate(-23.02 -106.86)" fill="#ff5959"/>
      </g>
      <text id="New_Feature" data-name="New Feature" transform="translate(8 16.832)" fill="#fff" font-size="11" font-family="SourceSansPro-Regular, Source Sans Pro"><tspan x="0" y="0">New Feature</tspan></text>
    </g>
    <g id="Group_14432" data-name="Group 14432" transform="translate(178 701.955)">
      <g id="Group_14376" data-name="Group 14376" transform="translate(6.925 21.592)">
        <g id="Group_14374" data-name="Group 14374" transform="translate(0)">
          <path id="Path_19971" data-name="Path 19971" d="M934.26,618.24c-.611-.352-1.229-.641-1.693-.865-4.676-2.258-8.993-4.986-13.987-6.541a21.109,21.109,0,0,0-9.587-1.068c-3.68.6-7.3,1.371-11,1.879-3.93.539-7.864,1.065-11.78,1.717a41.516,41.516,0,0,1-6.732.758c-2.154,0-4.3-.395-6.454-.3-4.5.194-8.981,1.015-13.5.853-2.03-.071-3.994-.708-6.024-.782a12.843,12.843,0,0,0-5.4,1.2c-1.713.708-3.412,1.709-5.27,1.917a2.547,2.547,0,0,0-2.411,1.671c-.317-.13-.751.226-.5.557.116.155.236.3.359.441a1.553,1.553,0,0,0,1.139,1.05,25.654,25.654,0,0,0,5.351,2.555c3.327,1.452,6.855,2.629,9.985,4.494,4.234,2.523,7.66,6.209,12.755,6.887,2.861.381,5.56-.8,8.306-1.531q4.735-1.264,9.505-2.388a384.633,384.633,0,0,1,40.719-6.971c1.727-.2,3.391-.13,5.107-.247a3.911,3.911,0,0,0,3.064-1.472C937.29,620.4,935.795,619.123,934.26,618.24Z" transform="translate(-839.845 -609.578)" fill="#ff5959"/>
        </g>
        <g id="Group_14375" data-name="Group 14375" transform="translate(5.65 3.294)">
          <path id="Path_19972" data-name="Path 19972" d="M881.129,637.594h0c-3.7,0-5.793-1.885-8.005-3.88a22.985,22.985,0,0,0-3.622-2.842c-4.086-2.43-13.417-5.768-13.51-5.8a.176.176,0,1,1,.118-.332c.094.034,9.457,3.383,13.572,5.83a23.233,23.233,0,0,1,3.678,2.883c2.16,1.948,4.2,3.788,7.769,3.789h0c2.423,0,15.823-3.165,27.646-5.958,7.279-1.719,14.154-3.343,17.612-4.026a78.437,78.437,0,0,1,12.717-1.332,15.352,15.352,0,0,0,2.8-.223c-.691-.662-9.238-4.276-14.578-6.44a.176.176,0,0,1,.132-.327c4.4,1.782,14.642,6,14.821,6.719a.274.274,0,0,1-.048.235c-.2.266-.956.308-3.112.388a78.163,78.163,0,0,0-12.662,1.325c-3.451.681-10.323,2.3-17.6,4.023C897.015,634.424,883.594,637.594,881.129,637.594Zm60.807-11.853h0Z" transform="translate(-855.874 -618.924)" fill="#fff"/>
        </g>
      </g>
      <g id="Group_14389" data-name="Group 14389" transform="translate(0 7.755)">
        <g id="Group_14377" data-name="Group 14377" transform="translate(0 0)">
          <path id="Path_19973" data-name="Path 19973" d="M839.244,598.5c-.649-1.722-2.756-1.782-4.331-1.718-1.028.042-2.054.17-3.079.261-.193.017-.388.04-.583.063a2.132,2.132,0,0,0,.462-.561,4.86,4.86,0,0,0,.3-.669c.024.027.046.056.072.081.888.822,1.5-.351,1.624-1.117a11.127,11.127,0,0,0-.14-3.513c.181-.274.342-.561.494-.845.09.291.181.566.234.8a20.666,20.666,0,0,0,.632,2.387,4.011,4.011,0,0,0,.609,1.7.488.488,0,0,0,.328.208.809.809,0,0,0,1.128-.331,1.476,1.476,0,0,0-.222-1.368c-.122-.182-.264-.349-.4-.522-.119-1.537-.411-3.1-.461-4.64-.013-.4-.013-.793-.016-1.187.087-1.233-.1-2.507-.13-3.732a37.013,37.013,0,0,1,.238-4.643c.016-.162,1.347-.724,1.545-1.419a5.977,5.977,0,0,0,.137-2.353,1.21,1.21,0,0,1,.063-.576,5.041,5.041,0,0,0,.24-.575,4.108,4.108,0,0,0,.3-2.008c-.036-.182-.113-.591-.275-.612-.768-.1-2.038,1.447-2.038,1.447.024-.006-2.271-.5-2.442-.5a5.208,5.208,0,0,0-.4-2.07c-.109-.222-.343-.2-.541-.1-1.4.66-1.679,2.5-1.97,3.844a23.693,23.693,0,0,1-3.242,7.453,43.1,43.1,0,0,0-3.885,4.391,14.468,14.468,0,0,0-3.251,7.041c-.245,2.083.313,4.289,2.266,5.368,5.057,2.793,10.845-.1,16.154.818a.433.433,0,0,0,.5-.4A.417.417,0,0,0,839.244,598.5Z" transform="translate(-820.198 -570.323)" fill="#f7c18b"/>
        </g>
        <g id="Group_14378" data-name="Group 14378" transform="translate(12.457 4.29)">
          <path id="Path_19974" data-name="Path 19974" d="M856.118,582.63c-.046-.2-.292-.143-.4-.042s-.247.313-.131.467.283.1.4-.011A.435.435,0,0,0,856.118,582.63Z" transform="translate(-855.54 -582.494)" fill="#361a09"/>
        </g>
        <g id="Group_14379" data-name="Group 14379" transform="translate(16.166 4.967)">
          <path id="Path_19975" data-name="Path 19975" d="M866.639,584.55c-.046-.2-.292-.143-.4-.042s-.247.313-.131.467.283.1.4-.011A.434.434,0,0,0,866.639,584.55Z" transform="translate(-866.062 -584.414)" fill="#361a09"/>
        </g>
        <g id="Group_14380" data-name="Group 14380" transform="translate(11.356 0.302)">
          <path id="Path_19976" data-name="Path 19976" d="M852.592,573.045h-.021a.176.176,0,0,1-.154-.2,2.514,2.514,0,0,1,.324-.937,2.014,2.014,0,0,1,.805-.716.176.176,0,0,1,.141.323,1.685,1.685,0,0,0-.65.584,2.17,2.17,0,0,0-.27.788A.177.177,0,0,1,852.592,573.045Z" transform="translate(-852.416 -571.181)" fill="#edac6b"/>
        </g>
        <g id="Group_14381" data-name="Group 14381" transform="translate(16.375 1.546)">
          <path id="Path_19977" data-name="Path 19977" d="M866.832,576.227a.177.177,0,0,1-.159-.253,2.682,2.682,0,0,1,.433-.629,5.045,5.045,0,0,1,.746-.607.176.176,0,0,1,.193.3,4.768,4.768,0,0,0-.686.558,2.347,2.347,0,0,0-.368.536A.177.177,0,0,1,866.832,576.227Z" transform="translate(-866.655 -574.71)" fill="#edac6b"/>
        </g>
        <g id="Group_14382" data-name="Group 14382" transform="translate(14.288 5.677)">
          <path id="Path_19978" data-name="Path 19978" d="M861.485,586.54l-.034-.018a1.147,1.147,0,0,0-.377-.088c-.132-.013-.368,0-.336.188a.512.512,0,0,0,.3.383.493.493,0,0,0,.5-.2C861.641,586.7,861.584,586.6,861.485,586.54Z" transform="translate(-860.735 -586.43)" fill="#f5762a"/>
        </g>
        <g id="Group_14383" data-name="Group 14383" transform="translate(7.27 19.135)">
          <path id="Path_19979" data-name="Path 19979" d="M845.229,630.569a.177.177,0,0,1-.176-.16,7.672,7.672,0,0,0-1.487-3.693,4.889,4.889,0,0,0-2.6-1.755.176.176,0,0,1,.058-.347,5.133,5.133,0,0,1,2.809,1.877,7.9,7.9,0,0,1,1.567,3.886.177.177,0,0,1-.159.192Z" transform="translate(-840.823 -624.611)" fill="#edac6b"/>
        </g>
        <g id="Group_14384" data-name="Group 14384" transform="translate(16.727 6.25)">
          <path id="Path_19980" data-name="Path 19980" d="M867.831,588.574a.176.176,0,0,1-.021-.351l1.366-.166a.176.176,0,0,1,.043.35l-1.366.166Z" transform="translate(-867.655 -588.055)" fill="#edac6b"/>
        </g>
        <g id="Group_14385" data-name="Group 14385" transform="translate(16.507 7.19)">
          <path id="Path_19981" data-name="Path 19981" d="M868.4,591.794a.176.176,0,0,1-.091-.026l-1.19-.72a.176.176,0,1,1,.183-.3l1.19.72a.176.176,0,0,1-.091.327Z" transform="translate(-867.03 -590.721)" fill="#edac6b"/>
        </g>
        <g id="Group_14388" data-name="Group 14388" transform="translate(10.742 4.956)">
          <g id="Group_14386" data-name="Group 14386" transform="translate(0.27)">
            <path id="Path_19982" data-name="Path 19982" d="M852.812,585.413a.175.175,0,0,1-.087-.023l-1.2-.677a.176.176,0,1,1,.173-.307l1.2.677a.176.176,0,0,1-.087.33Z" transform="translate(-851.438 -584.383)" fill="#edac6b"/>
          </g>
          <g id="Group_14387" data-name="Group 14387" transform="translate(0 1.476)">
            <path id="Path_19983" data-name="Path 19983" d="M850.849,589.131a.176.176,0,0,1-.026-.351l1.375-.209a.176.176,0,0,1,.053.349l-1.375.209Z" transform="translate(-850.673 -588.57)" fill="#edac6b"/>
          </g>
        </g>
      </g>
      <g id="Group_14431" data-name="Group 14431" transform="translate(12.443 0)">
        <g id="Group_14392" data-name="Group 14392" transform="translate(61.213 7.97)">
          <g id="Group_14390" data-name="Group 14390" transform="translate(0.374 2.074)">
            <path id="Path_19984" data-name="Path 19984" d="M1033.612,583.462l.113-4.979-.929-1.667-1.865,1.362-.7,5.213Z" transform="translate(-1030.227 -576.816)" fill="#ff5959"/>
          </g>
          <g id="Group_14391" data-name="Group 14391">
            <path id="Path_19985" data-name="Path 19985" d="M1030.11,575.377a7.757,7.757,0,0,0,2.569-.263,3.153,3.153,0,0,0,.969-1.19,7.714,7.714,0,0,0,1.193-1.744.85.85,0,0,0-.69-1.249c-.543.018-4.49.773-4.9,1.2S1030.11,575.377,1030.11,575.377Z" transform="translate(-1029.165 -570.931)" fill="#ffdab5"/>
          </g>
        </g>
        <g id="Group_14393" data-name="Group 14393" transform="translate(57.882 14.384)">
          <path id="Path_19986" data-name="Path 19986" d="M1019.717,598.4s1.146-7.314,2.467-8.371a4.526,4.526,0,0,1,5.464.044c1.542,1.389,1.1,5.419,1.1,5.419a38.5,38.5,0,0,1-.837,4.846C1027.692,600.379,1019.717,598.4,1019.717,598.4Z" transform="translate(-1019.717 -589.128)" fill="#9fc1e6"/>
        </g>
        <g id="Group_14396" data-name="Group 14396" transform="translate(71.177 8.594)">
          <g id="Group_14394" data-name="Group 14394" transform="translate(0 2.219)">
            <path id="Path_19987" data-name="Path 19987" d="M1060.613,585.442l1.15-4.675-.527-1.768-2.046.894-1.757,4.772Z" transform="translate(-1057.434 -578.998)" fill="#ff5959"/>
          </g>
          <g id="Group_14395" data-name="Group 14395" transform="translate(1.757)">
            <path id="Path_19988" data-name="Path 19988" d="M1062.418,575.816a5.981,5.981,0,0,0,1.993.946,3.526,3.526,0,0,0,1.487-.411,10.127,10.127,0,0,0,2.753-.718.821.821,0,0,0,.074-1.377c-.454-.263-4.795-1.681-5.352-1.544S1062.418,575.816,1062.418,575.816Z" transform="translate(-1062.418 -572.703)" fill="#ffdab5"/>
          </g>
        </g>
        <g id="Group_14397" data-name="Group 14397" transform="translate(47.103 14.379)">
          <path id="Path_19989" data-name="Path 19989" d="M989.134,593.542s1.5-.4,4.935.573,12.909,2.6,13.262,2.6,2.291-7.6,6.124-7.6c3.662,0,3.957,2.587,4.185,3.26.705,2.077-2.159,10.178-3.789,11.984s-11.411,3.26-14.936,3.613a17.783,17.783,0,0,1-5.067,0Z" transform="translate(-989.134 -589.115)" fill="#9fc1e6"/>
        </g>
        <g id="Group_14398" data-name="Group 14398" transform="translate(12.067 1.276)">
          <path id="Path_19990" data-name="Path 19990" d="M906.517,562.04q-.052-.128-.106-.254a5.683,5.683,0,0,1-.562-1.926,10.345,10.345,0,0,0-.11-1.956,13.434,13.434,0,0,0-.771-2.1,5.436,5.436,0,0,0-1.385-1.933,7.756,7.756,0,0,0-4.484-1.9c-3.942-.333-7.963,1.635-9.081,5.633a6.945,6.945,0,0,0-.239,1.409,17.882,17.882,0,0,0,.187,4.189c.256,1.528.7,3.287,2.032,4.235a4.331,4.331,0,0,0,1.567.716,5.165,5.165,0,0,0,3.382,2.13c.929.2,2.733.153,3.173-.916a2.246,2.246,0,0,0,.874-1.913,3.906,3.906,0,0,0,1.229.38,4.753,4.753,0,0,0,2.33-.649,4.124,4.124,0,0,0,2.161-1.861A3.963,3.963,0,0,0,906.517,562.04Z" transform="translate(-889.735 -551.94)" fill="#1f2144"/>
        </g>
        <g id="Group_14399" data-name="Group 14399" transform="translate(1.45 24.115)">
          <path id="Path_19991" data-name="Path 19991" d="M859.614,618.714s2.034,1.657,2.232,1.789,1.674-1.674,1.674-1.674l-3.613-2.093Z" transform="translate(-859.614 -616.736)" fill="#ff924f"/>
        </g>
        <g id="Group_14400" data-name="Group 14400" transform="translate(2.851 17.061)">
          <path id="Path_19992" data-name="Path 19992" d="M867.38,604.725s-2.423.47-3.238,1.762a3.1,3.1,0,0,0,.154,3.76c.852.793,5.918,4.274,7.769,4.744s3.835-1.1,4.657-2.071,5.991-7.813,5.991-7.813l-.072-8.383s-3.39.453-4.847,1.422-5.905,6.888-5.905,6.888Z" transform="translate(-863.589 -596.724)" fill="#3b5d8c"/>
        </g>
        <g id="Group_14401" data-name="Group 14401" transform="translate(0.205 17.408)">
          <path id="Path_19993" data-name="Path 19993" d="M856.179,598.251c.529-.494,11.457-.761,11.765-.32s1.278,7.344.9,7.916-10.1.617-10.758.485S855.65,598.745,856.179,598.251Z" transform="translate(-856.082 -597.708)" fill="#361a09"/>
        </g>
        <g id="Group_14404" data-name="Group 14404" transform="translate(10.346 22.138)">
          <g id="Group_14402" data-name="Group 14402">
            <path id="Path_19994" data-name="Path 19994" d="M889.248,613.757a5.277,5.277,0,0,0-1.3-1.924c-1.96-1.594-3.141-.112-3.094.8.068,1.32,2.616,2.706,2.616,2.706Z" transform="translate(-884.853 -611.128)" fill="#ff924f"/>
          </g>
          <g id="Group_14403" data-name="Group 14403" transform="translate(2.617 2.629)">
            <path id="Path_19995" data-name="Path 19995" d="M894.057,618.587s6.2,5.944,6.561,6.846-.286,3.4-2.422,2.978-5.917-8.246-5.917-8.246l.518-1.448Z" transform="translate(-892.279 -618.587)" fill="#ff924f"/>
          </g>
        </g>
        <g id="Group_14405" data-name="Group 14405" transform="translate(19.918 10.264)">
          <path id="Path_19996" data-name="Path 19996" d="M920.193,584.852l-1.35,2.962-3.169.835-1.849-2.775-.3-.457-.722-1.085-.3-.453-.485-.725,4.148-5.715Z" transform="translate(-912.01 -577.439)" fill="#ff5959"/>
        </g>
        <g id="Group_14406" data-name="Group 14406" transform="translate(13.409 3.269)">
          <path id="Path_19997" data-name="Path 19997" d="M904.718,567.2c-.188,1.775-3.887,3.9-4.831,4.039-1.332.2-3.927-1.229-4.721-2.975a21.85,21.85,0,0,1-1.1-4.064.024.024,0,0,1,0-.014c-.044-.224-.085-.448-.126-.662-.008-.031-.013-.06-.018-.087-.231-1.253-.373-2.225-.373-2.225l2.445-3.617s4.982.527,5.09.593,3.6,3.451,3.6,3.451A48.025,48.025,0,0,1,904.718,567.2Z" transform="translate(-893.541 -557.594)" fill="#ff5959"/>
        </g>
        <g id="Group_14407" data-name="Group 14407" transform="translate(23.043 7.2)">
          <path id="Path_19998" data-name="Path 19998" d="M922.373,568.858a1.043,1.043,0,0,1,1.269.255c.6.565.428,2.05-.285,3a3,3,0,0,1-1.669,1.127c-.016-.064-.791-2.05-.813-2.226A19.458,19.458,0,0,1,922.373,568.858Z" transform="translate(-920.874 -568.746)" fill="#ff924f"/>
        </g>
        <g id="Group_14408" data-name="Group 14408" transform="translate(20.403 15.315)">
          <path id="Path_19999" data-name="Path 19999" d="M915.753,593.626a5.976,5.976,0,0,1-1.343,1.071l-.721-1.085-.3-.453a7.179,7.179,0,0,0,1.41-.887c.7-.572.957-.586,1.335-.382S916.373,592.909,915.753,593.626Z" transform="translate(-913.385 -591.769)" fill="#c72b2b"/>
        </g>
        <g id="Group_14415" data-name="Group 14415" transform="translate(12.847 2.848)">
          <path id="Path_20006" data-name="Path 20006" d="M902.479,558.786a11.509,11.509,0,0,0-.649-.962,5.676,5.676,0,0,0-4.242-1.422c-1.571.036-2.988-.117-3.949,1.348a.545.545,0,0,0-.031.056,1.489,1.489,0,0,0-.675.806,1.824,1.824,0,0,0-.452.368,2.7,2.7,0,0,0-.467,1.137,5.9,5.9,0,0,0,.387,2.956.21.21,0,0,0,.4-.017,9.509,9.509,0,0,1,.43-1.632c.183-.44.427-.862.579-1.313a2.482,2.482,0,0,0,.114-.951c1.22-.559,2.448-1.4,3.847-1.193,1.6.232,2.621,1.987,3.505,3.157a.2.2,0,0,0,.375-.094.187.187,0,0,0,.109-.075c.317-.444,1.042-1.12.968-1.707A.97.97,0,0,0,902.479,558.786Z" transform="translate(-891.947 -556.4)" fill="#1f2144"/>
        </g>
        <g id="Group_14416" data-name="Group 14416" transform="translate(10.346 0)">
          <path id="Path_20007" data-name="Path 20007" d="M899.327,550.2a6.457,6.457,0,0,0-4.166-1.862,7.97,7.97,0,0,0-4.68,1.229,6.54,6.54,0,0,0-2.5,2.986c-.311.158-.606.337-.863.488a4.954,4.954,0,0,0-1.944,1.813,3.747,3.747,0,0,0,.074,3.191c.012.091.02.18.04.276.227,1.131,1.159,1.875,1.553,2.944a4.915,4.915,0,0,0,1.866,2.687c.145.081.268-.091.2-.22a25.606,25.606,0,0,1-1.517-2.789,3.763,3.763,0,0,0-.338-.669.262.262,0,0,0,.022-.1,3.684,3.684,0,0,0-.192-.964h0l.013,0a.284.284,0,0,0,.345-.286c-.01-.12-.024-.248-.038-.379.006-.008.015-.013.021-.021a2.452,2.452,0,0,0,.186-1.456c-.01-.223-.024-.444-.043-.664.063-.328.137-.658.221-.986a8.3,8.3,0,0,0,.683-1.714.256.256,0,0,0-.01-.137.228.228,0,0,0-.053-.135c.135-.144.273-.285.418-.419l.005-.005,0,0h0a.1.1,0,0,0-.1-.162c-.031.01-.06.026-.091.038a.114.114,0,0,0,.024-.024c.019-.029.041-.057.061-.086.114-.056.229-.116.341-.167a1.332,1.332,0,0,0-.052.59.122.122,0,0,0,.208.076,9.528,9.528,0,0,0,.762-1.047,9.8,9.8,0,0,1,1.1-1,11.57,11.57,0,0,1,1.328-.993.238.238,0,0,0,.161.051l.051,0a.211.211,0,0,0,.287.01.552.552,0,0,1,.05-.028c.306-.017.611-.038.917-.065a7.787,7.787,0,0,1,2.772.2c.963.292,1.813,1.032,2.83,1.1l.006,0h0c.024,0,.046.007.07.008a.216.216,0,0,0,.186-.095,27,27,0,0,1,1.637,3.257c.061.117.217.037.223-.07A6.363,6.363,0,0,0,899.327,550.2Z" transform="translate(-884.854 -548.32)" fill="#1f2144"/>
        </g>
        <g id="Group_14417" data-name="Group 14417" transform="translate(13.346 1.794)">
          <path id="Path_20008" data-name="Path 20008" d="M904.111,557.792a6.365,6.365,0,0,0-4.031-4.024c-3.474-1.072-6.3.555-6.624,1.217a.9.9,0,0,0,.036.86,8.24,8.24,0,0,1,5.706-.913,6.06,6.06,0,0,1,3.712,3.548Z" transform="translate(-893.363 -553.411)" fill="#5d5967"/>
        </g>
        <g id="Group_14420" data-name="Group 14420" transform="translate(21.96 5.908)">
          <g id="Group_14418" data-name="Group 14418">
            <path id="Path_20009" data-name="Path 20009" d="M917.8,567.341c0,1.763.705,3.322,2.081,3.768,1.65.535,2.622-.677,2.74-2.01s-.786-3.542-1.828-3.874A2.131,2.131,0,0,0,917.8,567.341Z" transform="translate(-917.802 -565.083)" fill="#361a09"/>
          </g>
          <g id="Group_14419" data-name="Group 14419" transform="translate(1.164 0.36)">
            <path id="Path_20010" data-name="Path 20010" d="M923.522,566.145a2.038,2.038,0,0,0-2.383,2.5c.347,2.531,2.32,2.437,2.84,2.33.967-.2,1.368-1.248,1.186-2.642A2.323,2.323,0,0,0,923.522,566.145Z" transform="translate(-921.105 -566.104)" fill="#ff6b77"/>
          </g>
        </g>
        <g id="Group_14421" data-name="Group 14421" transform="translate(18.464 13.276)">
          <path id="Path_20011" data-name="Path 20011" d="M919.061,586.022c-3.3.384-3.683,1.917-5.265,2.981a20.1,20.1,0,0,1-5.911,2.555s.2,5.243,1.641,8.547,5.1,5.684,9.991,6.388a44.127,44.127,0,0,0,8.283.485s1.807-16.028.4-17.355S922.355,585.638,919.061,586.022Z" transform="translate(-907.884 -585.984)" fill="#3b5d8c"/>
        </g>
        <g id="Group_14422" data-name="Group 14422" transform="translate(33.929 14.99)">
          <path id="Path_20012" data-name="Path 20012" d="M953.651,590.848s4.5,2.818,6.656,3.141,2.276-.39,4.523.359,4.186,3.877,5.243,6.609a12.827,12.827,0,0,1,0,7.71c-.749,1.674-13.864,1.462-13.864,1.462l-4.45-13.57Z" transform="translate(-951.759 -590.848)" fill="#3b5d8c"/>
        </g>
        <g id="Group_14423" data-name="Group 14423" transform="translate(13.155 18.483)">
          <path id="Path_20013" data-name="Path 20013" d="M903.506,600.758s-3.387,8.43-3.74,8.562-1.2-1.782-3.183-1.983c-1.74-.176-5.237,3.569-3.078,5.992,1.227,1.377,3.97,5.067,7.627,6.124s5.194-2.159,6.472-3.348a9.2,9.2,0,0,0,2.071-3.3c.088-.264.837-3.437.969-4.1S903.506,600.758,903.506,600.758Z" transform="translate(-892.822 -600.758)" fill="#3b5d8c"/>
        </g>
        <g id="Group_14424" data-name="Group 14424" transform="translate(0 22.355)">
          <path id="Path_20014" data-name="Path 20014" d="M856.991,611.992c-.554-.656-1.739.058-1.445,1.315s1.146,2.743,2.118,2S857.546,612.648,856.991,611.992Z" transform="translate(-855.5 -611.744)" fill="#ff924f"/>
        </g>
        <g id="Group_14425" data-name="Group 14425" transform="translate(58.69 18.883)">
          <path id="Path_20015" data-name="Path 20015" d="M1028.63,605.168h-.022c-.178-.01-5.807-.825-6.448-.917a.176.176,0,0,1-.149-.2.178.178,0,0,1,.2-.149c1.63.236,5.748.83,6.35.907a27.978,27.978,0,0,0,1.333-2.805.176.176,0,1,1,.323.139C1028.974,605.027,1028.767,605.168,1028.63,605.168Z" transform="translate(-1022.009 -601.894)" fill="#77a6d9"/>
        </g>
        <g id="Group_14426" data-name="Group 14426" transform="translate(21.231 15.765)">
          <path id="Path_20016" data-name="Path 20016" d="M916.069,603.939l-.336-.105c.008-.024.774-2.477,1.472-4.626a27.539,27.539,0,0,1,3.329-6.16l.286.207a27.159,27.159,0,0,0-3.279,6.062C916.843,601.463,916.077,603.914,916.069,603.939Z" transform="translate(-915.733 -593.047)" fill="#23497d"/>
        </g>
        <g id="Group_14427" data-name="Group 14427" transform="translate(16.663 24.888)">
          <path id="Path_20017" data-name="Path 20017" d="M909,623.2a8.186,8.186,0,0,0-2.469-2.661,13.532,13.532,0,0,0-3.756-1.261l.06-.348a13.627,13.627,0,0,1,3.875,1.3,8.391,8.391,0,0,1,2.6,2.792Z" transform="translate(-902.775 -618.931)" fill="#23497d"/>
        </g>
        <g id="Group_14428" data-name="Group 14428" transform="translate(28.467 26.279)">
          <path id="Path_20018" data-name="Path 20018" d="M936.549,629.786l-.287-.2c.021-.03,2.176-3.063,2.808-4.329s1.077-2.365,1.081-2.376l.327.131c0,.011-.451,1.118-1.093,2.4S936.639,629.66,936.549,629.786Z" transform="translate(-936.262 -622.877)" fill="#23497d"/>
        </g>
        <g id="Group_14429" data-name="Group 14429" transform="translate(19.744 18.438)">
          <path id="Path_20019" data-name="Path 20019" d="M912.635,608.51c-.04-.078-.271-.815-.8-2.646a11.043,11.043,0,0,1,0-5.233l.341.09a10.884,10.884,0,0,0,0,5.046c.669,2.328.772,2.581.776,2.591Z" transform="translate(-911.514 -600.63)" fill="#23497d"/>
        </g>
        <g id="Group_14430" data-name="Group 14430" transform="translate(10.846 20.728)">
          <path id="Path_20020" data-name="Path 20020" d="M887.1,607.579a.424.424,0,1,1-.483-.447A.47.47,0,0,1,887.1,607.579Z" transform="translate(-886.271 -607.128)" fill="#5d5967"/>
        </g>
      </g>
    </g>
    <g id="Group_14481" data-name="Group 14481" transform="translate(181.455 663.942)">
      <ellipse id="Ellipse_1396" data-name="Ellipse 1396" cx="12.418" cy="12.418" rx="12.418" ry="12.418" transform="translate(2.573 9.716)" fill="#fd3947"/>
      <g id="Group_14468" data-name="Group 14468" transform="translate(0 7.578)">
        <g id="Group_14467" data-name="Group 14467">
          <g id="Group_14466" data-name="Group 14466">
            <path id="Path_20069" data-name="Path 20069" d="M88.043,126.428c.025.216-.277.119-.783-.16a2.708,2.708,0,0,1-.61-.53,2.587,2.587,0,0,1-.139-.453,11.7,11.7,0,0,1,.449-1.172,2.232,2.232,0,0,1,.464-.7c.379-.42.742-.856,1.128-1.27a.959.959,0,0,1,.314-.222,2.765,2.765,0,0,0,1-.826c.046-.056.108-.1.1-.206-.02-.181.823-1,.979-1.05.386-.14.729-.323,1.091-.482.051-.023.072-.085.175-.044.239.094.3-.012.395-.076a1.594,1.594,0,0,1,.448-.218.964.964,0,0,1,.356.048c.115.024.315.307.322.351.019.128.17.211.27.313a1.333,1.333,0,0,1,.1.111,4.172,4.172,0,0,1-.281,1.176l-.14.171-.293.373c-.213.277-.432.569-.468.637s-.131.086-.209.116c-.04.012-.628.887-.659.914-.169.134-.252.352-.547.361-.058,0-.08.042-.107.075a5.011,5.011,0,0,1-.824.741,4.037,4.037,0,0,0-.38.419c-.023.025-.069.028-.1.044a.32.32,0,0,0-.118.066,7.262,7.262,0,0,0-.878,1.012c-.051.092-.561.3-.611.413C88.458,126.417,88.033,126.341,88.043,126.428Z" transform="translate(-86.51 -119.006)" fill="#005ea8"/>
          </g>
        </g>
      </g>
      <g id="Group_14471" data-name="Group 14471" transform="translate(0.675 13.273)">
        <g id="Group_14470" data-name="Group 14470" transform="translate(0)">
          <g id="Group_14469" data-name="Group 14469">
            <path id="Path_20070" data-name="Path 20070" d="M90.389,149.98c-.031.28-.378.235-.921,0a1.772,1.772,0,0,1-.6-.543,2.848,2.848,0,0,1-.047-.557c0-.1.645-1.238.845-1.637a5.175,5.175,0,0,1,.73-1.036c.557-.649,1.093-1.316,1.647-1.967a2.175,2.175,0,0,1,.428-.383,5.977,5.977,0,0,0,1.379-1.391.5.5,0,0,0,.154-.3,7.622,7.622,0,0,1,1.363-1.688c.5-.323.943-.689,1.412-1.036.067-.05.1-.136.223-.127.287.02.372-.138.5-.26a3.589,3.589,0,0,1,.582-.464,1.261,1.261,0,0,1,.441-.093c.142-.02.365.249.368.3.011.154.192.192.307.278a.872.872,0,0,1,.116.1,7.062,7.062,0,0,1-.5,1.633c-.025.028-1.21,1.709-1.326,1.915a.825.825,0,0,1-.285.237c-.049.034-.958,1.411-1,1.458-.239.241-.39.56-.766.682a.318.318,0,0,0-.15.139,11.654,11.654,0,0,1-1.2,1.271c-.213.21-.382.457-.576.683a.73.73,0,0,1-.139.093.75.75,0,0,0-.165.126,20.581,20.581,0,0,0-1.362,1.619c-.088.139-.782.564-.877.729C90.908,149.851,90.4,149.869,90.389,149.98Z" transform="translate(-88.82 -138.497)" fill="#005ea8"/>
          </g>
        </g>
      </g>
      <g id="Group_14474" data-name="Group 14474" transform="translate(14.748 0)">
        <g id="Group_14473" data-name="Group 14473">
          <g id="Group_14472" data-name="Group 14472">
            <path id="Path_20071" data-name="Path 20071" d="M138.6,102.24c.012.249-.317.2-.861-.018a2.065,2.065,0,0,1-.642-.491,2.6,2.6,0,0,1-.118-.509,14.458,14.458,0,0,1,.627-1.5,3.648,3.648,0,0,1,.619-.932c.493-.571.977-1.153,1.5-1.7a1.571,1.571,0,0,1,.4-.308,5.26,5.26,0,0,0,1.331-1.1c.065-.07.147-.125.158-.25a5.259,5.259,0,0,1,1.4-1.307c.492-.192.945-.424,1.417-.625.067-.029.108-.1.22-.059.259.094.357-.027.49-.1a2.463,2.463,0,0,1,.593-.26,1.089,1.089,0,0,1,.409.044c.13.024.286.335.282.384-.013.143.141.231.231.343a1.071,1.071,0,0,1,.088.122,6.157,6.157,0,0,1-.642,1.316c-.006.005-.089.079-.206.2l-.432.43c-.312.323-.632.663-.687.744a.564.564,0,0,1-.266.146c-.054.012-.906,1.057-.943,1.092-.22.168-.353.427-.693.469-.067.008-.1.056-.136.1a9.573,9.573,0,0,1-1.059.958,6.125,6.125,0,0,0-.49.541.5.5,0,0,1-.122.066.5.5,0,0,0-.142.1,9.911,9.911,0,0,0-1.1,1.332c-.067.115-.656.459-.721.6C139.067,102.139,138.6,102.139,138.6,102.24Z" transform="translate(-136.983 -93.071)" fill="#005ea8"/>
          </g>
        </g>
      </g>
      <g id="Group_14477" data-name="Group 14477" transform="translate(12.995 14.043)">
        <g id="Group_14476" data-name="Group 14476">
          <g id="Group_14475" data-name="Group 14475">
            <path id="Path_20072" data-name="Path 20072" d="M132.636,150.039c.032.233-.29.186-.834-.025a2.3,2.3,0,0,1-.66-.467,2.557,2.557,0,0,1-.157-.475,13.622,13.622,0,0,1,.463-1.391,3.03,3.03,0,0,1,.5-.869c.408-.535.8-1.083,1.23-1.6a1.3,1.3,0,0,1,.344-.3,4.02,4.02,0,0,0,1.111-1.069c.051-.068.121-.123.114-.24a4.386,4.386,0,0,1,1.115-1.292c.43-.206.816-.451,1.224-.67.058-.032.084-.1.2-.07.257.072.328-.049.439-.131a2.089,2.089,0,0,1,.507-.289,1.026,1.026,0,0,1,.389.012c.125.013.325.3.329.344.012.136.172.209.275.309a1.165,1.165,0,0,1,.1.109,5.2,5.2,0,0,1-.38,1.3c0,.005-.07.082-.162.2l-.339.438c-.245.327-.5.67-.536.75s-.145.11-.231.153c-.046.017-.71,1.05-.742,1.084-.186.169-.28.42-.6.473-.063.011-.087.057-.117.1a7.29,7.29,0,0,1-.9.938,5.289,5.289,0,0,0-.408.521c-.025.031-.075.042-.11.065a.417.417,0,0,0-.126.092,9.1,9.1,0,0,0-.929,1.265c-.053.109-.591.432-.641.569C133.075,149.948,132.623,149.945,132.636,150.039Z" transform="translate(-130.985 -141.134)" fill="#005ea8"/>
          </g>
        </g>
      </g>
      <g id="Group_14480" data-name="Group 14480" transform="translate(5.529 25.196)">
        <g id="Group_14479" data-name="Group 14479" transform="translate(0 0)">
          <g id="Group_14478" data-name="Group 14478">
            <path id="Path_20073" data-name="Path 20073" d="M106.8,187.13c-.022.231-.321.106-.792-.234a2.4,2.4,0,0,1-.526-.614,2.637,2.637,0,0,1-.051-.488c0-.086.531-.9.7-1.189a2.807,2.807,0,0,1,.609-.7c.467-.416.916-.852,1.38-1.271a1.185,1.185,0,0,1,.361-.221,3.231,3.231,0,0,0,1.159-.845c.054-.058.125-.1.127-.214,0-.187.971-1.042,1.14-1.1.42-.153.8-.353,1.2-.533.056-.026.083-.092.189-.053.247.089.317-.025.425-.1a2.013,2.013,0,0,1,.491-.252,1.022,1.022,0,0,1,.378.031c.122.019.318.3.322.35.012.134.168.212.269.314a1.2,1.2,0,0,1,.1.111,4.6,4.6,0,0,1-.4,1.272c-.021.018-1.009,1.159-1.1,1.306-.05.077-.153.1-.241.132-.041.017-.8.967-.836,1-.2.147-.325.382-.646.392-.063,0-.093.045-.127.081a6.234,6.234,0,0,1-1.011.787,5.723,5.723,0,0,0-.483.44c-.029.026-.08.029-.118.044a.42.42,0,0,0-.139.067,10.964,10.964,0,0,0-1.141,1.044c-.073.1-.662.286-.74.4C107.244,187.149,106.809,187.037,106.8,187.13Z" transform="translate(-105.431 -179.302)" fill="#005ea8"/>
          </g>
        </g>
      </g>
    </g>
  </g>
</svg>
