<svg xmlns="http://www.w3.org/2000/svg" xmlns:xlink="http://www.w3.org/1999/xlink" width="40" height="40" viewBox="0 0 40 40">
  <defs>
    <linearGradient id="linear-gradient" x1="0.284" y1="0.072" x2="0.5" y2="1" gradientUnits="objectBoundingBox">
      <stop offset="0" stop-color="#ff6131"/>
      <stop offset="1" stop-color="#ff4d4d"/>
    </linearGradient>
  </defs>
  <g id="Group_14057" data-name="Group 14057" transform="translate(-32 -175)">
    <g id="Group_11272" data-name="Group 11272" transform="translate(0 -170)">
      <circle id="Ellipse_1042" data-name="Ellipse 1042" cx="19.417" cy="19.417" r="19.417" transform="translate(32.667 345)" fill="#e8e8e8"/>
      <path id="Path_18972" data-name="Path 18972" d="M298.59,429.888H286.168A3.168,3.168,0,0,1,283,426.721V401.058a3.17,3.17,0,0,1,3.168-3.168H298.59a3.168,3.168,0,0,1,3.168,3.168v25.663a3.166,3.166,0,0,1-3.168,3.168Zm0,0" transform="translate(-241.166 -45.722)" fill="url(#linear-gradient)"/>
      <rect id="Rectangle_6389" data-name="Rectangle 6389" width="15.45" height="23.723" transform="translate(43.488 355.479)" fill="#ffcfc1"/>
      <path id="Path_18973" data-name="Path 18973" d="M287.552,407.6a.553.553,0,0,0,.39-.161l2.206-2.206a.552.552,0,0,0-.781-.781l-2.207,2.209a.551.551,0,0,0,.391.94Zm0,0" transform="translate(-242.407 -47.707)" fill="#fff"/>
      <path id="Path_18974" data-name="Path 18974" d="M287.552,412.1a.553.553,0,0,0,.39-.161l1.1-1.1a.552.552,0,1,0-.779-.781l-1.1,1.1a.551.551,0,0,0,.391.94Zm0,0" transform="translate(-242.407 -49.446)" fill="#fff"/>
      <path id="Path_18975" data-name="Path 18975" d="M290.361,408.454a.562.562,0,0,0-.162.39.552.552,0,1,0,1.1,0,.552.552,0,0,0-.943-.39Zm0,0" transform="translate(-243.4 -48.953)" fill="#fff"/>
      <path id="Path_18976" data-name="Path 18976" d="M291.962,406.885a.55.55,0,0,0,.779,0l1.657-1.654a.552.552,0,0,0-.781-.781l-1.654,1.657a.55.55,0,0,0,0,.779Zm0,0" transform="translate(-243.897 -47.707)" fill="#fff"/>
      <path id="Path_18977" data-name="Path 18977" d="M292.127,408.45l-4.965,4.968a.552.552,0,0,0,.781.779l4.965-4.965a.552.552,0,1,0-.781-.781Zm0,0" transform="translate(-242.407 -48.949)" fill="#fff"/>
      <path id="Path_18978" data-name="Path 18978" d="M295.96,406.852a.551.551,0,1,0,.784,0,.581.581,0,0,0-.784,0Zm0,0" transform="translate(-245.139 -48.455)" fill="#fff"/>
      <path id="Path_18979" data-name="Path 18979" d="M298.893,404.45a.552.552,0,0,0-.781,0l-.552.552a.552.552,0,1,0,.781.781l.552-.552a.552.552,0,0,0,0-.781Zm0,0" transform="translate(-245.634 -47.707)" fill="#fff"/>
      <path id="Path_18980" data-name="Path 18980" d="M297.261,400.593H293.95a.551.551,0,1,1,0-1.1h3.311a.551.551,0,1,1,0,1.1Zm0,0" transform="translate(-244.393 -46.219)" fill="#fff"/>
      <path id="Path_18981" data-name="Path 18981" d="M305.7,400.593h-.552a.551.551,0,0,1,0-1.1h.552a.551.551,0,1,1,0,1.1Zm0,0" transform="translate(-247.87 -46.219)" fill="#fff"/>
      <path id="Path_18982" data-name="Path 18982" d="M302.5,400.593h-.552a.551.551,0,1,1,0-1.1h.552a.551.551,0,1,1,0,1.1Zm0,0" transform="translate(-246.876 -46.219)" fill="#fff"/>
      <path id="Path_18983" data-name="Path 18983" d="M296.987,441.146h-2.759a.827.827,0,1,1,0-1.654h2.759a.827.827,0,0,1,0,1.654Zm0,0" transform="translate(-244.393 -58.633)" fill="#fff"/>
      <rect id="Rectangle_6390" data-name="Rectangle 6390" width="40" height="40" transform="translate(32 345)" fill="none"/>
      <path id="Path_18984" data-name="Path 18984" d="M298.59,429.888H286.168A3.168,3.168,0,0,1,283,426.721V401.058a3.17,3.17,0,0,1,3.168-3.168H298.59a3.168,3.168,0,0,1,3.168,3.168v25.663a3.166,3.166,0,0,1-3.168,3.168Zm0,0" transform="translate(-241.166 -45.722)" fill="none" stroke="#c72a2a" stroke-width="1"/>
    </g>
    <rect id="Rectangle_6453" data-name="Rectangle 6453" width="40" height="40" transform="translate(32 175)" fill="none"/>
  </g>
</svg>
