<svg xmlns="http://www.w3.org/2000/svg" width="38.833" height="40" viewBox="0 0 38.833 40">
  <g id="Group_15644" data-name="Group 15644" transform="translate(-273.167 -376)">
    <path id="Path_27867" data-name="Path 27867" d="M19.417,0A19.417,19.417,0,1,1,0,19.417,19.417,19.417,0,0,1,19.417,0Z" transform="translate(273.167 376)" fill="#e8e8e8"/>
    <path id="Path_27885" data-name="Path 27885" d="M32.612,159.982s5.152,10.463,9.353,9.346,3.11-9.832,1.523-16.783a11.3,11.3,0,0,0-11.012-8.789H19.949a11.3,11.3,0,0,0-11.012,8.789C7.35,159.5,6.27,168.213,10.46,169.328s9.353-9.346,9.353-9.346Z" transform="translate(266.536 246.02)" fill="#5d5df7"/>
    <g id="Group_15598" data-name="Group 15598" transform="translate(276.652 389.775)">
      <path id="Path_27886" data-name="Path 27886" d="M50.562,351.731a1.588,1.588,0,0,0-1.419.876c-1.1,2.2-4.191,7.859-7.215,8.943h0a3.117,3.117,0,0,0,.344.114c4.2,1.118,9.353-9.346,9.353-9.346h0c.133-.375.2-.588.2-.588H50.562Z" transform="translate(-41.928 -336.092)" fill="#3636ce"/>
      <path id="Path_27887" data-name="Path 27887" d="M325.139,152.545a11.3,11.3,0,0,0-11.012-8.789h-2.045a11.3,11.3,0,0,1,11.013,8.789c1.542,6.754,2.6,15.173-1.179,16.669a2.821,2.821,0,0,0,1.7.114C327.806,168.214,326.726,159.5,325.139,152.545Z" transform="translate(-291.767 -143.756)" fill="#3636ce"/>
    </g>
    <path id="Path_27888" data-name="Path 27888" d="M100.19,199.683H98.485v-1.7a1.478,1.478,0,0,0-1.478-1.478h0a1.478,1.478,0,0,0-1.478,1.478v1.7H93.824a1.478,1.478,0,0,0-1.478,1.478h0a1.478,1.478,0,0,0,1.478,1.478h1.705v1.7a1.478,1.478,0,0,0,1.478,1.478h0a1.478,1.478,0,0,0,1.478-1.478v-1.7h1.705a1.478,1.478,0,0,0,1.478-1.478h0A1.478,1.478,0,0,0,100.19,199.683Z" transform="translate(188.097 197.241)" fill="#fff"/>
    <g id="Group_15599" data-name="Group 15599" transform="translate(284.422 393.741)">
      <path id="Path_27889" data-name="Path 27889" d="M179.892,238.827h-1.363a1.478,1.478,0,0,1,0,2.956h1.363a1.478,1.478,0,0,0,0-2.956Z" transform="translate(-176.028 -235.644)" fill="#d3d0d0"/>
      <path id="Path_27890" data-name="Path 27890" d="M146.06,197.978v1.572a.7.7,0,0,0,.7.7h.662v-2.273a1.478,1.478,0,0,0-1.478-1.478h0a1.47,1.47,0,0,0-.682.167A1.477,1.477,0,0,1,146.06,197.978Z" transform="translate(-145.264 -196.5)" fill="#d3d0d0"/>
      <path id="Path_27891" data-name="Path 27891" d="M146.06,272.831a1.477,1.477,0,0,1-.8,1.311,1.47,1.47,0,0,0,.682.167h0a1.478,1.478,0,0,0,1.478-1.478v-2.275h-.662a.7.7,0,0,0-.7.7Z" transform="translate(-145.264 -264.987)" fill="#d3d0d0"/>
    </g>
    <g id="Group_15600" data-name="Group 15600" transform="translate(273.499 380.431)">
      <path id="Path_27892" data-name="Path 27892" d="M343.854,145.433a11.866,11.866,0,0,0-11.566-9.231.568.568,0,1,0,0,1.136,10.73,10.73,0,0,1,10.459,8.348c2.194,9.612,1.8,15.333-1.115,16.108-.968.257-2.672-.153-5.3-3.571a.568.568,0,1,0-.9.692c2.082,2.713,3.994,4.081,5.7,4.081a3.072,3.072,0,0,0,.794-.1c2.155-.573,3.282-2.842,3.349-6.742A46.767,46.767,0,0,0,343.854,145.433Z" transform="translate(-306.775 -127.426)" fill="#2a2aa8"/>
      <path id="Path_27893" data-name="Path 27893" d="M26.158,347.232a.568.568,0,0,0-.51-.317h-12.8a.568.568,0,0,0-.51.317,38.57,38.57,0,0,1-3.058,5.018c-2.8,3.825-4.614,4.3-5.64,4.029-2.65-.705-2.729-5.365-2.328-9.15a.568.568,0,1,0-1.13-.12c-.651,6.147.414,9.635,3.166,10.367a3.081,3.081,0,0,0,.8.1c1.8,0,3.836-1.533,6.061-4.571a39.217,39.217,0,0,0,2.992-4.86H25.3c.308.594,1.034,1.946,2.021,3.454a.568.568,0,1,0,.951-.622A39.206,39.206,0,0,1,26.158,347.232Z" transform="translate(0.001 -321.912)" fill="#2a2aa8"/>
      <path id="Path_27894" data-name="Path 27894" d="M6.844,42.964a.573.573,0,0,0,.648-.474c.227-1.46.536-3.053.92-4.735a10.73,10.73,0,0,1,10.459-8.348H29.249a.568.568,0,0,0,0-1.136H25.7V20.064a.568.568,0,1,0-1.136,0v8.208H18.871A11.866,11.866,0,0,0,7.305,37.5c-.39,1.707-.7,3.327-.935,4.813A.568.568,0,0,0,6.844,42.964Z" transform="translate(-5.884 -19.496)" fill="#2a2aa8"/>
      <path id="Path_27895" data-name="Path 27895" d="M90.021,199.4a2.048,2.048,0,0,0,2.046-2.046v-1.137H93.2a2.046,2.046,0,0,0,0-4.092H92.067v-1.137a2.046,2.046,0,0,0-4.092,0v1.137H86.838a2.046,2.046,0,1,0,0,4.092h1.137v1.137A2.048,2.048,0,0,0,90.021,199.4Zm-3.183-4.319a.91.91,0,1,1,0-1.82h1.7a.568.568,0,0,0,.568-.568v-1.7a.91.91,0,0,1,1.82,0v1.7a.568.568,0,0,0,.568.568H93.2a.91.91,0,0,1,0,1.82H91.5a.568.568,0,0,0-.568.568v1.705a.91.91,0,0,1-1.82,0v-1.705a.568.568,0,0,0-.568-.568Z" transform="translate(-78.416 -176.205)" fill="#2a2aa8"/>
      <path id="Path_27896" data-name="Path 27896" d="M389.772,244.392a1.183,1.183,0,1,0-1.183-1.183A1.185,1.185,0,0,0,389.772,244.392Z" transform="translate(-359.368 -225.292)" fill="#fff"/>
      <path id="Path_27897" data-name="Path 27897" d="M310.077,243.209a1.183,1.183,0,1,0,1.183-1.183A1.185,1.185,0,0,0,310.077,243.209Z" transform="translate(-286.76 -225.292)" fill="#fff"/>
      <path id="Path_27898" data-name="Path 27898" d="M350.515,283.647a1.183,1.183,0,1,0-1.183-1.183A1.185,1.185,0,0,0,350.515,283.647Z" transform="translate(-323.063 -261.595)" fill="#fff"/>
      <path id="Path_27899" data-name="Path 27899" d="M350.515,205.137a1.183,1.183,0,1,0-1.183-1.183A1.185,1.185,0,0,0,350.515,205.137Z" transform="translate(-323.063 -188.989)" fill="#fff"/>
    </g>
  </g>
</svg>
