<svg xmlns="http://www.w3.org/2000/svg" xmlns:xlink="http://www.w3.org/1999/xlink" width="45.565" height="33.607" viewBox="0 0 45.565 33.607">
  <defs>
    <clipPath id="clip-path">
      <rect width="45.565" height="33.607" fill="none"/>
    </clipPath>
  </defs>
  <g id="Repeat_Grid_1" data-name="Repeat Grid 1" clip-path="url(#clip-path)">
    <g id="Group_16705" data-name="Group 16705" transform="translate(1105 -1130.394)">
      <path id="Path_20068" data-name="Path 20068" d="M-375.983,669.407a5.272,5.272,0,0,1-.76-3.147c0-3.463.973-7.621,4.583-7.621,2.649,0,5.953,2.3,8.428,1.908,7.793-1.22,3.111-9.207,3.1-9.224-1.679-3.424.949-6.057,3.962-6.057,2.964,0,4.367,3.817,6.913,4.866a1.8,1.8,0,0,0-.332-.356c2.635,1.381,7.331-1.884,7.331,8.825,0,5.7-1.949,12.339-5.73,12.339h0l.029-.041c-4.322,2.18-8.082,3.345-11.967,3.345a24.672,24.672,0,0,1-9.914-2.312C-372.1,671.167-374.78,670.922-375.983,669.407Z" transform="translate(-716.68 487.444)" fill="#ffb644"/>
      <g id="Group_14456" data-name="Group 14456" transform="translate(-1095.369 1130.394)">
        <path id="Path_20022" data-name="Path 20022" d="M207.873,583.313c4.9,0,8.874.485,8.874,1.083s-3.973,1.083-8.874,1.083S199,584.994,199,584.4,202.972,583.313,207.873,583.313Z" transform="translate(-192.01 -556.161)" fill="#000004" fill-rule="evenodd" opacity="0.17"/>
        <g id="Group_14450" data-name="Group 14450" transform="translate(0 2.179)">
          <g id="Group_14436" data-name="Group 14436" transform="translate(11.684 1.488)">
            <rect id="Rectangle_6553" data-name="Rectangle 6553" width="0.54" height="2.327" transform="translate(0.884 1.033) rotate(-7.454)" fill="#25282a"/>
            <g id="Group_14435" data-name="Group 14435">
              <path id="Path_20023" data-name="Path 20023" d="M258.666,287.167l1.844-.241a.154.154,0,0,0,.113-.182l-.076-.581a.154.154,0,0,0-.156-.147l-1.844.241a.154.154,0,0,0-.113.182l.076.581A.154.154,0,0,0,258.666,287.167Z" transform="translate(-258.432 -286.015)" fill="#25282a" fill-rule="evenodd"/>
              <path id="Path_20024" data-name="Path 20024" d="M261.259,286.779l-1.844.241a.154.154,0,0,0,.156.147l.628-.082.589-.077.628-.082a.154.154,0,0,0,.113-.182l-.076-.581a.154.154,0,0,0-.156-.147l.076.581A.154.154,0,0,1,261.259,286.779Z" transform="translate(-259.337 -286.015)" fill="#000004" fill-rule="evenodd" opacity="0.3"/>
            </g>
          </g>
          <g id="Group_14441" data-name="Group 14441" transform="translate(3.141)">
            <g id="Group_14438" data-name="Group 14438" transform="translate(0 1.212)">
              <path id="Path_20025" data-name="Path 20025" d="M168.554,289.75l1.522-1.044h0a.277.277,0,0,0-.384-.071l-1.067.732a.277.277,0,0,0-.071.384Z" transform="translate(-167.066 -288.107)" fill="#25282a" fill-rule="evenodd"/>
              <g id="Group_14437" data-name="Group 14437">
                <path id="Path_20026" data-name="Path 20026" d="M158.453,284.576l-.388-.566a3.443,3.443,0,0,0-4.773-.889l-1.522,1.044a3.443,3.443,0,0,0-.889,4.773l.388.566Z" transform="translate(-150.282 -282.522)" fill="#fbc100" fill-rule="evenodd"/>
                <path id="Path_20027" data-name="Path 20027" d="M160.89,304.826c-1-1.458-1.208-3.068-.463-3.58l-.226.155a2.987,2.987,0,0,0-.379,4.157l.363.529,1.069-.733Z" transform="translate(-158.468 -299.767)" fill="#ffdc48" fill-rule="evenodd"/>
                <path id="Path_20028" data-name="Path 20028" d="M188.536,291.509l.363.529.439-.3-.363-.529c-1-1.458-2.692-2.051-3.76-1.318l-.093.064C186,289.351,187.536,290.052,188.536,291.509Z" transform="translate(-182.37 -289.018)" fill="#ffd51c" fill-rule="evenodd"/>
              </g>
              <rect id="Rectangle_6554" data-name="Rectangle 6554" width="0.511" height="1.882" transform="translate(4.368 4.662) rotate(-34.452)" fill="#25282a"/>
            </g>
            <g id="Group_14440" data-name="Group 14440" transform="translate(11.64)">
              <path id="Path_20029" data-name="Path 20029" d="M356.036,267.526l1.739.618h0a.277.277,0,0,0-.168-.353l-1.219-.433a.277.277,0,0,0-.353.168Z" transform="translate(-351.422 -267.329)" fill="#25282a" fill-rule="evenodd"/>
              <g id="Group_14439" data-name="Group 14439">
                <path id="Path_20030" data-name="Path 20030" d="M305.841,273.019l.23-.646a3.443,3.443,0,0,0-2.086-4.384l-1.739-.618a3.443,3.443,0,0,0-4.384,2.086l-.229.646Z" transform="translate(-297.631 -267.174)" fill="#fbc100" fill-rule="evenodd"/>
                <path id="Path_20031" data-name="Path 20031" d="M311.26,273.19c.592-1.666,1.772-2.781,2.624-2.479l-.259-.092a2.987,2.987,0,0,0-3.586,2.137l-.215.6,1.221.434Z" transform="translate(-308.861 -270.229)" fill="#ffdc48" fill-rule="evenodd"/>
                <path id="Path_20032" data-name="Path 20032" d="M373.441,281.026l-.215.605.5.178.215-.605c.592-1.666.077-3.383-1.143-3.816l-.106-.038C373.7,277.706,374.032,279.36,373.441,281.026Z" transform="translate(-366.764 -276.546)" fill="#ffd51c" fill-rule="evenodd"/>
              </g>
              <rect id="Rectangle_6555" data-name="Rectangle 6555" width="1.882" height="0.511" transform="translate(3.234 6.075) rotate(-70.45)" fill="#25282a"/>
            </g>
          </g>
          <g id="Group_14444" data-name="Group 14444" transform="translate(8.877 20.771)">
            <g id="Group_14442" data-name="Group 14442" transform="translate(0 1.074)">
              <path id="Path_20033" data-name="Path 20033" d="M224.862,543.777l.819.427a.541.541,0,0,1,.19.766l-1.751,2.639a.588.588,0,0,1-.736.282l-.231-.12a.588.588,0,0,1-.19-.766l1.163-2.946A.541.541,0,0,1,224.862,543.777Z" transform="translate(-222.903 -543.722)" fill="#25282a" fill-rule="evenodd"/>
              <path id="Path_20034" data-name="Path 20034" d="M225.289,552.45l-.932,1.4a.588.588,0,0,1-.736.283l-.231-.121a.439.439,0,0,1-.079-.053.448.448,0,0,0,.218.258l.231.12a.588.588,0,0,0,.736-.283l1.015-1.529.137-.207.6-.9a.545.545,0,0,0-.089-.695.535.535,0,0,1-.05.489l-.688,1.036Z" transform="translate(-223.279 -550.174)" fill="#000004" fill-rule="evenodd" opacity="0.3"/>
            </g>
            <g id="Group_14443" data-name="Group 14443" transform="translate(9.815)">
              <path id="Path_20035" data-name="Path 20035" d="M348,530.254l-.682.624a.541.541,0,0,0,.014.789l2.371,2.1a.588.588,0,0,0,.785.084l.192-.176a.588.588,0,0,0-.014-.789l-1.881-2.548A.542.542,0,0,0,348,530.254Z" transform="translate(-347.15 -530.123)" fill="#25282a" fill-rule="evenodd"/>
              <path id="Path_20036" data-name="Path 20036" d="M348.518,542.317l1.262,1.118a.588.588,0,0,0,.785.084l.192-.176a.438.438,0,0,0,.063-.071.448.448,0,0,1-.144.305l-.192.176a.588.588,0,0,1-.785-.084l-1.374-1.217-.186-.165-.811-.719a.545.545,0,0,1-.093-.694.535.535,0,0,0,.174.46l.931.825Z" transform="translate(-347.151 -540.026)" fill="#000004" fill-rule="evenodd" opacity="0.3"/>
            </g>
          </g>
          <g id="Group_14449" data-name="Group 14449" transform="translate(0 0.252)">
            <g id="Group_14446" data-name="Group 14446" transform="translate(0 0)">
              <g id="Group_14445" data-name="Group 14445" transform="translate(0 0)">
                <circle id="Ellipse_1394" data-name="Ellipse 1394" cx="10.204" cy="10.204" r="10.204" transform="translate(0 14.43) rotate(-45)" fill="#e6111e"/>
                <path id="Path_20037" data-name="Path 20037" d="M214.218,368.527a10.2,10.2,0,0,1-17.439,8.431,10.2,10.2,0,1,0,14.938-13.9A10.156,10.156,0,0,1,214.218,368.527Z" transform="translate(-189.965 -355.736)" fill="#000004" fill-rule="evenodd" opacity="0.14"/>
                <path id="Path_20038" data-name="Path 20038" d="M170.534,339.988a9.858,9.858,0,0,1,12.208-10.825,9.572,9.572,0,0,0-11.88,12.369A9.931,9.931,0,0,1,170.534,339.988Z" transform="translate(-165.574 -324.111)" fill="#fff" fill-rule="evenodd" opacity="0.3"/>
                <path id="Path_20039" data-name="Path 20039" d="M184.67,354.6a8.318,8.318,0,0,1,13.175-7.78,8.318,8.318,0,1,0-10.136,13.186A8.29,8.29,0,0,1,184.67,354.6Z" transform="translate(-178.488 -339.092)" fill="#000004" fill-rule="evenodd" opacity="0.14"/>
                <path id="Path_20040" data-name="Path 20040" d="M230.527,399.405a8.467,8.467,0,0,1-14.33,6.824,8.319,8.319,0,0,0,13.075-10.253A8.283,8.283,0,0,1,230.527,399.405Z" transform="translate(-207.849 -386.054)" fill="#fff" fill-rule="evenodd" opacity="0.3"/>
              </g>
              <ellipse id="Ellipse_1395" data-name="Ellipse 1395" cx="8.318" cy="8.318" rx="8.318" ry="8.318" transform="translate(3.867 19.606) rotate(-71.106)" fill="#fff"/>
            </g>
            <g id="Group_14447" data-name="Group 14447" transform="translate(6.783 6.783)">
              <path id="Path_20041" data-name="Path 20041" d="M276.028,357.146a.457.457,0,1,1,.394-.512A.457.457,0,0,1,276.028,357.146Z" transform="translate(-269.262 -356.237)" fill="#25282a" fill-rule="evenodd"/>
              <path id="Path_20042" data-name="Path 20042" d="M197.3,459.556a.457.457,0,1,1-.512-.394A.457.457,0,0,1,197.3,459.556Z" transform="translate(-196.393 -451.028)" fill="#25282a" fill-rule="evenodd"/>
              <path id="Path_20043" data-name="Path 20043" d="M299.712,538.283a.457.457,0,1,1-.394.512A.457.457,0,0,1,299.712,538.283Z" transform="translate(-291.184 -523.899)" fill="#25282a" fill-rule="evenodd"/>
              <path id="Path_20044" data-name="Path 20044" d="M378.438,435.873a.457.457,0,1,1,.512.394A.457.457,0,0,1,378.438,435.873Z" transform="translate(-364.053 -429.107)" fill="#25282a" fill-rule="evenodd"/>
              <path id="Path_20045" data-name="Path 20045" d="M234.306,377.143a.278.278,0,1,1,.052-.39A.278.278,0,0,1,234.306,377.143Z" transform="translate(-230.899 -375.032)" fill="#25282a" fill-rule="evenodd"/>
              <path id="Path_20046" data-name="Path 20046" d="M205.433,414.7a.278.278,0,1,1-.15-.363A.278.278,0,0,1,205.433,414.7Z" transform="translate(-204.226 -409.728)" fill="#25282a" fill-rule="evenodd"/>
              <path id="Path_20047" data-name="Path 20047" d="M217.3,505.447a.278.278,0,1,1-.39-.052A.278.278,0,0,1,217.3,505.447Z" transform="translate(-215.188 -493.56)" fill="#25282a" fill-rule="evenodd"/>
              <path id="Path_20048" data-name="Path 20048" d="M254.856,534.318a.278.278,0,1,1-.363.15A.278.278,0,0,1,254.856,534.318Z" transform="translate(-249.884 -520.231)" fill="#25282a" fill-rule="evenodd"/>
              <path id="Path_20049" data-name="Path 20049" d="M345.6,522.453a.278.278,0,1,1-.052.39A.278.278,0,0,1,345.6,522.453Z" transform="translate(-333.715 -509.271)" fill="#25282a" fill-rule="evenodd"/>
              <path id="Path_20050" data-name="Path 20050" d="M374.474,484.895a.278.278,0,1,1,.15.363A.278.278,0,0,1,374.474,484.895Z" transform="translate(-360.387 -474.574)" fill="#25282a" fill-rule="evenodd"/>
              <path id="Path_20051" data-name="Path 20051" d="M362.609,394.15a.278.278,0,1,1,.39.052A.278.278,0,0,1,362.609,394.15Z" transform="translate(-349.427 -390.744)" fill="#25282a" fill-rule="evenodd"/>
              <path id="Path_20052" data-name="Path 20052" d="M325.05,365.278a.278.278,0,1,1,.363-.15A.278.278,0,0,1,325.05,365.278Z" transform="translate(-314.729 -364.071)" fill="#25282a" fill-rule="evenodd"/>
            </g>
            <g id="Group_14448" data-name="Group 14448" transform="translate(10.19 7.991)">
              <path id="Path_20053" data-name="Path 20053" d="M242.918,435.252a.862.862,0,0,1,1.229-.962l.96-.751a.109.109,0,0,1,.153.022l.356.475a.109.109,0,0,1-.022.153l-.99.711a.862.862,0,0,1-1.268.911l-3.461,2.487a.111.111,0,0,1-.153-.022l-.184-.246a.111.111,0,0,1,.022-.153Z" transform="translate(-239.518 -428.621)" fill="#25282a" fill-rule="evenodd"/>
              <path id="Path_20054" data-name="Path 20054" d="M283.605,377.237a.862.862,0,0,1-.184,1.548l-.186,1.564a.124.124,0,0,1-.127.119l-.589-.08a.124.124,0,0,1-.09-.148l.238-1.557a.862.862,0,0,1,.236-1.541l.839-5.493a.125.125,0,0,1,.126-.119l.3.041a.125.125,0,0,1,.09.148Z" transform="translate(-278.908 -371.529)" fill="#25282a" fill-rule="evenodd"/>
              <path id="Path_20055" data-name="Path 20055" d="M276.559,448.192a.432.432,0,0,1-.818-.136l-.922-.153c-.063-.01-.112-.035-.109-.054l.032-.185c0-.019.058-.026.121-.014l.92.164a.432.432,0,0,1,.817.146l5.653,1.009c.063.011.112.035.109.054l-.016.1c0,.019-.058.025-.121.014Z" transform="translate(-271.929 -441.567)" fill="#e6111e" fill-rule="evenodd"/>
            </g>
          </g>
        </g>
        <g id="Group_14455" data-name="Group 14455" transform="translate(0.419 0)">
          <g id="Group_14451" data-name="Group 14451" transform="translate(22.194 2.078)">
            <path id="Path_20056" data-name="Path 20056" d="M404.259,270.1a2.227,2.227,0,0,0,.437-1.076,2.855,2.855,0,0,0-1.874-3.046,2.044,2.044,0,0,0-.76-.087,2.333,2.333,0,0,1,.412.086,3.1,3.1,0,0,1,2.035,3.308A2.537,2.537,0,0,1,404.259,270.1Z" transform="translate(-401.644 -265.888)" fill="#fff" fill-rule="evenodd" opacity="0.8"/>
            <path id="Path_20057" data-name="Path 20057" d="M398.486,279.212a1.736,1.736,0,0,0,.34-.838A2.222,2.222,0,0,0,397.367,276a1.592,1.592,0,0,0-.591-.068,1.8,1.8,0,0,1,.32.067,2.413,2.413,0,0,1,1.584,2.574A1.974,1.974,0,0,1,398.486,279.212Z" transform="translate(-396.776 -275.138)" fill="#fff" fill-rule="evenodd" opacity="0.8"/>
          </g>
          <g id="Group_14452" data-name="Group 14452" transform="translate(13.795)">
            <path id="Path_20058" data-name="Path 20058" d="M294.748,240.1a2.23,2.23,0,0,0-1.06-.476,2.855,2.855,0,0,0-3.114,1.76,2.047,2.047,0,0,0-.115.756,2.332,2.332,0,0,1,.1-.408,3.1,3.1,0,0,1,3.382-1.911A2.536,2.536,0,0,1,294.748,240.1Z" transform="translate(-290.458 -239.583)" fill="#fff" fill-rule="evenodd" opacity="0.8"/>
            <path id="Path_20059" data-name="Path 20059" d="M303.625,252.813a1.734,1.734,0,0,0-.824-.371,2.222,2.222,0,0,0-2.423,1.369,1.59,1.59,0,0,0-.089.588,1.816,1.816,0,0,1,.079-.318A2.413,2.413,0,0,1,303,252.6,1.975,1.975,0,0,1,303.625,252.813Z" transform="translate(-299.511 -251.399)" fill="#fff" fill-rule="evenodd" opacity="0.8"/>
          </g>
          <g id="Group_14453" data-name="Group 14453" transform="translate(6.419 0.779)">
            <path id="Path_20060" data-name="Path 20060" d="M201.7,251.449a2.229,2.229,0,0,0-.522-1.038,2.855,2.855,0,0,0-3.526-.6,2.045,2.045,0,0,0-.566.514,2.331,2.331,0,0,1,.336-.253,3.1,3.1,0,0,1,3.83.649A2.534,2.534,0,0,1,201.7,251.449Z" transform="translate(-197.087 -249.446)" fill="#fff" fill-rule="evenodd" opacity="0.8"/>
            <path id="Path_20061" data-name="Path 20061" d="M204.736,264.066a1.735,1.735,0,0,0-.406-.807,2.222,2.222,0,0,0-2.744-.465,1.591,1.591,0,0,0-.441.4,1.826,1.826,0,0,1,.262-.2,2.413,2.413,0,0,1,2.98.505A1.974,1.974,0,0,1,204.736,264.066Z" transform="translate(-200.824 -261.475)" fill="#fff" fill-rule="evenodd" opacity="0.8"/>
          </g>
          <g id="Group_14454" data-name="Group 14454" transform="translate(0 4.783)">
            <path id="Path_20062" data-name="Path 20062" d="M117.683,300.134a2.229,2.229,0,0,0-1.008.577,2.855,2.855,0,0,0-.408,3.553,2.047,2.047,0,0,0,.544.538,2.341,2.341,0,0,1-.27-.322,3.1,3.1,0,0,1,.443-3.859A2.536,2.536,0,0,1,117.683,300.134Z" transform="translate(-115.823 -300.134)" fill="#fff" fill-rule="evenodd" opacity="0.8"/>
            <path id="Path_20063" data-name="Path 20063" d="M130.4,308.625a1.736,1.736,0,0,0-.785.449,2.222,2.222,0,0,0-.318,2.765,1.594,1.594,0,0,0,.423.418,1.816,1.816,0,0,1-.21-.251,2.413,2.413,0,0,1,.345-3A1.975,1.975,0,0,1,130.4,308.625Z" transform="translate(-127.911 -307.954)" fill="#fff" fill-rule="evenodd"/>
          </g>
          <path id="Path_20064" data-name="Path 20064" d="M409.418,363.175a3.644,3.644,0,0,0,.7-1.784,7.222,7.222,0,0,0-2.61-6.42,3.038,3.038,0,0,0-1.115-.495,3.8,3.8,0,0,1,.6.34,7.843,7.843,0,0,1,2.835,6.972A4.517,4.517,0,0,1,409.418,363.175Z" transform="translate(-383.436 -345.4)" fill="#fff" fill-rule="evenodd"/>
          <path id="Path_20065" data-name="Path 20065" d="M133.068,377.112a3.68,3.68,0,0,0-1.426,1.341,7.992,7.992,0,0,0-.566,7.295,3.212,3.212,0,0,0,.772,1,4.079,4.079,0,0,1-.384-.611,8.68,8.68,0,0,1,.614-7.922A4.631,4.631,0,0,1,133.068,377.112Z" transform="translate(-129.289 -366.248)" fill="#fff" fill-rule="evenodd"/>
        </g>
      </g>
      <g id="Group_14432" data-name="Group 14432" transform="translate(-1105 1148.339)">
        <g id="Group_14376" data-name="Group 14376" transform="translate(2.32 7.234)">
          <g id="Group_14374" data-name="Group 14374" transform="translate(0)">
            <path id="Path_19971" data-name="Path 19971" d="M871.478,612.48c-.2-.118-.412-.215-.567-.29A34.559,34.559,0,0,0,866.224,610a7.072,7.072,0,0,0-3.212-.358c-1.233.2-2.446.459-3.686.629-1.317.181-2.635.357-3.947.575a13.9,13.9,0,0,1-2.256.254c-.722,0-1.44-.132-2.162-.1-1.509.065-3.009.34-4.524.286-.68-.024-1.338-.237-2.018-.262a4.3,4.3,0,0,0-1.808.4,6.788,6.788,0,0,1-1.765.642.853.853,0,0,0-.808.56c-.106-.044-.252.076-.169.187.039.052.079.1.12.148a.52.52,0,0,0,.381.352,8.6,8.6,0,0,0,1.793.856,29.324,29.324,0,0,1,3.345,1.506c1.419.845,2.566,2.08,4.273,2.308a7.207,7.207,0,0,0,2.783-.513q1.586-.424,3.185-.8a128.882,128.882,0,0,1,13.642-2.336c.579-.068,1.136-.044,1.711-.083a1.31,1.31,0,0,0,1.027-.493C872.493,613.2,871.992,612.776,871.478,612.48Z" transform="translate(-839.845 -609.578)" fill="#ff5959"/>
          </g>
          <g id="Group_14375" data-name="Group 14375" transform="translate(1.893 1.104)">
            <path id="Path_19972" data-name="Path 19972" d="M864.335,625.179h0a3.764,3.764,0,0,1-2.682-1.3,7.7,7.7,0,0,0-1.213-.952,36.411,36.411,0,0,0-4.526-1.944.059.059,0,1,1,.04-.111,36.528,36.528,0,0,1,4.547,1.953,7.787,7.787,0,0,1,1.232.966,3.67,3.67,0,0,0,2.6,1.269h0c.812,0,5.3-1.06,9.263-2,2.439-.576,4.742-1.12,5.9-1.349a26.284,26.284,0,0,1,4.261-.446,5.147,5.147,0,0,0,.938-.075,53.278,53.278,0,0,0-4.884-2.158.059.059,0,0,1,.044-.11,36.992,36.992,0,0,1,4.965,2.251.092.092,0,0,1-.016.079c-.067.089-.32.1-1.043.13a26.181,26.181,0,0,0-4.242.444c-1.156.228-3.459.772-5.9,1.348C869.658,624.117,865.161,625.179,864.335,625.179Zm20.372-3.971h0Z" transform="translate(-855.874 -618.924)" fill="#fff"/>
          </g>
        </g>
        <g id="Group_14389" data-name="Group 14389" transform="translate(0 2.598)">
          <g id="Group_14377" data-name="Group 14377" transform="translate(0 0)">
            <path id="Path_19973" data-name="Path 19973" d="M826.58,579.764c-.217-.577-.923-.6-1.451-.576-.344.014-.688.057-1.031.087-.065.006-.13.013-.2.021a.712.712,0,0,0,.155-.188,1.62,1.62,0,0,0,.1-.224c.008.009.015.019.024.027.3.276.5-.118.544-.374a3.731,3.731,0,0,0-.047-1.177c.061-.092.115-.188.165-.283.03.1.06.19.079.269a6.928,6.928,0,0,0,.212.8,1.344,1.344,0,0,0,.2.57.163.163,0,0,0,.11.07.271.271,0,0,0,.378-.111.494.494,0,0,0-.074-.458c-.041-.061-.088-.117-.133-.175-.04-.515-.138-1.037-.154-1.555,0-.133,0-.266-.005-.4.029-.413-.032-.84-.044-1.25a12.425,12.425,0,0,1,.08-1.556c.005-.054.451-.243.518-.476a2,2,0,0,0,.046-.789.4.4,0,0,1,.021-.193,1.717,1.717,0,0,0,.08-.193,1.376,1.376,0,0,0,.1-.673c-.012-.061-.038-.2-.092-.2-.257-.033-.683.485-.683.485s-.761-.168-.818-.167a1.746,1.746,0,0,0-.133-.694c-.037-.074-.115-.066-.181-.035-.469.221-.562.836-.66,1.288a7.94,7.94,0,0,1-1.086,2.5,14.43,14.43,0,0,0-1.3,1.471,4.846,4.846,0,0,0-1.089,2.359,1.721,1.721,0,0,0,.759,1.8c1.694.936,3.633-.033,5.412.274a.145.145,0,0,0,.169-.134A.14.14,0,0,0,826.58,579.764Z" transform="translate(-820.199 -570.323)" fill="#f7c18b"/>
          </g>
          <g id="Group_14378" data-name="Group 14378" transform="translate(4.173 1.437)">
            <path id="Path_19974" data-name="Path 19974" d="M855.733,582.539c-.016-.068-.1-.048-.135-.014s-.083.1-.044.156.095.033.135,0A.146.146,0,0,0,855.733,582.539Z" transform="translate(-855.54 -582.494)" fill="#361a09"/>
          </g>
          <g id="Group_14379" data-name="Group 14379" transform="translate(5.416 1.664)">
            <path id="Path_19975" data-name="Path 19975" d="M866.255,584.459c-.015-.068-.1-.048-.134-.014s-.083.1-.044.156.095.033.135,0A.146.146,0,0,0,866.255,584.459Z" transform="translate(-866.062 -584.414)" fill="#361a09"/>
          </g>
          <g id="Group_14380" data-name="Group 14380" transform="translate(3.805 0.101)">
            <path id="Path_19976" data-name="Path 19976" d="M852.475,571.805h-.007a.059.059,0,0,1-.052-.066.841.841,0,0,1,.109-.314.674.674,0,0,1,.27-.24.059.059,0,0,1,.047.108.565.565,0,0,0-.218.2.727.727,0,0,0-.091.264A.059.059,0,0,1,852.475,571.805Z" transform="translate(-852.416 -571.181)" fill="#edac6b"/>
          </g>
          <g id="Group_14381" data-name="Group 14381" transform="translate(5.486 0.518)">
            <path id="Path_19977" data-name="Path 19977" d="M866.714,575.218a.059.059,0,0,1-.053-.085.9.9,0,0,1,.145-.211,1.686,1.686,0,0,1,.25-.2.059.059,0,1,1,.065.1,1.6,1.6,0,0,0-.23.187.788.788,0,0,0-.123.18A.059.059,0,0,1,866.714,575.218Z" transform="translate(-866.656 -574.71)" fill="#edac6b"/>
          </g>
          <g id="Group_14382" data-name="Group 14382" transform="translate(4.787 1.902)">
            <path id="Path_19978" data-name="Path 19978" d="M860.986,586.467l-.011-.006a.387.387,0,0,0-.126-.03c-.044,0-.123,0-.113.063a.172.172,0,0,0,.1.128.165.165,0,0,0,.168-.068C861.039,586.521,861.019,586.488,860.986,586.467Z" transform="translate(-860.735 -586.43)" fill="#f5762a"/>
          </g>
          <g id="Group_14383" data-name="Group 14383" transform="translate(2.436 6.411)">
            <path id="Path_19979" data-name="Path 19979" d="M842.3,626.607a.059.059,0,0,1-.059-.054,2.57,2.57,0,0,0-.5-1.237,1.638,1.638,0,0,0-.87-.588.059.059,0,0,1,.02-.116,1.721,1.721,0,0,1,.941.629,2.645,2.645,0,0,1,.525,1.3.059.059,0,0,1-.053.064Z" transform="translate(-840.823 -624.611)" fill="#edac6b"/>
          </g>
          <g id="Group_14384" data-name="Group 14384" transform="translate(5.604 2.094)">
            <path id="Path_19980" data-name="Path 19980" d="M867.714,588.229a.059.059,0,0,1-.007-.118l.458-.056a.059.059,0,0,1,.014.117l-.458.056Z" transform="translate(-867.655 -588.055)" fill="#edac6b"/>
          </g>
          <g id="Group_14385" data-name="Group 14385" transform="translate(5.53 2.409)">
            <path id="Path_19981" data-name="Path 19981" d="M867.487,591.081a.058.058,0,0,1-.031-.009l-.4-.241a.059.059,0,0,1,.061-.1l.4.241a.059.059,0,0,1-.031.11Z" transform="translate(-867.03 -590.721)" fill="#edac6b"/>
          </g>
          <g id="Group_14388" data-name="Group 14388" transform="translate(3.599 1.66)">
            <g id="Group_14386" data-name="Group 14386" transform="translate(0.09)">
              <path id="Path_19982" data-name="Path 19982" d="M851.9,584.728a.058.058,0,0,1-.029-.008l-.4-.227a.059.059,0,1,1,.058-.1l.4.227a.059.059,0,0,1-.029.11Z" transform="translate(-851.438 -584.383)" fill="#edac6b"/>
            </g>
            <g id="Group_14387" data-name="Group 14387" transform="translate(0 0.494)">
              <path id="Path_19983" data-name="Path 19983" d="M850.732,588.758a.059.059,0,0,1-.009-.118l.461-.07a.059.059,0,0,1,.018.117l-.46.07Z" transform="translate(-850.673 -588.57)" fill="#edac6b"/>
            </g>
          </g>
        </g>
        <g id="Group_14431" data-name="Group 14431" transform="translate(4.169 0)">
          <g id="Group_14392" data-name="Group 14392" transform="translate(20.508 2.67)">
            <g id="Group_14390" data-name="Group 14390" transform="translate(0.125 0.695)">
              <path id="Path_19984" data-name="Path 19984" d="M1031.361,579.043l.038-1.668-.311-.559-.625.456-.235,1.746Z" transform="translate(-1030.227 -576.816)" fill="#ff5959"/>
            </g>
            <g id="Group_14391" data-name="Group 14391">
              <path id="Path_19985" data-name="Path 19985" d="M1029.482,572.421a2.6,2.6,0,0,0,.861-.088,1.056,1.056,0,0,0,.325-.4,2.583,2.583,0,0,0,.4-.584.285.285,0,0,0-.231-.419,6.693,6.693,0,0,0-1.643.4C1029.054,571.476,1029.482,572.421,1029.482,572.421Z" transform="translate(-1029.165 -570.931)" fill="#ffdab5"/>
            </g>
          </g>
          <g id="Group_14393" data-name="Group 14393" transform="translate(19.393 4.819)">
            <path id="Path_19986" data-name="Path 19986" d="M1019.717,592.233s.384-2.45.827-2.8a1.516,1.516,0,0,1,1.83.015c.517.465.369,1.816.369,1.816a12.891,12.891,0,0,1-.281,1.624C1022.389,592.9,1019.717,592.233,1019.717,592.233Z" transform="translate(-1019.717 -589.128)" fill="#9fc1e6"/>
          </g>
          <g id="Group_14396" data-name="Group 14396" transform="translate(23.847 2.879)">
            <g id="Group_14394" data-name="Group 14394" transform="translate(0 0.743)">
              <path id="Path_19987" data-name="Path 19987" d="M1058.5,581.157l.385-1.566-.176-.592-.685.3-.589,1.6Z" transform="translate(-1057.434 -578.998)" fill="#ff5959"/>
            </g>
            <g id="Group_14395" data-name="Group 14395" transform="translate(0.589)">
              <path id="Path_19988" data-name="Path 19988" d="M1062.418,573.746a2,2,0,0,0,.668.317,1.182,1.182,0,0,0,.5-.138,3.394,3.394,0,0,0,.922-.24.275.275,0,0,0,.025-.461,8.4,8.4,0,0,0-1.793-.517C1062.551,572.753,1062.418,573.746,1062.418,573.746Z" transform="translate(-1062.418 -572.703)" fill="#ffdab5"/>
            </g>
          </g>
          <g id="Group_14397" data-name="Group 14397" transform="translate(15.781 4.818)">
            <path id="Path_19989" data-name="Path 19989" d="M989.134,590.6a3.55,3.55,0,0,1,1.653.192c1.151.325,4.325.872,4.443.872s.768-2.547,2.052-2.547a1.264,1.264,0,0,1,1.4,1.092c.236.7-.723,3.41-1.269,4.015s-3.823,1.092-5,1.21a5.961,5.961,0,0,1-1.7,0Z" transform="translate(-989.134 -589.115)" fill="#9fc1e6"/>
          </g>
          <g id="Group_14398" data-name="Group 14398" transform="translate(4.043 0.427)">
            <path id="Path_19990" data-name="Path 19990" d="M895.358,555.324l-.036-.085a1.906,1.906,0,0,1-.188-.645,3.47,3.47,0,0,0-.037-.655,4.506,4.506,0,0,0-.258-.7,1.823,1.823,0,0,0-.464-.648,2.6,2.6,0,0,0-1.5-.636,2.791,2.791,0,0,0-3.042,1.887,2.327,2.327,0,0,0-.08.472,5.994,5.994,0,0,0,.063,1.4,2.092,2.092,0,0,0,.681,1.419,1.45,1.45,0,0,0,.525.24,1.73,1.73,0,0,0,1.133.714c.311.067.916.051,1.063-.307a.753.753,0,0,0,.293-.641,1.308,1.308,0,0,0,.412.128,1.593,1.593,0,0,0,.781-.218,1.381,1.381,0,0,0,.724-.624A1.328,1.328,0,0,0,895.358,555.324Z" transform="translate(-889.735 -551.94)" fill="#1f2144"/>
          </g>
          <g id="Group_14399" data-name="Group 14399" transform="translate(0.486 8.079)">
            <path id="Path_19991" data-name="Path 19991" d="M859.614,617.4s.681.555.748.6.561-.561.561-.561l-1.211-.7Z" transform="translate(-859.614 -616.736)" fill="#ff924f"/>
          </g>
          <g id="Group_14400" data-name="Group 14400" transform="translate(0.955 5.716)">
            <path id="Path_19992" data-name="Path 19992" d="M864.859,599.4a1.94,1.94,0,0,0-1.085.59,1.038,1.038,0,0,0,.052,1.26,11.632,11.632,0,0,0,2.6,1.589,1.778,1.778,0,0,0,1.56-.694c.275-.325,2.007-2.618,2.007-2.618l-.024-2.809a5.178,5.178,0,0,0-1.624.476,19.009,19.009,0,0,0-1.978,2.308Z" transform="translate(-863.589 -596.724)" fill="#3b5d8c"/>
          </g>
          <g id="Group_14401" data-name="Group 14401" transform="translate(0.069 5.832)">
            <path id="Path_19993" data-name="Path 19993" d="M856.114,597.89a16.72,16.72,0,0,1,3.942-.107,10.167,10.167,0,0,1,.3,2.652,18.114,18.114,0,0,1-3.6.162A6.279,6.279,0,0,1,856.114,597.89Z" transform="translate(-856.082 -597.708)" fill="#361a09"/>
          </g>
          <g id="Group_14404" data-name="Group 14404" transform="translate(3.466 7.417)">
            <g id="Group_14402" data-name="Group 14402">
              <path id="Path_19994" data-name="Path 19994" d="M886.326,612.009a1.769,1.769,0,0,0-.436-.645c-.657-.534-1.052-.037-1.036.267.023.442.876.907.876.907Z" transform="translate(-884.853 -611.128)" fill="#ff924f"/>
            </g>
            <g id="Group_14403" data-name="Group 14403" transform="translate(0.877 0.881)">
              <path id="Path_19995" data-name="Path 19995" d="M892.875,618.587a27.774,27.774,0,0,1,2.2,2.294c.123.3-.1,1.138-.811,1s-1.983-2.763-1.983-2.763l.173-.485Z" transform="translate(-892.279 -618.587)" fill="#ff924f"/>
            </g>
          </g>
          <g id="Group_14405" data-name="Group 14405" transform="translate(6.673 3.439)">
            <path id="Path_19996" data-name="Path 19996" d="M914.751,579.923l-.452.992-1.062.28-.62-.93-.1-.153-.242-.364-.1-.152-.162-.243,1.39-1.915Z" transform="translate(-912.01 -577.439)" fill="#ff5959"/>
          </g>
          <g id="Group_14406" data-name="Group 14406" transform="translate(4.492 1.095)">
            <path id="Path_19997" data-name="Path 19997" d="M897.286,560.812c-.063.595-1.3,1.307-1.619,1.353a1.912,1.912,0,0,1-1.582-1,7.31,7.31,0,0,1-.37-1.362.008.008,0,0,1,0,0c-.015-.075-.029-.15-.042-.222,0-.01,0-.02-.006-.029-.077-.42-.125-.745-.125-.745l.819-1.212s1.669.176,1.705.2,1.205,1.156,1.205,1.156A16.1,16.1,0,0,1,897.286,560.812Z" transform="translate(-893.541 -557.594)" fill="#ff5959"/>
          </g>
          <g id="Group_14407" data-name="Group 14407" transform="translate(7.72 2.412)">
            <path id="Path_19998" data-name="Path 19998" d="M921.377,568.784a.349.349,0,0,1,.425.085c.2.189.143.687-.1,1.006a1,1,0,0,1-.559.377c-.005-.021-.265-.687-.272-.746A6.519,6.519,0,0,1,921.377,568.784Z" transform="translate(-920.874 -568.746)" fill="#ff924f"/>
          </g>
          <g id="Group_14408" data-name="Group 14408" transform="translate(6.836 5.131)">
            <path id="Path_19999" data-name="Path 19999" d="M914.179,592.391a2,2,0,0,1-.45.359l-.242-.364-.1-.152a2.406,2.406,0,0,0,.472-.3c.236-.192.321-.2.447-.128S914.386,592.151,914.179,592.391Z" transform="translate(-913.385 -591.769)" fill="#c72b2b"/>
          </g>
          <g id="Group_14415" data-name="Group 14415" transform="translate(4.304 0.954)">
            <path id="Path_20006" data-name="Path 20006" d="M895.475,557.2a3.878,3.878,0,0,0-.217-.322,1.9,1.9,0,0,0-1.421-.476c-.526.012-1-.039-1.323.452l-.011.019a.5.5,0,0,0-.226.27.608.608,0,0,0-.151.123.9.9,0,0,0-.156.381,1.976,1.976,0,0,0,.13.99.07.07,0,0,0,.134-.006,3.2,3.2,0,0,1,.144-.547c.062-.147.143-.289.194-.44a.831.831,0,0,0,.038-.319,2.37,2.37,0,0,1,1.289-.4c.536.078.878.666,1.174,1.058a.069.069,0,0,0,.126-.032.063.063,0,0,0,.036-.025c.106-.149.349-.375.324-.572A.325.325,0,0,0,895.475,557.2Z" transform="translate(-891.947 -556.4)" fill="#1f2144"/>
          </g>
          <g id="Group_14416" data-name="Group 14416" transform="translate(3.466 0)">
            <path id="Path_20007" data-name="Path 20007" d="M889.7,548.948a2.162,2.162,0,0,0-1.4-.624,2.671,2.671,0,0,0-1.568.412,2.191,2.191,0,0,0-.837,1c-.1.053-.2.113-.289.164a1.66,1.66,0,0,0-.651.608,1.255,1.255,0,0,0,.025,1.069c0,.031.007.06.013.093.076.379.388.628.52.986a1.647,1.647,0,0,0,.625.9c.049.027.09-.031.068-.074a8.581,8.581,0,0,1-.508-.934,1.263,1.263,0,0,0-.113-.224.09.09,0,0,0,.008-.032,1.23,1.23,0,0,0-.064-.323h0a.1.1,0,0,0,.116-.1c0-.04-.008-.083-.013-.127l.007-.007a.821.821,0,0,0,.062-.488c0-.075-.008-.149-.014-.223.021-.11.046-.221.074-.33a2.784,2.784,0,0,0,.229-.574.085.085,0,0,0,0-.046.076.076,0,0,0-.018-.045c.045-.048.091-.1.14-.141l0,0h0a.034.034,0,0,0-.035-.054c-.01,0-.02.009-.03.013a.036.036,0,0,0,.008-.008l.021-.029c.038-.019.077-.039.114-.056a.445.445,0,0,0-.018.2.041.041,0,0,0,.07.026,3.194,3.194,0,0,0,.255-.351,3.268,3.268,0,0,1,.368-.335,3.867,3.867,0,0,1,.445-.333.08.08,0,0,0,.054.017h.017a.071.071,0,0,0,.1,0l.017-.009c.1-.006.2-.013.307-.022a2.609,2.609,0,0,1,.929.066,4.455,4.455,0,0,0,.948.367h0l.023,0a.073.073,0,0,0,.062-.032,9.061,9.061,0,0,1,.549,1.091c.02.039.073.012.075-.024A2.131,2.131,0,0,0,889.7,548.948Z" transform="translate(-884.854 -548.32)" fill="#1f2144"/>
          </g>
          <g id="Group_14417" data-name="Group 14417" transform="translate(4.471 0.601)">
            <path id="Path_20008" data-name="Path 20008" d="M896.964,554.879a2.133,2.133,0,0,0-1.35-1.348,2.185,2.185,0,0,0-2.219.408.3.3,0,0,0,.012.288,2.761,2.761,0,0,1,1.912-.306,2.03,2.03,0,0,1,1.244,1.189Z" transform="translate(-893.363 -553.411)" fill="#5d5967"/>
          </g>
          <g id="Group_14420" data-name="Group 14420" transform="translate(7.357 1.98)">
            <g id="Group_14418" data-name="Group 14418">
              <path id="Path_20009" data-name="Path 20009" d="M917.8,565.84a1.234,1.234,0,0,0,.7,1.262.686.686,0,0,0,.918-.673c.039-.447-.263-1.187-.612-1.3A.714.714,0,0,0,917.8,565.84Z" transform="translate(-917.802 -565.083)" fill="#361a09"/>
            </g>
            <g id="Group_14419" data-name="Group 14419" transform="translate(0.39 0.121)">
              <path id="Path_20010" data-name="Path 20010" d="M921.915,566.118a.683.683,0,0,0-.8.837.791.791,0,0,0,.951.781c.324-.066.458-.418.4-.885A.778.778,0,0,0,921.915,566.118Z" transform="translate(-921.105 -566.104)" fill="#ff6b77"/>
            </g>
          </g>
          <g id="Group_14421" data-name="Group 14421" transform="translate(6.186 4.448)">
            <path id="Path_20011" data-name="Path 20011" d="M911.629,586c-1.1.129-1.234.642-1.764,1a6.735,6.735,0,0,1-1.98.856,9.728,9.728,0,0,0,.55,2.864,4.1,4.1,0,0,0,3.347,2.14,14.787,14.787,0,0,0,2.775.162s.605-5.37.133-5.814A4.828,4.828,0,0,0,911.629,586Z" transform="translate(-907.884 -585.984)" fill="#3b5d8c"/>
          </g>
          <g id="Group_14422" data-name="Group 14422" transform="translate(11.367 5.022)">
            <path id="Path_20012" data-name="Path 20012" d="M952.393,590.848a9.212,9.212,0,0,0,2.23,1.052c.723.108.763-.131,1.515.12a3.79,3.79,0,0,1,1.757,2.214,4.3,4.3,0,0,1,0,2.583c-.251.561-4.645.49-4.645.49l-1.491-4.546Z" transform="translate(-951.759 -590.848)" fill="#3b5d8c"/>
          </g>
          <g id="Group_14423" data-name="Group 14423" transform="translate(4.407 6.192)">
            <path id="Path_20013" data-name="Path 20013" d="M896.4,600.758s-1.135,2.824-1.253,2.869-.4-.6-1.066-.664c-.583-.059-1.755,1.2-1.031,2.008a6.047,6.047,0,0,0,2.555,2.052c1.225.354,1.74-.723,2.168-1.122a3.082,3.082,0,0,0,.694-1.107c.029-.089.281-1.151.325-1.373A23.6,23.6,0,0,0,896.4,600.758Z" transform="translate(-892.822 -600.758)" fill="#3b5d8c"/>
          </g>
          <g id="Group_14424" data-name="Group 14424" transform="translate(0 7.49)">
            <path id="Path_20014" data-name="Path 20014" d="M856,611.827c-.186-.22-.583.019-.484.44s.384.919.71.671S856.185,612.047,856,611.827Z" transform="translate(-855.5 -611.744)" fill="#ff924f"/>
          </g>
          <g id="Group_14425" data-name="Group 14425" transform="translate(19.663 6.327)">
            <path id="Path_20015" data-name="Path 20015" d="M1024.227,602.991h-.007c-.06,0-1.945-.276-2.16-.307a.059.059,0,0,1-.05-.067.06.06,0,0,1,.067-.05c.546.079,1.926.278,2.127.3a9.39,9.39,0,0,0,.447-.94.059.059,0,0,1,.078-.031.059.059,0,0,1,.031.078C1024.343,602.944,1024.273,602.991,1024.227,602.991Z" transform="translate(-1022.009 -601.894)" fill="#77a6d9"/>
          </g>
          <g id="Group_14426" data-name="Group 14426" transform="translate(7.113 5.282)">
            <path id="Path_20016" data-name="Path 20016" d="M915.846,596.7l-.113-.035c0-.008.259-.83.493-1.55a9.226,9.226,0,0,1,1.115-2.064l.1.069a9.1,9.1,0,0,0-1.1,2.031C916.1,595.867,915.848,596.688,915.846,596.7Z" transform="translate(-915.733 -593.047)" fill="#23497d"/>
          </g>
          <g id="Group_14427" data-name="Group 14427" transform="translate(5.583 8.338)">
            <path id="Path_20017" data-name="Path 20017" d="M904.861,620.361a2.742,2.742,0,0,0-.827-.891,4.532,4.532,0,0,0-1.258-.422l.02-.116a4.564,4.564,0,0,1,1.3.437,2.812,2.812,0,0,1,.87.935Z" transform="translate(-902.775 -618.931)" fill="#23497d"/>
          </g>
          <g id="Group_14428" data-name="Group 14428" transform="translate(9.537 8.804)">
            <path id="Path_20018" data-name="Path 20018" d="M936.358,625.192l-.1-.068c.007-.01.729-1.026.941-1.45s.361-.792.362-.8l.109.044s-.151.374-.366.8S936.388,625.15,936.358,625.192Z" transform="translate(-936.262 -622.877)" fill="#23497d"/>
          </g>
          <g id="Group_14429" data-name="Group 14429" transform="translate(6.615 6.177)">
            <path id="Path_20019" data-name="Path 20019" d="M911.89,603.27c-.013-.026-.091-.273-.267-.887a3.7,3.7,0,0,1,0-1.753l.114.03a3.647,3.647,0,0,0,0,1.691c.224.78.259.865.26.868Z" transform="translate(-911.514 -600.63)" fill="#23497d"/>
          </g>
          <g id="Group_14430" data-name="Group 14430" transform="translate(3.634 6.945)">
            <path id="Path_20020" data-name="Path 20020" d="M886.549,607.279a.142.142,0,1,1-.162-.15A.157.157,0,0,1,886.549,607.279Z" transform="translate(-886.271 -607.128)" fill="#5d5967"/>
          </g>
        </g>
      </g>
      <g id="Group_14481" data-name="Group 14481" transform="translate(-1103.842 1135.603)">
        <ellipse id="Ellipse_1396" data-name="Ellipse 1396" cx="4.161" cy="4.16" rx="4.161" ry="4.16" transform="translate(0.862 3.255)" fill="#fd3947"/>
        <g id="Group_14468" data-name="Group 14468" transform="translate(0 2.539)">
          <g id="Group_14467" data-name="Group 14467">
            <g id="Group_14466" data-name="Group 14466">
              <path id="Path_20069" data-name="Path 20069" d="M87.024,121.492c.008.072-.093.04-.262-.054a.908.908,0,0,1-.2-.178.867.867,0,0,1-.047-.152,3.917,3.917,0,0,1,.15-.393.748.748,0,0,1,.155-.236c.127-.141.248-.287.378-.426a.322.322,0,0,1,.105-.074.926.926,0,0,0,.336-.277c.015-.019.036-.033.033-.069-.007-.061.276-.333.328-.352.129-.047.244-.108.366-.162.017-.008.024-.028.059-.015.08.031.1,0,.132-.026a.534.534,0,0,1,.15-.073.323.323,0,0,1,.119.016c.039.008.106.1.108.117.006.043.057.071.09.1a.447.447,0,0,1,.034.037,1.4,1.4,0,0,1-.094.394l-.047.057-.1.125c-.071.093-.145.191-.157.214s-.044.029-.07.039-.21.3-.221.306c-.056.045-.084.118-.183.121-.019,0-.027.014-.036.025a1.678,1.678,0,0,1-.276.248,1.352,1.352,0,0,0-.127.14c-.008.008-.023.009-.034.015a.107.107,0,0,0-.04.022,2.432,2.432,0,0,0-.294.339c-.017.031-.188.1-.2.139C87.163,121.489,87.021,121.463,87.024,121.492Z" transform="translate(-86.51 -119.006)" fill="#005ea8"/>
            </g>
          </g>
        </g>
        <g id="Group_14471" data-name="Group 14471" transform="translate(0.226 4.447)">
          <g id="Group_14470" data-name="Group 14470" transform="translate(0)">
            <g id="Group_14469" data-name="Group 14469">
              <path id="Path_20070" data-name="Path 20070" d="M89.346,142.345c-.01.094-.127.079-.308,0a.594.594,0,0,1-.2-.182.954.954,0,0,1-.016-.187c0-.034.216-.415.283-.548a1.733,1.733,0,0,1,.245-.347c.187-.217.366-.441.552-.659a.728.728,0,0,1,.143-.128,2,2,0,0,0,.462-.466.169.169,0,0,0,.051-.1,2.553,2.553,0,0,1,.457-.566c.166-.108.316-.231.473-.347.022-.017.033-.046.075-.043.1.007.125-.046.168-.087a1.2,1.2,0,0,1,.2-.156.423.423,0,0,1,.148-.031c.048-.007.122.083.123.1,0,.052.064.064.1.093a.292.292,0,0,1,.039.032,2.366,2.366,0,0,1-.168.547c-.008.009-.405.572-.444.642a.277.277,0,0,1-.1.079c-.016.011-.321.473-.336.488-.08.081-.131.188-.256.229a.107.107,0,0,0-.05.047,3.9,3.9,0,0,1-.4.426c-.071.07-.128.153-.193.229a.244.244,0,0,1-.047.031.251.251,0,0,0-.055.042,6.89,6.89,0,0,0-.456.542c-.029.046-.262.189-.294.244C89.519,142.3,89.35,142.307,89.346,142.345Z" transform="translate(-88.82 -138.497)" fill="#005ea8"/>
            </g>
          </g>
        </g>
        <g id="Group_14474" data-name="Group 14474" transform="translate(4.941 0)">
          <g id="Group_14473" data-name="Group 14473">
            <g id="Group_14472" data-name="Group 14472">
              <path id="Path_20071" data-name="Path 20071" d="M137.527,96.143c0,.083-.106.067-.289-.006a.692.692,0,0,1-.215-.165.87.87,0,0,1-.039-.171,4.846,4.846,0,0,1,.21-.5,1.222,1.222,0,0,1,.207-.312c.165-.191.327-.386.5-.569a.526.526,0,0,1,.135-.1,1.762,1.762,0,0,0,.446-.368c.022-.023.049-.042.053-.084a1.762,1.762,0,0,1,.468-.438c.165-.064.317-.142.475-.209.022-.01.036-.033.074-.02.087.032.12-.009.164-.035a.825.825,0,0,1,.2-.087.365.365,0,0,1,.137.015c.043.008.1.112.094.129,0,.048.047.078.077.115a.357.357,0,0,1,.029.041,2.064,2.064,0,0,1-.215.441s-.03.026-.069.066l-.145.144c-.1.108-.212.222-.23.249a.189.189,0,0,1-.089.049c-.018,0-.3.354-.316.366-.074.056-.118.143-.232.157-.022,0-.033.019-.045.033a3.208,3.208,0,0,1-.355.321,2.052,2.052,0,0,0-.164.181.166.166,0,0,1-.041.022.168.168,0,0,0-.048.032,3.318,3.318,0,0,0-.37.446c-.023.038-.22.154-.242.2C137.681,96.109,137.525,96.109,137.527,96.143Z" transform="translate(-136.983 -93.071)" fill="#005ea8"/>
            </g>
          </g>
        </g>
        <g id="Group_14477" data-name="Group 14477" transform="translate(4.354 4.705)">
          <g id="Group_14476" data-name="Group 14476">
            <g id="Group_14475" data-name="Group 14475">
              <path id="Path_20072" data-name="Path 20072" d="M131.538,144.117c.011.078-.1.062-.279-.008a.769.769,0,0,1-.221-.156.857.857,0,0,1-.053-.159,4.568,4.568,0,0,1,.155-.466,1.015,1.015,0,0,1,.166-.291c.137-.179.269-.363.412-.538a.434.434,0,0,1,.115-.1,1.347,1.347,0,0,0,.372-.358c.017-.023.041-.041.038-.081a1.469,1.469,0,0,1,.374-.433c.144-.069.274-.151.41-.224.019-.011.028-.034.065-.023.086.024.11-.016.147-.044a.7.7,0,0,1,.17-.1.344.344,0,0,1,.13,0c.042,0,.109.1.11.115,0,.046.058.07.092.1a.388.388,0,0,1,.035.036,1.742,1.742,0,0,1-.127.436s-.023.028-.054.067l-.113.147c-.082.11-.166.225-.18.251s-.049.037-.077.051-.238.352-.248.363c-.062.057-.094.141-.2.158-.021,0-.029.019-.039.033a2.444,2.444,0,0,1-.3.314,1.766,1.766,0,0,0-.137.175c-.008.01-.025.014-.037.022a.139.139,0,0,0-.042.031,3.048,3.048,0,0,0-.311.424c-.018.037-.2.145-.215.191C131.685,144.087,131.534,144.086,131.538,144.117Z" transform="translate(-130.985 -141.134)" fill="#005ea8"/>
            </g>
          </g>
        </g>
        <g id="Group_14480" data-name="Group 14480" transform="translate(1.852 8.441)">
          <g id="Group_14479" data-name="Group 14479" transform="translate(0 0)">
            <g id="Group_14478" data-name="Group 14478">
              <path id="Path_20073" data-name="Path 20073" d="M105.89,181.925c-.007.077-.108.036-.265-.078a.805.805,0,0,1-.176-.206.884.884,0,0,1-.017-.164c0-.029.178-.3.233-.4a.94.94,0,0,1,.2-.236c.156-.139.307-.285.462-.426a.4.4,0,0,1,.121-.074,1.083,1.083,0,0,0,.388-.283c.018-.019.042-.034.042-.072,0-.063.325-.349.382-.37.141-.051.268-.118.4-.178.019-.009.028-.031.063-.018.083.03.106-.008.143-.033a.674.674,0,0,1,.165-.084.342.342,0,0,1,.127.01c.041.006.107.1.108.117,0,.045.056.071.09.105a.4.4,0,0,1,.034.037,1.542,1.542,0,0,1-.134.426c-.007.006-.338.388-.37.438-.017.026-.051.032-.081.044-.014.006-.267.324-.28.334-.067.049-.109.128-.216.131-.021,0-.031.015-.042.027a2.089,2.089,0,0,1-.339.264,1.919,1.919,0,0,0-.162.147c-.01.009-.027.01-.04.015a.141.141,0,0,0-.047.022,3.671,3.671,0,0,0-.382.35c-.024.033-.222.1-.248.135C106.039,181.931,105.893,181.894,105.89,181.925Z" transform="translate(-105.431 -179.302)" fill="#005ea8"/>
            </g>
          </g>
        </g>
      </g>
    </g>
  </g>
</svg>
