<svg xmlns="http://www.w3.org/2000/svg" width="80.316" height="26.129" viewBox="0 0 80.316 26.129">
  <g id="Group_11166" data-name="Group 11166" transform="translate(-70.983 -106.529)">
    <g id="Group_11165" data-name="Group 11165" transform="translate(70.983 115.184)">
      <path id="Path_18952" data-name="Path 18952" d="M71.466,250.556v-2.124a10.442,10.442,0,0,0,3.9.676q1.651,0,1.651-1.062,0-1.014-1.11-1.014H74.072q-3.089,0-3.089-3.041,0-3.186,4.508-3.186a11.027,11.027,0,0,1,3.6.579v2.124a9.789,9.789,0,0,0-3.668-.676q-2.076,0-2.076,1.062,0,1.014,1.207,1.014H76.2q3.379,0,3.379,3.041,0,3.186-4.306,3.186A11.684,11.684,0,0,1,71.466,250.556Z" transform="translate(-70.983 -237.234)" fill="#fff"/>
      <path id="Path_18953" data-name="Path 18953" d="M184.408,241.866q4.614,0,4.615,4.711a9.129,9.129,0,0,1-.087,1.255h-6.728q0,2.143,3.147,2.143a16.518,16.518,0,0,0,3.07-.29v2.027a15.718,15.718,0,0,1-3.263.29q-5.512,0-5.512-5.184Q179.649,241.866,184.408,241.866Zm-2.2,4.19h4.325v-.077a1.869,1.869,0,0,0-2.124-2.1Q182.381,243.874,182.207,246.056Z" transform="translate(-169.754 -238.198)" fill="#fff"/>
      <path id="Path_18954" data-name="Path 18954" d="M303.686,242.281a21.138,21.138,0,0,1,4.267-.415q5.165,0,5.165,4.817,0,5.319-4.808,5.319a4.887,4.887,0,0,1-2.066-.483v4.151h-2.558Zm2.558,7.076a4.227,4.227,0,0,0,2.056.521q2.288,0,2.288-3.215,0-2.732-2.529-2.732a10.161,10.161,0,0,0-1.815.135Z" transform="translate(-282.497 -238.198)" fill="#fff"/>
      <path id="Path_18955" data-name="Path 18955" d="M437.59,241.866v9.348a2.41,2.41,0,0,1-2,.788h-4.016q-3.109,0-3.109-3.678v-6.458h2.558v6.391q0,1.68,1.467,1.68a3.6,3.6,0,0,0,2.539-.52v-7.551Z" transform="translate(-395.915 -238.198)" fill="#fff"/>
      <path id="Path_18956" data-name="Path 18956" d="M557.715,201.581v13.8h-2.558v-13.8Z" transform="translate(-511.069 -201.581)" fill="#fff"/>
      <path id="Path_18957" data-name="Path 18957" d="M604.938,250.556v-2.124a10.443,10.443,0,0,0,3.9.676q1.651,0,1.651-1.062,0-1.014-1.11-1.014h-1.834q-3.089,0-3.089-3.041,0-3.186,4.508-3.186a11.028,11.028,0,0,1,3.6.579v2.124a9.79,9.79,0,0,0-3.668-.676q-2.076,0-2.076,1.062,0,1.014,1.207,1.014h1.641q3.378,0,3.379,3.041,0,3.186-4.306,3.186A11.683,11.683,0,0,1,604.938,250.556Z" transform="translate(-555.878 -237.234)" fill="#fff"/>
      <path id="Path_18958" data-name="Path 18958" d="M713.121,248.846q0-3.022,4.4-3.022a11.21,11.21,0,0,1,2.066.193v-.763q0-1.361-1.96-1.361a16.047,16.047,0,0,0-3.688.483v-2.027a16.049,16.049,0,0,1,3.688-.483q4.518,0,4.518,3.34v6.329a5.306,5.306,0,0,1-.792.289c-.334.065-1.6.178-1.6.178h-2.915Q713.121,252,713.121,248.846Zm4.4-1.284q-1.844,0-1.844,1.255,0,1.352,1.545,1.352a6.018,6.018,0,0,0,2.365-.246v-2.167A10.534,10.534,0,0,0,717.523,247.562Z" transform="translate(-654.65 -238.198)" fill="#fff"/>
    </g>
    <path id="Path_18959" data-name="Path 18959" d="M799.868,116.015l-3.231-3.265.1-.009h3.71c2.627.072,4.762,3.042,2.31,5.469l-3.817,3.777a1.8,1.8,0,0,1-2.527-2.554Zm-6.146-8.94c-1.495,1.421-2.438,2.412-3.9,3.863-2.191,2.168-.19,5.99,2.915,5.732H795.8l-3.131-3.552,3.555-3.518A1.776,1.776,0,1,0,793.721,107.074Z" transform="translate(-652.539 0)" fill="#fff"/>
  </g>
</svg>
