<svg xmlns="http://www.w3.org/2000/svg" width="53.999" height="64" viewBox="0 0 53.999 64">
  <g id="Group_11326" data-name="Group 11326" transform="translate(-1322.601 -1382.775)">
    <path id="Path_19320" data-name="Path 19320" d="M1419.052,1647.918l-.937-.062,8.1-42.326.936.062Z" transform="translate(-94.392 -201.85)" fill="#1f2144"/>
    <path id="Path_19321" data-name="Path 19321" d="M1616.723,1644.418l.936-.062-8.1-42.326-.937.062Z" transform="translate(-267.018 -198.679)" fill="#1f2144"/>
    <path id="Path_19322" data-name="Path 19322" d="M1867.765,1434.776a1.1,1.1,0,0,0-.741-1.088c-2.543-1.375-4.827-.118-4.843.244-.064,1.469-.189,3.342.493,4.669.51.994,1.51,1.873,2.651,1.384C1866.516,1439.475,1867.742,1438.038,1867.765,1434.776Z" transform="translate(-496.735 -45.565)" fill="#ff5959"/>
    <path id="Path_19323" data-name="Path 19323" d="M1875.061,1475.547c.067.016.133.034.2.048s.4.039.073.016c.34.023.679.063,1.018.094.284.027.569.036.854.036.126,0,.251-.006.377-.006l.143-.008.018,0a1.6,1.6,0,0,0,.223-.063c-.009-.1-.017-.183-.017-.253l.4-4.9c0-.187-.444.42-.6.534a4.378,4.378,0,0,1-2.39.852.286.286,0,0,0-.079.021c-.133,0-.123.063-.122.236C1875.163,1472.993,1875.019,1474.433,1875.061,1475.547Z" transform="translate(-508.446 -79.47)" fill="#ff5959"/>
    <path id="Path_19324" data-name="Path 19324" d="M1875.44,1520.969a.833.833,0,0,0-.19-.358A1.769,1.769,0,0,1,1875.44,1520.969Z" transform="translate(-508.625 -124.899)" fill="#f79884"/>
    <path id="Path_19331" data-name="Path 19331" d="M1914.742,1465.424c-.231-.221-.629,0-.707.26a.076.076,0,0,0,.066.1.973.973,0,0,0-.072.323h0a.8.8,0,0,0-.029.361c0,.047,0,.1.007.143a.213.213,0,0,0-.007.161c.14.332.576-.129.657-.276C1914.8,1466.233,1915,1465.673,1914.742,1465.424Z" transform="translate(-543.727 -74.809)" fill="#ff5959"/>
    <path id="Path_19332" data-name="Path 19332" d="M1858.142,1464.794c.206-.245.625-.073.731.182a.076.076,0,0,1-.055.108.993.993,0,0,1,.106.313h0a.8.8,0,0,1,.068.356c0,.047.007.095.009.143a.215.215,0,0,1,.024.159c-.1.346-.587-.066-.683-.2C1858.17,1465.606,1857.91,1465.071,1858.142,1464.794Z" transform="translate(-493.04 -74.215)" fill="#ff5959"/>
    <path id="Path_19333" data-name="Path 19333" d="M1917.4,1469.164a1.22,1.22,0,0,1-.129.531c-.027.054.054.1.081.047a1.335,1.335,0,0,0,.142-.578A.047.047,0,0,0,1917.4,1469.164Z" transform="translate(-546.701 -78.241)" fill="#fff"/>
    <path id="Path_19334" data-name="Path 19334" d="M1862.471,1469.333a1.364,1.364,0,0,1-.119-.5c0-.06-.1-.06-.094,0a1.5,1.5,0,0,0,.132.548C1862.415,1469.435,1862.5,1469.388,1862.471,1469.333Z" transform="translate(-496.853 -77.94)" fill="#fff"/>
    <path id="Path_19335" data-name="Path 19335" d="M1436.376,1436.812l-.535-53.28a.731.731,0,0,0-.728-.735l-28.253-.022a.731.731,0,0,0-.711.75l.535,53.28a.731.731,0,0,0,.728.734l28.253.023A.731.731,0,0,0,1436.376,1436.812Z" transform="translate(-83.549 0)" fill="#1f2144"/>
    <path id="Path_19336" data-name="Path 19336" d="M1452.425,1453.142l-.472-49.77a.646.646,0,0,0-.642-.649l-24.965-.09a.646.646,0,0,0-.628.663l.472,49.77a.645.645,0,0,0,.642.649l24.966.09A.646.646,0,0,0,1452.425,1453.142Z" transform="translate(-101.28 -17.994)" fill="#fff"/>
    <path id="Path_19337" data-name="Path 19337" d="M1790.893,1982.344c-.271.012-.174-.043-.407.125a.272.272,0,0,0-.08.1.26.26,0,0,0-.308.249c-.1,1.539-.417,3.057-.464,4.6a.308.308,0,0,0,.335.342,2.18,2.18,0,0,0,.638-.158c.1-.026.335-.6.347-.693.1-.776.374-3.405.4-4.2C1791.365,1982.507,1791.1,1982.334,1790.893,1982.344Z" transform="translate(-431.043 -543.299)" fill="#f79884"/>
    <path id="Path_19338" data-name="Path 19338" d="M1901.06,1992.677c-.271.012-.174-.043-.407.125a.276.276,0,0,0-.081.1.26.26,0,0,0-.308.249c-.1,1.539-.417,3.057-.463,4.6a.308.308,0,0,0,.335.342,2.186,2.186,0,0,0,.638-.158c.1-.026.335-.6.348-.694.1-.776.374-3.405.4-4.2C1901.532,1992.84,1901.269,1992.667,1901.06,1992.677Z" transform="translate(-530.871 -552.663)" fill="#f79884"/>
    <path id="Path_19339" data-name="Path 19339" d="M1756.306,2029.756c-.368-.044-1.175-.031-1.577-.032-.177.011-.238.126-.231.186.061.46-.361.428-.923.708a9.487,9.487,0,0,1-1.708.665c-.682.2-.612.09-.619.526,0,.313.7.264,1.265.234l.268-.012a2.6,2.6,0,0,0,.785-.156l.138-.051a3.184,3.184,0,0,1,1.248-.187.054.054,0,0,1,.052.039c.008.047.01.073.015.12a.162.162,0,0,0,.167.14c.183-.007.367-.014.553-.024.349-.019.679-.024.732-.112s.033-.116.031-.215A7.227,7.227,0,0,0,1756.306,2029.756Z" transform="translate(-396.26 -586.232)" fill="#1f2144"/>
    <path id="Path_19340" data-name="Path 19340" d="M1774.893,2036.121c-.026-.054-.107-.006-.081.049q.091.187.188.371c.029.053.109,0,.081-.048Q1774.984,2036.308,1774.893,2036.121Zm.4-.2c-.036-.048-.117,0-.08.048a3.093,3.093,0,0,1,.238.363c.029.053.11,0,.08-.048A3.093,3.093,0,0,0,1775.291,2035.92Zm.77.1a3.081,3.081,0,0,0-.359-.243c-.052-.03-.108.045-.056.076a3.084,3.084,0,0,1,.36.243C1776.053,2036.135,1776.109,2036.06,1776.062,2036.022Z" transform="translate(-417.609 -591.714)" fill="#464a8a"/>
    <path id="Path_19341" data-name="Path 19341" d="M1756.528,2047.032c0-.079-.013-.168-.024-.261a5.842,5.842,0,0,1-1.293.093,6.036,6.036,0,0,0-1.262.131,10.589,10.589,0,0,1-2.67.273c0,.041,0,.088,0,.146,0,.313.7.243,1.271.2l.267-.02a2.6,2.6,0,0,0,.78-.179l.137-.055a3.186,3.186,0,0,1,1.242-.224.054.054,0,0,1,.053.037c.009.046.012.072.019.119a.162.162,0,0,0,.171.135c.183-.012.367-.025.552-.04.349-.029.678-.045.729-.134S1756.533,2047.131,1756.528,2047.032Z" transform="translate(-396.289 -601.681)" fill="#464a8a"/>
    <path id="Path_19342" data-name="Path 19342" d="M1777.134,1687.352a16.607,16.607,0,0,0,3.127.048.19.19,0,0,0,.188-.186,8.95,8.95,0,0,1,.591-3.522c.384-.99,1.023-1.85,1.43-2.827.785-1.882.208-4.029.418-6a7.384,7.384,0,0,1,.971-2.93c.429-.748.928-1.457,1.315-2.228a4.83,4.83,0,0,0,.59-2.194,6.855,6.855,0,0,1-.054-1.675,2.21,2.21,0,0,1,.176-.473c.184,3.009.367,6.018.312,9.034-.021,1.152-.092,2.305-.06,3.458a23.012,23.012,0,0,0,.333,3.1,25.512,25.512,0,0,1,.633,6.574c-.011.111.095.174.188.187a14.637,14.637,0,0,0,2.136.129c.4-.007,1.246.093,1.559-.242a.729.729,0,0,0,.148-.451c.041-.364.048-.737.072-1.1q.072-1.1.145-2.206c.336-5.14.768-10.285.972-15.432.209-5.253-.043-10.509-.293-15.755-.012-.237-.38-.24-.375-.006q-2.539-.059-5.074.1a.176.176,0,0,0-.111-.032l-2.427.071a16.443,16.443,0,0,0-2.065.079,1.057,1.057,0,0,0-.9.844c-.2.667-.325,1.374-.469,2.056-2.182,10.325-2.06,20.945-3.651,31.352A.191.191,0,0,0,1777.134,1687.352Z" transform="translate(-419.55 -244.388)" fill="#464a8a"/>
    <path id="Path_19343" data-name="Path 19343" d="M1889.584,2034.528c.309.007.617,0,.925-.02a2.1,2.1,0,0,0,.673-.085.289.289,0,0,0,.143-.147.793.793,0,0,1,.281-.341.308.308,0,0,0,.144-.3,21.14,21.14,0,0,0,.042-2.125c0-.034-.056-.1-.188-.1-.156,0-.732,0-.888,0a.863.863,0,0,0-.358.033.384.384,0,0,0-.175.328,5.764,5.764,0,0,0-.034.772.045.045,0,0,0-.008.023c-.015.57-.616.845-.818,1.334C1889.229,2034.129,1889.223,2034.6,1889.584,2034.528Z" transform="translate(-521.328 -587.762)" fill="#1f2144"/>
    <path id="Path_19344" data-name="Path 19344" d="M1900.9,2036.934c-.06,0-.054.092.006.094.139,0,.465,0,.6,0,.06,0,.054-.094-.006-.094C1901.37,2036.938,1901.043,2036.937,1900.9,2036.934Zm.1-1.045c-.059.007-.059.1,0,.094.144-.017.476-.013.621-.01.061,0,.06-.092,0-.094C1901.48,2035.876,1901.148,2035.872,1901,2035.889Zm-.059.51c-.06.007-.06.1,0,.094.144-.017.476-.013.621-.009.061,0,.06-.093,0-.094C1901.421,2036.386,1901.09,2036.382,1900.946,2036.4Z" transform="translate(-531.834 -591.809)" fill="#464a8a"/>
    <path id="Path_19345" data-name="Path 19345" d="M1889.292,2052.946h.006a3.635,3.635,0,0,0,1.631-.028c.3-.1.354-.29.59-.462a1.376,1.376,0,0,1,.248-.143c-.005.089-.009.178-.015.267a.308.308,0,0,1-.144.3.79.79,0,0,0-.28.341.289.289,0,0,1-.143.147,2.091,2.091,0,0,1-.673.085c-.308.022-.616.027-.925.02C1889.271,2053.534,1889.235,2053.187,1889.292,2052.946Z" transform="translate(-521.329 -606.703)" fill="#464a8a"/>
    <path id="Path_19346" data-name="Path 19346" d="M1811.181,1535.168c1.059.017,2.122.013,3.181-.029q.6-.024,1.2-.073c.465-.038.717-.066,1.025-.115a11.506,11.506,0,0,0,2.156-.554,5.958,5.958,0,0,0,1.292-.753c.363-2.445,1.438-11.429,1.282-12.48a6.647,6.647,0,0,0-1.031-2.674c-.7-1.049-2.222-1.41-3.692-1.77a3.661,3.661,0,0,1-1.757.529,1.876,1.876,0,0,1-1.824-.758,9.242,9.242,0,0,0-3.17,1.086c-1.207.738-1.6,1.767-2.05,3.313-.406,1.382-1.3,11.165-.531,13.667A15.084,15.084,0,0,0,1811.181,1535.168Z" transform="translate(-446.74 -121.168)" fill="#1f2144"/>
    <g id="Group_11322" data-name="Group 11322" transform="translate(1326.474 1391.85)">
      <path id="Path_19347" data-name="Path 19347" d="M1453.169,1480.3c-.008-.084-.053-.149-.113-.152-1.3-.067-5.128-.069-5.427-.085-.247-.013-.2.293-.2.348.012,1.222.2,4.02.233,4.612.015.263.045.4.245.461.38.125,4.2.1,5.135.118.3,0,.327-.106.3-.783C1453.232,1482.21,1453.388,1482.555,1453.169,1480.3Z" transform="translate(-1447.429 -1480.009)" fill="#ff5959"/>
      <path id="Path_19348" data-name="Path 19348" d="M1473.152,1498.921a.165.165,0,0,0-.226.061l-.966,1.673-.4-.521a.165.165,0,1,0-.263.2l.554.723a.165.165,0,0,0,.232.031.163.163,0,0,0,.058-.088l1.07-1.853A.166.166,0,0,0,1473.152,1498.921Z" transform="translate(-1469.028 -1497.075)" fill="#1f2144"/>
      <path id="Path_19349" data-name="Path 19349" d="M1526.451,1484.521c.025.266.167.471.636.477,2.471.028,12.541.012,13.551-.011.669-.016.708-.128.686-.438-.091-1.268-.012-3.039-.129-4.594-.021-.278.142-.42-.509-.412-.79.009-10.566-.031-13.988-.071-.641-.007-.532.6-.524.7C1526.309,1481.985,1526.368,1483.628,1526.451,1484.521Z" transform="translate(-1518.773 -1479.471)" fill="#f5e4d5"/>
      <path id="Path_19350" data-name="Path 19350" d="M1555.759,1493.142l-11.544-.02a.047.047,0,0,0,0,.094l11.544.02A.047.047,0,0,0,1555.759,1493.142Zm.02,1.522-11.544-.02a.047.047,0,0,0,0,.094l11.544.02A.047.047,0,0,0,1555.779,1494.664Zm-.051,1.417q-1.655-.022-3.31.018c-.06,0-.063.1,0,.094q1.655-.04,3.31-.017A.047.047,0,0,0,1555.728,1496.081Z" transform="translate(-1535.09 -1491.841)" fill="#1f2144"/>
    </g>
    <g id="Group_11323" data-name="Group 11323" transform="translate(1326.615 1419.348)">
      <path id="Path_19351" data-name="Path 19351" d="M1454.669,1773.469c-.008-.084-.053-.149-.113-.152-1.3-.067-5.127-.069-5.427-.084-.247-.013-.2.293-.2.348.012,1.222.2,4.02.233,4.612.016.263.045.395.246.461.38.125,4.2.105,5.135.118.3,0,.327-.106.3-.782C1454.732,1775.377,1454.888,1775.721,1454.669,1773.469Z" transform="translate(-1448.929 -1773.161)" fill="#ff5959"/>
      <path id="Path_19352" data-name="Path 19352" d="M1474.985,1790.421a.166.166,0,0,0-.226.061l-.966,1.673-.4-.521a.165.165,0,1,0-.263.2l.554.723a.165.165,0,0,0,.291-.058l1.07-1.853A.165.165,0,0,0,1474.985,1790.421Z" transform="translate(-1470.829 -1788.717)" fill="#1f2144"/>
      <path id="Path_19353" data-name="Path 19353" d="M1532.871,1777.527c.024.265.165.472.634.479,2.471.039,12.541.067,13.551.047.669-.013.708-.125.687-.435-.085-1.269,0-3.039-.109-4.594-.02-.278.144-.419-.507-.415-.79.005-10.565-.077-13.988-.132-.641-.01-.534.6-.527.7C1532.739,1774.991,1532.791,1776.635,1532.871,1777.527Z" transform="translate(-1524.748 -1772.479)" fill="#f5e4d5"/>
      <path id="Path_19354" data-name="Path 19354" d="M1563.678,1784.394l-11.543-.154a.047.047,0,0,0,0,.094l11.543.154A.047.047,0,0,0,1563.678,1784.394Z" transform="translate(-1542.408 -1783.136)" fill="#1f2144"/>
      <path id="Path_19355" data-name="Path 19355" d="M1563.22,1800.6l-11.543-.153a.047.047,0,0,0,0,.094l11.543.154A.047.047,0,0,0,1563.22,1800.6Z" transform="translate(-1541.992 -1797.823)" fill="#1f2144"/>
      <path id="Path_19356" data-name="Path 19356" d="M1555.312,1815.621q-1.654-.064-3.309-.067a.047.047,0,0,0,0,.094q1.655,0,3.309.067C1555.374,1815.717,1555.372,1815.624,1555.312,1815.621Z" transform="translate(-1542.289 -1811.511)" fill="#1f2144"/>
    </g>
    <g id="Group_11324" data-name="Group 11324" transform="translate(1326.373 1401.038)">
      <path id="Path_19357" data-name="Path 19357" d="M1452.086,1578.3c-.008-.084-.053-.149-.113-.152-1.3-.067-5.128-.069-5.428-.085-.247-.013-.2.293-.2.348.012,1.222.2,4.02.233,4.612.016.263.045.4.245.461.38.125,4.2.105,5.135.118.3,0,.327-.106.3-.782C1452.148,1580.21,1452.3,1580.555,1452.086,1578.3Z" transform="translate(-1446.345 -1578)" fill="#ff5959"/>
      <path id="Path_19358" data-name="Path 19358" d="M1470.4,1594.087a.165.165,0,0,0-.226.061l-.966,1.673-.4-.521a.165.165,0,0,0-.263.2l.554.723a.165.165,0,0,0,.232.031.163.163,0,0,0,.059-.089l1.07-1.853A.166.166,0,0,0,1470.4,1594.087Z" transform="translate(-1466.434 -1592.499)" fill="#1f2144"/>
      <path id="Path_19359" data-name="Path 19359" d="M1527.287,1582.424c.021.265.16.474.629.486,2.471.064,12.54.2,13.549.187.669-.006.71-.118.692-.428-.072-1.269.033-3.039-.061-4.6-.017-.278.148-.417-.5-.42-.79,0-10.565-.186-13.986-.276-.641-.017-.54.591-.534.69C1527.181,1579.887,1527.216,1581.531,1527.287,1582.424Z" transform="translate(-1519.488 -1577.378)" fill="#f5e4d5"/>
      <path id="Path_19360" data-name="Path 19360" d="M1553.552,1589.546l-11.542-.236a.047.047,0,0,0,0,.094l11.542.236A.047.047,0,0,0,1553.552,1589.546Zm-11.6,1.379c3.847.079,4.6.135,8.445.214a.047.047,0,0,0,0-.094c-3.847-.079-4.6-.135-8.445-.214A.047.047,0,0,0,1541.955,1590.925Zm11.438,1.69-11.542-.236a.047.047,0,0,0,0,.094l11.542.236A.047.047,0,0,0,1553.393,1592.615Z" transform="translate(-1532.846 -1588.19)" fill="#1f2144"/>
    </g>
    <g id="Group_11325" data-name="Group 11325" transform="translate(1326.584 1409.971)">
      <path id="Path_19361" data-name="Path 19361" d="M1454.336,1672.8c-.008-.084-.053-.149-.113-.152-1.3-.067-5.128-.069-5.428-.085-.247-.013-.2.293-.2.348.013,1.222.2,4.02.233,4.612.016.263.045.4.245.461.38.125,4.2.1,5.135.118.3,0,.327-.106.3-.783C1454.4,1674.71,1454.554,1675.055,1454.336,1672.8Z" transform="translate(-1448.595 -1672.565)" fill="#ff5959"/>
      <path id="Path_19362" data-name="Path 19362" d="M1473.819,1692.421a.165.165,0,0,0-.226.061l-.966,1.673-.4-.521a.165.165,0,0,0-.262.2l.554.723a.164.164,0,0,0,.29-.058l1.07-1.853A.165.165,0,0,0,1473.819,1692.421Z" transform="translate(-1469.741 -1690.537)" fill="#1f2144"/>
      <path id="Path_19363" data-name="Path 19363" d="M1554.42,1684.772l-11.543-.154a.047.047,0,0,0,0,.094l11.543.154A.047.047,0,0,0,1554.42,1684.772Z" transform="translate(-1533.987 -1683.487)" fill="#1f2144"/>
      <path id="Path_19364" data-name="Path 19364" d="M1528.292,1678.8c.021.266.16.474.628.486,2.471.066,12.54.2,13.549.195.669-.005.709-.117.692-.427-.072-1.269.034-3.039-.059-4.6-.017-.278.148-.417-.5-.42-.79,0-10.564-.192-13.986-.284-.641-.017-.541.591-.535.69C1528.188,1676.258,1528.222,1677.9,1528.292,1678.8Z" transform="translate(-1520.612 -1673.639)" fill="#f5e4d5"/>
      <path id="Path_19365" data-name="Path 19365" d="M1539.47,1687.962c3.848.051,4.6.1,8.446.153a.047.047,0,0,0,0-.094c-3.848-.051-4.6-.1-8.446-.154A.047.047,0,0,0,1539.47,1687.962Zm11.449,1.608-11.543-.154a.047.047,0,0,0,0,.094l11.543.154A.047.047,0,0,0,1550.92,1689.57Z" transform="translate(-1530.815 -1686.432)" fill="#1f2144"/>
    </g>
    <path id="Path_19366" data-name="Path 19366" d="M1792.959,1531.988a.391.391,0,0,0-.042-.1,26.025,26.025,0,0,1-1.179-5.684l-.888-6.158a.231.231,0,0,0-.089-.16,9.707,9.707,0,0,1,1.275-.635,9.29,9.29,0,0,0-6.653,7.257,8.772,8.772,0,0,0-.159,4.278c.365,1.347,2.1,1.856,3.4,1.947a8,8,0,0,0,1.859-.163l1.442-.112c.311-.024.712.028.959-.194A.281.281,0,0,0,1792.959,1531.988Z" transform="translate(-426.864 -123.664)" fill="#1f2144"/>
    <path id="Path_19367" data-name="Path 19367" d="M1892.777,1537.643c.247.222.648.17.959.194l1.442.112a20.454,20.454,0,0,0,2.982.152,2.754,2.754,0,0,0,2.6-2.19,11.951,11.951,0,0,0-.094-5.506c-.534-2.722-1.747-5.74-4.746-6.466a.264.264,0,0,0-.281.094.23.23,0,0,0-.089.159q-.444,3.079-.888,6.158a39.741,39.741,0,0,1-1.913,6.915.4.4,0,0,0-.042.1A.282.282,0,0,0,1892.777,1537.643Z" transform="translate(-524.433 -127.908)" fill="#1f2144"/>
    <path id="Path_19368" data-name="Path 19368" d="M1872,1515.248a2.983,2.983,0,0,0-.357-.8c-.018-.038-.061-.036-.162,0-.35.078-.624.177-.962.283a4.591,4.591,0,0,0-.517.176.512.512,0,0,0-.094.05.571.571,0,0,0-.086-.05,4.536,4.536,0,0,0-.5-.2c-.33-.121-.6-.232-.941-.326-.1-.038-.141-.042-.162,0a3.073,3.073,0,0,0-.412.783c-.04.21.13.373.28.53a5.476,5.476,0,0,0,.715.668c.167.121.305.17.469.031a1.792,1.792,0,0,0,.387-.664l.211-.455c.01-.021.024-.045.038-.071.012.025.023.048.031.068l.179.464a1.738,1.738,0,0,0,.341.681c.154.146.3.1.47-.01a5.68,5.68,0,0,0,.76-.635C1871.849,1515.615,1872.03,1515.46,1872,1515.248Z" transform="translate(-501.877 -119.226)" fill="#f5e4d5"/>
    <path id="Path_19369" data-name="Path 19369" d="M1864.5,1417.774c-.036-.214-.184-.417-.241-.625-.047-.172-.01-.364-.1-.521-.158-.287-.463-.361-.733-.49a1.17,1.17,0,0,0-.06-.338.671.671,0,0,0-.342-.432.347.347,0,0,0-.374.115,1.27,1.27,0,0,0-.666-.819,1.711,1.711,0,0,0-1.047-.128,1.73,1.73,0,0,0-.5.176,1.924,1.924,0,0,0-.26.174c-.181.14-.314.084-.5.006a.862.862,0,0,0-.9.124,1.8,1.8,0,0,0-.514,1.014c-.06.2-.234.3-.305.493a.743.743,0,0,0-.029.417c.059.274.294.552.59.471a3.382,3.382,0,0,1,.694-.168,3.1,3.1,0,0,1,.837.1,1.881,1.881,0,0,0,.684.051,1.781,1.781,0,0,0,.624-.285c.491-.3.628-.453,1.144-.214a1.391,1.391,0,0,1,1.052,1.657,1.909,1.909,0,0,0,.069.977c.035.06.092.11.141.074a.048.048,0,0,0,.018-.01,1.39,1.39,0,0,0,.412-.872c.05-.207.2-.338.274-.532A.786.786,0,0,0,1864.5,1417.774Z" transform="translate(-492.928 -28.752)" fill="#9e4d4d"/>
    <path id="Path_19370" data-name="Path 19370" d="M1858.634,1439.591a.882.882,0,0,0-.586-.03.045.045,0,0,0-.028,0l-.036.006-.021,0c-.007-.02-.013-.04-.021-.06-.021-.056-.112-.031-.091.025a5.618,5.618,0,0,1,.2,1.553c.027.285.058.765.388.862a.048.048,0,0,0,.058-.033c.2-.613-.117-1.275.092-1.891C1858.637,1439.893,1858.8,1439.709,1858.634,1439.591Z" transform="translate(-492.858 -51.386)" fill="#9e4d4d"/>
    <path id="Path_19371" data-name="Path 19371" d="M1830.973,1602.075a1.881,1.881,0,0,0,.192.781.1.1,0,0,0,.008.186,33.281,33.281,0,0,1,3.526,1.239c.046.014-.054-.467-.037-.519q.142-.431.269-.867a.1.1,0,0,0-.053-.122q-1.006-.256-2.019-.488a17,17,0,0,0-1.805-.292C1831.012,1601.988,1830.978,1602.031,1830.973,1602.075Z" transform="translate(-468.501 -198.644)" fill="#ff5959"/>
    <path id="Path_19372" data-name="Path 19372" d="M1847.283,1595.038c.022-.073.044-.146.068-.219a.24.24,0,0,0-.277-.292.6.6,0,0,0-.642-.36.24.24,0,0,0-.349-.072l.014-.051a.235.235,0,0,0-.452-.125l-.087.261a.247.247,0,0,0-.408.086,12.641,12.641,0,0,0-.762,2.923c-.023.168.1.344.289.289h0a.256.256,0,0,0,.289.16.644.644,0,0,0,.406-.268.206.206,0,0,0,.293-.023,2.336,2.336,0,0,0,.162-.215.25.25,0,0,0,.26.047.223.223,0,0,0,.235.119.219.219,0,0,0,.131.138c-.019.124-.038.248-.054.373-.039.3.431.3.469,0,.035-.268.079-.533.131-.8.01-.031.02-.063.03-.1.157-.527.291-1.062.419-1.6A.224.224,0,0,0,1847.283,1595.038Z" transform="translate(-480.655 -191.181)" fill="#1f2144"/>
    <path id="Path_19373" data-name="Path 19373" d="M1936.005,1541.163c.024.055.105.007.081-.047a13.273,13.273,0,0,1-1.382-3.862,2.945,2.945,0,0,1,1.2-2.83c-.025-.021-.049-.042-.075-.062a2.994,2.994,0,0,0-1.229,2.736A12.486,12.486,0,0,0,1936.005,1541.163Z" transform="translate(-562.397 -137.361)" fill="#464a8a"/>
    <path id="Path_19374" data-name="Path 19374" d="M1825.478,1532.918a2.175,2.175,0,0,0-.773-.58c-.031.021-.059.042-.089.063a2.081,2.081,0,0,1,.836.636,2.427,2.427,0,0,1,.405,1.759,5.434,5.434,0,0,1-.686,1.88c-.332.622-.682,1.236-1.025,1.853-.029.053.052.1.081.047.383-.69.782-1.373,1.141-2.075a4.8,4.8,0,0,0,.6-1.924A2.412,2.412,0,0,0,1825.478,1532.918Z" transform="translate(-462.312 -135.527)" fill="#464a8a"/>
    <path id="Path_19375" data-name="Path 19375" d="M1798.1,1585.913c-.047.255.506.182.64.192.358.027.681.068,1.035.1-.013.039-.083.1-.094.135a3.575,3.575,0,0,0-1.342.093.069.069,0,0,0-.019.116c.2.217.735.165,1.009.182a15.293,15.293,0,0,1,1.779.744.616.616,0,0,0,.653-.146c.2-.095.343-.338.529-.468a.061.061,0,0,0,.024-.074.064.064,0,0,0-.018-.074q-.534-.469-1.056-.952a3.015,3.015,0,0,0-.824-.672,4.53,4.53,0,0,0-1.224-.27c-.207-.022-.537-.113-.7.061a.069.069,0,0,0,.024.105,3.6,3.6,0,0,0,.932.249l.748.177-.087.1a6.09,6.09,0,0,0-1.245-.152c-.193.007-.666.006-.709.243-.048.262.422.111.561.1a4.91,4.91,0,0,1,1.227.162c-.035.067.009-.087-.023-.019a6.812,6.812,0,0,0-1.048-.164C1798.724,1585.682,1798.143,1585.673,1798.1,1585.913Z" transform="translate(-438.712 -183.046)" fill="#ff5959"/>
    <path id="Path_19376" data-name="Path 19376" d="M1889.264,1610.068a7.436,7.436,0,0,0-1.087-.221c-.009-.075-.019-.15-.031-.224a4.907,4.907,0,0,1,1.217.228c.13.049.545.213.565.075.035-.238-.417-.385-.6-.452a6.1,6.1,0,0,0-1.23-.243l-.053-.118.766.065a3.6,3.6,0,0,0,.964.053.069.069,0,0,0,.055-.093c-.1-.216-.444-.232-.647-.276a4.551,4.551,0,0,0-1.248-.125,2.357,2.357,0,0,0-.879.2c.076-.1.176-.117.274-.2s.2-.1.287-.164c.071-.05.171-.132.136-.23-.046-.127-.193-.085-.287-.053a5.193,5.193,0,0,0-.742.341,1.362,1.362,0,0,0-.5.389c-.167.224-.3.5-.593.573a.048.048,0,0,0-.025.016c-.97.185-2.086.2-2.987.387-.048.01.268.386.277.44q.078.448.171.892c.01.045.052.1.1.082q1.009-.248,2.011-.52c.333-.091.725-.218,1.121-.361l.027,0a1.757,1.757,0,0,0,1.164.215,7.41,7.41,0,0,1,.913.083c.266.07.754.284,1.016.141a.069.069,0,0,0,.018-.116,3.577,3.577,0,0,0-1.246-.506c0-.04,0-.081,0-.122.348.076.668.137,1.017.222.13.032.633.273.668.016C1889.919,1610.233,1889.4,1610.111,1889.264,1610.068Z" transform="translate(-515.303 -204.329)" fill="#ff5959"/>
    <path id="Path_19377" data-name="Path 19377" d="M1879.884,1613.151a29.164,29.164,0,0,0-.712-3.629v0h0c-.005-.02-.01-.039-.015-.059a.215.215,0,0,0-.357-.086c-.007-.024-.014-.048-.022-.071-.084-.266-.465-.134-.45.118,0,.026,0,.052.005.078a.248.248,0,0,0-.369.165.217.217,0,0,0-.2.255l.049.284a.5.5,0,0,0-.258.04.574.574,0,0,0-.31.734c.025.063.046.127.07.19l.011.027.005.027a2.874,2.874,0,0,1,.052.351.572.572,0,0,0,.574.494c.059.364.12.728.188,1.09.055.3.521.239.466-.059-.037-.2-.072-.4-.107-.6l.017-.007a.226.226,0,0,0,.158.063c.018.11.037.22.056.329a.252.252,0,0,0,.373.164.259.259,0,0,0,.294.034c.006.043.013.085.018.128A.235.235,0,0,0,1879.884,1613.151Z" transform="translate(-510.395 -205.136)" fill="#1f2144"/>
    <path id="Path_19378" data-name="Path 19378" d="M1823.134,1639.177a1.482,1.482,0,0,0-.789.263c-.278.237-.238.645-.494.9-.589.59-1.537.3-2.274.409-.752.109-1.445.456-2.193.584-.817.139-1.649-.125-2.457.086-.058.015-.042.108.017.093.807-.212,1.641.053,2.457-.087.748-.128,1.441-.475,2.193-.584.7-.1,1.478.122,2.115-.271a1.2,1.2,0,0,0,.5-.731c.153-.429.531-.517.945-.57C1823.21,1639.261,1823.194,1639.169,1823.134,1639.177Z" transform="translate(-453.931 -232.338)" fill="#464a8a"/>
    <path id="Path_19379" data-name="Path 19379" d="M1851.075,1617.5c-.379.094-.74-.288-1.095-.388a3.02,3.02,0,0,0-1.05-.06c-.865.066-1.722.137-2.59.134-.06,0-.069.093-.008.094.848,0,1.687-.056,2.531-.129a2.623,2.623,0,0,1,1.313.131c.3.136.564.4.916.309C1851.151,1617.58,1851.134,1617.488,1851.075,1617.5Z" transform="translate(-482.384 -212.277)" fill="#464a8a"/>
    <path id="Path_19380" data-name="Path 19380" d="M1862.222,1746.9a30.456,30.456,0,0,0-.827-3.188c-.036-.115-.218-.066-.181.05a30.521,30.521,0,0,1,.827,3.188C1862.065,1747.064,1862.246,1747.014,1862.222,1746.9Z" transform="translate(-495.903 -327.001)" fill="#1f2144"/>
    <path id="Path_19381" data-name="Path 19381" d="M1823.172,1860.357a14.239,14.239,0,0,1-1.083-2.053c-.047-.111-.209-.015-.162.095a14.254,14.254,0,0,0,1.083,2.053C1823.075,1860.553,1823.237,1860.459,1823.172,1860.357Z" transform="translate(-460.299 -430.856)" fill="#1f2144"/>
    <path id="Path_19382" data-name="Path 19382" d="M1828.57,1845.76a17.878,17.878,0,0,1-.972-2.112c-.043-.111-.224-.063-.181.05a18.24,18.24,0,0,0,.991,2.157C1828.466,1845.961,1828.628,1845.866,1828.57,1845.76Z" transform="translate(-465.275 -417.563)" fill="#1f2144"/>
    <path id="Path_19383" data-name="Path 19383" d="M1452.037,1403.372a.646.646,0,0,0-.642-.649l-24.965-.09a.646.646,0,0,0-.628.663l.012,1.289h26.236Z" transform="translate(-101.356 -17.994)" fill="#ff5959"/>
    <path id="Path_19384" data-name="Path 19384" d="M1430.452,1908.725a.646.646,0,0,0,.642.649l24.965.09a.646.646,0,0,0,.628-.663l-.031-3.222-26.236-.095Z" transform="translate(-105.543 -473.653)" fill="#ff5959"/>
    <path id="Path_19385" data-name="Path 19385" d="M1560.346,1920.7h-1.118a.211.211,0,0,1-.21-.2l-.045-.869a.21.21,0,0,1,.21-.222h1.118a.21.21,0,0,1,.21.2l.045.868a.211.211,0,0,1-.21.222Zm-1.163-1.2a.117.117,0,0,0-.117.123l.045.869a.117.117,0,0,0,.117.111h1.118a.117.117,0,0,0,.117-.123l-.045-.869a.117.117,0,0,0-.117-.111Z" transform="translate(-222.029 -486.27)" fill="#f5e4d5"/>
    <path id="Path_19386" data-name="Path 19386" d="M1656.394,1919.919a.047.047,0,0,1-.029-.01l-.806-.63.742-.674a.047.047,0,0,1,.066,0,.047.047,0,0,1,0,.066l-.66.6.719.561a.047.047,0,0,1-.029.084Z" transform="translate(-309.552 -485.533)" fill="#f5e4d5"/>
    <path id="Path_19387" data-name="Path 19387" d="M1478.934,1918.853h1.361a.047.047,0,0,0,0-.094h-1.361a.047.047,0,0,0,0,.094Zm1.371.513a.047.047,0,0,0,0-.094h-1.361a.047.047,0,0,0,0,.094Zm.037.429h-1.361a.047.047,0,0,0,0,.094h1.361a.047.047,0,1,0,0-.094Z" transform="translate(-149.46 -485.683)" fill="#f5e4d5"/>
  </g>
</svg>
