<svg xmlns="http://www.w3.org/2000/svg" width="52.167" height="64" viewBox="0 0 52.167 64">
  <g id="Group_11327" data-name="Group 11327" transform="translate(-1328.242 -354.143)">
    <path id="Path_19388" data-name="Path 19388" d="M1648,480.194a3.022,3.022,0,0,0,.846,2.257,9.563,9.563,0,0,1,1.965,2.365c.364.923.245,1.972.522,2.924a6.49,6.49,0,0,0,1.736,2.823,7.7,7.7,0,0,1,2.136,2.675c.655,1.746.486,3.773,1.722,5.284.228.278.346.114.51-.316,2.186-4.317,4.315-8.656,6.492-12.977.53-1.052,1.055-2.108,1.557-3.174.245-.519.485-1.041.717-1.566a2.8,2.8,0,0,0,.333-1.179c-.027-.974-1.173-1.455-1.962-1.713a16.235,16.235,0,0,0-3.025-.583,30.893,30.893,0,0,0-6.2-.142q-1.51.117-3,.383a8.326,8.326,0,0,0-2.9.89A2.913,2.913,0,0,0,1648,480.194Z" transform="translate(-289.761 -111.136)" fill="#f5e4d5"/>
    <path id="Path_19389" data-name="Path 19389" d="M1775.176,508.773a4.593,4.593,0,0,0,1.091-1.942c.29-.86.6-1.712.951-2.548s.754-1.663,1.189-2.465a9.766,9.766,0,0,0,1.136-2.26.428.428,0,0,0-.589-.511,7.007,7.007,0,0,1-3.167.4c-.985,0-1.969-.024-2.953-.068q.059-.286.117-.572c.106-.526-.694-.8-.8-.267q-.378,1.877-.756,3.754a16.876,16.876,0,0,0-.6,3.571,3.185,3.185,0,0,0,4.042,3.022l.019-.006A.374.374,0,0,0,1775.176,508.773Z" transform="translate(-401.048 -130.598)" fill="#ff5959"/>
    <path id="Path_19390" data-name="Path 19390" d="M1637.711,968.247c-.694-1.79-6.255-3.18-13.012-3.173-5.56.005-10.308.955-12.2,2.29a2.987,2.987,0,0,1,.233,1.5c1.921,1.316,6.644,2.244,12.166,2.238C1631.219,971.1,1636.492,969.872,1637.711,968.247Z" transform="translate(-257.601 -553.641)" fill="#1f2144"/>
    <path id="Path_19391" data-name="Path 19391" d="M1632.1,536.342h0a1.722,1.722,0,0,0-.356-1.023l-.008.009-12.129-22.537.23-.429-.017.006,12.241-22.872-.875-.338-12.121,22.647-12.216-22.717-.874.34,12.563,23.362-.23.429.017-.006-11.941,22.312a7.47,7.47,0,0,0-.236.843,2.175,2.175,0,0,0,1.064,1.71,9.524,9.524,0,0,0,2.963,1.3,38.208,38.208,0,0,0,17.9-.017C1630.711,538.607,1632.1,537.562,1632.1,536.342Zm-12.973,3.06a32.939,32.939,0,0,1-8.67-1.015c-2.416-.688-3.277-1.5-3.278-2.021,0-.192.283-.755.239-.8l11.662-21.789,11.9,22.157,0,0a.843.843,0,0,1,.081.412h0C1631.07,537.616,1626.528,539.4,1619.128,539.4Z" transform="translate(-251.691 -122.292)" fill="#ff5959"/>
    <path id="Path_19392" data-name="Path 19392" d="M1741.065,764.375a1.861,1.861,0,0,0,.618-.655c-1.635-3.241-3.347-6.442-5.009-9.668a2.31,2.31,0,0,1-.661-.469,2.341,2.341,0,0,1-.774-.951,4.776,4.776,0,0,1-.267-.7c-.754.294-1.537.609-1.463,1.547a6.491,6.491,0,0,0,.735,1.924q.461,1.04.946,2.069.964,2.045,2.024,4.044.532,1.005,1.089,2c.247.441.508,1.242,1.048,1.395A2.539,2.539,0,0,0,1741.065,764.375Z" transform="translate(-367.258 -360.485)" fill="#ff5959"/>
    <ellipse id="Ellipse_1045" data-name="Ellipse 1045" cx="13.082" cy="3.563" rx="13.082" ry="3.563" transform="translate(1354.207 363.331)" fill="#ff5959"/>
    <path id="Path_19393" data-name="Path 19393" d="M1620.966,458.151c6.321-.006,11.594-1.233,12.813-2.857-.694-1.79-6.255-3.18-13.012-3.173-6.321.006-11.594,1.233-12.813,2.857C1608.648,456.768,1614.209,458.158,1620.966,458.151Z" transform="translate(-253.482 -88.79)" fill="#1f2144"/>
    <path id="Path_19394" data-name="Path 19394" d="M1791.478,900.585c.43-.9-.182-1.783-.635-2.54-1.324-2.218-2.863-4.364-3.614-6.865a.44.44,0,0,0-.106-.181c.145-.29-.042-.723-.431-.609a9.3,9.3,0,0,0-2.974,1.266,2.227,2.227,0,0,0-.923,2.21,14.791,14.791,0,0,0,.863,2.979,33.692,33.692,0,0,0,1.293,3.164q.344.733.723,1.449a3.21,3.21,0,0,0,.843,1.274,1.617,1.617,0,0,0,1.133.063,7.231,7.231,0,0,0,1.588-.476A4.288,4.288,0,0,0,1791.478,900.585Z" transform="translate(-411.907 -485.943)" fill="#ff5959"/>
    <path id="Path_19395" data-name="Path 19395" d="M1674.467,559.293a54.414,54.414,0,0,0-2.9-5.785,1.059,1.059,0,0,0-1.145-.025c-.47.262-.174.8-.027,1.187.252.657,2.3,4.5,2.485,4.826a5.1,5.1,0,0,0,.515.89.849.849,0,0,0,1.063.1C1674.984,560.193,1674.652,559.719,1674.467,559.293Z" transform="translate(-309.858 -180.506)" fill="#ff5959"/>
    <path id="Path_19396" data-name="Path 19396" d="M1648.931,515.815c.529-.29.2-.764.012-1.191s-.463-1.033-.773-1.689a2.936,2.936,0,0,1-1.813.022c.485.921.917,1.728,1,1.87a5.1,5.1,0,0,0,.515.89A.85.85,0,0,0,1648.931,515.815Z" transform="translate(-288.284 -143.902)" fill="#ff5959"/>
    <path id="Path_19397" data-name="Path 19397" d="M1547.6,961.087c-.262.067-.179-.007-.373.205a.273.273,0,0,0-.059.111.26.26,0,0,0-.251.307c.211,1.527.214,3.076.483,4.6a.307.307,0,0,0,.4.266,2.181,2.181,0,0,0,.592-.284,1.888,1.888,0,0,0,.2-.749c-.057-.78-.328-3.407-.459-4.186C1548.091,961.15,1547.8,961.035,1547.6,961.087Z" transform="translate(-198.162 -550.016)" fill="#f79884"/>
    <path id="Path_19398" data-name="Path 19398" d="M1516.489,1004.554c-.366-.056-1.173-.069-1.574-.084-.177.005-.242.119-.237.178.045.461-.375.416-.946.677a9.465,9.465,0,0,1-1.727.608c-.687.177-.614.069-.635.505-.015.312.686.287,1.255.276l.268,0a2.6,2.6,0,0,0,.789-.13l.14-.046a3.18,3.18,0,0,1,1.253-.146.054.054,0,0,1,.051.04c.006.047.007.073.011.12a.162.162,0,0,0,.163.146c.183,0,.367,0,.553-.006.35-.007.679,0,.735-.088s.036-.115.038-.214A7.221,7.221,0,0,0,1516.489,1004.554Z" transform="translate(-165.955 -589.342)" fill="#1f2144"/>
    <path id="Path_19399" data-name="Path 19399" d="M1535.406,1010.69c-.024-.055-.106-.009-.082.046q.085.19.176.377c.027.054.109.008.082-.046Q1535.49,1010.88,1535.406,1010.69Zm.4-.187c-.035-.049-.117,0-.082.046a3.064,3.064,0,0,1,.226.37c.028.054.11.008.082-.046A3.082,3.082,0,0,0,1535.81,1010.5Zm.766.127a3.063,3.063,0,0,0-.351-.254c-.051-.032-.109.042-.058.074a3.073,3.073,0,0,1,.351.255C1536.564,1010.742,1536.622,1010.669,1536.576,1010.63Z" transform="translate(-187.658 -594.687)" fill="#464a8a"/>
    <path id="Path_19400" data-name="Path 19400" d="M1516.637,1022.375c0-.079-.007-.169-.016-.262a5.858,5.858,0,0,1-1.294.05,6.028,6.028,0,0,0-1.265.089,10.589,10.589,0,0,1-2.675.185c0,.041,0,.088,0,.146-.006.313.695.266,1.263.238l.268-.011a2.6,2.6,0,0,0,.785-.153l.138-.05a3.181,3.181,0,0,1,1.248-.183.054.054,0,0,1,.052.039c.007.047.009.072.015.119a.162.162,0,0,0,.167.141c.183-.006.367-.013.553-.022.349-.018.678-.022.732-.11S1516.639,1022.474,1516.637,1022.375Z" transform="translate(-165.97 -605.331)" fill="#464a8a"/>
    <path id="Path_19401" data-name="Path 19401" d="M1524.985,666.55a8.424,8.424,0,0,0-.541-1.958c-.858-2.645,1.317-5.626.688-8.313-.333-1.423-.022-2.55-.08-4.034a16.639,16.639,0,0,1,.609-4.337c.562-2.46,1.1-5.246-.413-7.489a4.07,4.07,0,0,0-2.872-1.845,4.849,4.849,0,0,0-3.349.945.232.232,0,0,0-.4.155q.287,6.554.574,13.107c.095,2.157.169,4.316.344,6.468.17,2.1.427,4.185.681,6.273q.44,3.6.88,7.207a.242.242,0,0,0,.234.234,14.706,14.706,0,0,0,3.2-.023.243.243,0,0,0,.234-.234,9.665,9.665,0,0,0-.164-2.056,7.793,7.793,0,0,1,.2-2.247A7.23,7.23,0,0,0,1524.985,666.55Z" transform="translate(-172.529 -257.732)" fill="#3c4080"/>
    <path id="Path_19402" data-name="Path 19402" d="M1454.989,962.682c-.266-.051-.16-.082-.425.028a.271.271,0,0,0-.1.075.26.26,0,0,0-.357.171c-.456,1.473-1.111,2.876-1.512,4.367a.308.308,0,0,0,.247.41,2.175,2.175,0,0,0,.657-.006c.1,0,.464-.5.5-.594.279-.731,1.148-3.225,1.359-3.986C1455.411,962.95,1455.194,962.721,1454.989,962.682Z" transform="translate(-112.679 -551.431)" fill="#f79884"/>
    <path id="Path_19403" data-name="Path 19403" d="M1419.738,1005.72c-.366-.056-1.173-.069-1.574-.084-.177.005-.242.119-.237.178.045.461-.375.416-.946.677a9.473,9.473,0,0,1-1.727.608c-.687.177-.614.069-.635.505-.015.312.686.287,1.255.275l.268,0a2.6,2.6,0,0,0,.789-.13l.14-.046a3.182,3.182,0,0,1,1.253-.146.054.054,0,0,1,.051.04c.006.047.007.073.011.12a.162.162,0,0,0,.162.146c.183,0,.367,0,.553-.006.349-.007.679,0,.735-.088s.036-.115.038-.214A7.226,7.226,0,0,0,1419.738,1005.72Z" transform="translate(-78.277 -590.399)" fill="#1f2144"/>
    <path id="Path_19404" data-name="Path 19404" d="M1438.656,1011.856c-.025-.055-.106-.009-.082.046q.084.19.176.377c.026.054.108.008.082-.046Q1438.74,1012.046,1438.656,1011.856Zm.4-.187c-.035-.049-.117,0-.082.046a3.07,3.07,0,0,1,.226.37c.028.054.11.008.082-.046A3.086,3.086,0,0,0,1439.06,1011.669Zm.766.127a3.057,3.057,0,0,0-.351-.255c-.051-.031-.109.042-.058.074a3.063,3.063,0,0,1,.351.254C1439.814,1011.909,1439.872,1011.835,1439.826,1011.8Z" transform="translate(-99.981 -595.744)" fill="#464a8a"/>
    <path id="Path_19405" data-name="Path 19405" d="M1419.887,1023.542c0-.079-.007-.169-.016-.262a5.844,5.844,0,0,1-1.294.05,6.04,6.04,0,0,0-1.265.089,10.579,10.579,0,0,1-2.675.185c0,.04,0,.088,0,.146-.006.313.694.266,1.263.238l.268-.011a2.6,2.6,0,0,0,.785-.153l.138-.051a3.182,3.182,0,0,1,1.248-.183.054.054,0,0,1,.052.039c.007.047.009.072.015.119a.162.162,0,0,0,.167.141c.183-.006.367-.013.552-.022.349-.018.679-.022.732-.11S1419.889,1023.641,1419.887,1023.542Z" transform="translate(-78.293 -606.388)" fill="#464a8a"/>
    <path id="Path_19406" data-name="Path 19406" d="M1467.425,630.037c-.647-.345-1.9,1.34-2.614,1.368a20.121,20.121,0,0,0-3,.355c.026-.087.053-.174.079-.261.105-.347-.444-.469-.549-.124-2.657,8.79-5.315,17.582-8.29,26.271q-1.249,3.648-2.579,7.268c-.069.186.128.337.287.343l2.886.1c.632.023,1-.9,1.111-1.179a5,5,0,0,1,.5-.935,13.52,13.52,0,0,1,1.342-1.6,7.466,7.466,0,0,0,2.092-3.5c.165-.789.2-1.6.315-2.394a7.029,7.029,0,0,1,.747-2.316c.7-1.32,1.691-2.462,2.339-3.811.731-1.523.941-3.242,1.768-4.724.413-.74,4.595-6.752,4.595-9.1C1468.456,634.391,1468.918,630.835,1467.425,630.037Z" transform="translate(-110.758 -249.98)" fill="#464a8a"/>
    <path id="Path_19407" data-name="Path 19407" d="M1365.73,372.113c-.266-.944-1.366-5.5-1.631-6.442l-.4-1.416a2.912,2.912,0,0,0-.341-1.074c-.155-.171-.467-.142-.673-.161l-1.487-.141-2.915-.276a.142.142,0,0,0-.2.16l.8,2.832c.133.472,1.1,4.553,1.233,5.026a2.917,2.917,0,0,0,.341,1.074c.155.171.467.142.673.161l1.487.141,2.915.276A.142.142,0,0,0,1365.73,372.113Z" transform="translate(-27.036 -7.653)" fill="#f5e4d5"/>
    <path id="Path_19408" data-name="Path 19408" d="M1335.061,419.836l-.8-2.832-.4-1.416a2.913,2.913,0,0,0-.341-1.074c-.155-.171-.467-.142-.673-.161l-1.487-.141-2.915-.276a.142.142,0,0,0-.2.16l.8,2.832.4,1.416a2.919,2.919,0,0,0,.341,1.074c.155.171.467.142.673.161l1.487.141,2.915.276A.142.142,0,0,0,1335.061,419.836Z" transform="translate(0 -54.173)" fill="#ff5959"/>
    <path id="Path_19409" data-name="Path 19409" d="M1332.487,392.279q-1.217-.983-2.5-1.882a.094.094,0,0,0-.114.015,10.669,10.669,0,0,0-1.563,2.251c-.052.1.121.42.185.343.405.223.713.314,1.138.5a3.955,3.955,0,0,0,1.1.267,11.759,11.759,0,0,0,1.632.1c.322,0,1.011.233,1.275,0C1334.215,393.365,1332.806,392.537,1332.487,392.279Z" transform="translate(-0.055 -32.843)" fill="#ff5959"/>
    <path id="Path_19410" data-name="Path 19410" d="M1447.448,427.871a.165.165,0,0,0-.226.06l-.965,1.672-.4-.52a.165.165,0,0,0-.263.2l.554.722a.164.164,0,0,0,.29-.058l1.069-1.852A.165.165,0,0,0,1447.448,427.871Z" transform="translate(-106.319 -66.794)" fill="#ff5959"/>
    <path id="Path_19411" data-name="Path 19411" d="M1533.759,711.847q-.93,2.6-2.1,5.108c-.025.054.056.1.081.047q1.177-2.514,2.112-5.131C1533.87,711.815,1533.779,711.791,1533.759,711.847Z" transform="translate(-184.335 -324.131)" fill="#1f2144"/>
    <path id="Path_19412" data-name="Path 19412" d="M1568.719,659.447a10.812,10.812,0,0,1-.383,1.369h0a3.6,3.6,0,0,1-1.865-.477,2.872,2.872,0,0,1-1.039-1.781.047.047,0,0,0-.09.025,3.006,3.006,0,0,0,1.025,1.8,3.593,3.593,0,0,0,1.939.527,23.367,23.367,0,0,1-1.714,3.543q-1.454,2.586-2.915,5.168l-1.649,2.925a.047.047,0,0,0,.081.047l2.978-5.281c.934-1.657,1.938-3.294,2.748-5.017a12.693,12.693,0,0,0,.977-2.822C1568.822,659.413,1568.731,659.388,1568.719,659.447Z" transform="translate(-211.855 -275.838)" fill="#1f2144"/>
    <path id="Path_19413" data-name="Path 19413" d="M1543.187,807.23c-1.161.855-1.321,2.376-1.486,3.7a6.522,6.522,0,0,1-.66,2.381,19.933,19.933,0,0,1-1.167,1.727,5.056,5.056,0,0,0-.922,2c-.01.059.08.084.09.025.228-1.336,1.238-2.316,1.921-3.432a5.518,5.518,0,0,0,.726-1.969c.131-.756.166-1.528.341-2.277a3.464,3.464,0,0,1,1.2-2.073C1543.283,807.276,1543.236,807.194,1543.187,807.23Z" transform="translate(-190.95 -410.591)" fill="#1f2144"/>
    <path id="Path_19414" data-name="Path 19414" d="M1547.243,818.841l-.846-.8c-.044-.041-.111.025-.066.066l.845.8C1547.221,818.949,1547.287,818.883,1547.243,818.841Z" transform="translate(-197.624 -420.388)" fill="#1f2144"/>
    <path id="Path_19415" data-name="Path 19415" d="M1546.789,827.2a9.913,9.913,0,0,0-.736-.811c-.043-.042-.109.024-.066.066a9.847,9.847,0,0,1,.736.811C1546.761,827.31,1546.827,827.243,1546.789,827.2Z" transform="translate(-197.313 -427.945)" fill="#1f2144"/>
    <path id="Path_19416" data-name="Path 19416" d="M1497.286,850.073a51.472,51.472,0,0,1-3.568,8.137q-.6,1.1-1.256,2.171c-.031.052.05.1.081.047a51.6,51.6,0,0,0,3.955-7.934q.469-1.187.878-2.4C1497.4,850.04,1497.305,850.016,1497.286,850.073Z" transform="translate(-148.814 -449.395)" fill="#1f2144"/>
    <path id="Path_19417" data-name="Path 19417" d="M1568.151,364.315a4.583,4.583,0,0,0-3.954-.577.321.321,0,0,1-.108.146c-.462.354-.271.487-.687.9a.3.3,0,0,1-.2.088,8.606,8.606,0,0,0,.014,4.279,5.9,5.9,0,0,0,1.107,2.441,2.06,2.06,0,0,0,2.645-.078,5.523,5.523,0,0,0,2.266-4C1569.365,365.966,1569.439,365.227,1568.151,364.315Z" transform="translate(-212.693 -8.496)" fill="#ff5959"/>
    <path id="Path_19418" data-name="Path 19418" d="M1590.908,410.343l-.6-4.872c-.039-.182-.551.584-.681.726a4.376,4.376,0,0,1-2.166,1.317.271.271,0,0,0-.072.036.256.256,0,0,0-.212.31,25.155,25.155,0,0,0,1.014,4.155c.119.261.1-.164.409-.1a3,3,0,0,0,.778-.093c.277-.033.24-.056.516-.089.3-.036.927.02,1.129-.272S1590.967,410.625,1590.908,410.343Z" transform="translate(-234.647 -46.49)" fill="#ff5959"/>
    <path id="Path_19425" data-name="Path 19425" d="M1566.45,357.159a2.532,2.532,0,0,0-.549-1.489,2.983,2.983,0,0,0-1.494-.813,2.929,2.929,0,0,0-2.2-.7,4.651,4.651,0,0,0-2.079.83,2.934,2.934,0,0,0-1.1,1.009h0l-.015.028a2.205,2.205,0,0,0,.061,1.987c.026.048.05.082.091.094a.133.133,0,0,0,.134-.026c.37-.328.917-.046,1.381-.176a2.729,2.729,0,0,1,.8-.155,5.978,5.978,0,0,0,.686.046,1.7,1.7,0,0,0,1.438-1.3q-.016.339-.055.679a3.139,3.139,0,0,0,.252,1.219c.293.52.938.27.922,1.434a5.36,5.36,0,0,0-.057,1.44.1.1,0,0,0,.157.041,4.13,4.13,0,0,0,.807-1.231,3.6,3.6,0,0,0,.578-1.1A4.2,4.2,0,0,0,1566.45,357.159Z" transform="translate(-208.943 0)" fill="#1f2144"/>
    <path id="Path_19427" data-name="Path 19427" d="M1585.58,452.975a5.193,5.193,0,0,1,.568,1.532c.907-.235,1.831-.419,2.731-.676a4.917,4.917,0,0,1,1.485-1.347l.093-.039c-.091-.033-.182-.065-.275-.094a7.324,7.324,0,0,0-.383-.911c-.084-.144-.2-.423-.407-.391a1.575,1.575,0,0,0-.346.139l-.5.216c-.3.133-.614.248-.906.4-.76.405-.781.309-1.183.117-.143-.068-.244-.117-.36.023a1.861,1.861,0,0,0-.3.66l-.362.141C1585.487,452.823,1585.536,452.9,1585.58,452.975Z" transform="translate(-233.075 -87.815)" fill="#f5e4d5"/>
    <path id="Path_19428" data-name="Path 19428" d="M1596.495,463.885c-.191-.184-.355-.376-.547-.559-.05-.053-.09-.047-.116-.007-.146.226-.316.448-.442.685a.443.443,0,0,0,0,.443,2.5,2.5,0,0,0,.39.537c.087.1.157.221.292.166a1.436,1.436,0,0,0,.628-.865C1596.728,464.113,1596.61,464,1596.495,463.885Z" transform="translate(-242.042 -98.91)" fill="#1f2144"/>
    <path id="Path_19429" data-name="Path 19429" d="M1520.8,465.581a5.16,5.16,0,0,0-1.456-.7c-.011-.039-.912.544-1.444.827a2.7,2.7,0,0,1-2.07.263,2.094,2.094,0,0,1-1.065-.758c-1.861.727-3.28,1.4-4.363,3.11-1.666,2.629-1.482,3.533-2.126,7.627-.262,1.668-1.1,6.2-1.01,6.609a5.962,5.962,0,0,0,.3,1.24c.265.576,1.144.425,1.649.375.868-.085,1.723-.279,2.588-.393,1.747-.23,5.941-.615,7.7-.673,1.48-.049,1.025-.923,1.594-2.438.052-.14.872-3.86,1.394-7.187C1522.907,470.785,1523.363,467.387,1520.8,465.581Z" transform="translate(-162.228 -100.348)" fill="#1f2144"/>
    <path id="Path_19430" data-name="Path 19430" d="M1411.753,487.9c.078,1.507.761,7.463.773,7.873.007.222-.053.51.092.693.031.039,10.193.713,11.057.719.219.026.365-.013.355-.147-.208-2.759-.4-5.712-.516-8.432a.255.255,0,0,0-.047-.133c-.017-.045-.122-.05-.183-.055-3.977-.325-7.391-.518-11.379-.652A.145.145,0,0,0,1411.753,487.9Z" transform="translate(-75.679 -121.093)" fill="#1f2144"/>
    <path id="Path_19431" data-name="Path 19431" d="M1467.784,531.306a.61.61,0,0,0-.078,1.217A.61.61,0,0,0,1467.784,531.306Z" transform="translate(-125.887 -160.548)" fill="#797a8a"/>
    <path id="Path_19432" data-name="Path 19432" d="M1436.486,575.657a.145.145,0,0,0-.131-.149,68.89,68.89,0,0,0-8.16-.952q-2.029-.114-4.062-.106-1.016,0-2.032.038a5.342,5.342,0,0,0-.987.036c.01-.046.021-.091.03-.131.039-.175-.226-.268-.266-.092a1.172,1.172,0,0,0,.1,1.038.779.779,0,0,0,.529.221c.367.048.738.077,1.106.113q2.259.223,4.523.384,4.574.325,9.161.4a.143.143,0,0,0,.149-.131Z" transform="translate(-83.884 -199.426)" fill="#1f2144"/>
    <path id="Path_19433" data-name="Path 19433" d="M1464.644,565.224a1,1,0,0,0-.113-.134c-.032-.041-.06-.079-.084-.115a5.77,5.77,0,0,1-.058-1.278c0-.29.037-.871-.282-1.023a.047.047,0,0,0-.064.017.969.969,0,0,0-.052.407c0,.221,0,.441,0,.662,0,.079,0,.157.008.236-.084-.107-.174-.21-.261-.311a3.238,3.238,0,0,0-.25-.3,6.733,6.733,0,0,1-.505-.813c-.115-.219-.219-.445-.325-.668-.086-.18-.083-.373-.241-.393-.336-.042.068.846.117.969a5.811,5.811,0,0,0,.49.959l-.085.065a5.815,5.815,0,0,1-.808-1.37c-.043-.092-.432-.749-.538-.526-.081.171.066.448.123.614a6.835,6.835,0,0,0,.775,1.573l-.079.054a12.92,12.92,0,0,1-.684-1.226c-.039-.076-.493-.888-.611-.609a18.864,18.864,0,0,0,.953,1.941c.095.173.005.129-.043.079-.059-.077-.719-1.237-.872-1.162-.134.065.239.881.518,1.219a9.65,9.65,0,0,0,.83,1.014,2.1,2.1,0,0,0,.678.486c.367.142.772.122,1.135.282a.076.076,0,0,0,.1-.039.081.081,0,0,0,.022-.024C1464.574,565.595,1464.809,565.535,1464.644,565.224Z" transform="translate(-120.413 -187.923)" fill="#f79884"/>
    <path id="Path_19434" data-name="Path 19434" d="M1504.05,507.521a5.132,5.132,0,0,0-1.272-.549c-.55-.2-1.1-.381-1.663-.553a.133.133,0,0,0-.173.137.142.142,0,0,0-.229.065c-.759,2.566-1.562,5.254-3.436,7.253a6.2,6.2,0,0,1-3.3,1.988c-1.471.254-2.816-.559-4.014-1.3a.144.144,0,0,0-.193.05,14.1,14.1,0,0,0-1.245,2.11.146.146,0,0,0,.05.193,11.791,11.791,0,0,0,4.924,2.1,7.566,7.566,0,0,0,5.139-.651,10.064,10.064,0,0,0,3.332-3.538,20.151,20.151,0,0,0,2.257-5.165C1504.425,508.947,1504.774,508.043,1504.05,507.521Z" transform="translate(-145.237 -137.991)" fill="#1f2144"/>
    <path id="Path_19435" data-name="Path 19435" d="M1539.443,537.255a14.977,14.977,0,0,1-3.327,5.951,10.564,10.564,0,0,1-5.971,3.245,8.6,8.6,0,0,1-3.914-.259c-.058-.018-.083.072-.025.09a9.32,9.32,0,0,0,6.783-.637,12,12,0,0,0,4.987-4.776,16.433,16.433,0,0,0,1.558-3.59A.047.047,0,0,0,1539.443,537.255Z" transform="translate(-179.37 -165.911)" fill="#464a8a"/>
    <path id="Path_19436" data-name="Path 19436" d="M1638.785,477.611c-.046-.038-.113.028-.066.066a2.981,2.981,0,0,1,1.066,1.927c.008.059.1.06.094,0A3.074,3.074,0,0,0,1638.785,477.611Z" transform="translate(-281.347 -111.88)" fill="#464a8a"/>
    <path id="Path_19437" data-name="Path 19437" d="M1610.242,506.07a4.331,4.331,0,0,0-2.252,1.687,20.35,20.35,0,0,0-1.7,2.6.047.047,0,0,0,.081.047,20.785,20.785,0,0,1,1.633-2.52,4.34,4.34,0,0,1,2.262-1.727C1610.326,506.148,1610.3,506.057,1610.242,506.07Z" transform="translate(-251.968 -137.679)" fill="#464a8a"/>
    <path id="Path_19438" data-name="Path 19438" d="M1588.1,585.1l-.554-.687c-.038-.047-.1.02-.066.066l.553.687C1588.076,585.211,1588.142,585.144,1588.1,585.1Z" transform="translate(-234.922 -208.66)" fill="#464a8a"/>
    <path id="Path_19439" data-name="Path 19439" d="M1585.782,590.262c-.019-.057-.109-.033-.09.025a4.54,4.54,0,0,1,.176.753c.009.06.1.034.09-.025A4.507,4.507,0,0,0,1585.782,590.262Z" transform="translate(-233.304 -213.948)" fill="#464a8a"/>
    <path id="Path_19440" data-name="Path 19440" d="M1532.093,600.711a4.816,4.816,0,0,1-2.516.419c-.059-.011-.084.079-.025.09a4.894,4.894,0,0,0,2.566-.419C1532.175,600.781,1532.151,600.69,1532.093,600.711Z" transform="translate(-182.402 -223.444)" fill="#464a8a"/>
    <path id="Path_19441" data-name="Path 19441" d="M1697.31,921.555a7.638,7.638,0,0,1-1.38-2.385c-.174-.69-.274-1.7-1.126-1.89-.771-.177-1.319.539-1.593,1.151a7.393,7.393,0,0,1-1.6,2.613c-.7.639-1.673,1.114-2.077,2.018-.294.657.508,1.429,1.475,1.615a7.891,7.891,0,0,0,1.677-.038,30.815,30.815,0,0,0,3.233-.145c.626-.083,1.8-.24,2.091-.922C1698.284,922.925,1697.656,922.054,1697.31,921.555Z" transform="translate(-327.353 -510.304)" fill="#f5e4d5"/>
    <path id="Path_19442" data-name="Path 19442" d="M1741.914,818.744c-.012-.1-.122-.56-.3-.41a.107.107,0,0,0-.027.026l0,0a.359.359,0,0,0-.065.192.1.1,0,0,0-.015.043,2.071,2.071,0,0,0-.009.252,1.723,1.723,0,0,0,.037.4.077.077,0,0,0,.059.063.146.146,0,0,0,.083.051C1741.947,819.43,1741.933,818.89,1741.914,818.744Z" transform="translate(-374.496 -420.635)" fill="#f5e4d5"/>
    <path id="Path_19443" data-name="Path 19443" d="M1743.863,877.791l-.01-.007c0-.01,0-.019-.007-.029a.1.1,0,0,0-.171-.022.6.6,0,0,0-.078.211.591.591,0,0,0-.005.34.1.1,0,0,0,.172.022l.009-.014a.389.389,0,0,0,.092-.5Z" transform="translate(-376.379 -474.449)" fill="#f5e4d5"/>
    <path id="Path_19444" data-name="Path 19444" d="M1328.435,416.034l5.359.485a1.014,1.014,0,0,0-.061-.1l-5.334-.483A.532.532,0,0,0,1328.435,416.034Z" transform="translate(-0.142 -56)" fill="#f5e4d5"/>
  </g>
</svg>
