<svg xmlns="http://www.w3.org/2000/svg" width="48.15" height="64" viewBox="0 0 48.15 64">
  <g id="Group_16202" data-name="Group 16202" transform="translate(-256 -798)">
    <path id="Path_19455" data-name="Path 19455" d="M2368.4,955c-.343.035-.224-.042-.508.188a.343.343,0,0,0-.1.129.331.331,0,0,0-.373.339c-.021,1.961-.308,3.909-.254,5.872a.391.391,0,0,0,.45.41,2.773,2.773,0,0,0,.8-.247,2.389,2.389,0,0,0,.391-.905c.074-.992.227-4.348.208-5.352C2369.012,955.175,2368.665,954.975,2368.4,955Z" transform="translate(-2097.629 -102.916)" fill="#f79884"/>
    <path id="Path_19456" data-name="Path 19456" d="M2350.559,1001.947a.063.063,0,0,0-.059-.065c-.516-.023-1.482.012-2-.013-.078,0-.082-.011-.127.2a1.158,1.158,0,0,1-.411.669c-.166.116-1.3.356-1.467.449s-.213.427-.214.437a.508.508,0,0,0,.13.444,4.857,4.857,0,0,0,1.534.305c.833.032,1.648.054,2.481.012a.067.067,0,0,0,.06-.086.059.059,0,0,0,.008-.026A23.006,23.006,0,0,0,2350.559,1001.947Z" transform="translate(-2079.236 -144.193)" fill="#1f2144"/>
    <path id="Path_19457" data-name="Path 19457" d="M2350.358,1017.333a.067.067,0,0,0,.06-.086.06.06,0,0,0,.008-.027c.014-.181.026-.365.036-.551-.543-.006-1.086.025-1.629.01-.584-.016-2.044-.038-2.625-.1a.859.859,0,0,0,.06.549,5.272,5.272,0,0,0,1.61.2C2348.71,1017.352,2349.525,1017.375,2350.358,1017.333Z" transform="translate(-2079.159 -157.148)" fill="#464a8a"/>
    <path id="Path_19458" data-name="Path 19458" d="M2443.233,957.835c-.343.035-.224-.042-.507.188a.345.345,0,0,0-.1.129.331.331,0,0,0-.373.339c-.021,1.961-.308,3.909-.254,5.872a.391.391,0,0,0,.451.41,2.778,2.778,0,0,0,.8-.247,2.4,2.4,0,0,0,.391-.905c.074-.992.227-4.348.208-5.352C2443.844,958.008,2443.5,957.808,2443.233,957.835Z" transform="translate(-2163.535 -105.41)" fill="#f79884"/>
    <path id="Path_19459" data-name="Path 19459" d="M2425.393,1004.78a.063.063,0,0,0-.059-.065c-.516-.023-1.482.012-2-.013-.078,0-.082-.011-.127.2a1.157,1.157,0,0,1-.411.669c-.165.116-1.3.356-1.467.449s-.213.427-.214.437a.508.508,0,0,0,.13.444,4.857,4.857,0,0,0,1.534.305c.833.032,1.648.054,2.481.012a.208.208,0,0,0,.068-.113A22.937,22.937,0,0,0,2425.393,1004.78Z" transform="translate(-2145.144 -146.689)" fill="#1f2144"/>
    <path id="Path_19460" data-name="Path 19460" d="M2425.191,1020.166a.067.067,0,0,0,.06-.086.058.058,0,0,0,.008-.027c.014-.181.026-.365.036-.551-.543-.006-1.086.025-1.63.009-.584-.016-2.044-.038-2.625-.1a.854.854,0,0,0,.06.549,5.263,5.263,0,0,0,1.61.2C2423.543,1020.185,2424.358,1020.208,2425.191,1020.166Z" transform="translate(-2145.066 -159.643)" fill="#464a8a"/>
    <path id="Path_19461" data-name="Path 19461" d="M2259.654,780.132l-1.19-.078,6.431-33.194,1.19.078Z" transform="translate(-2001.895 80.398)" fill="#1f2144"/>
    <path id="Path_19462" data-name="Path 19462" d="M2598.64,779.253l1.19-.078-6.3-32.816-1.19.079Z" transform="translate(-2295.95 80.838)" fill="#1f2144"/>
    <rect id="Rectangle_6429" data-name="Rectangle 6429" width="48.15" height="4.453" transform="translate(256 825.844)" fill="#1f2144"/>
    <rect id="Rectangle_6430" data-name="Rectangle 6430" width="16.277" height="12.722" rx="5.5" transform="translate(261.601 813.156)" fill="#1f2144"/>
    <path id="Path_19481" data-name="Path 19481" d="M5.269,0h4.41a5.269,5.269,0,0,1,0,10.538H5.269A5.269,5.269,0,0,1,5.269,0Z" transform="translate(262.287 813.828)" fill="#ff5959"/>
    <path id="Path_19463" data-name="Path 19463" d="M2350.949,784.1c-.109-.683-1.419-4.184-2.516-3.508a.294.294,0,0,0-.118-.009,21.527,21.527,0,0,0-7.565,1.99,7.282,7.282,0,0,0-3.653,5.528c-.5,2.716-.794,5.488-1.069,8.234q-.222,2.21-.376,4.427-.072,1.023-.129,2.046a4.838,4.838,0,0,0-.021,1.88c.205.484.907.557,1.356.652a15.037,15.037,0,0,0,6.913-.152.3.3,0,0,0,.219-.281l.136-6.655a18.629,18.629,0,0,1,.673-5.776,9.436,9.436,0,0,1,3.854-4.417,6.047,6.047,0,0,0,1.984-1.778A3.414,3.414,0,0,0,2350.949,784.1Z" transform="translate(-2069.657 50.762)" fill="#ff5959"/>
    <path id="Path_19464" data-name="Path 19464" d="M2430.282,781.438c-.109-.683-1.419-4.184-2.516-3.508a.291.291,0,0,0-.118-.009,21.53,21.53,0,0,0-7.565,1.99,7.283,7.283,0,0,0-3.654,5.528c-.5,2.716-.794,5.488-1.069,8.234q-.222,2.211-.377,4.427-.072,1.023-.129,2.046a4.838,4.838,0,0,0-.021,1.88c.205.484.907.557,1.356.652a15.043,15.043,0,0,0,6.913-.152.3.3,0,0,0,.219-.281q.068-3.328.136-6.656a18.634,18.634,0,0,1,.672-5.776,9.443,9.443,0,0,1,3.855-4.417,6.053,6.053,0,0,0,1.984-1.778A3.414,3.414,0,0,0,2430.282,781.438Z" transform="translate(-2139.527 53.109)" fill="#ff5959"/>
    <path id="Path_19465" data-name="Path 19465" d="M2612.618,618.751c-.235-.333-.61.537-.669.643q-.312.557-.617,1.118a4.036,4.036,0,0,0-1.806-.914,1.024,1.024,0,0,0-.452-.173c-.374-.048-1.009.055-1.2.421a.07.07,0,0,0,.064.1c.042.041.066.043.146.048a5.128,5.128,0,0,1,.645,0,1.429,1.429,0,0,1,.748.37.923.923,0,0,1,.066.816,1.2,1.2,0,0,1-.538.574.075.075,0,0,0-.018-.022,2.928,2.928,0,0,1-.793-1.149c-.08-.189-.124-.565-.354-.628a.082.082,0,0,0-.094.039.077.077,0,0,0-.037.055,2.3,2.3,0,0,0,.135,1.242,11.536,11.536,0,0,1,.683,1.4.979.979,0,0,0,.156.542,5.141,5.141,0,0,0,1.428.087,5.855,5.855,0,0,1,.943-1.508,1.966,1.966,0,0,0,.419-.634,10.663,10.663,0,0,0,.708-1.062,3.916,3.916,0,0,0,.391-.769C2612.62,619.213,2612.717,618.89,2612.618,618.751Z" transform="translate(-2309.454 193.293)" fill="#f79884"/>
    <path id="Path_19466" data-name="Path 19466" d="M2473.182,508.749a14.329,14.329,0,0,1-2.051-1.511,4.834,4.834,0,0,0-.574.348c-1.637,1.161-1.847,2.3-1.83,4.273.021,2.387-.3,4,1.432,5.3.95.715,3.786.784,4.815-.11a7.493,7.493,0,0,0,1.408-3.105,10.953,10.953,0,0,0,.35-2.944C2475.517,510.3,2474.326,509.561,2473.182,508.749Z" transform="translate(-2187.068 337.438)" fill="#f79884"/>
    <path id="Path_19467" data-name="Path 19467" d="M2480.305,567.849c.319.32,1.089.108,1.475.086.354-.021.312.016.666,0a3.815,3.815,0,0,0,.995-.059c.377-.151.445.387.535.033a31.975,31.975,0,0,0,.333-5.429.327.327,0,0,0-.336-.34.343.343,0,0,0-.1-.029,5.566,5.566,0,0,1-3.008-1.161c-.2-.149-1.009-.993-1.016-.756l.348,6.234C2480.187,566.789,2480,567.538,2480.305,567.849Z" transform="translate(-2196.875 244.838)" fill="#f79884"/>
    <path id="Path_19468" data-name="Path 19468" d="M2438.078,762.8c-.333-1.38-.643-3.164-1.829-3.845a5.716,5.716,0,0,0-2.312-.558,15.321,15.321,0,0,0-2.739-.011,27.679,27.679,0,0,0-5.533,1.118.3.3,0,0,0-.151.1.327.327,0,0,0-.207.21,39.271,39.271,0,0,0-1.765,5.419,16.926,16.926,0,0,0-.393,2.7,5.26,5.26,0,0,0,.25,2.4,3.521,3.521,0,0,0,3.281,1.833c1.7.125,3.413.151,5.12.119.854-.016,1.709-.048,2.564-.1a6.34,6.34,0,0,0,2.109-.394,3.811,3.811,0,0,0,2.132-3.5A16.958,16.958,0,0,0,2438.078,762.8Z" transform="translate(-2146.914 70.295)" fill="#1f2144"/>
    <path id="Path_19469" data-name="Path 19469" d="M2428.641,614.239a8.444,8.444,0,0,0-1.31-3.4c-.884-1.333-2.726-1.811-4.122-2.328a4.653,4.653,0,0,1-2.233.672,2.384,2.384,0,0,1-2.318-.963,15.093,15.093,0,0,0-4.6,1.46c-1.533.938-2.028,2.245-2.6,4.21-.595,2.025-1.641,13.936-1.385,16.031.145,1.186,2.495,2.436,3.042,3.459.929,1.269,1.336-1.85,2.983-1.737,1.419,0,2.728-.018,4.422-.131a16.126,16.126,0,0,0,4.237-.73,5.351,5.351,0,0,0,2.934-2.671c.462-1.3-1.257,1.686-1.163.319C2426.64,626.721,2428.864,615.735,2428.641,614.239Z" transform="translate(-2135.38 202.498)" fill="#f5e4d5"/>
    <ellipse id="Ellipse_1046" data-name="Ellipse 1046" cx="1.163" cy="1.163" rx="1.163" ry="1.163" transform="translate(276.05 859.674)" fill="#1f2144"/>
    <ellipse id="Ellipse_1047" data-name="Ellipse 1047" cx="1.163" cy="1.163" rx="1.163" ry="1.163" transform="translate(285.692 859.635)" fill="#1f2144"/>
    <path id="Path_19470" data-name="Path 19470" d="M2467.176,864.041l-1.19-.078,1.258-20.29,1.19.079Z" transform="translate(-2184.663 -4.867)" fill="#1f2144"/>
    <path id="Path_19471" data-name="Path 19471" d="M2421.331,1005.233h0a.6.6,0,0,1,.6-.6h10.993a.6.6,0,0,1,.6.6h0a.6.6,0,0,1-.6.6h-10.993A.6.6,0,0,1,2421.331,1005.233Z" transform="translate(-2145.336 -146.633)" fill="#1f2144"/>
    <path id="Path_19472" data-name="Path 19472" d="M2432.731,732.716h-13.636A2.11,2.11,0,0,1,2417,730.34l1.373-10.808a2.11,2.11,0,0,1,2.094-1.844H2434.1a2.11,2.11,0,0,1,2.094,2.376l-1.373,10.808A2.11,2.11,0,0,1,2432.731,732.716Z" transform="translate(-2141.507 106.09)" fill="#464a8a"/>
    <path id="Path_19473" data-name="Path 19473" d="M2398.712,841.46c.009-.654.023-1.307.023-1.961a2.441,2.441,0,0,0-.294-1.369,2.826,2.826,0,0,0-2.153-1.012c-1.854-.222-15.244-.36-17.924-.04a2.827,2.827,0,0,0-2.154,1.012,2.44,2.44,0,0,0-.293,1.369c0,.692.016,1.383.025,2.075a.212.212,0,0,0,0,.077h0c0,.171.171.241.452.211,3.075-.061,16.283-.028,17.8.027,1.4.051,3.182.018,4.146.062C2398.631,841.9,2398.765,841.532,2398.712,841.46Z" transform="translate(-2105.339 1.105)" fill="#464a8a"/>
    <path id="Path_19474" data-name="Path 19474" d="M2392.157,768.32l-9.147-.044a4.208,4.208,0,0,0-4.219,3.938l-.584,9.08,1.19.079.512-7.954c.148-3.194,1.679-3.97,4.216-3.937l8.027.032Z" transform="translate(-2107.354 61.535)" fill="#464a8a"/>
    <path id="Path_19475" data-name="Path 19475" d="M2545.542,617.566c-.045-.365.09-.8-.3-.939a4.849,4.849,0,0,0-1.729-.1.247.247,0,0,0-.23.3c.283,1.358.145,4.3-1.821,4.5-1.578.166-2.208-1.259-2.779-2.539-1.085-2.432-1.555-5.564-3.912-7.251-.25-.179-.489.234-.241.412a4.575,4.575,0,0,1,1.075,1.087,2.562,2.562,0,0,0-1.645,1.368,2.155,2.155,0,0,0,.085,1.227c.179.645.385,1.284.593,1.921a19.476,19.476,0,0,0,2.69,6,5.139,5.139,0,0,0,4.8,2.156c2.015-.377,3.115-2.349,3.41-4.223A14.208,14.208,0,0,0,2545.542,617.566Z" transform="translate(-2244.474 199.613)" fill="#f5e4d5"/>
    <path id="Path_19476" data-name="Path 19476" d="M2480.367,519.6a34.636,34.636,0,0,0-1.154-4.028,43.219,43.219,0,0,1-.988-4.354,41.388,41.388,0,0,0-1.271-6.567c-.451-1.425-.89-1.987-2.654-2.823-.98-.464-4.135-.427-5.367,1.431a3.774,3.774,0,0,0,.235,3.655c.376.513.876.924,1.274,1.418a4.9,4.9,0,0,1,.869,1.64c.422,1.363.311,2.812.75,4.179a13.168,13.168,0,0,0,.671,1.652l0,0a1.849,1.849,0,0,0,1.7.766,5.222,5.222,0,0,1,1.21,0,1.606,1.606,0,0,1,1.037.948,5.994,5.994,0,0,0,1.168,1.772,4.907,4.907,0,0,0,2.385.765C2480.532,520.1,2480.364,519.83,2480.367,519.6Z" transform="translate(-2186.945 296.424)" fill="#9e4d4d"/>
    <path id="Path_19477" data-name="Path 19477" d="M2578.61,622.382a2.09,2.09,0,0,0-.889.1c.028-.232.041-.459.044-.661,0-.091.021-.128-.049-.137h-.011a.09.09,0,0,0-.036,0c-.978-.021-1.944-.041-2.92.021-.082,0-.152.016-.145.1.087.948.225,2.642,1.507,2.684a1.315,1.315,0,0,0,1.274-.787,3.233,3.233,0,0,0,.611-.018c.376-.049.9-.16,1.083-.543A.535.535,0,0,0,2578.61,622.382Zm-.073,1.042a2.669,2.669,0,0,1-1.1.155,3.634,3.634,0,0,0,.261-.954,3.848,3.848,0,0,1,.5-.11c.222-.032.672-.064.774.219C2579.1,623.076,2578.82,623.316,2578.537,623.424Z" transform="translate(-2280.326 190.664)" fill="#ff5959"/>
    <path id="Path_19478" data-name="Path 19478" d="M2322.463,722.356a.087.087,0,0,0-.091-.079,6.461,6.461,0,0,1-2.19-.622c-.416-.161-.917-.36-1.305-.024a7.85,7.85,0,0,0-.54.669c-.147.16-.527.413-.572.647-.049.253.206.309.4.253a4.419,4.419,0,0,0,.827-.542c.276-.165.385-.289.684.107.048.063.058.16.106.227.271.377.952.32,1.346.344a8.533,8.533,0,0,0,1.206.035.521.521,0,0,0,.409-.141C2322.952,722.952,2322.663,722.559,2322.463,722.356Z" transform="translate(-2054.117 102.777)" fill="#f79884"/>
    <path id="Path_19479" data-name="Path 19479" d="M2365.613,619.9a3.722,3.722,0,0,0-1.547-1.776c.162-.111.328-.219.5-.32a.239.239,0,0,0-.241-.412c-2.856,1.682-4.04,4.831-5.512,7.655-.742,1.424-1.14,2.838-2.425,3.857a7.1,7.1,0,0,1-3.328.956.245.245,0,0,0-.238.239l-.17,2.257a.2.2,0,0,0,.118.206c2.533.8,5.71.271,6.932-1.068,1.238-1.357,3.8-6.345,4.343-7.119a19.622,19.622,0,0,0,1.586-2.162A2.457,2.457,0,0,0,2365.613,619.9Z" transform="translate(-2084.847 194.451)" fill="#f5e4d5"/>
    <rect id="Rectangle_6432" data-name="Rectangle 6432" width="6.863" height="7.594" rx="3.432" transform="translate(263.988 814.885)" fill="#fff"/>
    <path id="Path_19480" data-name="Path 19480" d="M2328.259,654.212c3.822-.015.96.011,4.782,0a.06.06,0,0,0,0-.119c-3.823.016-.96-.011-4.783,0A.06.06,0,0,0,2328.259,654.212Zm4.779,1.114c-3.823.015-.955-.011-4.778,0a.06.06,0,0,0,0,.119c3.822-.015.955.011,4.777,0A.06.06,0,0,0,2333.037,655.326Zm-.031,1.352a.06.06,0,0,0,0-.119c-3.822.016-.955-.006-4.777.009a.06.06,0,0,0,0,.119C2332.051,656.671,2329.184,656.693,2333.006,656.678Zm.021,1.193c-3.822.016-.945-.006-4.768.009a.06.06,0,0,0,0,.119c3.822-.015.945.006,4.767-.009A.06.06,0,0,0,2333.027,657.87Z" transform="translate(-2063.288 162.104)" fill="#1f2144"/>
  </g>
</svg>
