<svg xmlns="http://www.w3.org/2000/svg" xmlns:xlink="http://www.w3.org/1999/xlink" width="348" height="179" viewBox="0 0 348 179">
  <defs>
    <style>
      .cls-1, .cls-42 {
        fill: #d6edff;
      }

      .cls-2, .cls-8 {
        fill: #ffe5e5;
      }

      .cls-3 {
        fill: #212e38;
      }

      .cls-4 {
        fill: #9bdede;
      }

      .cls-11, .cls-13, .cls-14, .cls-17, .cls-18, .cls-20, .cls-24, .cls-30, .cls-35, .cls-37, .cls-39, .cls-40, .cls-45, .cls-47, .cls-48, .cls-49, .cls-5, .cls-50, .cls-6, .cls-7, .cls-8 {
        fill-rule: evenodd;
      }

      .cls-5 {
        fill: url(#linear-gradient);
      }

      .cls-6 {
        fill: url(#linear-gradient-2);
      }

      .cls-10, .cls-7 {
        fill: #ff9191;
      }

      .cls-9 {
        fill: #e37575;
      }

      .cls-11, .cls-16, .cls-35 {
        fill: #515151;
      }

      .cls-12, .cls-17, .cls-18 {
        fill: #ff7575;
      }

      .cls-13, .cls-14, .cls-33 {
        fill: #477ce0;
      }

      .cls-14 {
        opacity: 0.28;
      }

      .cls-15 {
        fill: #5678ff;
      }

      .cls-18 {
        opacity: 0.22;
      }

      .cls-19 {
        fill: #a8baff;
      }

      .cls-20 {
        fill: url(#linear-gradient-3);
      }

      .cls-21 {
        opacity: 0.44;
      }

      .cls-22 {
        clip-path: url(#clip-path);
      }

      .cls-23, .cls-45 {
        fill: #fff;
      }

      .cls-24 {
        fill: url(#linear-gradient-4);
      }

      .cls-25 {
        clip-path: url(#clip-path-2);
      }

      .cls-26 {
        fill: #76baff;
      }

      .cls-27 {
        fill: #91cfff;
      }

      .cls-28 {
        fill: #bfe3ff;
      }

      .cls-29 {
        clip-path: url(#clip-path-3);
      }

      .cls-30 {
        fill: url(#linear-gradient-5);
      }

      .cls-31 {
        clip-path: url(#clip-path-5);
      }

      .cls-32, .cls-34 {
        fill: #ffd16e;
      }

      .cls-34 {
        opacity: 0.37;
      }

      .cls-35 {
        opacity: 0.24;
      }

      .cls-36 {
        fill: #94c6ff;
      }

      .cls-37 {
        fill: #f1b81a;
      }

      .cls-38, .cls-40 {
        fill: #ff5959;
      }

      .cls-39 {
        fill: url(#linear-gradient-6);
      }

      .cls-41 {
        fill: #284feb;
      }

      .cls-42 {
        opacity: 0.53;
      }

      .cls-43 {
        fill: #73abff;
      }

      .cls-44 {
        fill: #66adff;
      }

      .cls-46 {
        fill: #c2ddff;
      }

      .cls-47 {
        fill: url(#linear-gradient-7);
      }

      .cls-48 {
        fill: url(#linear-gradient-8);
      }

      .cls-49 {
        fill: url(#linear-gradient-9);
      }

      .cls-50 {
        fill: url(#linear-gradient-10);
      }

      .cls-51 {
        fill: #ff4d4d;
        font-size: 25px;
        font-family: Helvetica;
      }

      .cls-52, .cls-54 {
        fill: #606060;
        font-family: SourceSansPro-Regular, Source Sans Pro;
      }

      .cls-52 {
        font-size: 13px;
      }

      .cls-53 {
        fill: none;
      }

      .cls-54 {
        font-size: 10px;
      }

      .cls-55, .cls-56 {
        stroke: none;
      }

      .cls-56 {
        fill: #ffacac;
      }

      .cls-57 {
        filter: url(#Path_19482);
      }

      .cls-58 {
        filter: url(#_171127_landingspecial_sepulsa);
      }
    </style>
    <filter id="_171127_landingspecial_sepulsa" x="0" y="0" width="348" height="179" filterUnits="userSpaceOnUse">
      <feOffset dy="4" input="SourceAlpha"/>
      <feGaussianBlur stdDeviation="6" result="blur"/>
      <feFlood flood-color="#0c1e38" flood-opacity="0.11"/>
      <feComposite operator="in" in2="blur"/>
      <feComposite in="SourceGraphic"/>
    </filter>
    <linearGradient id="linear-gradient" x1="0.618" y1="0.469" x2="-0.342" y2="0.723" gradientUnits="objectBoundingBox">
      <stop offset="0.228" stop-color="#e8f4ff"/>
      <stop offset="0.361" stop-color="#ebf4ff"/>
      <stop offset="0.754" stop-color="#f0f6ff"/>
    </linearGradient>
    <linearGradient id="linear-gradient-2" x1="3.183" y1="4.766" x2="2.721" y2="5.171" xlink:href="#linear-gradient"/>
    <linearGradient id="linear-gradient-3" x1="0.265" y1="1.048" x2="0.77" y2="-0.129" gradientUnits="objectBoundingBox">
      <stop offset="0.228" stop-color="#4f75ff"/>
      <stop offset="0.406" stop-color="#5989ff"/>
      <stop offset="0.592" stop-color="#6097ff"/>
      <stop offset="0.754" stop-color="#639cff"/>
    </linearGradient>
    <clipPath id="clip-path">
      <path id="Path_19064" data-name="Path 19064" class="cls-1" d="M197.99,148.719h35.373a1.637,1.637,0,0,1,1.608,1.627l3,54.337a2.379,2.379,0,0,1-2.229,2.538H198.905a1.644,1.644,0,0,1-1.61-1.687l-1.536-54.347A2.375,2.375,0,0,1,197.99,148.719Z" transform="translate(-195.758 -148.719)"/>
    </clipPath>
    <linearGradient id="linear-gradient-4" x1="0.386" y1="1.139" x2="0.633" y2="-0.242" gradientUnits="objectBoundingBox">
      <stop offset="0.228" stop-color="#fff"/>
      <stop offset="0.407" stop-color="#f9faff"/>
      <stop offset="0.754" stop-color="#f5f7ff"/>
    </linearGradient>
    <clipPath id="clip-path-2">
      <circle id="Ellipse_1034" data-name="Ellipse 1034" class="cls-1" cx="2.703" cy="2.703" r="2.703" transform="translate(0 5.261) rotate(-76.717)"/>
    </clipPath>
    <clipPath id="clip-path-3">
      <circle id="Ellipse_1036" data-name="Ellipse 1036" class="cls-1" cx="2.703" cy="2.703" r="2.703"/>
    </clipPath>
    <linearGradient id="linear-gradient-5" x1="0.408" y1="1.252" x2="0.601" y2="-0.379" gradientUnits="objectBoundingBox">
      <stop offset="0.228" stop-color="#f5f7ff"/>
      <stop offset="0.407" stop-color="#fafbff"/>
      <stop offset="0.754" stop-color="#fff"/>
    </linearGradient>
    <clipPath id="clip-path-5">
      <circle id="Ellipse_1040" data-name="Ellipse 1040" class="cls-1" cx="2.703" cy="2.703" r="2.703" transform="translate(0 3.822) rotate(-45)"/>
    </clipPath>
    <linearGradient id="linear-gradient-6" x1="0.464" y1="0.869" x2="0.689" y2="-0.072" xlink:href="#linear-gradient-4"/>
    <linearGradient id="linear-gradient-7" x1="0.625" y1="0.422" x2="0.33" y2="0.935" gradientUnits="objectBoundingBox">
      <stop offset="0.228" stop-color="#f5faff"/>
      <stop offset="0.242" stop-color="#f4f9ff"/>
      <stop offset="0.754" stop-color="#f0f6ff"/>
    </linearGradient>
    <linearGradient id="linear-gradient-8" x1="0.62" y1="0.456" x2="0.292" y2="1.566" xlink:href="#linear-gradient-7"/>
    <linearGradient id="linear-gradient-9" x1="0.188" y1="0.626" x2="0.591" y2="0.36" gradientUnits="objectBoundingBox">
      <stop offset="0.228" stop-color="#f5f9ff"/>
      <stop offset="0.407" stop-color="#fafcff"/>
      <stop offset="0.754" stop-color="#fff"/>
    </linearGradient>
    <linearGradient id="linear-gradient-10" x1="0.28" y1="0.651" x2="0.681" y2="0.538" xlink:href="#linear-gradient-9"/>
    <filter id="Path_19482" x="169" y="88" width="146" height="42" filterUnits="userSpaceOnUse">
      <feOffset dy="3" input="SourceAlpha"/>
      <feGaussianBlur stdDeviation="3" result="blur-2"/>
      <feFlood flood-color="#404040" flood-opacity="0"/>
      <feComposite operator="in" in2="blur-2"/>
      <feComposite in="SourceGraphic"/>
    </filter>
  </defs>
  <g id="Group_16206" data-name="Group 16206" transform="translate(2 -371)">
    <g class="cls-58" transform="matrix(1, 0, 0, 1, -2, 371)">
      <path id="_171127_landingspecial_sepulsa-2" data-name="171127_landingspecial_sepulsa" class="cls-2" d="M5,0H307a5,5,0,0,1,5,5V138a5,5,0,0,1-5,5H5a5,5,0,0,1-5-5V5A5,5,0,0,1,5,0Z" transform="translate(18 14)"/>
    </g>
    <g id="Group_11268" data-name="Group 11268" transform="translate(-1775.899 -166.35)">
      <path id="Path_19191" data-name="Path 19191" class="cls-3" d="M1928.854,594.106c-.308-.09-.642-.164-.959-.284a1.264,1.264,0,0,1-.875-1.444,5.607,5.607,0,0,1,.247-1.095,10.945,10.945,0,0,1,2.6-4.232,2.527,2.527,0,0,1,1.105-.709,1.366,1.366,0,0,1,1.829,1.514,6.84,6.84,0,0,1-.468,1.665,18.305,18.305,0,0,1-2.073,3.633A1.942,1.942,0,0,1,1928.854,594.106Z" transform="translate(-7.112 -15.996)"/>
      <path id="Path_19192" data-name="Path 19192" class="cls-3" d="M1949.346,596.046a4.907,4.907,0,0,1-.084.651,15.521,15.521,0,0,1-2.294,5.221,2.566,2.566,0,0,1-.631.66,1.045,1.045,0,0,1-1.7-.824,3.771,3.771,0,0,1,.118-1.113c.234-.926.484-1.85.776-2.759a7.738,7.738,0,0,1,1.463-2.566,2.556,2.556,0,0,1,.36-.363,1.266,1.266,0,0,1,1.436-.188C1949.237,594.986,1949.366,595.407,1949.346,596.046Z" transform="translate(-17.207 -20.779)"/>
      <path id="Path_19193" data-name="Path 19193" class="cls-3" d="M1966.468,662.982a4.864,4.864,0,0,1-.01.656,15.526,15.526,0,0,1-1.688,5.447,2.555,2.555,0,0,1-.553.727,1.045,1.045,0,0,1-1.785-.626,3.763,3.763,0,0,1-.009-1.12c.128-.947.271-1.893.459-2.829a7.744,7.744,0,0,1,1.163-2.716,2.588,2.588,0,0,1,.317-.4,1.266,1.266,0,0,1,1.4-.35C1966.24,661.941,1966.415,662.345,1966.468,662.982Z" transform="translate(-27.38 -59.2)"/>
      <path id="Path_19194" data-name="Path 19194" class="cls-3" d="M1959.15,609.329c.254-.313.455-.589.687-.838a3.636,3.636,0,0,1,.613-.533.838.838,0,0,1,.964-.011.915.915,0,0,1,.467.952,3.713,3.713,0,0,1-.25.882,22.829,22.829,0,0,1-2.548,4.657,1.956,1.956,0,0,1-1.362,1c-.932-.266-1.151-.533-1.075-1.406a4.692,4.692,0,0,1,.2-1c.256-.812.511-1.627.825-2.417C1958.036,609.692,1958.147,609.628,1959.15,609.329Z" transform="translate(-24.085 -28.329)"/>
      <path id="Path_19195" data-name="Path 19195" class="cls-3" d="M1932.637,620.836c1,.311,1.211.595,1.13,1.468a3.724,3.724,0,0,1-.088.5,15.524,15.524,0,0,1-1.92,4.486c-.375.618-.492.68-1.244.965-.989-.244-1.277-.6-1.155-1.554a14.478,14.478,0,0,1,.339-1.49c.109-.461.222-.921.335-1.381a1.26,1.26,0,0,1,.111-.39,9.63,9.63,0,0,1,1.744-2.248A3.074,3.074,0,0,1,1932.637,620.836Z" transform="translate(-8.446 -35.797)"/>
      <path id="Path_19196" data-name="Path 19196" class="cls-3" d="M1960.089,566.079c.991.361,1.225.755.99,1.69a4.651,4.651,0,0,1-.351.956c-.43.85-.863,1.7-1.34,2.522a2.968,2.968,0,0,1-1.243,1.279h-.8c-.137-.152-.375-.3-.431-.5a3.086,3.086,0,0,1,.088-2.558,14.267,14.267,0,0,1,1.569-2.5A2.3,2.3,0,0,1,1960.089,566.079Z" transform="translate(-24.113 -4.428)"/>
      <path id="Path_19197" data-name="Path 19197" class="cls-3" d="M1917.709,611.025a7.714,7.714,0,0,1,1.061.456.738.738,0,0,1,.209,1.148,4.293,4.293,0,0,0-.741,1.435,6.371,6.371,0,0,1-1.7,2.638,5.764,5.764,0,0,0-.426.567.824.824,0,0,1-1.413-.262,1.326,1.326,0,0,1-.106-.595,8.4,8.4,0,0,1,1.832-4.69,2.89,2.89,0,0,1,.712-.566A2.04,2.04,0,0,1,1917.709,611.025Z" transform="translate(0 -30.177)"/>
      <path id="Path_19198" data-name="Path 19198" class="cls-3" d="M1971.28,583.122a9.464,9.464,0,0,1,1.725-2.9,3.024,3.024,0,0,1,.771-.653,1.073,1.073,0,0,1,1.644.973,3.65,3.65,0,0,1-.206,1.1,11.617,11.617,0,0,1-1.57,3.078,3.136,3.136,0,0,1-.553.594,1.1,1.1,0,0,1-1.244.138.964.964,0,0,1-.506-.934C1971.33,584.105,1971.306,583.7,1971.28,583.122Z" transform="translate(-32.476 -12.064)"/>
      <path id="Path_19199" data-name="Path 19199" class="cls-3" d="M1944.541,684.92a9.463,9.463,0,0,1,.489-3.341,3.03,3.03,0,0,1,.464-.9,1.074,1.074,0,0,1,1.891.273,3.65,3.65,0,0,1,.227,1.091,11.6,11.6,0,0,1-.279,3.444,3.172,3.172,0,0,1-.285.76,1.1,1.1,0,0,1-1.1.6.964.964,0,0,1-.823-.671C1944.963,685.81,1944.787,685.446,1944.541,684.92Z" transform="translate(-17.156 -69.824)"/>
      <path id="Path_19200" data-name="Path 19200" class="cls-3" d="M1973.821,626.869c.31,0,.718,0,1.126,0a3.562,3.562,0,0,1,.376.041,1.09,1.09,0,0,1,.617,1.3,7.029,7.029,0,0,1-1.136,2.828,2.661,2.661,0,0,1-1.106,1.121,3.058,3.058,0,0,1-.549.035,1.13,1.13,0,0,1-1.051-.956,2.3,2.3,0,0,1-.014-.713,9.867,9.867,0,0,1,.809-2.74A1.724,1.724,0,0,1,1973.821,626.869Z" transform="translate(-32.925 -39.253)"/>
      <path id="Path_19201" data-name="Path 19201" class="cls-3" d="M1921.34,655.49a1.129,1.129,0,0,1-.577-1.381,10.7,10.7,0,0,1,1.28-3.212c.465-.751.931-.9,1.938-.641a.719.719,0,0,1,.571.65,2.661,2.661,0,0,1-.043.908,8.241,8.241,0,0,1-1.629,3.152A1.332,1.332,0,0,1,1921.34,655.49Z" transform="translate(-3.508 -52.585)"/>
      <path id="Path_19202" data-name="Path 19202" class="cls-3" d="M1952.477,631.364a7.484,7.484,0,0,1-1.666,3.4,2.73,2.73,0,0,1-.855.7,1.022,1.022,0,0,1-1.483-.875,2.353,2.353,0,0,1,.068-.809,4.646,4.646,0,0,1,1.636-2.642c.219-.161.4-.369.622-.529a.955.955,0,0,1,1.581.4A2.015,2.015,0,0,1,1952.477,631.364Z" transform="translate(-19.405 -41.246)"/>
      <path id="Path_19203" data-name="Path 19203" class="cls-3" d="M1936.755,665.287a7.488,7.488,0,0,1,.276,3.78,2.731,2.731,0,0,1-.385,1.038,1.022,1.022,0,0,1-1.722-.008,2.347,2.347,0,0,1-.349-.733,4.648,4.648,0,0,1,.082-3.107c.108-.249.161-.522.271-.771a.955.955,0,0,1,1.567-.451A1.96,1.96,0,0,1,1936.755,665.287Z" transform="translate(-11.319 -60.98)"/>
      <path id="Path_19204" data-name="Path 19204" class="cls-3" d="M1952.89,652.387l.785.662a1.367,1.367,0,0,1,.093,1.1c-.064.229-.144.454-.226.678-.269.73-.542,1.459-.853,2.293-.176.1-.428.273-.7.4-.948.438-1.647-.013-1.625-1.039a2.2,2.2,0,0,1,.026-.305,10.935,10.935,0,0,1,.938-3.01C1951.672,652.443,1951.918,652.341,1952.89,652.387Z" transform="translate(-20.492 -53.867)"/>
      <path id="Path_19205" data-name="Path 19205" class="cls-3" d="M2003.3,563.3a2.559,2.559,0,0,1-.291-2.776,5.278,5.278,0,0,1,1.322-1.661,6.329,6.329,0,0,1,.893-.508c1.037.313,1.312.7,1.08,1.56a8.683,8.683,0,0,1-1.639,3.138A1.03,1.03,0,0,1,2003.3,563.3Z" transform="translate(-50.485)"/>
      <path id="Path_19206" data-name="Path 19206" class="cls-3" d="M1982.726,648.061l.735.734a1.8,1.8,0,0,1-.149,1.514,7.386,7.386,0,0,1-1.765,2.726,2.25,2.25,0,0,1-.513.073.85.85,0,0,1-.894-.909,2.313,2.313,0,0,1,.115-.8c.323-.9.667-1.79,1.025-2.675A1.049,1.049,0,0,1,1982.726,648.061Z" transform="translate(-37.552 -51.353)"/>
      <path id="Path_19207" data-name="Path 19207" class="cls-3" d="M1989.717,599.186c.446-.191.757-.323,1.067-.458a1.048,1.048,0,0,1,1.428.408,2.808,2.808,0,0,1,.009.79,4.476,4.476,0,0,1-1.547,2.45,1.438,1.438,0,0,1-.741.277,1.031,1.031,0,0,1-1.164-1,2.938,2.938,0,0,1,.434-1.751A8.7,8.7,0,0,1,1989.717,599.186Z" transform="translate(-42.49 -23.058)"/>
    </g>
    <path id="Intersection_2" data-name="Intersection 2" class="cls-4" d="M1451.372,3195.67v-.89l-1.427-1.49a13.469,13.469,0,0,1-.685-3.6c-.065-.264-.131-.528-.185-.743.138-.165.223-.268.324-.391l-.3-.484v-1.13l-.489-.574v-1.047l.239-.132c-.014-.454.115-.842-.2-1.081.355-.383.149-.815.209-1.2l-.491-.562c-.065-2.03-.048-2.215.222-2.558v-.7l-.054.014-.279-.859-.46-.52a5.838,5.838,0,0,0,.281-2.678l-.736-.785v-.678l-.234-.346v-.806l.408-.382.414-1.456.828-.533c.118-.388.2-.648.314-1.031v-2.224c-.239-.691-.463-1.338-.719-2.08v-.487c-.454-.47-.174-1.065-.27-1.682l.256-.141v-1.533l-2.092-1.933c.13-.293.222-.5.331-.747v-.79l-.251-.3v-.706l-.313-.394.31-.178v-1.809c-.22-.594-.4-1.064-.57-1.528l-.874-.043-.564-.566v-.931l.489-.437v-.962l-.221-.207c-.018-.207-.036-.411-.047-.533-.293-.178-.524-.317-.748-.454v-.744l-1.025-1.449.523-.463V3144.7l-.252-.137v-2.189l-.4-.579c-.115-.352-.206-.627-.3-.914.133-.243.284-.516.454-.823v-.8l-.493-.853.239-.3v-.9l-.247-.293v-1.478l-.248-.262v-.725a3.038,3.038,0,0,0,.2-2.056c-.771-.516-1.641-.834-1.976-1.778v-.823l-.25-.116v-1.693l-.263-.094v-3.881l-.094.068-.4-.555v-1.983l-.261-.311v-1.359l-.27-.594.518-.594v-3.809l-.25-.138v-1.848c-.411-.287-.8-.563-1.2-.836-.014-.01-.041,0-.063,0v-1.518c.062-.011.175-.016.178-.033a.813.813,0,0,1,.136-.381H1522a5,5,0,0,1,5,5v32.365h-.011c-.013.241-.024.448-.034.619l-.622.593a.744.744,0,0,0-.786-.241,2.083,2.083,0,0,1-.362.013v1.986l-.732.045c-.106.231-.154.529-.328.676a7.775,7.775,0,0,0-1.265,1.521c-.136.189-.412.275-.671.439-.014.074-.042.214-.068.337l-.354.171c0-.031,0-.061,0-.092l-.9-.042-.635.511h-.976c-.616.762-1.563.508-2.318.721-.2.515.15,1.082-.362,1.466v.93l-.6.09-.192.417-.954.222v1.722c-.484-.267-.812-.023-1.124.22a1.167,1.167,0,0,1-.673.338l-.451.316c-.01.128-.025.313-.041.5l-.535.461c-.219-.327-.409-.608-.625-.93-.573-.2-1,.278-1.524.476a3.06,3.06,0,0,0-.5,0,1.492,1.492,0,0,1-1.121-.254l-.471.439v1.163c-.492.771-.14,1.569-.252,2.176l.311.768a10.823,10.823,0,0,1-1.3.906,4.382,4.382,0,0,0-1.313,1.127v.786a.937.937,0,0,0-.743.4c-.2.213-.389.427-.714.4l-.057.538a11.47,11.47,0,0,0-.743.982,3.7,3.7,0,0,1-1.139,1.163,3.871,3.871,0,0,1-1.794.8,1.019,1.019,0,0,0-.324.167c-.025.275-.049.538-.075.826h-1.273c-.2.19-.372.346-.521.486h-.879l-.321-.372v-.81l-.635-.385a10.365,10.365,0,0,0-.16,1.812h-1.119l-1.08.672c-.034.535-.375.716-1.2.656-.144.376-.3.771-.482,1.254l-1.047.739-.634-.254h-1.274l-.545.475a2.044,2.044,0,0,1-.212,0c-.152,0-.3-.008-.357.061-.33.374-.67.173-1.019.1a6.885,6.885,0,0,0-1.266.894.682.682,0,0,1-.6.265l-.5.384v.74a.981.981,0,0,0-.178.193,3.737,3.737,0,0,1-1.727,1.743,6.5,6.5,0,0,0-.977.731c-.273.21-.543.422-.876.681a2.54,2.54,0,0,1-2.171,1.42l-.82.228c-.2.269-.441.607-.672.927h-.758c-1.019.564-1.643,1.695-2.839,2.016h-.723l-.249-.208h-.867c-.035.258-.065.477-.1.712h-1.49l-.917.515h-.995l-1.534,1.27h-1.14a12.313,12.313,0,0,1-1.679,1.26,6.669,6.669,0,0,0-1.4,1,1.884,1.884,0,0,1-1.264.538l-.528.481h-.767c-.736,1.213-2.067,1.8-3.172,2.656a11.628,11.628,0,0,1-2.353,1.667,1.5,1.5,0,0,1-.468-.013,1.349,1.349,0,0,0-1.1.217C1452.287,3197.308,1451.842,3196.511,1451.372,3195.67Z" transform="translate(-1415 -2725.102)"/>
    <g id="Group_11265" data-name="Group 11265" transform="translate(-39.523 323.896)">
      <g id="Group_11211" data-name="Group 11211" transform="translate(93.324 78.832)">
        <g id="Group_11206" data-name="Group 11206" transform="translate(43.934 3.198)">
          <path id="Path_18995" data-name="Path 18995" class="cls-5" d="M328.326,123.255c.034-6.1,3.191-12.595,5.234-14.514C333.56,108.741,332.177,119.812,328.326,123.255Z" transform="translate(-317.478 -108.741)"/>
          <path id="Path_18996" data-name="Path 18996" class="cls-6" d="M325.39,140.969c2.952-5.334,9.072-9.4,11.938-10.02C337.328,130.949,330.708,139.949,325.39,140.969Z" transform="translate(-315.277 -125.387)"/>
          <path id="Path_18997" data-name="Path 18997" class="cls-7" d="M321.741,160.435c4.687-4.812,11.95-7.755,14.9-7.847C336.642,152.588,327.171,160.4,321.741,160.435Z" transform="translate(-312.542 -141.606)"/>
          <path id="Path_18998" data-name="Path 18998" class="cls-7" d="M315.994,184.937c5.534-4.292,13.247-6.551,16.17-6.394C332.164,178.543,321.347,185.357,315.994,184.937Z" transform="translate(-308.235 -161.054)"/>
          <path id="Path_18999" data-name="Path 18999" class="cls-7" d="M314.9,200.388c5.711-3.536,13.47-4.638,16.356-4.014C331.254,196.375,320.175,201.668,314.9,200.388Z" transform="translate(-307.413 -174.301)"/>
          <path id="Path_19000" data-name="Path 19000" class="cls-7" d="M314.517,213.381c5.341-4.074,12.956-5.923,15.889-5.582C330.406,207.8,319.894,214.142,314.517,213.381Z" transform="translate(-307.128 -182.958)"/>
          <path id="Path_19001" data-name="Path 19001" class="cls-7" d="M313.161,228.531c5.08-4.394,12.568-6.708,15.516-6.548C328.677,221.984,318.574,228.961,313.161,228.531Z" transform="translate(-306.111 -193.614)"/>
          <path id="Path_19002" data-name="Path 19002" class="cls-7" d="M309.619,252.971c4.508-4.98,11.659-8.187,14.6-8.386C324.224,244.585,315.044,252.739,309.619,252.971Z" transform="translate(-303.456 -210.56)"/>
          <path id="Path_19003" data-name="Path 19003" class="cls-7" d="M308.939,123.419c3.2,5.9,3.856,13.714,3.067,16.56C312.005,139.979,307.358,128.614,308.939,123.419Z" transform="translate(-302.701 -119.743)"/>
          <path id="Path_19004" data-name="Path 19004" class="cls-7" d="M306.768,154.956c2.581,6.2,2.431,14.037,1.355,16.787C308.123,171.743,304.664,159.962,306.768,154.956Z" transform="translate(-300.811 -143.38)"/>
          <path id="Path_19005" data-name="Path 19005" class="cls-7" d="M297.882,187.41c3.465,5.755,4.469,13.527,3.809,16.4C301.691,203.815,296.537,192.671,297.882,187.41Z" transform="translate(-294.491 -167.706)"/>
          <path id="Path_19006" data-name="Path 19006" class="cls-7" d="M288.382,207.641c4.027,5.377,5.808,13.008,5.441,15.938C293.823,223.579,287.573,213.011,288.382,207.641Z" transform="translate(-287.485 -182.869)"/>
          <path id="Path_19007" data-name="Path 19007" class="cls-7" d="M285.028,227.936c4.465,5.018,6.883,12.473,6.764,15.423C291.792,243.359,284.674,233.355,285.028,227.936Z" transform="translate(-285.015 -198.081)"/>
        </g>
        <g id="Group_11207" data-name="Group 11207" transform="translate(80.194 32.566)">
          <path id="Path_19008" data-name="Path 19008" class="cls-7" d="M472.756,242.428c3-5.309,8.917-9.45,11.636-10.132C484.392,232.3,477.8,241.295,472.756,242.428Z" transform="translate(-461.992 -230.717)"/>
          <path id="Path_19009" data-name="Path 19009" class="cls-7" d="M468.115,265.179c5.174-3.223,12.5-3.794,15.305-2.943C483.42,262.236,473.258,266.877,468.115,265.179Z" transform="translate(-458.514 -252.893)"/>
          <path id="Path_19010" data-name="Path 19010" class="cls-7" d="M458.619,281.359c6.436-1.922,14.214-.959,16.836.4C475.455,281.756,463.379,283.972,458.619,281.359Z" transform="translate(-451.396 -266.681)"/>
          <path id="Path_19011" data-name="Path 19011" class="cls-7" d="M443.779,298.471c6.923-1.056,14.76.724,17.237,2.284C461.016,300.754,448.25,301.443,443.779,298.471Z" transform="translate(-440.273 -280.078)"/>
          <path id="Path_19012" data-name="Path 19012" class="cls-7" d="M438.539,306.508c6.71-.31,14.024,2.5,16.242,4.454C454.781,310.962,442.527,310.193,438.539,306.508Z" transform="translate(-436.346 -286.323)"/>
          <path id="Path_19013" data-name="Path 19013" class="cls-7" d="M429.782,320.79c6.648-.96,14.2,1.131,16.6,2.857C446.379,323.647,434.108,324.072,429.782,320.79Z" transform="translate(-429.782 -296.865)"/>
          <path id="Path_19014" data-name="Path 19014" class="cls-7" d="M461.634,225.992c-.076,6.717-3.306,13.857-5.38,15.959C456.254,241.951,457.725,229.761,461.634,225.992Z" transform="translate(-449.623 -225.992)"/>
          <path id="Path_19015" data-name="Path 19015" class="cls-7" d="M440.5,253c-.764,6.674-4.708,13.446-6.986,15.324C433.516,268.321,436.228,256.346,440.5,253Z" transform="translate(-432.581 -246.233)"/>
        </g>
        <g id="Group_11208" data-name="Group 11208" transform="translate(0 0)">
          <path id="Path_19016" data-name="Path 19016" class="cls-8" d="M142.637,109.665c-.841-6.038-4.832-12.061-7.111-13.692C135.526,95.973,138.364,106.763,142.637,109.665Z" transform="translate(-129.034 -95.973)"/>
          <path id="Path_19017" data-name="Path 19017" class="cls-7" d="M128.01,129.494c-3.633-4.9-10.238-8.112-13.161-8.349C114.849,121.145,122.6,129.188,128.01,129.494Z" transform="translate(-113.536 -114.84)"/>
          <path id="Path_19018" data-name="Path 19018" class="cls-7" d="M125.418,149.39c-5.283-4.148-12.873-6.1-15.81-5.8C109.608,143.587,120.031,150.076,125.418,149.39Z" transform="translate(-109.608 -131.639)"/>
          <path id="Path_19019" data-name="Path 19019" class="cls-7" d="M130.6,173.159c-6.054-3.521-14-4.737-16.874-4.194C113.729,168.964,125.354,174.285,130.6,173.159Z" transform="translate(-112.697 -150.589)"/>
          <path id="Path_19020" data-name="Path 19020" class="cls-7" d="M133.248,187.468c-6.129-2.748-13.966-2.811-16.744-1.81C116.5,185.659,128.186,189.436,133.248,187.468Z" transform="translate(-114.777 -162.751)"/>
          <path id="Path_19021" data-name="Path 19021" class="cls-7" d="M136.682,200.779c-5.833-3.33-13.627-4.153-16.489-3.426C120.193,197.353,131.454,202.246,136.682,200.779Z" transform="translate(-117.542 -171.777)"/>
          <path id="Path_19022" data-name="Path 19022" class="cls-7" d="M141.128,215.743c-5.618-3.682-13.346-4.983-16.247-4.433C124.881,211.31,135.82,216.886,141.128,215.743Z" transform="translate(-121.056 -182.331)"/>
          <path id="Path_19023" data-name="Path 19023" class="cls-7" d="M150.581,239.44c-5.128-4.338-12.641-6.569-15.588-6.376C134.993,233.063,145.172,239.928,150.581,239.44Z" transform="translate(-128.635 -198.718)"/>
          <path id="Path_19024" data-name="Path 19024" class="cls-7" d="M171.162,105.312c-2.391,6.277-2,14.1-.844,16.82C170.317,122.132,173.417,110.252,171.162,105.312Z" transform="translate(-154.426 -102.973)"/>
          <path id="Path_19025" data-name="Path 19025" class="cls-7" d="M179.133,136.422c-1.736,6.489-.549,14.236.882,16.818C180.015,153.24,181.882,141.1,179.133,136.422Z" transform="translate(-161.072 -126.291)"/>
          <path id="Path_19026" data-name="Path 19026" class="cls-7" d="M189.429,167.231c-2.672,6.163-2.637,14-1.6,16.765C187.828,184,191.46,172.267,189.429,167.231Z" transform="translate(-167.746 -149.383)"/>
          <path id="Path_19027" data-name="Path 19027" class="cls-7" d="M198.107,185.964c-3.278,5.863-4.033,13.663-3.28,16.519C194.827,202.483,199.621,191.179,198.107,185.964Z" transform="translate(-173.281 -163.424)"/>
          <path id="Path_19028" data-name="Path 19028" class="cls-7" d="M200.671,205.611c-3.76,5.566-5.169,13.275-4.66,16.184C196.011,221.795,201.739,210.935,200.671,205.611Z" transform="translate(-174.294 -178.15)"/>
        </g>
        <g id="Group_11209" data-name="Group 11209" transform="translate(66.199 16.619)">
          <path id="Path_19029" data-name="Path 19029" class="cls-9" d="M367.039,192.3c.231-2.892-.68-5.753-.784-8.653a19.76,19.76,0,0,1,4.877-13.009,36,36,0,0,1,8.519-7.237,4.874,4.874,0,0,0-2.1-1c-2.384-.469-5.041,1.305-6.618,2.911s-2.77,3.511-4.259,5.18c-1.63,1.828-3.583,3.339-5.271,5.113a11.571,11.571,0,0,0-3.442,6.345c-.513,4.243,2.583,8.552,1.247,12.612-.847,2.575-3.244,4.256-5.389,5.913-4.159,3.214-8.127,7.586-8.166,12.841,0,.136,0,.271.007.406h10.019a32.842,32.842,0,0,1,4.05-7.817C362.7,201.615,366.622,197.5,367.039,192.3Z" transform="translate(-345.647 -162.322)"/>
          <path id="Path_19030" data-name="Path 19030" class="cls-10" d="M400.862,208.746c1.4-3.057,4.445-5.2,5.525-8.389,1.851-5.46-2.752-11.442-1.264-17.012.622-2.327,2.231-4.236,3.679-6.161s2.824-4.1,2.842-6.505a5.261,5.261,0,0,0-1.988-4.067,36,36,0,0,0-8.519,7.237,19.76,19.76,0,0,0-4.877,13.009c.1,2.9,1.015,5.761.784,8.653-.417,5.2-4.337,9.319-7.315,13.608a32.844,32.844,0,0,0-4.05,7.817h14.188C399.774,214.135,399.7,211.271,400.862,208.746Z" transform="translate(-375.652 -165.537)"/>
        </g>
        <g id="Group_11210" data-name="Group 11210" transform="translate(53.874 4.662)">
          <path id="Path_19031" data-name="Path 19031" class="cls-10" d="M344.882,155.666a17.329,17.329,0,0,0-1.424-7.253,28.482,28.482,0,0,1-2.043-7.141,14.221,14.221,0,0,1,3.5-9.877c2.533-2.8,5.3-11.39,5.651-16.747a5.509,5.509,0,0,0-2.465.18c-3.164.993-5.09,4.2-6.135,7.347s-1.531,6.528-3.215,9.384c-1.535,2.6-4.007,4.66-5.021,7.506-2.324,6.522,3.937,13.82,1.614,20.342-.877,2.461-10.551,10.3-10.643,18.532h8.815l8.315-14.5C343.227,161.006,344.657,158.466,344.882,155.666Z" transform="translate(-324.7 -114.584)"/>
          <path id="Path_19032" data-name="Path 19032" class="cls-10" d="M375.154,167.115c1.03-2.6,2.78-4.867,3.757-7.485,1.647-4.412.917-9.442-1.043-13.723a14.55,14.55,0,0,1-1.585-5.561c-.12-3.856,3.083-7.272,3.913-12.17,1.088-6.416.456-10.255-.358-11.569a4.041,4.041,0,0,0-2.894-1.767c-.347,5.357-3.118,13.944-5.651,16.747a14.221,14.221,0,0,0-3.5,9.877,28.477,28.477,0,0,0,2.043,7.141,17.329,17.329,0,0,1,1.424,7.253c-.225,2.8-1.655,5.34-3.053,7.776l-8.315,14.5h11.213C372.584,172.02,373.7,170.781,375.154,167.115Z" transform="translate(-351.078 -114.777)"/>
        </g>
        <path id="Path_19033" data-name="Path 19033" class="cls-10" d="M232.966,428.259H189.675a7.035,7.035,0,0,1-4.6-1.758l-1.192-1.318c-.874-.967-.235-1.758,1.42-1.758H228.6a7.035,7.035,0,0,1,4.6,1.758l1.192,1.318C235.26,427.468,234.622,428.259,232.966,428.259Z" transform="translate(-164.987 -341.408)"/>
      </g>
      <g id="Group_11264" data-name="Group 11264" transform="translate(87.882 73.104)">
        <g id="Group_11215" data-name="Group 11215" transform="translate(10.056 24.375)">
          <path id="Path_19034" data-name="Path 19034" class="cls-11" d="M144.111,170.78a2.7,2.7,0,0,1,2.9.138c.363.3.59.883,1,1.131,1.019.615,1.546.459,1.932,1.595a2.06,2.06,0,0,1-1.343,2.7c-1.142.511-2.542.209-3.527.368a5.1,5.1,0,0,1-1.7-.032,1.2,1.2,0,0,1-.8-1.8,5.058,5.058,0,0,0,.49-1.342C143.3,172.589,143.337,171.251,144.111,170.78Z" transform="translate(-138.811 -170.422)"/>
          <path id="Path_19035" data-name="Path 19035" class="cls-12" d="M186.595,357.012s.238,2.765.434,3.456.684,2.7,1.012,2.744c.423.061-.038-1.654-.2-2.91s-.213-3.227-.213-3.227l-.512-.42Z" transform="translate(-171.926 -310.008)"/>
          <path id="Path_19036" data-name="Path 19036" class="cls-12" d="M138.243,359.818l-.24,2.336s-1.136.579-2.506,1.244c-.755.366-.448.649,3.082-.75l.44-2.855Z" transform="translate(-133.374 -312.36)"/>
          <path id="Path_19037" data-name="Path 19037" class="cls-11" d="M168.48,232.8c1.337,2.012,2.149,12.979,2.494,16.09.439,3.96.477,11.859.663,15.752l-1.437-.057c-.615-4.526-2.427-13.41-2.7-15.022-.777-4.683-2.536-12.213-2.682-16.613C164.73,230.159,166.727,230.159,168.48,232.8Z" transform="translate(-155.605 -215.704)"/>
          <path id="Path_19038" data-name="Path 19038" class="cls-13" d="M148,195.5c.967-1.839,5.742-2.744,7.065-.169l.1,9.5-5.409-4.317A8.358,8.358,0,0,1,148,195.5Z" transform="translate(-142.995 -187.898)"/>
          <path id="Path_19039" data-name="Path 19039" class="cls-14" d="M171.466,254.016a7.136,7.136,0,0,0,2.045.578c.978.081,1.175-.34,1.175-.34l-.191-1.177Z" transform="translate(-160.586 -232.374)"/>
          <path id="Path_19040" data-name="Path 19040" class="cls-12" d="M147.693,180.916a4.166,4.166,0,0,0,.243,1.59c.263.787.883,2.209,2.054,1.815,1.051-.354,1.566-2.169,1.282-3.065A4.893,4.893,0,0,0,147.693,180.916Z" transform="translate(-142.762 -178.149)"/>
          <path id="Path_19041" data-name="Path 19041" class="cls-11" d="M148.589,239.549c-.376.476-1.447,11.773-1.813,16.227-.18,2.2-.514,12.494-.369,15.281l.942.049c.284-1.653.7-2.689,1.082-4.359a48.3,48.3,0,0,0,1.279-9.4,47.617,47.617,0,0,1,1.21-5.116c.655-2.6,1.506-7.061.986-9.7-.615-3.121-.848-1.12-1.006-1.467a1.75,1.75,0,0,0-1.562-1.175C149.105,239.847,148.507,239.629,148.589,239.549Z" transform="translate(-141.777 -222.235)"/>
          <path id="Path_19042" data-name="Path 19042" class="cls-12" d="M154.42,185.464a1.752,1.752,0,0,0,1.446.534c.909,0,2.063-.443,2.066-1.056,0,0-.783-.046-.934-.292a24.628,24.628,0,0,1-.731-3.039c-.263.037-.649,1.529-.915,1.556a2.87,2.87,0,0,1,.142,1.516C155.332,185.07,155.332,185.07,154.42,185.464Z" transform="translate(-147.81 -178.808)"/>
          <path id="Path_19043" data-name="Path 19043" class="cls-13" d="M151.242,207.921a3.084,3.084,0,0,0-.516,1.6c.181.9.3,3.169.3,3.169l.4,5.921a12.755,12.755,0,0,0,4.487,1.559A3.631,3.631,0,0,0,159.6,218.4l-2.049-8.629-.534,2Z" transform="translate(-145.03 -198.529)"/>
          <path id="Path_19044" data-name="Path 19044" class="cls-13" d="M135.349,370.849s-.387.17-.337.281a21.572,21.572,0,0,0,2.655-.873l-.052.331-3.146,1.11s-.537.21-.574,0S135.349,370.849,135.349,370.849Z" transform="translate(-132.425 -320.204)"/>
          <path id="Path_19045" data-name="Path 19045" class="cls-15" d="M187.931,369.941a17.224,17.224,0,0,0,.972,2.512c.313.139-.056-2.173-.056-2.173s.695,3.129.324,3.2C188.576,373.589,187.931,369.941,187.931,369.941Z" transform="translate(-172.927 -319.967)"/>
          <path id="Path_19046" data-name="Path 19046" class="cls-12" d="M161.5,184.175c-.052-.057.163-.456.456-.717a.334.334,0,0,1,.409-.035c.093.073-.087.563-.178.7a2.735,2.735,0,0,1-.349.45.478.478,0,0,1-.244.152c-.1.019-.124-.048-.141-.135A.6.6,0,0,1,161.5,184.175Z" transform="translate(-153.065 -180.124)"/>
          <path id="Path_19047" data-name="Path 19047" class="cls-13" d="M164.087,195.8a4.455,4.455,0,0,1,.786.594c.8.8,1.543,3.234,1.692,4.649a8.611,8.611,0,0,1,.013,2.788,2.383,2.383,0,0,1-1.521.055c-.968-.344-.915.321-1.6-.416a6.748,6.748,0,0,1-1.94-2.547C161.192,199.754,163.865,195.666,164.087,195.8Z" transform="translate(-153.106 -189.443)"/>
          <path id="Path_19048" data-name="Path 19048" class="cls-13" d="M143.113,197.633c-1.009.554-2.091,3.42-2.228,4.205-.131.749-.31,1.5-.366,2.259a4.042,4.042,0,0,0,.138,1.951c.677,1.377.733,1.241,1.213.507.792-1.212,3.525-4.712,2.608-6.186C144.008,199.614,144.071,197.881,143.113,197.633Z" transform="translate(-137.352 -190.818)"/>
          <g id="Group_11212" data-name="Group 11212" transform="translate(4.558 3.36)">
            <path id="Path_19049" data-name="Path 19049" class="cls-16" d="M146.935,185.346c-.227,0-.492-.277-.63-.669a.894.894,0,0,1-.012-.7.268.268,0,0,1,.19-.134c.236-.037.526.248.673.666a.894.894,0,0,1,.012.7.263.263,0,0,1-.232.138Zm-.408-1.324h-.016a.085.085,0,0,0-.061.047.731.731,0,0,0,.027.546c.119.337.347.564.471.546a.085.085,0,0,0,.061-.048.729.729,0,0,0-.027-.546h0C146.869,184.245,146.654,184.021,146.527,184.021Z" transform="translate(-146.227 -183.838)"/>
          </g>
          <g id="Group_11213" data-name="Group 11213" transform="translate(5.955 3.204)">
            <path id="Path_19050" data-name="Path 19050" class="cls-16" d="M152.408,184.767c-.237,0-.482-.321-.572-.75a.893.893,0,0,1,.082-.7.266.266,0,0,1,.206-.108c.237,0,.488.316.578.75a.892.892,0,0,1-.082.7.267.267,0,0,1-.206.108Zm-.277-1.371h0a.084.084,0,0,0-.067.039.729.729,0,0,0-.046.545c.072.347.266.6.392.6h0a.084.084,0,0,0,.067-.039.729.729,0,0,0,.046-.545C152.451,183.653,152.257,183.4,152.131,183.4Z" transform="translate(-151.806 -183.213)"/>
          </g>
          <g id="Group_11214" data-name="Group 11214" transform="translate(5.329 3.726)">
            <rect id="Rectangle_6396" data-name="Rectangle 6396" class="cls-16" width="0.681" height="0.183" transform="translate(0 0.107) rotate(-9.062)"/>
          </g>
          <path id="Path_19051" data-name="Path 19051" class="cls-11" d="M160.36,180.731l.061,1.443.33-.09.366-.571-.061-.561Z" transform="translate(-152.262 -178.149)"/>
          <path id="Path_19052" data-name="Path 19052" class="cls-13" d="M133.866,216.031l-2.735,11.8,1.546.156a.78.78,0,0,0,.819-.532l3.158-9.619Z" transform="translate(-130.354 -204.607)"/>
          <path id="Path_19053" data-name="Path 19053" class="cls-11" d="M141.152,241.234l1.1-.234a.374.374,0,0,1,.433.25l.718,2.216a.373.373,0,0,1-.318.486l-1.009.1a.373.373,0,0,1-.385-.236l-.812-2.084A.373.373,0,0,1,141.152,241.234Z" transform="translate(-137.643 -223.316)"/>
          <path id="Path_19054" data-name="Path 19054" class="cls-14" d="M155.717,235.267a4.512,4.512,0,0,0,.936-.557c.319-.209.687-.159,1-.408a6.389,6.389,0,0,0,.735-.709,11.243,11.243,0,0,0,1.075-1.435c.314-.579.56-1.077.658-1.306a7.564,7.564,0,0,0,.8-2.44l-.142-.553c-.912-.462-2.348-.464-2.687-.024a31.269,31.269,0,0,0-2.735,5.981l-.174.152a4.48,4.48,0,0,0-.656-.341c-.285-.092-.509.224-.57.37s.356.706.356.706c-.536.37.433.56,1.284.6C155.639,235.294,155.678,235.282,155.717,235.267Z" transform="translate(-147.46 -213.211)"/>
          <path id="Path_19055" data-name="Path 19055" class="cls-17" d="M128.4,255.122a3.9,3.9,0,0,1-.359-1.8,2.146,2.146,0,0,1,.392-1c.075-.094.187-.168.239-.232.277-.34-.088-.95.672-.854.555.07.641.333.711.773.124.786.293,1.554.461,2.327.424-.181.308-1.7.632-1.025a2.208,2.208,0,0,1-.75,2.286C129.445,256.18,128.9,256.187,128.4,255.122Z" transform="translate(-128.03 -230.981)"/>
          <path id="Path_19056" data-name="Path 19056" class="cls-13" d="M156.9,229.68c.806-1.286,2.655-4.92,3.607-5.655a2.546,2.546,0,0,1,2.671.66s-.273,2.407-5.3,6.5a.27.27,0,0,1-.43-.1Z" transform="translate(-149.67 -210.473)"/>
          <path id="Path_19057" data-name="Path 19057" class="cls-17" d="M146.989,245.647a2.414,2.414,0,0,1,.543.067,2.051,2.051,0,0,1,.795.582c.266.245.519.526.771.782.214.218.008.647-.2.768-.127.073-.924-.391-1.033-.491-.356-.327-.89-.319-1.3-.559a6.14,6.14,0,0,1-.6-.472c-.166-.126-.485-.146-.574-.4C145.366,245.541,145.893,245.656,146.989,245.647Z" transform="translate(-141.037 -226.798)"/>
          <path id="Path_19058" data-name="Path 19058" class="cls-18" d="M157.543,191.978a1.6,1.6,0,0,0,.5-.635s.053.794-.29.993a.769.769,0,0,1-.6.112.9.9,0,0,0,.234-.175A1.881,1.881,0,0,0,157.543,191.978Z" transform="translate(-149.86 -186.103)"/>
        </g>
        <g id="Group_11249" data-name="Group 11249" transform="translate(24.271 0)">
          <path id="Path_19059" data-name="Path 19059" class="cls-19" d="M230.068,198.082c0-.044,0-.087,0-.131l-3.919-71.365a1.638,1.638,0,0,0-1.608-1.628H188.289c.154-.741.045-1.263-.593-1.226-2.089.12-2.765,2.81-2.765,2.81h0a2.45,2.45,0,0,0-.145.877l1.6,71.375a1.645,1.645,0,0,0,1.611,1.693h39.679a1.869,1.869,0,0,0,.9,0,4.57,4.57,0,0,0,2.442-2.406Z" transform="translate(-184.786 -111.05)"/>
          <path id="Path_19060" data-name="Path 19060" class="cls-20" d="M192.421,123.256h37.523a1.638,1.638,0,0,1,1.608,1.628l3.919,71.365a2.379,2.379,0,0,1-2.229,2.538H193.4a1.645,1.645,0,0,1-1.611-1.693l-1.6-71.376A2.375,2.375,0,0,1,192.421,123.256Z" transform="translate(-188.835 -110.694)"/>
          <g id="Group_11217" data-name="Group 11217" class="cls-21" transform="translate(2.748 18.939)">
            <path id="Path_19061" data-name="Path 19061" class="cls-1" d="M197.99,148.719h35.373a1.637,1.637,0,0,1,1.608,1.627l3,54.337a2.379,2.379,0,0,1-2.229,2.538H198.905a1.644,1.644,0,0,1-1.61-1.687l-1.536-54.347A2.375,2.375,0,0,1,197.99,148.719Z" transform="translate(-195.758 -148.719)"/>
            <g id="Group_11216" data-name="Group 11216" class="cls-22">
              <path id="Path_19062" data-name="Path 19062" class="cls-23" d="M205.888,135.169,164.82,174.52l5.357,10.405,47.767-44.963Z" transform="translate(-172.569 -138.563)"/>
              <path id="Path_19063" data-name="Path 19063" class="cls-23" d="M184.5,226.854l45.036-41.2-.873,4.544-43.639,38.644Z" transform="translate(-187.32 -176.406)"/>
            </g>
          </g>
          <path id="Path_19065" data-name="Path 19065" class="cls-1" d="M260.858,136.653H253.2a.649.649,0,0,1-.624-.742h0a.791.791,0,0,1,.746-.742h7.655a.649.649,0,0,1,.624.742h0A.791.791,0,0,1,260.858,136.653Z" transform="translate(-235.597 -119.624)"/>
          <path id="Path_19066" data-name="Path 19066" class="cls-1" d="M297.355,135.751a.848.848,0,0,1-.8.8.7.7,0,0,1-.669-.8.848.848,0,0,1,.8-.8A.7.7,0,0,1,297.355,135.751Z" transform="translate(-268.057 -119.463)"/>
          <path id="Path_19067" data-name="Path 19067" class="cls-1" d="M305.7,135.751a.848.848,0,0,1-.8.8.7.7,0,0,1-.669-.8.848.848,0,0,1,.8-.8A.7.7,0,0,1,305.7,135.751Z" transform="translate(-274.312 -119.463)"/>
          <g id="Group_11248" data-name="Group 11248" transform="translate(7.029)">
            <g id="Group_11224" data-name="Group 11224">
              <path id="Path_19068" data-name="Path 19068" class="cls-24" d="M244.96,73.1H212.847s1.275,10.488,2.276,23.977H247.4C246.335,83.609,244.96,73.1,244.96,73.1Z" transform="translate(-212.847 -73.104)"/>
              <g id="Group_11220" data-name="Group 11220" transform="translate(1.13 0.68)">
                <circle id="Ellipse_1033" data-name="Ellipse 1033" class="cls-1" cx="2.703" cy="2.703" r="2.703" transform="translate(0 5.261) rotate(-76.717)"/>
                <g id="Group_11219" data-name="Group 11219" class="cls-25" transform="translate(0 0)">
                  <g id="Group_11218" data-name="Group 11218" transform="translate(-0.95 1.117)">
                    <path id="Path_19069" data-name="Path 19069" class="cls-23" d="M216.857,81.5a3.586,3.586,0,0,1-.917,2.033c-.606.655-1.541.938-1.991,1.723a2.159,2.159,0,0,0,.988,3.243c2.565.963,3.84-2.124,4.215-4.068.135-.7.124-1.412.211-2.106a2.478,2.478,0,0,0-.133-1.508C218.527,79.657,217.16,80.593,216.857,81.5Z" transform="translate(-213.566 -80.278)"/>
                    <path id="Path_19070" data-name="Path 19070" class="cls-26" d="M226.892,85.791a2.354,2.354,0,0,0-.113.9c.022.47.14,1.341.839,1.307.627-.031,1.189-.94,1.173-1.473A2.773,2.773,0,0,0,226.892,85.791Z" transform="translate(-223.466 -84.41)"/>
                    <path id="Path_19071" data-name="Path 19071" class="cls-26" d="M225.639,92.374a2.329,2.329,0,0,0,1.276.458,2.165,2.165,0,0,0,1.576-1.109s-.438-.077-.507-.226a13.975,13.975,0,0,1-.212-1.758c-.151,0-.466.818-.617.816a1.626,1.626,0,0,1-.02.863C227.019,91.625,225.7,91.643,225.639,92.374Z" transform="translate(-222.615 -87.369)"/>
                    <path id="Path_19072" data-name="Path 19072" class="cls-26" d="M228.019,85.534a5.791,5.791,0,0,0,.764-1.564.946.946,0,0,0-.851-1.288.933.933,0,0,0-.9.387,3.462,3.462,0,0,0-.238,1.225Z" transform="translate(-223.478 -82.078)"/>
                    <path id="Path_19073" data-name="Path 19073" class="cls-23" d="M227.547,82.17c-.188.008-.212-.1-.341.047a2.181,2.181,0,0,0-.4.682,1.993,1.993,0,0,0,.716.1,1.315,1.315,0,0,1,.14-.393c-.025.179-.066.4-.066.4a5.343,5.343,0,0,0,1.218-.023,1.867,1.867,0,0,1-.041.5.925.925,0,0,0,.038.636c.084-.055.078-.57.174-.293.115-.085.066-.683.048-.845a.977.977,0,0,0-.522-.758,1.1,1.1,0,0,0-.6-.022A1.609,1.609,0,0,1,227.547,82.17Z" transform="translate(-223.489 -81.675)"/>
                    <path id="Path_19074" data-name="Path 19074" class="cls-26" d="M233.551,88.662a.58.58,0,0,1,.129-.288,1.036,1.036,0,0,1,.234-.305.1.1,0,0,1,.15.1c0,.2-.142.323-.235.488-.032.056-.141.273-.218.24C233.556,88.873,233.487,88.658,233.551,88.662Z" transform="translate(-228.526 -86.109)"/>
                  </g>
                </g>
              </g>
              <g id="Group_11221" data-name="Group 11221" transform="translate(8.568 2.486)">
                <rect id="Rectangle_6397" data-name="Rectangle 6397" class="cls-26" width="10.041" height="0.978"/>
              </g>
              <g id="Group_11222" data-name="Group 11222" transform="translate(8.504 5.099)">
                <rect id="Rectangle_6398" data-name="Rectangle 6398" class="cls-1" width="20.791" height="0.489"/>
              </g>
              <path id="Path_19075" data-name="Path 19075" class="cls-1" d="M330.128,154.941a.607.607,0,0,0-.573-.636.533.533,0,0,1-.9,0,.607.607,0,0,0-.573.636.7.7,0,0,0,.037.219h0l0,.007c.017.049,1,1.4,1,1.4l.93-1.31A.682.682,0,0,0,330.128,154.941Z" transform="translate(-299.217 -133.966)"/>
              <g id="Group_11223" data-name="Group 11223" transform="translate(8.274 7.074)">
                <path id="Path_19076" data-name="Path 19076" class="cls-1" d="M245.88,101.347H266.9s.619,3.69,1.308,11.476h-21.5C246.425,108.288,245.88,101.347,245.88,101.347Z" transform="translate(-245.88 -101.347)"/>
                <path id="Path_19077" data-name="Path 19077" class="cls-27" d="M247.481,122.487c.149,2.033.311,4.311.428,6.181h21.5q-.153-1.731-.3-3.192Z" transform="translate(-247.08 -117.192)"/>
                <path id="Path_19078" data-name="Path 19078" class="cls-27" d="M274.118,116.944l-.55-5.326h3.941l-.336,5.366Z" transform="translate(-266.633 -109.046)"/>
                <path id="Path_19079" data-name="Path 19079" class="cls-27" d="M280.357,105.667l.365-2.189,2.058-.153-.066.305-1.689.182-.19,1.773Z" transform="translate(-271.722 -102.829)"/>
                <path id="Path_19080" data-name="Path 19080" class="cls-27" d="M286.069,117.635l3.976.325-.387,3.707-3.116-.173Z" transform="translate(-276.003 -113.556)"/>
                <path id="Path_19081" data-name="Path 19081" class="cls-28" d="M311.35,109.632l-.267-2.546-.741-5.738h-4.616l.09,3.866h-1.434l-.544,3.38,2.063.285h0Z" transform="translate(-289.321 -101.347)"/>
                <path id="Path_19082" data-name="Path 19082" class="cls-28" d="M252.576,104.829h2.2l.336,2.688h-2.539Z" transform="translate(-250.899 -103.957)"/>
              </g>
            </g>
            <g id="Group_11229" data-name="Group 11229" transform="translate(2.463 26.594)">
              <path id="Path_19083" data-name="Path 19083" class="cls-23" d="M255.554,188.64c-.164-3.186-.365-6.333-.587-9.36H222.682c.21,3.025.4,6.171.559,9.36Z" transform="translate(-222.682 -179.28)"/>
              <g id="Group_11226" data-name="Group 11226" transform="translate(1.484 1.131)">
                <circle id="Ellipse_1035" data-name="Ellipse 1035" class="cls-1" cx="2.703" cy="2.703" r="2.703"/>
                <g id="Group_11225" data-name="Group 11225" class="cls-29">
                  <path id="Path_19084" data-name="Path 19084" class="cls-26" d="M232.641,188.377a.631.631,0,0,1,.024-.893c.253-.281.644-.181.984-.2.108-.362.651-.462.987-.387a1.04,1.04,0,0,1,.719.72,1.079,1.079,0,0,1-.212,1.129,2.893,2.893,0,0,1-.564.327,3.872,3.872,0,0,0-.124,1.326c.156.261.679.2.885.522.365.568-.238.665-.7.81a4.981,4.981,0,0,1-1.024.112,3.11,3.11,0,0,1-1.158.1c-.646-.138-.956-.564-.643-1.185.279-.553.973-.4,1.512-.431a3.364,3.364,0,0,0,.145-.514c-.532.149-.774-.021-.805-.364C232.638,189.12,232.641,188.377,232.641,188.377Z" transform="translate(-230.92 -186.102)"/>
                </g>
              </g>
              <g id="Group_11227" data-name="Group 11227" transform="translate(8.809 2.254)">
                <rect id="Rectangle_6399" data-name="Rectangle 6399" class="cls-26" width="10.041" height="0.978"/>
              </g>
              <g id="Group_11228" data-name="Group 11228" transform="translate(8.809 4.658)">
                <rect id="Rectangle_6400" data-name="Rectangle 6400" class="cls-1" width="20.791" height="0.489"/>
              </g>
              <path id="Path_19085" data-name="Path 19085" class="cls-1" d="M335.918,204.434a.607.607,0,0,0-.573-.636.534.534,0,0,1-.9,0,.607.607,0,0,0-.573.636.7.7,0,0,0,.037.22h0l0,.007c.017.049,1,1.4,1,1.4l.93-1.31A.684.684,0,0,0,335.918,204.434Z" transform="translate(-306.02 -197.657)"/>
            </g>
            <g id="Group_11239" data-name="Group 11239" transform="translate(3.144 38.57)">
              <path id="Path_19086" data-name="Path 19086" class="cls-23" d="M257.986,241.848c.012-4.248-.077-10.371-.271-14.753H225.4c.189,4.376.281,10.5.286,14.753Z" transform="translate(-225.399 -227.095)"/>
              <g id="Group_11232" data-name="Group 11232" transform="translate(0.92 0.831)">
                <circle id="Ellipse_1037" data-name="Ellipse 1037" class="cls-1" cx="2.703" cy="2.703" r="2.703" transform="translate(0 5.261) rotate(-76.717)"/>
                <g id="Group_11231" data-name="Group 11231" class="cls-25" transform="translate(0 0)">
                  <g id="Group_11230" data-name="Group 11230" transform="translate(0.954 2.167)">
                    <path id="Path_19087" data-name="Path 19087" class="cls-26" d="M236.74,240.567c.022.624-.149,1.23.206,1.791a.9.9,0,0,0,1.339.025,2.056,2.056,0,0,0,.287-1.467,1.073,1.073,0,0,0-.667-1.03,1.21,1.21,0,0,0-.737.049C236.907,240.046,236.87,240.217,236.74,240.567Z" transform="translate(-235.757 -239.654)"/>
                    <path id="Path_19088" data-name="Path 19088" class="cls-26" d="M233.114,239.921a.854.854,0,0,0-.223.507,1.469,1.469,0,0,0,.047.591.831.831,0,0,0,.6.563,1.63,1.63,0,0,0,.03-.254l.161.064a1.756,1.756,0,0,1-.08-.366,1.1,1.1,0,0,1,.1-.2c.26-.4.729-.406,1.137-.536a1,1,0,0,0-.021.5c.058-.1.089-.269.21-.316.083-.032.086-.007.094.078A.728.728,0,0,1,235,241c.042.057.087.116.132.171a.436.436,0,0,0,.429.121.711.711,0,0,0,.567-.668,1.012,1.012,0,0,0-.037-.387,1.442,1.442,0,0,0-.368-.605,1.361,1.361,0,0,0-.845-.551,2.194,2.194,0,0,0-1.389.32c-.119.071-.314.2-.356.341C233.108,239.825,233.152,239.882,233.114,239.921Z" transform="translate(-232.88 -239.066)"/>
                  </g>
                  <path id="Path_19089" data-name="Path 19089" class="cls-23" d="M241.484,246.58a1.5,1.5,0,0,1,.188.6,1.936,1.936,0,0,1-.074.688.667.667,0,0,0,.459.2,3.794,3.794,0,0,0,1.073-.089,1.891,1.891,0,0,0,.9-.336c.1-.091.007-.153-.065-.236-.154-.178-.242-.4-.376-.595a7.312,7.312,0,0,0-.615-.739c-.1-.105-.219-.19-.326-.286a.312.312,0,0,0-.122-.084c-.153-.039-.31.209-.414.289A5.171,5.171,0,0,0,241.484,246.58Z" transform="translate(-238.375 -241.876)"/>
                </g>
              </g>
              <g id="Group_11233" data-name="Group 11233" transform="translate(8.914 2.38)">
                <rect id="Rectangle_6401" data-name="Rectangle 6401" class="cls-26" width="10.042" height="0.978"/>
              </g>
              <g id="Group_11234" data-name="Group 11234" transform="translate(8.914 4.758)">
                <rect id="Rectangle_6402" data-name="Rectangle 6402" class="cls-1" width="20.791" height="0.489"/>
              </g>
              <g id="Group_11235" data-name="Group 11235" transform="translate(8.914 6.394)">
                <rect id="Rectangle_6403" data-name="Rectangle 6403" class="cls-1" width="20.791" height="0.489"/>
              </g>
              <g id="Group_11236" data-name="Group 11236" transform="translate(8.914 8.029)">
                <rect id="Rectangle_6404" data-name="Rectangle 6404" class="cls-1" width="20.791" height="0.489"/>
              </g>
              <g id="Group_11237" data-name="Group 11237" transform="translate(9.175 8.029)">
                <rect id="Rectangle_6405" data-name="Rectangle 6405" class="cls-1" width="20.791" height="0.489"/>
              </g>
              <g id="Group_11238" data-name="Group 11238" transform="translate(9.175 9.664)">
                <rect id="Rectangle_6406" data-name="Rectangle 6406" class="cls-1" width="20.791" height="0.489"/>
              </g>
            </g>
            <g id="Group_11247" data-name="Group 11247" transform="translate(2.502 55.94)">
              <path id="Path_19090" data-name="Path 19090" class="cls-30" d="M223.751,296.443a147.2,147.2,0,0,1-.916,15.275h32.113a128.44,128.44,0,0,0,1.092-15.275Z" transform="translate(-222.835 -296.443)"/>
              <g id="Group_11241" data-name="Group 11241" transform="translate(1.228 0.56)">
                <circle id="Ellipse_1039" data-name="Ellipse 1039" class="cls-1" cx="2.703" cy="2.703" r="2.703" transform="translate(0 3.822) rotate(-45)"/>
                <g id="Group_11240" data-name="Group 11240" class="cls-31" transform="translate(0 0)">
                  <path id="Path_19091" data-name="Path 19091" class="cls-26" d="M234.291,310.067c.085-.212.073-.245.28-.356a2.42,2.42,0,0,0,.432-.288c.238-.2.2-.414.212-.7a.709.709,0,0,0-.269-.549,1.1,1.1,0,0,1-.049-1.1c.21-.4.857-.385,1.209-.648a1.342,1.342,0,0,1,.594-.322c.111-.023.226-.009.334-.03.147-.028.249-.145.392-.183.4-.106.217.312.1.5-.151.254-.431.449-.5.754-.095.42-.119.863-.2,1.288s-.275.656-.7.672a.652.652,0,0,0,.2.522c.328.235,1,.51.945,1.02a6.611,6.611,0,0,1-1.738.033c-.239-.074-.462-.167-.691-.259C234.659,310.338,234.372,310.364,234.291,310.067Z" transform="translate(-232.65 -304.066)"/>
                </g>
              </g>
              <g id="Group_11242" data-name="Group 11242" transform="translate(9.662 2.482)">
                <path id="Path_19092" data-name="Path 19092" class="cls-1" d="M261.411,308.3h0Z" transform="translate(-261.411 -307.815)"/>
                <rect id="Rectangle_6407" data-name="Rectangle 6407" class="cls-26" width="10.041" height="0.978"/>
              </g>
              <g id="Group_11243" data-name="Group 11243" transform="translate(9.701 4.95)">
                <rect id="Rectangle_6408" data-name="Rectangle 6408" class="cls-1" width="20.791" height="0.489"/>
              </g>
              <g id="Group_11244" data-name="Group 11244" transform="translate(9.701 6.586)">
                <rect id="Rectangle_6409" data-name="Rectangle 6409" class="cls-1" width="20.791" height="0.489"/>
              </g>
              <g id="Group_11245" data-name="Group 11245" transform="translate(9.439 8.221)">
                <rect id="Rectangle_6410" data-name="Rectangle 6410" class="cls-1" width="20.791" height="0.489"/>
              </g>
              <g id="Group_11246" data-name="Group 11246" transform="translate(9.439 9.857)">
                <rect id="Rectangle_6411" data-name="Rectangle 6411" class="cls-1" width="20.791" height="0.489"/>
              </g>
              <path id="Path_19093" data-name="Path 19093" class="cls-1" d="M339.528,344.79a.607.607,0,0,0-.573-.636.534.534,0,0,1-.9,0,.607.607,0,0,0-.573.636.7.7,0,0,0,.037.22h0l0,.007c.017.049,1,1.4,1,1.4l.93-1.31A.685.685,0,0,0,339.528,344.79Z" transform="translate(-308.764 -332.204)"/>
            </g>
          </g>
          <circle id="Ellipse_1041" data-name="Ellipse 1041" class="cls-19" cx="3.201" cy="3.201" r="3.201" transform="matrix(0.973, -0.23, 0.23, 0.973, 22.181, 80.175)"/>
        </g>
        <g id="Group_11250" data-name="Group 11250" transform="translate(0.263 64.786)">
          <path id="Path_19094" data-name="Path 19094" class="cls-11" d="M115.589,335.177c.562.637.064.8.107,1.622.053,1.026.024,2.065.072,3.1.025.53.631,1.2.685,1.737.051.5.277,4.4.168,4.9a5.616,5.616,0,0,1-.584,1.572,2.048,2.048,0,0,1-1.321.97,8.692,8.692,0,0,1-1.506.488,11.885,11.885,0,0,1-2.944-.739c-.7-.514-.681-.381-.862-1.112a12.269,12.269,0,0,1,.318-4.892,5.774,5.774,0,0,1,1.481-2.462c.361-.371.171-1.1.623-1.407a13.366,13.366,0,0,0,.1-2.288c-.052-.99.261-2.7,1.869-2.667C114.567,334.014,115.528,334.223,115.589,335.177Z" transform="translate(-104.183 -333.439)"/>
          <path id="Path_19095" data-name="Path 19095" class="cls-11" d="M129.336,333.458c-.1-.424-.482-1.53-.972-1.7a3.363,3.363,0,0,0-.251,1.4c-.028.305-.05.42.28.541A1,1,0,0,0,129.336,333.458Z" transform="translate(-118.289 -331.761)"/>
          <path id="Path_19096" data-name="Path 19096" class="cls-11" d="M118.736,335.739c-.2-.39-.63-1.475-.366-1.919a3.376,3.376,0,0,1,1.1.9c.22.214.311.286.14.593A1,1,0,0,1,118.736,335.739Z" transform="translate(-110.935 -333.304)"/>
          <path id="Path_19097" data-name="Path 19097" class="cls-11" d="M95.232,389.623c-.307.031-.422.318-.713.439a15.966,15.966,0,0,0-4.041,1.369c-.313.179-2.045,1.264-1.4,1.768.274.215,1.419-.607,1.943-.813a9.344,9.344,0,0,1,4.5-.806,9.179,9.179,0,0,0,2.515-.386Z" transform="translate(-88.934 -375.13)"/>
          <path id="Path_19098" data-name="Path 19098" class="cls-11" d="M122.273,353.555c-.939-1.14-2.221-.954-2.253-.646Z" transform="translate(-112.234 -347.436)"/>
        </g>
        <g id="Group_11251" data-name="Group 11251" transform="translate(84.368 54.693)">
          <path id="Path_19099" data-name="Path 19099" class="cls-17" d="M468.8,497.584l-.175-2.018,1.3-.092-.1,2.244Z" transform="translate(-457.628 -444.375)"/>
          <path id="Path_19100" data-name="Path 19100" class="cls-17" d="M518.517,481.3l-1.972-1.561.771-.673,2.107,1.742-.59.7Z" transform="translate(-493.545 -432.077)"/>
          <path id="Path_19101" data-name="Path 19101" class="cls-11" d="M467.927,399.983c-.745-2.48-1.654-11.3-1.654-11.3l-.33-2.451H456.69l.143,5.538s.319,6.711.544,8.938c.337,3.347,1.88,13.324,1.88,13.324h1.884s.155-9.8.272-12.927c.092-2.455.293-5.3.25-4.664,0,0,1.369,3.136,2.521,5.476,1.368,2.778,7.5,9.555,7.5,9.555l1.613-1.4S468.828,402.981,467.927,399.983Z" transform="translate(-448.682 -362.493)"/>
          <path id="Path_19102" data-name="Path 19102" class="cls-32" d="M461.476,324.078a12.86,12.86,0,0,0-4.332-.2c-1.215.183-1.674,1.122-1.77,3.116-.189,3.919.3,14.768.3,14.768l11.773.148s-3.593-9.539-3.471-12.78C464.023,327.8,463.459,325.059,461.476,324.078Z" transform="translate(-447.663 -315.69)"/>
          <path id="Path_19103" data-name="Path 19103" class="cls-32" d="M441.4,325.419l5.089-1.117c.048,1.025.227,2.654-.471,3.589-.711.953-4.422,1.288-4.422,1.288Z" transform="translate(-437.22 -316.077)"/>
          <path id="Path_19104" data-name="Path 19104" class="cls-17" d="M462.237,307.653l.936,4.34.906.033-3.129,2.4-1.114-2.253.937-.218-.2-2.71Z" transform="translate(-451.04 -303.598)"/>
          <path id="Path_19105" data-name="Path 19105" class="cls-17" d="M458.661,298.023a4.142,4.142,0,0,1-2.622,2.95c-1.126.275-1.254-2.054-1.184-2.981.056-.743.116-1.541.221-2.187.123-.755.872-.893,1.993-.793S458.955,296.268,458.661,298.023Z" transform="translate(-447.295 -294.101)"/>
          <path id="Path_19106" data-name="Path 19106" class="cls-33" d="M516.512,485.713l.9.665-.753.614-.2-.078.091.235L513.1,489.7s-.417-.129-.269-.423,2.934-2.811,2.934-2.811l-.056-.181Z" transform="translate(-490.738 -437.059)"/>
          <path id="Path_19107" data-name="Path 19107" class="cls-33" d="M456.757,503.926l.159,1.037L455.9,505l-.087-.177-.11.234-4.436-.042s-.208-.342.121-.482,4.257-.461,4.257-.461l.1-.172Z" transform="translate(-444.571 -450.69)"/>
          <path id="Path_19108" data-name="Path 19108" class="cls-17" d="M429.051,311.894a3.863,3.863,0,0,1-2.92-.486c-1.117-.65-1.51-2.485-1.392-3.725a18.345,18.345,0,0,1,1.313-4.128l1.391-1.237c.6.988-.1,2.212-.407,3.15-.33,1-1.113,3.235.188,3.845a2.611,2.611,0,0,0,1.671-.133Z" transform="translate(-424.719 -299.599)"/>
          <path id="Path_19109" data-name="Path 19109" class="cls-11" d="M431.866,296.719h0a.425.425,0,0,1-.366-.477l.437-3.321a.425.425,0,0,1,.477-.366h0a.425.425,0,0,1,.366.477l-.437,3.321A.425.425,0,0,1,431.866,296.719Z" transform="translate(-429.799 -292.279)"/>
          <path id="Path_19110" data-name="Path 19110" class="cls-17" d="M430.413,300.291c.114.249-.225.7-.411.848a.313.313,0,0,1,.584.188,1.908,1.908,0,0,1-.547.985c-.251.275-.423.452-.59.059a1.978,1.978,0,0,1-.126-.85C429.324,301.3,430.208,299.844,430.413,300.291Z" transform="translate(-428.171 -298.016)"/>
          <path id="Path_19111" data-name="Path 19111" class="cls-32" d="M454.449,294.2a1.312,1.312,0,0,0-.009,1.563c.285.259.827.037,1.189.163.14.45-.123,1.011.047,1.464a.816.816,0,0,0,.6.492c.4.1.516-.1.835-.306.538-.354.489.1.92.274.515.208.581-.4.671-.82.2-.947.5-1.728-.193-2.5a3.212,3.212,0,0,0-1.984-.9,3.3,3.3,0,0,0-1.376-.1C454.8,293.637,454.583,294.045,454.449,294.2Z" transform="translate(-446.804 -292.968)"/>
          <path id="Path_19112" data-name="Path 19112" class="cls-11" d="M451.639,294.85l-7.08-3.075.106-.249,2.3.962a2.253,2.253,0,0,1,2.38-.947,3.538,3.538,0,0,1,2.576,1.9A2.472,2.472,0,0,1,451.639,294.85Z" transform="translate(-439.59 -291.463)"/>
          <path id="Path_19113" data-name="Path 19113" class="cls-34" d="M475.722,355.006l-1.419-.076s1.17,2.7.356,2.878-2.143-1.432-3.19-1.439a.843.843,0,0,0-.374,1.617,34.287,34.287,0,0,1,2.811,2.735c1.12.957,3.271,1.405,3.407,0l-1.1-3.666Z" transform="translate(-459.105 -339.033)"/>
          <path id="Path_19114" data-name="Path 19114" class="cls-32" d="M485.349,332.6c-.045-.412-1.548-4.691-3.347-6.383a6.406,6.406,0,0,0-2.528-1.394,61.05,61.05,0,0,0,.482,7.489Z" transform="translate(-465.75 -316.464)"/>
          <path id="Path_19115" data-name="Path 19115" class="cls-17" d="M476.594,353.9s1.34,4.873-1.082,4.838-4.456-3.368-5.835-3.814-1.164-1.373-1.164-1.373.612-.7,2,.009,2.9,2.943,3.675,2.513,0-2.33,0-2.33Z" transform="translate(-457.535 -337.766)"/>
          <path id="Path_19116" data-name="Path 19116" class="cls-35" d="M466.915,395.651l7.022.088.216,1.938a25.866,25.866,0,0,0-3.908-1.305C467.313,395.552,466.915,395.651,466.915,395.651Z" transform="translate(-456.346 -369.552)"/>
          <path id="Path_19117" data-name="Path 19117" class="cls-34" d="M465.961,308.352a.129.129,0,0,1,.125.076.353.353,0,0,1,.009.253.913.913,0,0,1-.128.23.6.6,0,0,0,.093.058.531.531,0,0,1-.076.091,1.328,1.328,0,0,1-.833.231c-.092.008-.235-.057-.141-.164a2.013,2.013,0,0,1,.332-.268c.107-.079.2-.167.3-.253.062-.053.136-.1.2-.145.034-.025.089-.053.105-.094C465.954,308.367,465.957,308.368,465.961,308.352Z" transform="translate(-454.895 -304.121)"/>
          <path id="Path_19118" data-name="Path 19118" class="cls-17" d="M464.383,308.026c.086-.111.158-.235.25-.34.148-.17.426-.416.673-.391.209.021.092.378.03.5a1.511,1.511,0,0,1-.785.647c-.07.029-.424.169-.342-.137C464.208,308.3,464.337,308.086,464.383,308.026Z" transform="translate(-454.308 -303.328)"/>
          <path id="Path_19119" data-name="Path 19119" class="cls-18" d="M463.018,314.546a1.492,1.492,0,0,0,.624-.522l.306-.412a4.1,4.1,0,0,1-.465,1.581l-.376.551Z" transform="translate(-453.425 -308.064)"/>
          <path id="Path_19120" data-name="Path 19120" class="cls-35" d="M471.018,411.9l-1.846-5.041,1.522,13.7s.042-3.316.151-5.7C470.948,412.627,471.018,411.9,471.018,411.9Z" transform="translate(-458.038 -377.959)"/>
          <path id="Path_19121" data-name="Path 19121" class="cls-18" d="M470,497.22h-1.253l1.223.685Z" transform="translate(-457.718 -445.684)"/>
          <path id="Path_19122" data-name="Path 19122" class="cls-18" d="M519.711,482.3l.758-.656-.182,1.112Z" transform="translate(-495.918 -434.007)"/>
        </g>
        <g id="Group_11253" data-name="Group 11253" transform="translate(62.377 49.412)">
          <path id="Path_19123" data-name="Path 19123" class="cls-12" d="M378.047,398.861s2.682,6.78,4.085,9.917,6.662,12.527,6.662,12.527l1.7-.2s-4.04-8.8-5.044-11.8a102.143,102.143,0,0,1-2.236-10.494Z" transform="translate(-367.747 -366.645)"/>
          <path id="Path_19124" data-name="Path 19124" class="cls-18" d="M392.457,418.623a9.688,9.688,0,0,0,1.7,3.712,5.12,5.12,0,0,0,2.068,1.724c-.4-1.22-.76-2.951-.76-2.951Z" transform="translate(-378.547 -381.492)"/>
          <path id="Path_19125" data-name="Path 19125" class="cls-12" d="M360.638,394.4a42.579,42.579,0,0,0-.78,8.947c.224,3.943,3.373,13.375,3.373,13.375h1.222s-1.942-8.792-1.536-12.246,1.733-9.4,1.733-9.4Z" transform="translate(-354.089 -363.335)"/>
          <path id="Path_19126" data-name="Path 19126" class="cls-18" d="M369.374,399.17l2.009,1.268-.073.548-1.21,6.862Z" transform="translate(-361.246 -366.911)"/>
          <path id="Path_19127" data-name="Path 19127" class="cls-12" d="M349,281.538a12.522,12.522,0,0,0-.715-1.7c-.517-.9-1.785-2.775-1.82-2.813l0,0c-.647-.657-.688-1.135-1.14-1.53l-.521.746c.045.174.211.352.26.528-.088-.009-.362-.279-.444-.269l-.163.229a9.362,9.362,0,0,1,1.148.826c.587.765.992.9,1.41,3.6a14.674,14.674,0,0,0,.2,1.5C347.473,282.773,349.194,282.105,349,281.538Z" transform="translate(-342.572 -274.211)"/>
          <path id="Path_19128" data-name="Path 19128" class="cls-13" d="M356.7,362.453l-2.724,8.807s2.411.684,4.569,1.454,5.567,5.947,9.274,7.332a7.839,7.839,0,0,0,6.721-.645l-11.609-16.923Z" transform="translate(-349.702 -339.391)"/>
          <path id="Path_19129" data-name="Path 19129" class="cls-11" d="M365.1,480.561a1.028,1.028,0,0,1-.558.229.688.688,0,0,1-.8-.485l-.042-.128s-2.9.228-2.884.6c.014.256,2.216.872,3.6,1.234a.681.681,0,0,0,.834-.815Z" transform="translate(-354.836 -427.629)"/>
          <path id="Path_19130" data-name="Path 19130" class="cls-11" d="M409.941,484.058h0s-2.921.342-2.942.866c-.014.353,2.73.769,4.518,1a.768.768,0,0,0,.769-1.135l-.529-.951s.26.467-.814.558C410.535,484.433,410.143,484.414,409.941,484.058Z" transform="translate(-389.447 -430.374)"/>
          <path id="Path_19131" data-name="Path 19131" class="cls-36" d="M338.972,270.379a.741.741,0,0,1-1.254,0,.843.843,0,0,0-.795.883.959.959,0,0,0,.052.3h0l0,.01c.024.068,1.392,1.938,1.392,1.938l1.291-1.819a.948.948,0,0,0,.106-.434.843.843,0,0,0-.8-.883Z" transform="translate(-336.923 -270.379)"/>
          <path id="Path_19132" data-name="Path 19132" class="cls-12" d="M338.542,279.177c.337-.654.093-.827.2-.964s.421.263.365,1.091a3.626,3.626,0,0,0,.481,2.628c1.856,2.983,4.09,6.022,5.574,9.284.563,1.238,1.55,1.755.463,2.887-.678.706-1.123.514-1.761-.214-1.062-1.211-3.608-7.5-4.43-9.073a26.4,26.4,0,0,1-2.014-5.315c-.046-.277-.449-1.685.164-2.231l.731,1.015A2.57,2.57,0,0,0,338.542,279.177Z" transform="translate(-337.166 -275.545)"/>
          <path id="Path_19133" data-name="Path 19133" class="cls-37" d="M352.738,310.716a59.5,59.5,0,0,0-.784,7.019l1.015.588c-.4-.984,1.674,4.17,2.212,5.351l6.232.025s-1.307-8.927-1.466-9.64a5.265,5.265,0,0,0-3.217-1.039,14.606,14.606,0,0,0-1.916.2S352.738,310.716,352.738,310.716Z" transform="translate(-348.188 -300.613)"/>
          <g id="Group_11252" data-name="Group 11252" transform="translate(8.944 19.629)">
            <path id="Path_19134" data-name="Path 19134" class="cls-34" d="M376.683,350.436l-3.839-1.69a3.327,3.327,0,0,0-.084,2.109,2.635,2.635,0,0,0,.943,1.336l3.209.013Z" transform="translate(-372.63 -348.746)"/>
            <path id="Path_19135" data-name="Path 19135" class="cls-14" d="M377.8,363.344a6.684,6.684,0,0,1,.824,1.564,12.375,12.375,0,0,0,.6,1.65,3.945,3.945,0,0,0,2.788,1.871,2.982,2.982,0,0,0,1.565-.067.491.491,0,0,0,.281-.406l-3.782-5.514-3.162.015A6.1,6.1,0,0,1,377.8,363.344Z" transform="translate(-375.842 -359.012)"/>
          </g>
          <path id="Path_19136" data-name="Path 19136" class="cls-11" d="M351.693,292.561c-1.4.826-1.761,3.043-1.223,4.458a11.942,11.942,0,0,0,1.725,2.52,3.823,3.823,0,0,1,.6,2.553c0,1.819-.108,4.041,1.466,5.253,1.878,1.445,3.8.485,5.923.8a5.859,5.859,0,0,1,2.675,1.176c.924.723,1.715,1.577,2.951,1.7a2.886,2.886,0,0,0,2.734-4.037,8.736,8.736,0,0,0-4.461-4.031c-1.211-.444-1.607-1.321-2.2-2.4a5.617,5.617,0,0,0-1.96-2.03c-.659-.44-1.448-.536-2.093-.946-.924-.587-1.213-1.874-1.738-2.769C355.136,293.174,352.979,291.622,351.693,292.561Z" transform="translate(-346.898 -286.792)"/>
        </g>
        <path id="Path_19137" data-name="Path 19137" class="cls-38" d="M247.413,388.272a10.967,10.967,0,0,0-2.47.131c-.369.039-2.047.074-2.13.41.27.229.731.2,1.109.254-.243.158-1.059.07-1.061.428,1,.39,2.177-.212,3.181.018-.08.436-2.049.211-1.989.7a5.931,5.931,0,0,0,2.35-.264c.535-.167,2.084-.316,2.66-.443.486-.107.288-.181.646-.47.439-.354-.007-.479-.433-.558A9.266,9.266,0,0,0,247.413,388.272Z" transform="translate(-204.007 -309.305)"/>
        <path id="Path_19138" data-name="Path 19138" class="cls-39" d="M214.36,375.521l-8.511-.9a1.33,1.33,0,0,0-1.446,1.069l-1.145,5.894a1.079,1.079,0,0,0,.97,1.282l9.294.774,1.8,2.367.165-9.21A1.259,1.259,0,0,0,214.36,375.521Z" transform="translate(-174.345 -299.094)"/>
        <g id="Group_11254" data-name="Group 11254" transform="translate(39.15 70.166)">
          <path id="Path_19139" data-name="Path 19139" class="cls-40" d="M294.379,461.071s-2.48,5.088-2.919,8.727c-.339,2.813,2.756,10.294,3.543,12.936l-1.02-.093s-5.505-7.1-5.89-11.5,2.822-10.31,2.822-10.31Z" transform="translate(-277.071 -433.882)"/>
          <path id="Path_19140" data-name="Path 19140" class="cls-40" d="M323.738,462.748a20.7,20.7,0,0,0,2.142,8.754c2.113,3.712,9.145,12.208,9.145,12.208h-1.166a144.425,144.425,0,0,1-10.919-10.024c-3.511-3.927-3.581-11.341-3.581-11.341Z" transform="translate(-300.53 -435.018)"/>
          <path id="Path_19141" data-name="Path 19141" class="cls-18" d="M320.7,475.214l.283,1.671a7.884,7.884,0,0,1,1.5,1.43,3.538,3.538,0,0,0,3.549.988l-.8-2.347Z" transform="translate(-301.539 -444.663)"/>
          <path id="Path_19142" data-name="Path 19142" class="cls-18" d="M291.626,473.385a15.878,15.878,0,0,0-.856,2.23,2.381,2.381,0,0,0,1.214.835c.733.173,1.354-.555,2.266-.527l.725-2.08Z" transform="translate(-279.102 -443.292)"/>
          <path id="Path_19143" data-name="Path 19143" class="cls-11" d="M297.039,355.571a6.828,6.828,0,0,1-1.747,3.872c-1.155,1.248-2.935,1.787-3.793,3.282a4.111,4.111,0,0,0,1.882,6.177c4.885,1.835,7.314-4.045,8.029-7.748.257-1.33.237-2.69.4-4.012a4.719,4.719,0,0,0-.253-2.872C300.219,352.056,297.615,353.838,297.039,355.571Z" transform="translate(-279.102 -353.239)"/>
          <path id="Path_19144" data-name="Path 19144" class="cls-32" d="M263.818,384.5c-.039.1.443,2.8.443,2.8a113.978,113.978,0,0,0,13.466-.473c-.826.151.322-.209.565-1.191a6.025,6.025,0,0,1,.309-1.1,2.942,2.942,0,0,0,.427-1.232,76.373,76.373,0,0,0-8.462.392A63.008,63.008,0,0,0,263.818,384.5Z" transform="translate(-258.9 -375.754)"/>
          <path id="Path_19145" data-name="Path 19145" class="cls-40" d="M251.74,414.383c-1.419-.3-2.878-1.264-4.423-.935.381.306.813.455,1.194.728-1.459.234-2.712-.682-4.087-.706a2.306,2.306,0,0,0,1.088.813c-.471.1-.824-.188-1.237-.313-.633.951,2.34,1.491,2.812,1.515,1.3.066,2.646-.047,3.932.071.177.016.886.14,1.018.018C252.263,415.365,252.093,414.628,251.74,414.383Z" transform="translate(-244.187 -398.317)"/>
          <path id="Path_19146" data-name="Path 19146" class="cls-40" d="M316.15,363.739a4.5,4.5,0,0,0-.216,1.722c.041.894.266,2.554,1.6,2.489,1.2-.058,2.264-1.79,2.233-2.8A5.28,5.28,0,0,0,316.15,363.739Z" transform="translate(-297.958 -361.109)"/>
          <path id="Path_19147" data-name="Path 19147" class="cls-40" d="M320.161,375.158a1.889,1.889,0,0,0,1.484.753c.974.114,2.267-.217,2.346-.874,0,0-.834-.147-.965-.43a26.583,26.583,0,0,1-.4-3.349c-.287.007-.887,1.558-1.175,1.554a3.1,3.1,0,0,1-.038,1.643C321.188,374.85,321.188,374.85,320.161,375.158Z" transform="translate(-301.132 -366.745)"/>
          <path id="Path_19148" data-name="Path 19148" class="cls-40" d="M318.3,363.249a11.013,11.013,0,0,0,1.456-2.979,1.8,1.8,0,0,0-1.621-2.454,1.778,1.778,0,0,0-1.713.737,6.586,6.586,0,0,0-.454,2.332Z" transform="translate(-297.98 -356.666)"/>
          <path id="Path_19149" data-name="Path 19149" class="cls-11" d="M317.4,356.843c-.359.016-.4-.181-.649.09a4.146,4.146,0,0,0-.764,1.3,3.8,3.8,0,0,0,1.364.186,2.508,2.508,0,0,1,.267-.748c-.047.341-.125.765-.125.765a10.174,10.174,0,0,0,2.32-.044,3.551,3.551,0,0,1-.079.96,1.766,1.766,0,0,0,.073,1.213c.161-.1.149-1.085.332-.559.219-.162.125-1.3.091-1.609a1.86,1.86,0,0,0-.994-1.445,2.108,2.108,0,0,0-1.139-.042A3.035,3.035,0,0,1,317.4,356.843Z" transform="translate(-298.002 -355.9)"/>
          <path id="Path_19150" data-name="Path 19150" class="cls-32" d="M289.109,393.107c-.295-2.213.1-4.7-1.615-8.365a2.472,2.472,0,0,0-1.483-1.164,5.444,5.444,0,0,0-2.007-.306,1.607,1.607,0,0,0-1.517,1.064c-.9,2.607-1.635,8.634-1.942,9.434-.39,1.013-10.451,10.249-10.451,10.249s5.409,3.669,8.705,3.046c1.979-.374,3.078-.848,5.054-.2,2.007.66,2.1,2.526,5.178,1.921l.506-2.506a44.7,44.7,0,0,0,.7-6.735C290.181,397.355,289.391,395.222,289.109,393.107Z" transform="translate(-263.604 -375.749)"/>
          <path id="Path_19151" data-name="Path 19151" class="cls-41" d="M300.676,547.739l.4,1.047h-5.485a1.177,1.177,0,0,1,.863-.685l3.2-.457Z" transform="translate(-282.714 -498.952)"/>
          <path id="Path_19152" data-name="Path 19152" class="cls-41" d="M366.1,547.645l.2,1.141h-5.485a1.178,1.178,0,0,1,.863-.685l3.2-.457Z" transform="translate(-331.608 -498.952)"/>
          <path id="Path_19153" data-name="Path 19153" class="cls-40" d="M323.648,381.951l-.629,1.756,2.132-1.512-.12-.566Z" transform="translate(-303.273 -374.519)"/>
          <path id="Path_19154" data-name="Path 19154" class="cls-40" d="M328.833,369.208a1.106,1.106,0,0,1,.246-.549,1.979,1.979,0,0,1,.446-.581.193.193,0,0,1,.285.19c0,.381-.271.616-.448.929-.06.107-.268.52-.415.457C328.843,369.609,328.711,369.2,328.833,369.208Z" transform="translate(-307.595 -364.346)"/>
          <path id="Path_19155" data-name="Path 19155" class="cls-34" d="M311.976,393.9a5.5,5.5,0,0,1-.917,4.664,7.1,7.1,0,0,1-2.422,1.516,6.185,6.185,0,0,0-2.159,1.812c-.773,1.014-1.573,2.151-2.933,2.151a28.775,28.775,0,0,0,2.034-2.232c.094-.259.569-2.839.569-2.839Z" transform="translate(-288.678 -383.719)"/>
          <path id="Path_19156" data-name="Path 19156" class="cls-32" d="M284.353,389.088c-.5-.222-.937.139-1.431.364-4.933,2.242-11.9,4.637-15.16,6.09.275.6.833,1.841,1.182,2.416a8.677,8.677,0,0,0,2.566-.082,33.275,33.275,0,0,0,10.775-3.215c1.463-.7,2.767-1.354,3.024-3.005a2.985,2.985,0,0,0-.244-1.792A1.482,1.482,0,0,0,284.353,389.088Z" transform="translate(-261.857 -380.057)"/>
          <path id="Path_19157" data-name="Path 19157" class="cls-18" d="M325.56,377.9a2.467,2.467,0,0,0,.563-.486l-.545,1.468Z" transform="translate(-305.178 -371.357)"/>
        </g>
        <g id="Group_11255" data-name="Group 11255" transform="translate(2.856 63.436)">
          <path id="Path_19158" data-name="Path 19158" class="cls-40" d="M103.878,475.495l-2.878.259-.546-.941,3.035-.55Z" transform="translate(-100.161 -437.219)"/>
          <path id="Path_19159" data-name="Path 19159" class="cls-32" d="M113.137,399.211c-1.182.555.178,3.754.894,5.024,1.093,1.938,1.838,3.017,1.714,5.35a6.7,6.7,0,0,1-2.882,5.538,14.894,14.894,0,0,1-4.495,2.392l.874,1.908c2.961-.182,8.035-3.325,9.917-5.04,3.522-3.21,3.422-8.043.163-11.511C117.8,401.248,115.741,400.918,113.137,399.211Z" transform="translate(-106.093 -380.966)"/>
          <path id="Path_19160" data-name="Path 19160" class="cls-11" d="M100.134,476.056l.2,1.023-.2,3.081a1.842,1.842,0,0,1-.365.7c-.242.242-.485-4.8-.485-4.8Z" transform="translate(-99.285 -438.564)"/>
          <path id="Path_19161" data-name="Path 19161" class="cls-34" d="M128.634,408.968q.122.3.242.6a14.425,14.425,0,0,0,1.54,2.668,11.223,11.223,0,0,1,1.262,2.456c.13-.108.25-.213.359-.312,3.522-3.21,3.422-8.043.163-11.511-1.525-1.623-3.582-1.954-6.186-3.661-1.182.555.178,3.754.894,5.024C127.9,405.993,128.6,407.047,128.634,408.968Z" transform="translate(-118.972 -380.966)"/>
          <path id="Path_19162" data-name="Path 19162" class="cls-40" d="M185.5,511.949l-.656,3.272h-1.041l.178-4.046Z" transform="translate(-162.636 -464.887)"/>
          <path id="Path_19163" data-name="Path 19163" class="cls-32" d="M126.966,401.2c1.259,3.89,5.81,8.31,8.484,11.274,3.66,4.057,4.413,11.043,5.252,16.2h2.262c.445-2.3-.044-7.98-.242-10.042-.435-4.512-2.05-7.628-4.3-11.673-1.21-2.173-1.978-5.387-4.07-6.827C133.112,399.28,126.092,398.028,126.966,401.2Z" transform="translate(-119.976 -380.925)"/>
          <path id="Path_19164" data-name="Path 19164" class="cls-12" d="M170.605,334.192c-.42,2.8,2.276,6.459,3.447,2.624.455-1.49.42-4.1-.374-4.077-1.249.032-2.085-1.121-2.817.478Z" transform="translate(-152.709 -330.865)"/>
          <path id="Path_19165" data-name="Path 19165" class="cls-1" d="M133.262,368a9.568,9.568,0,0,1-6.3-1.7c-2.62-1.606-3.751-.592-6.545-.727,0,0,5.277-10.261,8.4-12.2s4.444-.727,4.444-.727Z" transform="translate(-115.123 -345.786)"/>
          <path id="Path_19166" data-name="Path 19166" class="cls-12" d="M165.357,337.593l-2.111,5.2h2.139l1.14-3.293Z" transform="translate(-147.226 -334.782)"/>
          <path id="Path_19167" data-name="Path 19167" class="cls-32" d="M166.034,330.647c-.126.624.126,1.875,1.038,1.71.631-.113.937-1.112,1.1-1.646.357-1.151.815-.419,1.648-.9.274-.16.313-.5.564-.672.31-.207.624-.1.993-.137.84-.087,1.268-1.1,1.12-1.944-.624-.4-1.2.141-1.853-.133-.581-.242-1.086-.7-1.755-.5-.3.087-.522.375-.777.519a1.83,1.83,0,0,1-1.012.229c-.83.054-1.494.206-1.5,1.1A18.161,18.161,0,0,0,166.034,330.647Z" transform="translate(-148.994 -326.369)"/>
          <path id="Path_19168" data-name="Path 19168" class="cls-11" d="M183.572,527.329h1.041l3.047.5a1.842,1.842,0,0,1,.661.43c.218.264-4.827.023-4.827.023Z" transform="translate(-162.402 -476.994)"/>
          <path id="Path_19169" data-name="Path 19169" class="cls-42" d="M151.921,382.84s.107,3.094,2.12,4.579a12.787,12.787,0,0,0,2.836,1.527v-2.47a7.338,7.338,0,0,1-2.836-1.685c-1.344-1.283-2-1.951-2-1.951Z" transform="translate(-138.737 -368.696)"/>
          <path id="Path_19170" data-name="Path 19170" class="cls-12" d="M190.357,394.266c1.232.56,5.019.351,5.224,1.375.056.28-1.576-.451-2.036-.061-.576.489,1.394,1.183,1.4,1.488,0,.43-1.2-.425-1.674-.534.014.294,1.438.834,1.2,1.11-.209.245-1.056-.369-1.3-.49-.828-.408-1.6-.906-2.406-1.308C190.1,395.519,189.929,395.084,190.357,394.266Z" transform="translate(-167.371 -377.26)"/>
          <path id="Path_19171" data-name="Path 19171" class="cls-1" d="M151.489,363.915c-1.259,2.928-.2,5.027,2.274,6.832,1.6,1.168,8.17,1.928,8.17,1.928v-2.607c-1.829-.5-6.579-1.669-7.308-3.461C154.112,365.344,153.948,360.241,151.489,363.915Z" transform="translate(-138.014 -353.531)"/>
          <path id="Path_19172" data-name="Path 19172" class="cls-18" d="M172.6,351.49a1.052,1.052,0,0,1-.257-.456l-.108,1.512Z" transform="translate(-153.96 -344.856)"/>
        </g>
        <g id="Group_11258" data-name="Group 11258" transform="translate(32.712 77.48)">
          <g id="Group_11256" data-name="Group 11256" transform="translate(0 3.385)">
            <path id="Path_19173" data-name="Path 19173" class="cls-43" d="M219.366,397.714a.881.881,0,1,1,.881-.881A.882.882,0,0,1,219.366,397.714Zm0-1.272a.392.392,0,1,0,.392.392A.392.392,0,0,0,219.366,396.442Z" transform="translate(-218.485 -395.953)"/>
          </g>
          <g id="Group_11257" data-name="Group 11257" transform="translate(2.849 3.385)">
            <path id="Path_19174" data-name="Path 19174" class="cls-43" d="M230.741,397.714a.881.881,0,1,1,.881-.881A.882.882,0,0,1,230.741,397.714Zm0-1.272a.392.392,0,1,0,.392.392A.392.392,0,0,0,230.741,396.442Z" transform="translate(-229.861 -395.953)"/>
          </g>
          <path id="Path_19175" data-name="Path 19175" class="cls-43" d="M223.565,384.041V386.7h.489v-1.516a.359.359,0,0,1,.214-.328l1.717-.759a.306.306,0,0,1,.43.28v2.478h.489v-4.113a.306.306,0,0,0-.435-.278l-2.7,1.247A.359.359,0,0,0,223.565,384.041Z" transform="translate(-222.293 -382.439)"/>
        </g>
        <g id="Group_11259" data-name="Group 11259" transform="translate(15.2 42.308)">
          <path id="Path_19176" data-name="Path 19176" class="cls-44" d="M150.28,243a.243.243,0,0,1-.153-.054,2.044,2.044,0,0,0-1.311-.435.241.241,0,0,1-.247-.242.245.245,0,0,1,.242-.247,2.531,2.531,0,0,1,1.622.543.244.244,0,0,1-.153.435Z" transform="translate(-148.569 -242.019)"/>
        </g>
        <g id="Group_11260" data-name="Group 11260" transform="translate(78.46 38.926)">
          <path id="Path_19177" data-name="Path 19177" class="cls-45" d="M401.133,228.517l11.729,2.028-4.668,1.843Z" transform="translate(-401.133 -228.517)"/>
          <path id="Path_19178" data-name="Path 19178" class="cls-1" d="M401.133,228.517,407.8,234.8l.394-2.411Z" transform="translate(-401.133 -228.517)"/>
          <path id="Path_19179" data-name="Path 19179" class="cls-46" d="M407.8,234.8l-.3-2.062-6.364-4.219Z" transform="translate(-401.133 -228.517)"/>
          <path id="Path_19180" data-name="Path 19180" class="cls-23" d="M407.5,232.736,401.99,234.6l-.857-6.083Z" transform="translate(-401.133 -228.517)"/>
        </g>
        <g id="Group_11262" data-name="Group 11262" transform="translate(0 51.621)">
          <path id="Path_19181" data-name="Path 19181" class="cls-46" d="M99.534,289.221l-.194,1.092,10.559.751Z" transform="translate(-96.47 -286.711)"/>
          <g id="Group_11261" data-name="Group 11261">
            <path id="Path_19182" data-name="Path 19182" class="cls-47" d="M100.459,280.194l2.976-.995,7.3,4.353Z" transform="translate(-97.309 -279.199)"/>
            <path id="Path_19183" data-name="Path 19183" class="cls-1" d="M100.253,283.171l-.043.814-.026.491,10.347,2.053Z" transform="translate(-97.103 -282.176)"/>
            <path id="Path_19184" data-name="Path 19184" class="cls-48" d="M90.637,284.912l10.673,2.922-13.428-1.789Z" transform="translate(-87.882 -283.481)"/>
          </g>
        </g>
        <g id="Group_11263" data-name="Group 11263" transform="translate(69.201 20.912)">
          <path id="Path_19185" data-name="Path 19185" class="cls-46" d="M373.448,164.123l.644-3.729-9.927,2.08Z" transform="translate(-364.164 -159.443)"/>
          <path id="Path_19186" data-name="Path 19186" class="cls-49" d="M375.267,163.809l-11.1,1.224,15.458.784Z" transform="translate(-364.164 -162.003)"/>
          <path id="Path_19187" data-name="Path 19187" class="cls-50" d="M374.092,157.548l-9.927,2.08,7.041-3.031Z" transform="translate(-364.164 -156.596)"/>
        </g>
      </g>
    </g>
    <text id="Hemat_50_" data-name="Hemat 50%" class="cls-51" transform="translate(177 435)"><tspan x="0" y="0">Hemat 50%</tspan></text>
    <text id="Untuk_pulsa_Telkomsel" data-name="Untuk pulsa Telkomsel" class="cls-52" transform="translate(177 453)"><tspan x="0" y="0">Untuk pulsa Telkomsel</tspan></text>
    <g class="cls-57" transform="matrix(1, 0, 0, 1, -2, 371)">
      <g id="Path_19482-2" data-name="Path 19482" class="cls-53" transform="translate(178 94)">
        <path class="cls-55" d="M12,0H116a12,12,0,0,1,0,24H12A12,12,0,0,1,12,0Z"/>
        <path class="cls-56" d="M 12 1 C 9.061798095703125 1 6.299453735351562 2.144199371337891 4.221832275390625 4.221834182739258 C 2.144203186035156 6.299449920654297 1 9.061800003051758 1 12 C 1 14.93819999694824 2.144203186035156 17.7005500793457 4.221832275390625 19.77816772460938 C 6.299453735351562 21.85580062866211 9.061798095703125 23 12 23 L 116 23 C 118.9382019042969 23 121.7005462646484 21.85580062866211 123.7781677246094 19.77816772460938 C 125.8557968139648 17.7005500793457 127 14.93819999694824 127 12 C 127 9.061800003051758 125.8557968139648 6.299449920654297 123.7781677246094 4.221834182739258 C 121.7005462646484 2.144199371337891 118.9382019042969 1 116 1 L 12 1 M 12 0 L 116 0 C 122.6274185180664 0 128 5.372583389282227 128 12 C 128 18.62741661071777 122.6274185180664 24 116 24 L 12 24 C 5.372581481933594 24 0 18.62741661071777 0 12 C 0 5.372583389282227 5.372581481933594 0 12 0 Z"/>
      </g>
    </g>
    <text id="Transaksi_Sekarang" data-name="Transaksi Sekarang" class="cls-54" transform="translate(200 481)"><tspan x="0" y="0">Transaksi Sekarang</tspan></text>
  </g>
</svg>
