<svg xmlns="http://www.w3.org/2000/svg" width="29" height="25.861" viewBox="0 0 29 25.861">
  <g id="Group_11296" data-name="Group 11296" transform="translate(0 -27.277)">
    <path id="Path_19298" data-name="Path 19298" d="M2.266,83H24.922a2.272,2.272,0,0,1,2.266,2.266v2.719a2.272,2.272,0,0,1-2.266,2.266H2.266A2.272,2.272,0,0,1,0,87.984V85.266A2.272,2.272,0,0,1,2.266,83Z" transform="translate(0 -52.517)" fill="#a86a3f"/>
    <path id="Path_19299" data-name="Path 19299" d="M55.482,62.979l14.183-3.761a.91.91,0,0,1,1.11.634l2.356,8.7a.91.91,0,0,1-.634,1.11L54.032,74.579a.91.91,0,0,1-1.11-.634L51.2,67.556Z" transform="translate(-48.255 -30.072)" fill="#3db39e"/>
    <path id="Path_19300" data-name="Path 19300" d="M95.617,102.689l-3.059.816a.445.445,0,1,1-.227-.861l2.628-.7-1.4-5.256-2.628.7a.445.445,0,1,1-.227-.861l3.059-.816a.421.421,0,0,1,.544.317l1.631,6.117A.421.421,0,0,1,95.617,102.689ZM82.93,106.11l-3.059.816a.421.421,0,0,1-.544-.317L77.7,100.492a.421.421,0,0,1,.317-.544l3.059-.816a.445.445,0,0,1,.227.861l-2.628.7,1.4,5.256,2.628-.7a.421.421,0,0,1,.544.317A.439.439,0,0,1,82.93,106.11Z" transform="translate(-73.21 -64.481)" fill="#78cabb"/>
    <path id="Path_19301" data-name="Path 19301" d="M2.779,36.079C6.812,33.768,17.687,27.4,17.687,27.4a.915.915,0,0,1,1.246.317l4.531,7.794a.9.9,0,0,1-.34,1.223L6.54,46.251a.915.915,0,0,1-1.246-.317s-1.269-2.583-2.538-4.758C2.756,36.079,2.779,37.755,2.779,36.079Z" transform="translate(-2.597)" fill="#5abeac"/>
    <path id="Path_19302" data-name="Path 19302" d="M25.208,72.532l-3.172-5.483a.431.431,0,0,0-.612-.159l-2.741,1.586a.447.447,0,0,0,.453.77l2.356-1.359L24.211,72.6l-2.356,1.359a.447.447,0,1,0,.453.77l2.741-1.586A.439.439,0,0,0,25.208,72.532ZM13.2,78.944,10.844,80.3,8.125,75.59l2.356-1.359a.447.447,0,1,0-.453-.77L7.287,75.047a.431.431,0,0,0-.159.612L10.3,81.141a.431.431,0,0,0,.612.159l2.741-1.586a.431.431,0,0,0,.159-.612A.439.439,0,0,0,13.2,78.944Zm1.155-8a3.634,3.634,0,1,0,4.962,1.337A3.63,3.63,0,0,0,14.356,70.946Zm10.852,1.586-3.172-5.483a.431.431,0,0,0-.612-.159l-2.741,1.586a.447.447,0,0,0,.453.77l2.356-1.359L24.211,72.6l-2.356,1.359a.447.447,0,1,0,.453.77l2.741-1.586A.439.439,0,0,0,25.208,72.532ZM13.2,78.944,10.844,80.3,8.125,75.59l2.356-1.359a.447.447,0,1,0-.453-.77L7.287,75.047a.431.431,0,0,0-.159.612L10.3,81.141a.431.431,0,0,0,.612.159l2.741-1.586a.431.431,0,0,0,.159-.612A.439.439,0,0,0,13.2,78.944Zm1.155-8a3.634,3.634,0,1,0,4.962,1.337A3.63,3.63,0,0,0,14.356,70.946Z" transform="translate(-6.653 -37.269)" fill="#8cd2c5"/>
    <path id="Path_19303" data-name="Path 19303" d="M25.828,142.775H2.266A2.272,2.272,0,0,1,0,140.509V124.2H25.828a2.272,2.272,0,0,1,2.266,2.266v14.047A2.272,2.272,0,0,1,25.828,142.775ZM1.813,124.2H0v-1.813A1.818,1.818,0,0,0,1.813,124.2Z" transform="translate(0 -89.636)" fill="#c47e4d"/>
    <path id="Path_19304" data-name="Path 19304" d="M377.013,274.452h-3.625a3.172,3.172,0,1,1,0-6.344h3.625a.909.909,0,0,1,.906.906v4.531A.909.909,0,0,1,377.013,274.452Z" transform="translate(-348.919 -226.977)" fill="#a86a3f"/>
    <path id="Path_19305" data-name="Path 19305" d="M395.659,291.738a1.813,1.813,0,1,1-1.813,1.813A1.818,1.818,0,0,1,395.659,291.738Z" transform="translate(-371.19 -249.248)" fill="#efc75e"/>
    <path id="Path_19306" data-name="Path 19306" d="M396.112,300.106a1.826,1.826,0,0,1-1.5-2.855,1.765,1.765,0,0,0-.77,1.5,1.818,1.818,0,0,0,1.813,1.813,1.887,1.887,0,0,0,1.5-.77A1.827,1.827,0,0,1,396.112,300.106Z" transform="translate(-371.19 -254.443)" fill="#d7b354"/>
    <path id="Path_19307" data-name="Path 19307" d="M25.828,423.973H2.266A2.272,2.272,0,0,1,0,421.707v.906a2.272,2.272,0,0,0,2.266,2.266H25.828a2.272,2.272,0,0,0,2.266-2.266v-.906A2.272,2.272,0,0,1,25.828,423.973Z" transform="translate(0 -371.74)" fill="#b27245"/>
    <path id="Path_19308" data-name="Path 19308" d="M25.828,124.2H1.813A1.818,1.818,0,0,1,0,122.384v.906A1.818,1.818,0,0,0,1.813,125.1H25.828a2.272,2.272,0,0,1,2.266,2.266v-.906A2.272,2.272,0,0,0,25.828,124.2Z" transform="translate(0 -89.636)" fill="#ca8b5f"/>
  </g>
</svg>
